G04 #@! TF.GenerationSoftware,KiCad,Pcbnew,(5.1.7-0-10_14)*
G04 #@! TF.CreationDate,2021-07-16T13:45:34+09:00*
G04 #@! TF.ProjectId,EiMS,45694d53-2e6b-4696-9361-645f70636258,1.0*
G04 #@! TF.SameCoordinates,Original*
G04 #@! TF.FileFunction,Legend,Top*
G04 #@! TF.FilePolarity,Positive*
%FSLAX46Y46*%
G04 Gerber Fmt 4.6, Leading zero omitted, Abs format (unit mm)*
G04 Created by KiCad (PCBNEW (5.1.7-0-10_14)) date 2021-07-16 13:45:34*
%MOMM*%
%LPD*%
G01*
G04 APERTURE LIST*
%ADD10C,0.120000*%
%ADD11C,0.100000*%
%ADD12C,0.010000*%
%ADD13C,0.150000*%
G04 APERTURE END LIST*
D10*
X177738000Y-134822000D02*
X177738000Y-133058000D01*
X177738000Y-126722000D02*
X185179000Y-126722000D01*
X178738000Y-127470000D02*
X178738000Y-128702000D01*
X177738000Y-128486000D02*
X177738000Y-126722000D01*
X185179000Y-134822000D02*
X185179000Y-133058000D01*
X185179000Y-128486000D02*
X185179000Y-126722000D01*
X177738000Y-134822000D02*
X185179000Y-134822000D01*
X205245000Y-133058000D02*
X205245000Y-134822000D01*
X205245000Y-126722000D02*
X205245000Y-128486000D01*
X212738000Y-126722000D02*
X212738000Y-128486000D01*
X212738000Y-126722000D02*
X205245000Y-126722000D01*
X212738000Y-133058000D02*
X212738000Y-134822000D01*
X212738000Y-134822000D02*
X205245000Y-134822000D01*
X178738000Y-132842000D02*
X178738000Y-134074000D01*
X211738000Y-132842000D02*
X211738000Y-134074000D01*
X211738000Y-127470000D02*
X211738000Y-128702000D01*
X177738000Y-99262000D02*
X177738000Y-97498000D01*
X177738000Y-91162000D02*
X185179000Y-91162000D01*
X178738000Y-91910000D02*
X178738000Y-93142000D01*
X177738000Y-92926000D02*
X177738000Y-91162000D01*
X185179000Y-99262000D02*
X185179000Y-97498000D01*
X185179000Y-92926000D02*
X185179000Y-91162000D01*
X177738000Y-99262000D02*
X185179000Y-99262000D01*
X205245000Y-97498000D02*
X205245000Y-99262000D01*
X205245000Y-91162000D02*
X205245000Y-92926000D01*
X212738000Y-91162000D02*
X212738000Y-92926000D01*
X212738000Y-91162000D02*
X205245000Y-91162000D01*
X212738000Y-97498000D02*
X212738000Y-99262000D01*
X212738000Y-99262000D02*
X205245000Y-99262000D01*
X178738000Y-97282000D02*
X178738000Y-98514000D01*
X211738000Y-97282000D02*
X211738000Y-98514000D01*
X211738000Y-91910000D02*
X211738000Y-93142000D01*
D11*
G36*
X84986000Y-74892000D02*
G01*
X84478000Y-74130000D01*
X85494000Y-74130000D01*
X84986000Y-74892000D01*
G37*
X84986000Y-74892000D02*
X84478000Y-74130000D01*
X85494000Y-74130000D01*
X84986000Y-74892000D01*
D10*
X85494000Y-77940000D02*
G75*
G03*
X85494000Y-77940000I-508000J0D01*
G01*
X86256000Y-85052000D02*
X86256000Y-74892000D01*
X50696000Y-85052000D02*
X86256000Y-85052000D01*
X50696000Y-74892000D02*
X50696000Y-85052000D01*
X86256000Y-74892000D02*
X50696000Y-74892000D01*
X105801500Y-116042500D02*
G75*
G03*
X105801500Y-116042500I-508000J0D01*
G01*
D11*
G36*
X104785500Y-112232500D02*
G01*
X105801500Y-112232500D01*
X105293500Y-112994500D01*
X104785500Y-112232500D01*
G37*
X104785500Y-112232500D02*
X105801500Y-112232500D01*
X105293500Y-112994500D01*
X104785500Y-112232500D01*
D10*
X96403500Y-123154500D02*
X106563500Y-123154500D01*
X96403500Y-112994500D02*
X96403500Y-123154500D01*
X106563500Y-112994500D02*
X96403500Y-112994500D01*
X106563500Y-123154500D02*
X106563500Y-112994500D01*
X157300000Y-63200000D02*
X232300000Y-63200000D01*
X232300000Y-63200000D02*
X232300000Y-42200000D01*
X232300000Y-42200000D02*
X157300000Y-42200000D01*
X157300000Y-42200000D02*
X157300000Y-63200000D01*
X171129100Y-52700000D02*
G75*
G03*
X171129100Y-52700000I-3250000J0D01*
G01*
X224964400Y-52700000D02*
G75*
G03*
X224964400Y-52700000I-3250000J0D01*
G01*
X100370000Y-79140000D02*
X97430000Y-79140000D01*
X100370000Y-79380000D02*
X97430000Y-79380000D01*
X100370000Y-79260000D02*
X97430000Y-79260000D01*
X98900000Y-85020000D02*
X98900000Y-83800000D01*
X98900000Y-77140000D02*
X98900000Y-78360000D01*
X100370000Y-83800000D02*
X100370000Y-78360000D01*
X97430000Y-83800000D02*
X100370000Y-83800000D01*
X97430000Y-78360000D02*
X97430000Y-83800000D01*
X100370000Y-78360000D02*
X97430000Y-78360000D01*
X95170000Y-79140000D02*
X92230000Y-79140000D01*
X95170000Y-79380000D02*
X92230000Y-79380000D01*
X95170000Y-79260000D02*
X92230000Y-79260000D01*
X93700000Y-85020000D02*
X93700000Y-83800000D01*
X93700000Y-77140000D02*
X93700000Y-78360000D01*
X95170000Y-83800000D02*
X95170000Y-78360000D01*
X92230000Y-83800000D02*
X95170000Y-83800000D01*
X92230000Y-78360000D02*
X92230000Y-83800000D01*
X95170000Y-78360000D02*
X92230000Y-78360000D01*
D11*
G36*
X50730000Y-97700000D02*
G01*
X49968000Y-98208000D01*
X49968000Y-97192000D01*
X50730000Y-97700000D01*
G37*
X50730000Y-97700000D02*
X49968000Y-98208000D01*
X49968000Y-97192000D01*
X50730000Y-97700000D01*
D10*
X86290000Y-96684000D02*
X50730000Y-96684000D01*
X86290000Y-146976000D02*
X86290000Y-96684000D01*
X50730000Y-146976000D02*
X86290000Y-146976000D01*
X50730000Y-96684000D02*
X50730000Y-146976000D01*
X54286000Y-97700000D02*
G75*
G03*
X54286000Y-97700000I-508000J0D01*
G01*
X119012000Y-130772000D02*
G75*
G03*
X119012000Y-130772000I-508000J0D01*
G01*
D11*
G36*
X113678000Y-131280000D02*
G01*
X113678000Y-130264000D01*
X114440000Y-130772000D01*
X113678000Y-131280000D01*
G37*
X113678000Y-131280000D02*
X113678000Y-130264000D01*
X114440000Y-130772000D01*
X113678000Y-131280000D01*
D10*
X172476000Y-119852000D02*
X172476000Y-151852000D01*
X114476000Y-151852000D02*
X172476000Y-151852000D01*
X114476000Y-119852000D02*
X172476000Y-119852000D01*
X114476000Y-119852000D02*
X114476000Y-151852000D01*
X119012000Y-95212000D02*
G75*
G03*
X119012000Y-95212000I-508000J0D01*
G01*
D11*
G36*
X113678000Y-95720000D02*
G01*
X113678000Y-94704000D01*
X114440000Y-95212000D01*
X113678000Y-95720000D01*
G37*
X113678000Y-95720000D02*
X113678000Y-94704000D01*
X114440000Y-95212000D01*
X113678000Y-95720000D01*
D10*
X172476000Y-84292000D02*
X172476000Y-116292000D01*
X114476000Y-116292000D02*
X172476000Y-116292000D01*
X114476000Y-84292000D02*
X172476000Y-84292000D01*
X114476000Y-84292000D02*
X114476000Y-116292000D01*
D12*
G36*
X86347272Y-45987306D02*
G01*
X86650095Y-46018896D01*
X86847125Y-46050577D01*
X86959423Y-46088503D01*
X87008051Y-46138826D01*
X87015500Y-46182529D01*
X86979456Y-46238325D01*
X86857099Y-46266724D01*
X86668469Y-46273500D01*
X86483390Y-46287725D01*
X86203928Y-46326712D01*
X85859033Y-46384931D01*
X85477656Y-46456850D01*
X85088747Y-46536938D01*
X84721258Y-46619664D01*
X84404139Y-46699496D01*
X84328026Y-46720659D01*
X84085302Y-46790008D01*
X84122015Y-47182629D01*
X84133163Y-47423735D01*
X84132111Y-47738766D01*
X84119476Y-48075296D01*
X84109702Y-48226125D01*
X84092889Y-48495809D01*
X84086138Y-48710983D01*
X84089867Y-48845247D01*
X84099397Y-48877000D01*
X84175858Y-48857845D01*
X84334115Y-48808232D01*
X84491876Y-48755289D01*
X84989386Y-48609883D01*
X85508153Y-48503907D01*
X86019683Y-48439983D01*
X86495483Y-48420738D01*
X86907061Y-48448797D01*
X87174250Y-48508152D01*
X87338153Y-48574693D01*
X87411466Y-48653290D01*
X87428250Y-48779387D01*
X87408585Y-48911044D01*
X87326812Y-48995670D01*
X87188700Y-49058144D01*
X86996381Y-49111611D01*
X86901024Y-49090799D01*
X86906345Y-48997419D01*
X86936353Y-48941957D01*
X86973811Y-48865773D01*
X86938152Y-48839945D01*
X86805275Y-48851588D01*
X86775199Y-48855809D01*
X86614952Y-48884888D01*
X86368565Y-48937158D01*
X86059446Y-49006919D01*
X85711001Y-49088471D01*
X85346639Y-49176115D01*
X84989767Y-49264151D01*
X84663792Y-49346879D01*
X84392121Y-49418599D01*
X84198163Y-49473613D01*
X84106316Y-49505676D01*
X84058920Y-49552904D01*
X84017465Y-49651173D01*
X83977920Y-49818381D01*
X83936254Y-50072428D01*
X83888437Y-50431212D01*
X83876862Y-50524593D01*
X83838184Y-50859388D01*
X83809463Y-51147929D01*
X83792590Y-51367565D01*
X83789457Y-51495649D01*
X83793846Y-51518513D01*
X83866015Y-51516438D01*
X84028549Y-51480922D01*
X84251423Y-51418960D01*
X84345416Y-51390022D01*
X84970191Y-51223700D01*
X85600107Y-51123746D01*
X86276816Y-51081457D01*
X86553932Y-51078197D01*
X86731590Y-51087669D01*
X86837053Y-51114215D01*
X86897584Y-51162177D01*
X86911816Y-51182594D01*
X86935828Y-51304632D01*
X86855403Y-51395384D01*
X86691899Y-51441013D01*
X86520102Y-51436337D01*
X86338206Y-51435214D01*
X86058618Y-51462040D01*
X85706456Y-51512419D01*
X85306840Y-51581953D01*
X84884890Y-51666244D01*
X84465724Y-51760897D01*
X84074461Y-51861514D01*
X84046206Y-51869384D01*
X83657797Y-51971552D01*
X83370923Y-52029639D01*
X83168552Y-52045072D01*
X83033653Y-52019276D01*
X82954868Y-51960809D01*
X82920054Y-51831872D01*
X82980413Y-51684206D01*
X83118308Y-51557415D01*
X83140024Y-51545057D01*
X83189853Y-51506988D01*
X83225044Y-51440916D01*
X83248863Y-51325538D01*
X83264576Y-51139554D01*
X83275449Y-50861662D01*
X83281443Y-50622745D01*
X83285989Y-50309527D01*
X83285005Y-50047653D01*
X83278944Y-49860242D01*
X83268261Y-49770416D01*
X83264650Y-49765893D01*
X83187985Y-49782625D01*
X83031255Y-49825324D01*
X82914096Y-49859382D01*
X82662809Y-49916500D01*
X82370755Y-49958581D01*
X82219946Y-49970507D01*
X82008368Y-49976253D01*
X81894085Y-49962651D01*
X81847866Y-49921291D01*
X81840250Y-49861250D01*
X81888240Y-49751762D01*
X81999000Y-49713344D01*
X82124065Y-49679534D01*
X82330918Y-49605667D01*
X82585750Y-49504286D01*
X82745715Y-49436297D01*
X83040475Y-49300494D01*
X83230922Y-49193146D01*
X83333617Y-49103731D01*
X83362538Y-49044452D01*
X83378126Y-48939535D01*
X83401484Y-48744016D01*
X83430048Y-48483708D01*
X83461254Y-48184425D01*
X83492538Y-47871979D01*
X83521335Y-47572186D01*
X83545082Y-47310858D01*
X83561213Y-47113808D01*
X83567165Y-47006851D01*
X83566117Y-46995073D01*
X83506342Y-47009705D01*
X83371476Y-47058761D01*
X83323616Y-47077667D01*
X83172464Y-47153547D01*
X83119910Y-47232916D01*
X83127094Y-47302859D01*
X83137983Y-47391384D01*
X83082677Y-47408258D01*
X82977227Y-47382926D01*
X82790194Y-47347114D01*
X82565690Y-47325883D01*
X82524518Y-47324412D01*
X82304824Y-47291216D01*
X82174478Y-47218824D01*
X82139200Y-47129753D01*
X82204709Y-47046519D01*
X82376727Y-46991641D01*
X82438267Y-46984897D01*
X82586864Y-46951753D01*
X82807055Y-46877156D01*
X83056515Y-46775794D01*
X83111113Y-46751366D01*
X83364148Y-46628402D01*
X83523627Y-46527568D01*
X83615871Y-46429064D01*
X83658641Y-46339505D01*
X83749349Y-46196225D01*
X83868548Y-46144885D01*
X83981344Y-46195311D01*
X84013300Y-46239617D01*
X84057547Y-46285952D01*
X84138024Y-46294102D01*
X84285108Y-46262156D01*
X84453689Y-46211890D01*
X84915639Y-46096071D01*
X85420900Y-46015902D01*
X85916653Y-45977646D01*
X86347272Y-45987306D01*
G37*
X86347272Y-45987306D02*
X86650095Y-46018896D01*
X86847125Y-46050577D01*
X86959423Y-46088503D01*
X87008051Y-46138826D01*
X87015500Y-46182529D01*
X86979456Y-46238325D01*
X86857099Y-46266724D01*
X86668469Y-46273500D01*
X86483390Y-46287725D01*
X86203928Y-46326712D01*
X85859033Y-46384931D01*
X85477656Y-46456850D01*
X85088747Y-46536938D01*
X84721258Y-46619664D01*
X84404139Y-46699496D01*
X84328026Y-46720659D01*
X84085302Y-46790008D01*
X84122015Y-47182629D01*
X84133163Y-47423735D01*
X84132111Y-47738766D01*
X84119476Y-48075296D01*
X84109702Y-48226125D01*
X84092889Y-48495809D01*
X84086138Y-48710983D01*
X84089867Y-48845247D01*
X84099397Y-48877000D01*
X84175858Y-48857845D01*
X84334115Y-48808232D01*
X84491876Y-48755289D01*
X84989386Y-48609883D01*
X85508153Y-48503907D01*
X86019683Y-48439983D01*
X86495483Y-48420738D01*
X86907061Y-48448797D01*
X87174250Y-48508152D01*
X87338153Y-48574693D01*
X87411466Y-48653290D01*
X87428250Y-48779387D01*
X87408585Y-48911044D01*
X87326812Y-48995670D01*
X87188700Y-49058144D01*
X86996381Y-49111611D01*
X86901024Y-49090799D01*
X86906345Y-48997419D01*
X86936353Y-48941957D01*
X86973811Y-48865773D01*
X86938152Y-48839945D01*
X86805275Y-48851588D01*
X86775199Y-48855809D01*
X86614952Y-48884888D01*
X86368565Y-48937158D01*
X86059446Y-49006919D01*
X85711001Y-49088471D01*
X85346639Y-49176115D01*
X84989767Y-49264151D01*
X84663792Y-49346879D01*
X84392121Y-49418599D01*
X84198163Y-49473613D01*
X84106316Y-49505676D01*
X84058920Y-49552904D01*
X84017465Y-49651173D01*
X83977920Y-49818381D01*
X83936254Y-50072428D01*
X83888437Y-50431212D01*
X83876862Y-50524593D01*
X83838184Y-50859388D01*
X83809463Y-51147929D01*
X83792590Y-51367565D01*
X83789457Y-51495649D01*
X83793846Y-51518513D01*
X83866015Y-51516438D01*
X84028549Y-51480922D01*
X84251423Y-51418960D01*
X84345416Y-51390022D01*
X84970191Y-51223700D01*
X85600107Y-51123746D01*
X86276816Y-51081457D01*
X86553932Y-51078197D01*
X86731590Y-51087669D01*
X86837053Y-51114215D01*
X86897584Y-51162177D01*
X86911816Y-51182594D01*
X86935828Y-51304632D01*
X86855403Y-51395384D01*
X86691899Y-51441013D01*
X86520102Y-51436337D01*
X86338206Y-51435214D01*
X86058618Y-51462040D01*
X85706456Y-51512419D01*
X85306840Y-51581953D01*
X84884890Y-51666244D01*
X84465724Y-51760897D01*
X84074461Y-51861514D01*
X84046206Y-51869384D01*
X83657797Y-51971552D01*
X83370923Y-52029639D01*
X83168552Y-52045072D01*
X83033653Y-52019276D01*
X82954868Y-51960809D01*
X82920054Y-51831872D01*
X82980413Y-51684206D01*
X83118308Y-51557415D01*
X83140024Y-51545057D01*
X83189853Y-51506988D01*
X83225044Y-51440916D01*
X83248863Y-51325538D01*
X83264576Y-51139554D01*
X83275449Y-50861662D01*
X83281443Y-50622745D01*
X83285989Y-50309527D01*
X83285005Y-50047653D01*
X83278944Y-49860242D01*
X83268261Y-49770416D01*
X83264650Y-49765893D01*
X83187985Y-49782625D01*
X83031255Y-49825324D01*
X82914096Y-49859382D01*
X82662809Y-49916500D01*
X82370755Y-49958581D01*
X82219946Y-49970507D01*
X82008368Y-49976253D01*
X81894085Y-49962651D01*
X81847866Y-49921291D01*
X81840250Y-49861250D01*
X81888240Y-49751762D01*
X81999000Y-49713344D01*
X82124065Y-49679534D01*
X82330918Y-49605667D01*
X82585750Y-49504286D01*
X82745715Y-49436297D01*
X83040475Y-49300494D01*
X83230922Y-49193146D01*
X83333617Y-49103731D01*
X83362538Y-49044452D01*
X83378126Y-48939535D01*
X83401484Y-48744016D01*
X83430048Y-48483708D01*
X83461254Y-48184425D01*
X83492538Y-47871979D01*
X83521335Y-47572186D01*
X83545082Y-47310858D01*
X83561213Y-47113808D01*
X83567165Y-47006851D01*
X83566117Y-46995073D01*
X83506342Y-47009705D01*
X83371476Y-47058761D01*
X83323616Y-47077667D01*
X83172464Y-47153547D01*
X83119910Y-47232916D01*
X83127094Y-47302859D01*
X83137983Y-47391384D01*
X83082677Y-47408258D01*
X82977227Y-47382926D01*
X82790194Y-47347114D01*
X82565690Y-47325883D01*
X82524518Y-47324412D01*
X82304824Y-47291216D01*
X82174478Y-47218824D01*
X82139200Y-47129753D01*
X82204709Y-47046519D01*
X82376727Y-46991641D01*
X82438267Y-46984897D01*
X82586864Y-46951753D01*
X82807055Y-46877156D01*
X83056515Y-46775794D01*
X83111113Y-46751366D01*
X83364148Y-46628402D01*
X83523627Y-46527568D01*
X83615871Y-46429064D01*
X83658641Y-46339505D01*
X83749349Y-46196225D01*
X83868548Y-46144885D01*
X83981344Y-46195311D01*
X84013300Y-46239617D01*
X84057547Y-46285952D01*
X84138024Y-46294102D01*
X84285108Y-46262156D01*
X84453689Y-46211890D01*
X84915639Y-46096071D01*
X85420900Y-46015902D01*
X85916653Y-45977646D01*
X86347272Y-45987306D01*
G36*
X88378087Y-49414918D02*
G01*
X88392905Y-49423472D01*
X88434299Y-49460970D01*
X88465983Y-49527861D01*
X88490184Y-49641943D01*
X88509127Y-49821011D01*
X88525040Y-50082863D01*
X88540149Y-50445295D01*
X88547821Y-50661722D01*
X88561166Y-51106277D01*
X88564960Y-51439706D01*
X88556856Y-51677679D01*
X88534506Y-51835867D01*
X88495561Y-51929938D01*
X88437674Y-51975564D01*
X88358495Y-51988414D01*
X88349000Y-51988500D01*
X88217900Y-51946719D01*
X88174800Y-51909125D01*
X88124257Y-51778442D01*
X88086293Y-51544330D01*
X88062368Y-51229873D01*
X88053944Y-50858153D01*
X88062483Y-50452255D01*
X88071491Y-50276927D01*
X88102947Y-49891392D01*
X88145527Y-49622536D01*
X88203038Y-49460245D01*
X88279289Y-49394410D01*
X88378087Y-49414918D01*
G37*
X88378087Y-49414918D02*
X88392905Y-49423472D01*
X88434299Y-49460970D01*
X88465983Y-49527861D01*
X88490184Y-49641943D01*
X88509127Y-49821011D01*
X88525040Y-50082863D01*
X88540149Y-50445295D01*
X88547821Y-50661722D01*
X88561166Y-51106277D01*
X88564960Y-51439706D01*
X88556856Y-51677679D01*
X88534506Y-51835867D01*
X88495561Y-51929938D01*
X88437674Y-51975564D01*
X88358495Y-51988414D01*
X88349000Y-51988500D01*
X88217900Y-51946719D01*
X88174800Y-51909125D01*
X88124257Y-51778442D01*
X88086293Y-51544330D01*
X88062368Y-51229873D01*
X88053944Y-50858153D01*
X88062483Y-50452255D01*
X88071491Y-50276927D01*
X88102947Y-49891392D01*
X88145527Y-49622536D01*
X88203038Y-49460245D01*
X88279289Y-49394410D01*
X88378087Y-49414918D01*
G36*
X93776350Y-45476464D02*
G01*
X93850078Y-45563313D01*
X93813631Y-45710731D01*
X93688452Y-45895216D01*
X93487338Y-46145475D01*
X93485295Y-47685862D01*
X93485898Y-48195658D01*
X93490379Y-48605045D01*
X93500480Y-48940596D01*
X93517943Y-49228886D01*
X93544511Y-49496487D01*
X93581926Y-49769973D01*
X93631931Y-50075917D01*
X93648135Y-50169358D01*
X93716723Y-50537659D01*
X93790827Y-50895636D01*
X93862731Y-51208416D01*
X93924726Y-51441127D01*
X93940268Y-51490201D01*
X94001273Y-51696687D01*
X94032913Y-51856727D01*
X94030261Y-51928217D01*
X93940316Y-51986788D01*
X93816428Y-51924821D01*
X93657533Y-51741740D01*
X93641000Y-51718625D01*
X93514896Y-51524579D01*
X93410020Y-51321437D01*
X93316848Y-51083233D01*
X93225855Y-50784007D01*
X93127518Y-50397795D01*
X93075876Y-50178070D01*
X92937922Y-49347923D01*
X92891172Y-48468777D01*
X92937736Y-47582135D01*
X92941972Y-47543500D01*
X92988263Y-47130750D01*
X92663530Y-47728923D01*
X92487316Y-48041764D01*
X92290502Y-48372864D01*
X92105223Y-48668751D01*
X92033830Y-48776673D01*
X91870879Y-49005364D01*
X91681218Y-49253819D01*
X91483671Y-49499457D01*
X91297059Y-49719700D01*
X91140204Y-49891968D01*
X91031929Y-49993681D01*
X91005935Y-50009751D01*
X90953518Y-49968127D01*
X90872571Y-49838262D01*
X90793544Y-49676376D01*
X90708792Y-49490448D01*
X90645487Y-49362170D01*
X90619925Y-49322033D01*
X90610812Y-49381098D01*
X90600170Y-49539136D01*
X90589677Y-49768162D01*
X90584728Y-49909408D01*
X90566566Y-50245881D01*
X90534388Y-50611023D01*
X90492034Y-50976838D01*
X90443343Y-51315334D01*
X90392158Y-51598518D01*
X90342317Y-51798396D01*
X90316720Y-51862956D01*
X90207848Y-51964100D01*
X90115815Y-51988500D01*
X90052296Y-51981848D01*
X90015402Y-51945487D01*
X90000935Y-51854805D01*
X90004696Y-51685188D01*
X90021022Y-51432875D01*
X90032638Y-51232347D01*
X90047267Y-50925127D01*
X90064093Y-50531464D01*
X90082303Y-50071605D01*
X90101080Y-49565802D01*
X90119609Y-49034302D01*
X90129022Y-48750000D01*
X90147203Y-48241431D01*
X90167150Y-47772872D01*
X90187967Y-47359563D01*
X90208756Y-47016744D01*
X90228620Y-46759656D01*
X90246662Y-46603540D01*
X90257799Y-46562424D01*
X90321482Y-46529857D01*
X90377537Y-46578943D01*
X90430182Y-46720988D01*
X90483637Y-46967301D01*
X90540948Y-47321250D01*
X90668853Y-48105240D01*
X90802958Y-48767186D01*
X90925980Y-49249510D01*
X91023841Y-49590270D01*
X91175128Y-49448144D01*
X91268769Y-49334476D01*
X91409292Y-49131797D01*
X91582930Y-48862682D01*
X91775915Y-48549702D01*
X91974481Y-48215430D01*
X92164861Y-47882439D01*
X92333289Y-47573302D01*
X92413893Y-47417017D01*
X92554232Y-47150289D01*
X92726160Y-46841511D01*
X92893316Y-46555927D01*
X92898958Y-46546618D01*
X93034710Y-46305919D01*
X93145013Y-46078951D01*
X93210139Y-45907141D01*
X93216736Y-45879350D01*
X93275973Y-45645013D01*
X93357047Y-45512302D01*
X93482032Y-45455841D01*
X93591977Y-45447999D01*
X93776350Y-45476464D01*
G37*
X93776350Y-45476464D02*
X93850078Y-45563313D01*
X93813631Y-45710731D01*
X93688452Y-45895216D01*
X93487338Y-46145475D01*
X93485295Y-47685862D01*
X93485898Y-48195658D01*
X93490379Y-48605045D01*
X93500480Y-48940596D01*
X93517943Y-49228886D01*
X93544511Y-49496487D01*
X93581926Y-49769973D01*
X93631931Y-50075917D01*
X93648135Y-50169358D01*
X93716723Y-50537659D01*
X93790827Y-50895636D01*
X93862731Y-51208416D01*
X93924726Y-51441127D01*
X93940268Y-51490201D01*
X94001273Y-51696687D01*
X94032913Y-51856727D01*
X94030261Y-51928217D01*
X93940316Y-51986788D01*
X93816428Y-51924821D01*
X93657533Y-51741740D01*
X93641000Y-51718625D01*
X93514896Y-51524579D01*
X93410020Y-51321437D01*
X93316848Y-51083233D01*
X93225855Y-50784007D01*
X93127518Y-50397795D01*
X93075876Y-50178070D01*
X92937922Y-49347923D01*
X92891172Y-48468777D01*
X92937736Y-47582135D01*
X92941972Y-47543500D01*
X92988263Y-47130750D01*
X92663530Y-47728923D01*
X92487316Y-48041764D01*
X92290502Y-48372864D01*
X92105223Y-48668751D01*
X92033830Y-48776673D01*
X91870879Y-49005364D01*
X91681218Y-49253819D01*
X91483671Y-49499457D01*
X91297059Y-49719700D01*
X91140204Y-49891968D01*
X91031929Y-49993681D01*
X91005935Y-50009751D01*
X90953518Y-49968127D01*
X90872571Y-49838262D01*
X90793544Y-49676376D01*
X90708792Y-49490448D01*
X90645487Y-49362170D01*
X90619925Y-49322033D01*
X90610812Y-49381098D01*
X90600170Y-49539136D01*
X90589677Y-49768162D01*
X90584728Y-49909408D01*
X90566566Y-50245881D01*
X90534388Y-50611023D01*
X90492034Y-50976838D01*
X90443343Y-51315334D01*
X90392158Y-51598518D01*
X90342317Y-51798396D01*
X90316720Y-51862956D01*
X90207848Y-51964100D01*
X90115815Y-51988500D01*
X90052296Y-51981848D01*
X90015402Y-51945487D01*
X90000935Y-51854805D01*
X90004696Y-51685188D01*
X90021022Y-51432875D01*
X90032638Y-51232347D01*
X90047267Y-50925127D01*
X90064093Y-50531464D01*
X90082303Y-50071605D01*
X90101080Y-49565802D01*
X90119609Y-49034302D01*
X90129022Y-48750000D01*
X90147203Y-48241431D01*
X90167150Y-47772872D01*
X90187967Y-47359563D01*
X90208756Y-47016744D01*
X90228620Y-46759656D01*
X90246662Y-46603540D01*
X90257799Y-46562424D01*
X90321482Y-46529857D01*
X90377537Y-46578943D01*
X90430182Y-46720988D01*
X90483637Y-46967301D01*
X90540948Y-47321250D01*
X90668853Y-48105240D01*
X90802958Y-48767186D01*
X90925980Y-49249510D01*
X91023841Y-49590270D01*
X91175128Y-49448144D01*
X91268769Y-49334476D01*
X91409292Y-49131797D01*
X91582930Y-48862682D01*
X91775915Y-48549702D01*
X91974481Y-48215430D01*
X92164861Y-47882439D01*
X92333289Y-47573302D01*
X92413893Y-47417017D01*
X92554232Y-47150289D01*
X92726160Y-46841511D01*
X92893316Y-46555927D01*
X92898958Y-46546618D01*
X93034710Y-46305919D01*
X93145013Y-46078951D01*
X93210139Y-45907141D01*
X93216736Y-45879350D01*
X93275973Y-45645013D01*
X93357047Y-45512302D01*
X93482032Y-45455841D01*
X93591977Y-45447999D01*
X93776350Y-45476464D01*
G36*
X97792752Y-45784614D02*
G01*
X97966177Y-45879755D01*
X98028004Y-46027028D01*
X97975214Y-46217188D01*
X97804787Y-46440992D01*
X97752972Y-46492156D01*
X97608271Y-46608552D01*
X97514972Y-46628271D01*
X97486090Y-46609490D01*
X97461999Y-46525632D01*
X97527628Y-46391568D01*
X97561373Y-46343989D01*
X97643756Y-46208566D01*
X97668046Y-46116116D01*
X97662343Y-46104177D01*
X97582430Y-46097647D01*
X97423108Y-46127294D01*
X97285854Y-46166036D01*
X96999537Y-46295588D01*
X96687384Y-46500253D01*
X96372739Y-46757382D01*
X96078948Y-47044327D01*
X95829355Y-47338440D01*
X95647305Y-47617071D01*
X95559389Y-47840988D01*
X95551721Y-47999751D01*
X95613592Y-48130822D01*
X95759320Y-48245810D01*
X96003225Y-48356323D01*
X96328595Y-48464617D01*
X96944103Y-48685485D01*
X97442444Y-48938428D01*
X97822339Y-49221841D01*
X98082507Y-49534120D01*
X98221669Y-49873660D01*
X98238544Y-50238857D01*
X98131853Y-50628106D01*
X98104256Y-50690310D01*
X97901689Y-51012111D01*
X97621328Y-51300454D01*
X97286269Y-51544617D01*
X96919602Y-51733878D01*
X96544422Y-51857513D01*
X96183821Y-51904800D01*
X95860892Y-51865018D01*
X95708628Y-51802643D01*
X95446399Y-51599771D01*
X95296041Y-51341719D01*
X95259153Y-51090884D01*
X95285119Y-50866416D01*
X95346219Y-50737241D01*
X95428400Y-50711997D01*
X95517608Y-50799323D01*
X95566015Y-50902253D01*
X95707314Y-51110792D01*
X95929623Y-51247776D01*
X96204574Y-51306187D01*
X96503796Y-51279005D01*
X96738693Y-51192394D01*
X97146506Y-50946141D01*
X97453592Y-50678867D01*
X97655324Y-50399771D01*
X97747076Y-50118048D01*
X97724221Y-49842894D01*
X97582131Y-49583506D01*
X97560830Y-49558383D01*
X97325336Y-49356684D01*
X96988024Y-49161542D01*
X96573921Y-48985709D01*
X96205452Y-48867869D01*
X95863296Y-48763829D01*
X95615566Y-48663070D01*
X95431053Y-48550287D01*
X95283860Y-48415889D01*
X95128371Y-48166381D01*
X95094726Y-47881285D01*
X95182933Y-47560578D01*
X95393001Y-47204236D01*
X95724938Y-46812236D01*
X95927439Y-46611515D01*
X96370709Y-46229962D01*
X96775759Y-45962268D01*
X97150679Y-45804036D01*
X97503557Y-45750868D01*
X97510750Y-45750846D01*
X97792752Y-45784614D01*
G37*
X97792752Y-45784614D02*
X97966177Y-45879755D01*
X98028004Y-46027028D01*
X97975214Y-46217188D01*
X97804787Y-46440992D01*
X97752972Y-46492156D01*
X97608271Y-46608552D01*
X97514972Y-46628271D01*
X97486090Y-46609490D01*
X97461999Y-46525632D01*
X97527628Y-46391568D01*
X97561373Y-46343989D01*
X97643756Y-46208566D01*
X97668046Y-46116116D01*
X97662343Y-46104177D01*
X97582430Y-46097647D01*
X97423108Y-46127294D01*
X97285854Y-46166036D01*
X96999537Y-46295588D01*
X96687384Y-46500253D01*
X96372739Y-46757382D01*
X96078948Y-47044327D01*
X95829355Y-47338440D01*
X95647305Y-47617071D01*
X95559389Y-47840988D01*
X95551721Y-47999751D01*
X95613592Y-48130822D01*
X95759320Y-48245810D01*
X96003225Y-48356323D01*
X96328595Y-48464617D01*
X96944103Y-48685485D01*
X97442444Y-48938428D01*
X97822339Y-49221841D01*
X98082507Y-49534120D01*
X98221669Y-49873660D01*
X98238544Y-50238857D01*
X98131853Y-50628106D01*
X98104256Y-50690310D01*
X97901689Y-51012111D01*
X97621328Y-51300454D01*
X97286269Y-51544617D01*
X96919602Y-51733878D01*
X96544422Y-51857513D01*
X96183821Y-51904800D01*
X95860892Y-51865018D01*
X95708628Y-51802643D01*
X95446399Y-51599771D01*
X95296041Y-51341719D01*
X95259153Y-51090884D01*
X95285119Y-50866416D01*
X95346219Y-50737241D01*
X95428400Y-50711997D01*
X95517608Y-50799323D01*
X95566015Y-50902253D01*
X95707314Y-51110792D01*
X95929623Y-51247776D01*
X96204574Y-51306187D01*
X96503796Y-51279005D01*
X96738693Y-51192394D01*
X97146506Y-50946141D01*
X97453592Y-50678867D01*
X97655324Y-50399771D01*
X97747076Y-50118048D01*
X97724221Y-49842894D01*
X97582131Y-49583506D01*
X97560830Y-49558383D01*
X97325336Y-49356684D01*
X96988024Y-49161542D01*
X96573921Y-48985709D01*
X96205452Y-48867869D01*
X95863296Y-48763829D01*
X95615566Y-48663070D01*
X95431053Y-48550287D01*
X95283860Y-48415889D01*
X95128371Y-48166381D01*
X95094726Y-47881285D01*
X95182933Y-47560578D01*
X95393001Y-47204236D01*
X95724938Y-46812236D01*
X95927439Y-46611515D01*
X96370709Y-46229962D01*
X96775759Y-45962268D01*
X97150679Y-45804036D01*
X97503557Y-45750868D01*
X97510750Y-45750846D01*
X97792752Y-45784614D01*
G36*
X88303619Y-47936252D02*
G01*
X88379286Y-47959207D01*
X88424093Y-48020643D01*
X88448414Y-48149756D01*
X88462623Y-48375741D01*
X88463026Y-48384875D01*
X88467632Y-48621476D01*
X88452960Y-48755161D01*
X88415144Y-48809076D01*
X88391426Y-48813500D01*
X88274757Y-48768658D01*
X88230152Y-48728072D01*
X88149848Y-48561529D01*
X88107599Y-48335730D01*
X88114291Y-48115478D01*
X88121524Y-48081463D01*
X88181505Y-47958647D01*
X88292804Y-47934865D01*
X88303619Y-47936252D01*
G37*
X88303619Y-47936252D02*
X88379286Y-47959207D01*
X88424093Y-48020643D01*
X88448414Y-48149756D01*
X88462623Y-48375741D01*
X88463026Y-48384875D01*
X88467632Y-48621476D01*
X88452960Y-48755161D01*
X88415144Y-48809076D01*
X88391426Y-48813500D01*
X88274757Y-48768658D01*
X88230152Y-48728072D01*
X88149848Y-48561529D01*
X88107599Y-48335730D01*
X88114291Y-48115478D01*
X88121524Y-48081463D01*
X88181505Y-47958647D01*
X88292804Y-47934865D01*
X88303619Y-47936252D01*
D10*
X242964000Y-144682000D02*
X242964000Y-137182000D01*
X242964000Y-137182000D02*
X229464000Y-137182000D01*
X229464000Y-137182000D02*
X229464000Y-144682000D01*
X229464000Y-144682000D02*
X242964000Y-144682000D01*
X50626000Y-64562000D02*
X65986000Y-64562000D01*
X65986000Y-64562000D02*
X65986000Y-61902000D01*
X65986000Y-61902000D02*
X50626000Y-61902000D01*
X50626000Y-61902000D02*
X50626000Y-64562000D01*
X51576000Y-61902000D02*
X51576000Y-55902000D01*
X51576000Y-55902000D02*
X52336000Y-55902000D01*
X52336000Y-55902000D02*
X52336000Y-61902000D01*
X51636000Y-61902000D02*
X51636000Y-55902000D01*
X51756000Y-61902000D02*
X51756000Y-55902000D01*
X51876000Y-61902000D02*
X51876000Y-55902000D01*
X51996000Y-61902000D02*
X51996000Y-55902000D01*
X52116000Y-61902000D02*
X52116000Y-55902000D01*
X52236000Y-61902000D02*
X52236000Y-55902000D01*
X51576000Y-64892000D02*
X51576000Y-64562000D01*
X52336000Y-64892000D02*
X52336000Y-64562000D01*
X53226000Y-64562000D02*
X53226000Y-61902000D01*
X54116000Y-61902000D02*
X54116000Y-55902000D01*
X54116000Y-55902000D02*
X54876000Y-55902000D01*
X54876000Y-55902000D02*
X54876000Y-61902000D01*
X54116000Y-64959071D02*
X54116000Y-64562000D01*
X54876000Y-64959071D02*
X54876000Y-64562000D01*
X55766000Y-64562000D02*
X55766000Y-61902000D01*
X56656000Y-61902000D02*
X56656000Y-55902000D01*
X56656000Y-55902000D02*
X57416000Y-55902000D01*
X57416000Y-55902000D02*
X57416000Y-61902000D01*
X56656000Y-64959071D02*
X56656000Y-64562000D01*
X57416000Y-64959071D02*
X57416000Y-64562000D01*
X58306000Y-64562000D02*
X58306000Y-61902000D01*
X59196000Y-61902000D02*
X59196000Y-55902000D01*
X59196000Y-55902000D02*
X59956000Y-55902000D01*
X59956000Y-55902000D02*
X59956000Y-61902000D01*
X59196000Y-64959071D02*
X59196000Y-64562000D01*
X59956000Y-64959071D02*
X59956000Y-64562000D01*
X60846000Y-64562000D02*
X60846000Y-61902000D01*
X61736000Y-61902000D02*
X61736000Y-55902000D01*
X61736000Y-55902000D02*
X62496000Y-55902000D01*
X62496000Y-55902000D02*
X62496000Y-61902000D01*
X61736000Y-64959071D02*
X61736000Y-64562000D01*
X62496000Y-64959071D02*
X62496000Y-64562000D01*
X63386000Y-64562000D02*
X63386000Y-61902000D01*
X64276000Y-61902000D02*
X64276000Y-55902000D01*
X64276000Y-55902000D02*
X65036000Y-55902000D01*
X65036000Y-55902000D02*
X65036000Y-61902000D01*
X64276000Y-64959071D02*
X64276000Y-64562000D01*
X65036000Y-64959071D02*
X65036000Y-64562000D01*
X51956000Y-67272000D02*
X50686000Y-67272000D01*
X50686000Y-67272000D02*
X50686000Y-66002000D01*
X229464000Y-109122000D02*
X242964000Y-109122000D01*
X229464000Y-101622000D02*
X229464000Y-109122000D01*
X242964000Y-101622000D02*
X229464000Y-101622000D01*
X242964000Y-109122000D02*
X242964000Y-101622000D01*
X223212000Y-82064000D02*
X223212000Y-79404000D01*
X220612000Y-82064000D02*
X223212000Y-82064000D01*
X220612000Y-79404000D02*
X223212000Y-79404000D01*
X220612000Y-82064000D02*
X220612000Y-79404000D01*
X219342000Y-82064000D02*
X218012000Y-82064000D01*
X218012000Y-82064000D02*
X218012000Y-80734000D01*
X223212000Y-86890000D02*
X223212000Y-84230000D01*
X220612000Y-86890000D02*
X223212000Y-86890000D01*
X220612000Y-84230000D02*
X223212000Y-84230000D01*
X220612000Y-86890000D02*
X220612000Y-84230000D01*
X219342000Y-86890000D02*
X218012000Y-86890000D01*
X218012000Y-86890000D02*
X218012000Y-85560000D01*
X218012000Y-91716000D02*
X218012000Y-90386000D01*
X219342000Y-91716000D02*
X218012000Y-91716000D01*
X220612000Y-91716000D02*
X220612000Y-89056000D01*
X220612000Y-89056000D02*
X223212000Y-89056000D01*
X220612000Y-91716000D02*
X223212000Y-91716000D01*
X223212000Y-91716000D02*
X223212000Y-89056000D01*
X223212000Y-96542000D02*
X223212000Y-93882000D01*
X220612000Y-96542000D02*
X223212000Y-96542000D01*
X220612000Y-93882000D02*
X223212000Y-93882000D01*
X220612000Y-96542000D02*
X220612000Y-93882000D01*
X219342000Y-96542000D02*
X218012000Y-96542000D01*
X218012000Y-96542000D02*
X218012000Y-95212000D01*
X218012000Y-117624000D02*
X218012000Y-116294000D01*
X219342000Y-117624000D02*
X218012000Y-117624000D01*
X220612000Y-117624000D02*
X220612000Y-114964000D01*
X220612000Y-114964000D02*
X223212000Y-114964000D01*
X220612000Y-117624000D02*
X223212000Y-117624000D01*
X223212000Y-117624000D02*
X223212000Y-114964000D01*
X218012000Y-122450000D02*
X218012000Y-121120000D01*
X219342000Y-122450000D02*
X218012000Y-122450000D01*
X220612000Y-122450000D02*
X220612000Y-119790000D01*
X220612000Y-119790000D02*
X223212000Y-119790000D01*
X220612000Y-122450000D02*
X223212000Y-122450000D01*
X223212000Y-122450000D02*
X223212000Y-119790000D01*
X218012000Y-127276000D02*
X218012000Y-125946000D01*
X219342000Y-127276000D02*
X218012000Y-127276000D01*
X220612000Y-127276000D02*
X220612000Y-124616000D01*
X220612000Y-124616000D02*
X223212000Y-124616000D01*
X220612000Y-127276000D02*
X223212000Y-127276000D01*
X223212000Y-127276000D02*
X223212000Y-124616000D01*
X223212000Y-132102000D02*
X223212000Y-129442000D01*
X220612000Y-132102000D02*
X223212000Y-132102000D01*
X220612000Y-129442000D02*
X223212000Y-129442000D01*
X220612000Y-132102000D02*
X220612000Y-129442000D01*
X219342000Y-132102000D02*
X218012000Y-132102000D01*
X218012000Y-132102000D02*
X218012000Y-130772000D01*
X97136000Y-127240000D02*
X97136000Y-127570000D01*
X97136000Y-127570000D02*
X90596000Y-127570000D01*
X90596000Y-127570000D02*
X90596000Y-127240000D01*
X97136000Y-125160000D02*
X97136000Y-124830000D01*
X97136000Y-124830000D02*
X90596000Y-124830000D01*
X90596000Y-124830000D02*
X90596000Y-125160000D01*
X99358000Y-135740000D02*
X99358000Y-131900000D01*
X97518000Y-135740000D02*
X97518000Y-131900000D01*
X101716000Y-142170000D02*
X101386000Y-142170000D01*
X101386000Y-142170000D02*
X101386000Y-135630000D01*
X101386000Y-135630000D02*
X101716000Y-135630000D01*
X103796000Y-142170000D02*
X104126000Y-142170000D01*
X104126000Y-142170000D02*
X104126000Y-135630000D01*
X104126000Y-135630000D02*
X103796000Y-135630000D01*
X104126000Y-125470000D02*
X103796000Y-125470000D01*
X104126000Y-132010000D02*
X104126000Y-125470000D01*
X103796000Y-132010000D02*
X104126000Y-132010000D01*
X101386000Y-125470000D02*
X101716000Y-125470000D01*
X101386000Y-132010000D02*
X101386000Y-125470000D01*
X101716000Y-132010000D02*
X101386000Y-132010000D01*
X93136000Y-108574000D02*
X93136000Y-108904000D01*
X99676000Y-108574000D02*
X93136000Y-108574000D01*
X99676000Y-108904000D02*
X99676000Y-108574000D01*
X93136000Y-111314000D02*
X93136000Y-110984000D01*
X99676000Y-111314000D02*
X93136000Y-111314000D01*
X99676000Y-110984000D02*
X99676000Y-111314000D01*
X106666000Y-104134000D02*
X106336000Y-104134000D01*
X106666000Y-110674000D02*
X106666000Y-104134000D01*
X106336000Y-110674000D02*
X106666000Y-110674000D01*
X103926000Y-104134000D02*
X104256000Y-104134000D01*
X103926000Y-110674000D02*
X103926000Y-104134000D01*
X104256000Y-110674000D02*
X103926000Y-110674000D01*
X106666000Y-93974000D02*
X106336000Y-93974000D01*
X106666000Y-100514000D02*
X106666000Y-93974000D01*
X106336000Y-100514000D02*
X106666000Y-100514000D01*
X103926000Y-93974000D02*
X104256000Y-93974000D01*
X103926000Y-100514000D02*
X103926000Y-93974000D01*
X104256000Y-100514000D02*
X103926000Y-100514000D01*
X100058000Y-104244000D02*
X100058000Y-100404000D01*
X101898000Y-104244000D02*
X101898000Y-100404000D01*
X226232000Y-79364000D02*
X226232000Y-79694000D01*
X232772000Y-79364000D02*
X226232000Y-79364000D01*
X232772000Y-79694000D02*
X232772000Y-79364000D01*
X226232000Y-82104000D02*
X226232000Y-81774000D01*
X232772000Y-82104000D02*
X226232000Y-82104000D01*
X232772000Y-81774000D02*
X232772000Y-82104000D01*
X232772000Y-86600000D02*
X232772000Y-86930000D01*
X232772000Y-86930000D02*
X226232000Y-86930000D01*
X226232000Y-86930000D02*
X226232000Y-86600000D01*
X232772000Y-84520000D02*
X232772000Y-84190000D01*
X232772000Y-84190000D02*
X226232000Y-84190000D01*
X226232000Y-84190000D02*
X226232000Y-84520000D01*
X226232000Y-89016000D02*
X226232000Y-89346000D01*
X232772000Y-89016000D02*
X226232000Y-89016000D01*
X232772000Y-89346000D02*
X232772000Y-89016000D01*
X226232000Y-91756000D02*
X226232000Y-91426000D01*
X232772000Y-91756000D02*
X226232000Y-91756000D01*
X232772000Y-91426000D02*
X232772000Y-91756000D01*
X232772000Y-96252000D02*
X232772000Y-96582000D01*
X232772000Y-96582000D02*
X226232000Y-96582000D01*
X226232000Y-96582000D02*
X226232000Y-96252000D01*
X232772000Y-94172000D02*
X232772000Y-93842000D01*
X232772000Y-93842000D02*
X226232000Y-93842000D01*
X226232000Y-93842000D02*
X226232000Y-94172000D01*
X226232000Y-114924000D02*
X226232000Y-115254000D01*
X232772000Y-114924000D02*
X226232000Y-114924000D01*
X232772000Y-115254000D02*
X232772000Y-114924000D01*
X226232000Y-117664000D02*
X226232000Y-117334000D01*
X232772000Y-117664000D02*
X226232000Y-117664000D01*
X232772000Y-117334000D02*
X232772000Y-117664000D01*
X226232000Y-119750000D02*
X226232000Y-120080000D01*
X232772000Y-119750000D02*
X226232000Y-119750000D01*
X232772000Y-120080000D02*
X232772000Y-119750000D01*
X226232000Y-122490000D02*
X226232000Y-122160000D01*
X232772000Y-122490000D02*
X226232000Y-122490000D01*
X232772000Y-122160000D02*
X232772000Y-122490000D01*
X232772000Y-126986000D02*
X232772000Y-127316000D01*
X232772000Y-127316000D02*
X226232000Y-127316000D01*
X226232000Y-127316000D02*
X226232000Y-126986000D01*
X232772000Y-124906000D02*
X232772000Y-124576000D01*
X232772000Y-124576000D02*
X226232000Y-124576000D01*
X226232000Y-124576000D02*
X226232000Y-124906000D01*
X226232000Y-129402000D02*
X226232000Y-129732000D01*
X232772000Y-129402000D02*
X226232000Y-129402000D01*
X232772000Y-129732000D02*
X232772000Y-129402000D01*
X226232000Y-132142000D02*
X226232000Y-131812000D01*
X232772000Y-132142000D02*
X226232000Y-132142000D01*
X232772000Y-131812000D02*
X232772000Y-132142000D01*
X128810000Y-53479000D02*
G75*
G03*
X128810000Y-53479000I-508000J0D01*
G01*
X121354000Y-55279000D02*
X129154000Y-55279000D01*
X129154000Y-55279000D02*
X129154000Y-42279000D01*
X121354000Y-42279000D02*
X129154000Y-42279000D01*
X121354000Y-55279000D02*
X121354000Y-42279000D01*
D13*
X178166666Y-125628571D02*
X177833333Y-125628571D01*
X177833333Y-126152380D02*
X177833333Y-125152380D01*
X178309523Y-125152380D01*
X178642857Y-125247619D02*
X178690476Y-125200000D01*
X178785714Y-125152380D01*
X179023809Y-125152380D01*
X179119047Y-125200000D01*
X179166666Y-125247619D01*
X179214285Y-125342857D01*
X179214285Y-125438095D01*
X179166666Y-125580952D01*
X178595238Y-126152380D01*
X179214285Y-126152380D01*
X178166666Y-90128571D02*
X177833333Y-90128571D01*
X177833333Y-90652380D02*
X177833333Y-89652380D01*
X178309523Y-89652380D01*
X179214285Y-90652380D02*
X178642857Y-90652380D01*
X178928571Y-90652380D02*
X178928571Y-89652380D01*
X178833333Y-89795238D01*
X178738095Y-89890476D01*
X178642857Y-89938095D01*
X51038095Y-73328380D02*
X51038095Y-74137904D01*
X51085714Y-74233142D01*
X51133333Y-74280761D01*
X51228571Y-74328380D01*
X51419047Y-74328380D01*
X51514285Y-74280761D01*
X51561904Y-74233142D01*
X51609523Y-74137904D01*
X51609523Y-73328380D01*
X52609523Y-74328380D02*
X52038095Y-74328380D01*
X52323809Y-74328380D02*
X52323809Y-73328380D01*
X52228571Y-73471238D01*
X52133333Y-73566476D01*
X52038095Y-73614095D01*
X106838095Y-113052380D02*
X106838095Y-113861904D01*
X106885714Y-113957142D01*
X106933333Y-114004761D01*
X107028571Y-114052380D01*
X107219047Y-114052380D01*
X107314285Y-114004761D01*
X107361904Y-113957142D01*
X107409523Y-113861904D01*
X107409523Y-113052380D01*
X107790476Y-113052380D02*
X108409523Y-113052380D01*
X108076190Y-113433333D01*
X108219047Y-113433333D01*
X108314285Y-113480952D01*
X108361904Y-113528571D01*
X108409523Y-113623809D01*
X108409523Y-113861904D01*
X108361904Y-113957142D01*
X108314285Y-114004761D01*
X108219047Y-114052380D01*
X107933333Y-114052380D01*
X107838095Y-114004761D01*
X107790476Y-113957142D01*
X157702285Y-41149571D02*
X157845142Y-41197190D01*
X157892761Y-41244809D01*
X157940380Y-41340047D01*
X157940380Y-41482904D01*
X157892761Y-41578142D01*
X157845142Y-41625761D01*
X157749904Y-41673380D01*
X157368952Y-41673380D01*
X157368952Y-40673380D01*
X157702285Y-40673380D01*
X157797523Y-40721000D01*
X157845142Y-40768619D01*
X157892761Y-40863857D01*
X157892761Y-40959095D01*
X157845142Y-41054333D01*
X157797523Y-41101952D01*
X157702285Y-41149571D01*
X157368952Y-41149571D01*
X158226095Y-40673380D02*
X158797523Y-40673380D01*
X158511809Y-41673380D02*
X158511809Y-40673380D01*
X159654666Y-41673380D02*
X159083238Y-41673380D01*
X159368952Y-41673380D02*
X159368952Y-40673380D01*
X159273714Y-40816238D01*
X159178476Y-40911476D01*
X159083238Y-40959095D01*
X230038095Y-52842857D02*
X231561904Y-52842857D01*
X158038095Y-52842857D02*
X159561904Y-52842857D01*
X158800000Y-53604761D02*
X158800000Y-52080952D01*
X100661904Y-79352380D02*
X100661904Y-78352380D01*
X100900000Y-78352380D01*
X101042857Y-78400000D01*
X101138095Y-78495238D01*
X101185714Y-78590476D01*
X101233333Y-78780952D01*
X101233333Y-78923809D01*
X101185714Y-79114285D01*
X101138095Y-79209523D01*
X101042857Y-79304761D01*
X100900000Y-79352380D01*
X100661904Y-79352380D01*
X101614285Y-78447619D02*
X101661904Y-78400000D01*
X101757142Y-78352380D01*
X101995238Y-78352380D01*
X102090476Y-78400000D01*
X102138095Y-78447619D01*
X102185714Y-78542857D01*
X102185714Y-78638095D01*
X102138095Y-78780952D01*
X101566666Y-79352380D01*
X102185714Y-79352380D01*
X100538095Y-76452380D02*
X100538095Y-75452380D01*
X101109523Y-76452380D02*
X100680952Y-75880952D01*
X101109523Y-75452380D02*
X100538095Y-76023809D01*
X95461904Y-79352380D02*
X95461904Y-78352380D01*
X95700000Y-78352380D01*
X95842857Y-78400000D01*
X95938095Y-78495238D01*
X95985714Y-78590476D01*
X96033333Y-78780952D01*
X96033333Y-78923809D01*
X95985714Y-79114285D01*
X95938095Y-79209523D01*
X95842857Y-79304761D01*
X95700000Y-79352380D01*
X95461904Y-79352380D01*
X96985714Y-79352380D02*
X96414285Y-79352380D01*
X96700000Y-79352380D02*
X96700000Y-78352380D01*
X96604761Y-78495238D01*
X96509523Y-78590476D01*
X96414285Y-78638095D01*
X95338095Y-76452380D02*
X95338095Y-75452380D01*
X95909523Y-76452380D02*
X95480952Y-75880952D01*
X95909523Y-75452380D02*
X95338095Y-76023809D01*
X50929714Y-95834666D02*
X51405904Y-95834666D01*
X50834476Y-96120380D02*
X51167809Y-95120380D01*
X51501142Y-96120380D01*
X52358285Y-96120380D02*
X51786857Y-96120380D01*
X52072571Y-96120380D02*
X52072571Y-95120380D01*
X51977333Y-95263238D01*
X51882095Y-95358476D01*
X51786857Y-95406095D01*
X114538095Y-118352380D02*
X114538095Y-119161904D01*
X114585714Y-119257142D01*
X114633333Y-119304761D01*
X114728571Y-119352380D01*
X114919047Y-119352380D01*
X115014285Y-119304761D01*
X115061904Y-119257142D01*
X115109523Y-119161904D01*
X115109523Y-118352380D01*
X116061904Y-118352380D02*
X115585714Y-118352380D01*
X115538095Y-118828571D01*
X115585714Y-118780952D01*
X115680952Y-118733333D01*
X115919047Y-118733333D01*
X116014285Y-118780952D01*
X116061904Y-118828571D01*
X116109523Y-118923809D01*
X116109523Y-119161904D01*
X116061904Y-119257142D01*
X116014285Y-119304761D01*
X115919047Y-119352380D01*
X115680952Y-119352380D01*
X115585714Y-119304761D01*
X115538095Y-119257142D01*
X114538095Y-83052380D02*
X114538095Y-83861904D01*
X114585714Y-83957142D01*
X114633333Y-84004761D01*
X114728571Y-84052380D01*
X114919047Y-84052380D01*
X115014285Y-84004761D01*
X115061904Y-83957142D01*
X115109523Y-83861904D01*
X115109523Y-83052380D01*
X116014285Y-83385714D02*
X116014285Y-84052380D01*
X115776190Y-83004761D02*
X115538095Y-83719047D01*
X116157142Y-83719047D01*
X227966666Y-137252380D02*
X227966666Y-137966666D01*
X227919047Y-138109523D01*
X227823809Y-138204761D01*
X227680952Y-138252380D01*
X227585714Y-138252380D01*
X228347619Y-137252380D02*
X228966666Y-137252380D01*
X228633333Y-137633333D01*
X228776190Y-137633333D01*
X228871428Y-137680952D01*
X228919047Y-137728571D01*
X228966666Y-137823809D01*
X228966666Y-138061904D01*
X228919047Y-138157142D01*
X228871428Y-138204761D01*
X228776190Y-138252380D01*
X228490476Y-138252380D01*
X228395238Y-138204761D01*
X228347619Y-138157142D01*
X50606666Y-53952380D02*
X50606666Y-54666666D01*
X50559047Y-54809523D01*
X50463809Y-54904761D01*
X50320952Y-54952380D01*
X50225714Y-54952380D01*
X51606666Y-54952380D02*
X51035238Y-54952380D01*
X51320952Y-54952380D02*
X51320952Y-53952380D01*
X51225714Y-54095238D01*
X51130476Y-54190476D01*
X51035238Y-54238095D01*
X227966666Y-101652380D02*
X227966666Y-102366666D01*
X227919047Y-102509523D01*
X227823809Y-102604761D01*
X227680952Y-102652380D01*
X227585714Y-102652380D01*
X228395238Y-101747619D02*
X228442857Y-101700000D01*
X228538095Y-101652380D01*
X228776190Y-101652380D01*
X228871428Y-101700000D01*
X228919047Y-101747619D01*
X228966666Y-101842857D01*
X228966666Y-101938095D01*
X228919047Y-102080952D01*
X228347619Y-102652380D01*
X228966666Y-102652380D01*
X215266666Y-79344380D02*
X215266666Y-80058666D01*
X215219047Y-80201523D01*
X215123809Y-80296761D01*
X214980952Y-80344380D01*
X214885714Y-80344380D01*
X215742857Y-80344380D02*
X215742857Y-79344380D01*
X216123809Y-79344380D01*
X216219047Y-79392000D01*
X216266666Y-79439619D01*
X216314285Y-79534857D01*
X216314285Y-79677714D01*
X216266666Y-79772952D01*
X216219047Y-79820571D01*
X216123809Y-79868190D01*
X215742857Y-79868190D01*
X217266666Y-80344380D02*
X216695238Y-80344380D01*
X216980952Y-80344380D02*
X216980952Y-79344380D01*
X216885714Y-79487238D01*
X216790476Y-79582476D01*
X216695238Y-79630095D01*
X215266666Y-84298380D02*
X215266666Y-85012666D01*
X215219047Y-85155523D01*
X215123809Y-85250761D01*
X214980952Y-85298380D01*
X214885714Y-85298380D01*
X215742857Y-85298380D02*
X215742857Y-84298380D01*
X216123809Y-84298380D01*
X216219047Y-84346000D01*
X216266666Y-84393619D01*
X216314285Y-84488857D01*
X216314285Y-84631714D01*
X216266666Y-84726952D01*
X216219047Y-84774571D01*
X216123809Y-84822190D01*
X215742857Y-84822190D01*
X216695238Y-84393619D02*
X216742857Y-84346000D01*
X216838095Y-84298380D01*
X217076190Y-84298380D01*
X217171428Y-84346000D01*
X217219047Y-84393619D01*
X217266666Y-84488857D01*
X217266666Y-84584095D01*
X217219047Y-84726952D01*
X216647619Y-85298380D01*
X217266666Y-85298380D01*
X215266666Y-89152380D02*
X215266666Y-89866666D01*
X215219047Y-90009523D01*
X215123809Y-90104761D01*
X214980952Y-90152380D01*
X214885714Y-90152380D01*
X215742857Y-90152380D02*
X215742857Y-89152380D01*
X216123809Y-89152380D01*
X216219047Y-89200000D01*
X216266666Y-89247619D01*
X216314285Y-89342857D01*
X216314285Y-89485714D01*
X216266666Y-89580952D01*
X216219047Y-89628571D01*
X216123809Y-89676190D01*
X215742857Y-89676190D01*
X216647619Y-89152380D02*
X217266666Y-89152380D01*
X216933333Y-89533333D01*
X217076190Y-89533333D01*
X217171428Y-89580952D01*
X217219047Y-89628571D01*
X217266666Y-89723809D01*
X217266666Y-89961904D01*
X217219047Y-90057142D01*
X217171428Y-90104761D01*
X217076190Y-90152380D01*
X216790476Y-90152380D01*
X216695238Y-90104761D01*
X216647619Y-90057142D01*
X215266666Y-93952380D02*
X215266666Y-94666666D01*
X215219047Y-94809523D01*
X215123809Y-94904761D01*
X214980952Y-94952380D01*
X214885714Y-94952380D01*
X215742857Y-94952380D02*
X215742857Y-93952380D01*
X216123809Y-93952380D01*
X216219047Y-94000000D01*
X216266666Y-94047619D01*
X216314285Y-94142857D01*
X216314285Y-94285714D01*
X216266666Y-94380952D01*
X216219047Y-94428571D01*
X216123809Y-94476190D01*
X215742857Y-94476190D01*
X217171428Y-94285714D02*
X217171428Y-94952380D01*
X216933333Y-93904761D02*
X216695238Y-94619047D01*
X217314285Y-94619047D01*
X215266666Y-115052380D02*
X215266666Y-115766666D01*
X215219047Y-115909523D01*
X215123809Y-116004761D01*
X214980952Y-116052380D01*
X214885714Y-116052380D01*
X215742857Y-116052380D02*
X215742857Y-115052380D01*
X216123809Y-115052380D01*
X216219047Y-115100000D01*
X216266666Y-115147619D01*
X216314285Y-115242857D01*
X216314285Y-115385714D01*
X216266666Y-115480952D01*
X216219047Y-115528571D01*
X216123809Y-115576190D01*
X215742857Y-115576190D01*
X217219047Y-115052380D02*
X216742857Y-115052380D01*
X216695238Y-115528571D01*
X216742857Y-115480952D01*
X216838095Y-115433333D01*
X217076190Y-115433333D01*
X217171428Y-115480952D01*
X217219047Y-115528571D01*
X217266666Y-115623809D01*
X217266666Y-115861904D01*
X217219047Y-115957142D01*
X217171428Y-116004761D01*
X217076190Y-116052380D01*
X216838095Y-116052380D01*
X216742857Y-116004761D01*
X216695238Y-115957142D01*
X215266666Y-119852380D02*
X215266666Y-120566666D01*
X215219047Y-120709523D01*
X215123809Y-120804761D01*
X214980952Y-120852380D01*
X214885714Y-120852380D01*
X215742857Y-120852380D02*
X215742857Y-119852380D01*
X216123809Y-119852380D01*
X216219047Y-119900000D01*
X216266666Y-119947619D01*
X216314285Y-120042857D01*
X216314285Y-120185714D01*
X216266666Y-120280952D01*
X216219047Y-120328571D01*
X216123809Y-120376190D01*
X215742857Y-120376190D01*
X217171428Y-119852380D02*
X216980952Y-119852380D01*
X216885714Y-119900000D01*
X216838095Y-119947619D01*
X216742857Y-120090476D01*
X216695238Y-120280952D01*
X216695238Y-120661904D01*
X216742857Y-120757142D01*
X216790476Y-120804761D01*
X216885714Y-120852380D01*
X217076190Y-120852380D01*
X217171428Y-120804761D01*
X217219047Y-120757142D01*
X217266666Y-120661904D01*
X217266666Y-120423809D01*
X217219047Y-120328571D01*
X217171428Y-120280952D01*
X217076190Y-120233333D01*
X216885714Y-120233333D01*
X216790476Y-120280952D01*
X216742857Y-120328571D01*
X216695238Y-120423809D01*
X215166666Y-124652380D02*
X215166666Y-125366666D01*
X215119047Y-125509523D01*
X215023809Y-125604761D01*
X214880952Y-125652380D01*
X214785714Y-125652380D01*
X215642857Y-125652380D02*
X215642857Y-124652380D01*
X216023809Y-124652380D01*
X216119047Y-124700000D01*
X216166666Y-124747619D01*
X216214285Y-124842857D01*
X216214285Y-124985714D01*
X216166666Y-125080952D01*
X216119047Y-125128571D01*
X216023809Y-125176190D01*
X215642857Y-125176190D01*
X216547619Y-124652380D02*
X217214285Y-124652380D01*
X216785714Y-125652380D01*
X215166666Y-129452380D02*
X215166666Y-130166666D01*
X215119047Y-130309523D01*
X215023809Y-130404761D01*
X214880952Y-130452380D01*
X214785714Y-130452380D01*
X215642857Y-130452380D02*
X215642857Y-129452380D01*
X216023809Y-129452380D01*
X216119047Y-129500000D01*
X216166666Y-129547619D01*
X216214285Y-129642857D01*
X216214285Y-129785714D01*
X216166666Y-129880952D01*
X216119047Y-129928571D01*
X216023809Y-129976190D01*
X215642857Y-129976190D01*
X216785714Y-129880952D02*
X216690476Y-129833333D01*
X216642857Y-129785714D01*
X216595238Y-129690476D01*
X216595238Y-129642857D01*
X216642857Y-129547619D01*
X216690476Y-129500000D01*
X216785714Y-129452380D01*
X216976190Y-129452380D01*
X217071428Y-129500000D01*
X217119047Y-129547619D01*
X217166666Y-129642857D01*
X217166666Y-129690476D01*
X217119047Y-129785714D01*
X217071428Y-129833333D01*
X216976190Y-129880952D01*
X216785714Y-129880952D01*
X216690476Y-129928571D01*
X216642857Y-129976190D01*
X216595238Y-130071428D01*
X216595238Y-130261904D01*
X216642857Y-130357142D01*
X216690476Y-130404761D01*
X216785714Y-130452380D01*
X216976190Y-130452380D01*
X217071428Y-130404761D01*
X217119047Y-130357142D01*
X217166666Y-130261904D01*
X217166666Y-130071428D01*
X217119047Y-129976190D01*
X217071428Y-129928571D01*
X216976190Y-129880952D01*
X91233333Y-124352380D02*
X90900000Y-123876190D01*
X90661904Y-124352380D02*
X90661904Y-123352380D01*
X91042857Y-123352380D01*
X91138095Y-123400000D01*
X91185714Y-123447619D01*
X91233333Y-123542857D01*
X91233333Y-123685714D01*
X91185714Y-123780952D01*
X91138095Y-123828571D01*
X91042857Y-123876190D01*
X90661904Y-123876190D01*
X91804761Y-123780952D02*
X91709523Y-123733333D01*
X91661904Y-123685714D01*
X91614285Y-123590476D01*
X91614285Y-123542857D01*
X91661904Y-123447619D01*
X91709523Y-123400000D01*
X91804761Y-123352380D01*
X91995238Y-123352380D01*
X92090476Y-123400000D01*
X92138095Y-123447619D01*
X92185714Y-123542857D01*
X92185714Y-123590476D01*
X92138095Y-123685714D01*
X92090476Y-123733333D01*
X91995238Y-123780952D01*
X91804761Y-123780952D01*
X91709523Y-123828571D01*
X91661904Y-123876190D01*
X91614285Y-123971428D01*
X91614285Y-124161904D01*
X91661904Y-124257142D01*
X91709523Y-124304761D01*
X91804761Y-124352380D01*
X91995238Y-124352380D01*
X92090476Y-124304761D01*
X92138095Y-124257142D01*
X92185714Y-124161904D01*
X92185714Y-123971428D01*
X92138095Y-123876190D01*
X92090476Y-123828571D01*
X91995238Y-123780952D01*
X98033333Y-130052380D02*
X97700000Y-129576190D01*
X97461904Y-130052380D02*
X97461904Y-129052380D01*
X97842857Y-129052380D01*
X97938095Y-129100000D01*
X97985714Y-129147619D01*
X98033333Y-129242857D01*
X98033333Y-129385714D01*
X97985714Y-129480952D01*
X97938095Y-129528571D01*
X97842857Y-129576190D01*
X97461904Y-129576190D01*
X98509523Y-130052380D02*
X98700000Y-130052380D01*
X98795238Y-130004761D01*
X98842857Y-129957142D01*
X98938095Y-129814285D01*
X98985714Y-129623809D01*
X98985714Y-129242857D01*
X98938095Y-129147619D01*
X98890476Y-129100000D01*
X98795238Y-129052380D01*
X98604761Y-129052380D01*
X98509523Y-129100000D01*
X98461904Y-129147619D01*
X98414285Y-129242857D01*
X98414285Y-129480952D01*
X98461904Y-129576190D01*
X98509523Y-129623809D01*
X98604761Y-129671428D01*
X98795238Y-129671428D01*
X98890476Y-129623809D01*
X98938095Y-129576190D01*
X98985714Y-129480952D01*
X105157142Y-136652380D02*
X104823809Y-136176190D01*
X104585714Y-136652380D02*
X104585714Y-135652380D01*
X104966666Y-135652380D01*
X105061904Y-135700000D01*
X105109523Y-135747619D01*
X105157142Y-135842857D01*
X105157142Y-135985714D01*
X105109523Y-136080952D01*
X105061904Y-136128571D01*
X104966666Y-136176190D01*
X104585714Y-136176190D01*
X106109523Y-136652380D02*
X105538095Y-136652380D01*
X105823809Y-136652380D02*
X105823809Y-135652380D01*
X105728571Y-135795238D01*
X105633333Y-135890476D01*
X105538095Y-135938095D01*
X106728571Y-135652380D02*
X106823809Y-135652380D01*
X106919047Y-135700000D01*
X106966666Y-135747619D01*
X107014285Y-135842857D01*
X107061904Y-136033333D01*
X107061904Y-136271428D01*
X107014285Y-136461904D01*
X106966666Y-136557142D01*
X106919047Y-136604761D01*
X106823809Y-136652380D01*
X106728571Y-136652380D01*
X106633333Y-136604761D01*
X106585714Y-136557142D01*
X106538095Y-136461904D01*
X106490476Y-136271428D01*
X106490476Y-136033333D01*
X106538095Y-135842857D01*
X106585714Y-135747619D01*
X106633333Y-135700000D01*
X106728571Y-135652380D01*
X105157142Y-126452380D02*
X104823809Y-125976190D01*
X104585714Y-126452380D02*
X104585714Y-125452380D01*
X104966666Y-125452380D01*
X105061904Y-125500000D01*
X105109523Y-125547619D01*
X105157142Y-125642857D01*
X105157142Y-125785714D01*
X105109523Y-125880952D01*
X105061904Y-125928571D01*
X104966666Y-125976190D01*
X104585714Y-125976190D01*
X106109523Y-126452380D02*
X105538095Y-126452380D01*
X105823809Y-126452380D02*
X105823809Y-125452380D01*
X105728571Y-125595238D01*
X105633333Y-125690476D01*
X105538095Y-125738095D01*
X107061904Y-126452380D02*
X106490476Y-126452380D01*
X106776190Y-126452380D02*
X106776190Y-125452380D01*
X106680952Y-125595238D01*
X106585714Y-125690476D01*
X106490476Y-125738095D01*
X93757142Y-108052380D02*
X93423809Y-107576190D01*
X93185714Y-108052380D02*
X93185714Y-107052380D01*
X93566666Y-107052380D01*
X93661904Y-107100000D01*
X93709523Y-107147619D01*
X93757142Y-107242857D01*
X93757142Y-107385714D01*
X93709523Y-107480952D01*
X93661904Y-107528571D01*
X93566666Y-107576190D01*
X93185714Y-107576190D01*
X94709523Y-108052380D02*
X94138095Y-108052380D01*
X94423809Y-108052380D02*
X94423809Y-107052380D01*
X94328571Y-107195238D01*
X94233333Y-107290476D01*
X94138095Y-107338095D01*
X95090476Y-107147619D02*
X95138095Y-107100000D01*
X95233333Y-107052380D01*
X95471428Y-107052380D01*
X95566666Y-107100000D01*
X95614285Y-107147619D01*
X95661904Y-107242857D01*
X95661904Y-107338095D01*
X95614285Y-107480952D01*
X95042857Y-108052380D01*
X95661904Y-108052380D01*
X107657142Y-105152380D02*
X107323809Y-104676190D01*
X107085714Y-105152380D02*
X107085714Y-104152380D01*
X107466666Y-104152380D01*
X107561904Y-104200000D01*
X107609523Y-104247619D01*
X107657142Y-104342857D01*
X107657142Y-104485714D01*
X107609523Y-104580952D01*
X107561904Y-104628571D01*
X107466666Y-104676190D01*
X107085714Y-104676190D01*
X108609523Y-105152380D02*
X108038095Y-105152380D01*
X108323809Y-105152380D02*
X108323809Y-104152380D01*
X108228571Y-104295238D01*
X108133333Y-104390476D01*
X108038095Y-104438095D01*
X108942857Y-104152380D02*
X109561904Y-104152380D01*
X109228571Y-104533333D01*
X109371428Y-104533333D01*
X109466666Y-104580952D01*
X109514285Y-104628571D01*
X109561904Y-104723809D01*
X109561904Y-104961904D01*
X109514285Y-105057142D01*
X109466666Y-105104761D01*
X109371428Y-105152380D01*
X109085714Y-105152380D01*
X108990476Y-105104761D01*
X108942857Y-105057142D01*
X107657142Y-95052380D02*
X107323809Y-94576190D01*
X107085714Y-95052380D02*
X107085714Y-94052380D01*
X107466666Y-94052380D01*
X107561904Y-94100000D01*
X107609523Y-94147619D01*
X107657142Y-94242857D01*
X107657142Y-94385714D01*
X107609523Y-94480952D01*
X107561904Y-94528571D01*
X107466666Y-94576190D01*
X107085714Y-94576190D01*
X108609523Y-95052380D02*
X108038095Y-95052380D01*
X108323809Y-95052380D02*
X108323809Y-94052380D01*
X108228571Y-94195238D01*
X108133333Y-94290476D01*
X108038095Y-94338095D01*
X109466666Y-94385714D02*
X109466666Y-95052380D01*
X109228571Y-94004761D02*
X108990476Y-94719047D01*
X109609523Y-94719047D01*
X100557142Y-98552380D02*
X100223809Y-98076190D01*
X99985714Y-98552380D02*
X99985714Y-97552380D01*
X100366666Y-97552380D01*
X100461904Y-97600000D01*
X100509523Y-97647619D01*
X100557142Y-97742857D01*
X100557142Y-97885714D01*
X100509523Y-97980952D01*
X100461904Y-98028571D01*
X100366666Y-98076190D01*
X99985714Y-98076190D01*
X101509523Y-98552380D02*
X100938095Y-98552380D01*
X101223809Y-98552380D02*
X101223809Y-97552380D01*
X101128571Y-97695238D01*
X101033333Y-97790476D01*
X100938095Y-97838095D01*
X102414285Y-97552380D02*
X101938095Y-97552380D01*
X101890476Y-98028571D01*
X101938095Y-97980952D01*
X102033333Y-97933333D01*
X102271428Y-97933333D01*
X102366666Y-97980952D01*
X102414285Y-98028571D01*
X102461904Y-98123809D01*
X102461904Y-98361904D01*
X102414285Y-98457142D01*
X102366666Y-98504761D01*
X102271428Y-98552380D01*
X102033333Y-98552380D01*
X101938095Y-98504761D01*
X101890476Y-98457142D01*
X226857142Y-78944380D02*
X226523809Y-78468190D01*
X226285714Y-78944380D02*
X226285714Y-77944380D01*
X226666666Y-77944380D01*
X226761904Y-77992000D01*
X226809523Y-78039619D01*
X226857142Y-78134857D01*
X226857142Y-78277714D01*
X226809523Y-78372952D01*
X226761904Y-78420571D01*
X226666666Y-78468190D01*
X226285714Y-78468190D01*
X227809523Y-78944380D02*
X227238095Y-78944380D01*
X227523809Y-78944380D02*
X227523809Y-77944380D01*
X227428571Y-78087238D01*
X227333333Y-78182476D01*
X227238095Y-78230095D01*
X228380952Y-78372952D02*
X228285714Y-78325333D01*
X228238095Y-78277714D01*
X228190476Y-78182476D01*
X228190476Y-78134857D01*
X228238095Y-78039619D01*
X228285714Y-77992000D01*
X228380952Y-77944380D01*
X228571428Y-77944380D01*
X228666666Y-77992000D01*
X228714285Y-78039619D01*
X228761904Y-78134857D01*
X228761904Y-78182476D01*
X228714285Y-78277714D01*
X228666666Y-78325333D01*
X228571428Y-78372952D01*
X228380952Y-78372952D01*
X228285714Y-78420571D01*
X228238095Y-78468190D01*
X228190476Y-78563428D01*
X228190476Y-78753904D01*
X228238095Y-78849142D01*
X228285714Y-78896761D01*
X228380952Y-78944380D01*
X228571428Y-78944380D01*
X228666666Y-78896761D01*
X228714285Y-78849142D01*
X228761904Y-78753904D01*
X228761904Y-78563428D01*
X228714285Y-78468190D01*
X228666666Y-78420571D01*
X228571428Y-78372952D01*
X226857142Y-83752380D02*
X226523809Y-83276190D01*
X226285714Y-83752380D02*
X226285714Y-82752380D01*
X226666666Y-82752380D01*
X226761904Y-82800000D01*
X226809523Y-82847619D01*
X226857142Y-82942857D01*
X226857142Y-83085714D01*
X226809523Y-83180952D01*
X226761904Y-83228571D01*
X226666666Y-83276190D01*
X226285714Y-83276190D01*
X227809523Y-83752380D02*
X227238095Y-83752380D01*
X227523809Y-83752380D02*
X227523809Y-82752380D01*
X227428571Y-82895238D01*
X227333333Y-82990476D01*
X227238095Y-83038095D01*
X228285714Y-83752380D02*
X228476190Y-83752380D01*
X228571428Y-83704761D01*
X228619047Y-83657142D01*
X228714285Y-83514285D01*
X228761904Y-83323809D01*
X228761904Y-82942857D01*
X228714285Y-82847619D01*
X228666666Y-82800000D01*
X228571428Y-82752380D01*
X228380952Y-82752380D01*
X228285714Y-82800000D01*
X228238095Y-82847619D01*
X228190476Y-82942857D01*
X228190476Y-83180952D01*
X228238095Y-83276190D01*
X228285714Y-83323809D01*
X228380952Y-83371428D01*
X228571428Y-83371428D01*
X228666666Y-83323809D01*
X228714285Y-83276190D01*
X228761904Y-83180952D01*
X226857142Y-88652380D02*
X226523809Y-88176190D01*
X226285714Y-88652380D02*
X226285714Y-87652380D01*
X226666666Y-87652380D01*
X226761904Y-87700000D01*
X226809523Y-87747619D01*
X226857142Y-87842857D01*
X226857142Y-87985714D01*
X226809523Y-88080952D01*
X226761904Y-88128571D01*
X226666666Y-88176190D01*
X226285714Y-88176190D01*
X227238095Y-87747619D02*
X227285714Y-87700000D01*
X227380952Y-87652380D01*
X227619047Y-87652380D01*
X227714285Y-87700000D01*
X227761904Y-87747619D01*
X227809523Y-87842857D01*
X227809523Y-87938095D01*
X227761904Y-88080952D01*
X227190476Y-88652380D01*
X227809523Y-88652380D01*
X228428571Y-87652380D02*
X228523809Y-87652380D01*
X228619047Y-87700000D01*
X228666666Y-87747619D01*
X228714285Y-87842857D01*
X228761904Y-88033333D01*
X228761904Y-88271428D01*
X228714285Y-88461904D01*
X228666666Y-88557142D01*
X228619047Y-88604761D01*
X228523809Y-88652380D01*
X228428571Y-88652380D01*
X228333333Y-88604761D01*
X228285714Y-88557142D01*
X228238095Y-88461904D01*
X228190476Y-88271428D01*
X228190476Y-88033333D01*
X228238095Y-87842857D01*
X228285714Y-87747619D01*
X228333333Y-87700000D01*
X228428571Y-87652380D01*
X226857142Y-93452380D02*
X226523809Y-92976190D01*
X226285714Y-93452380D02*
X226285714Y-92452380D01*
X226666666Y-92452380D01*
X226761904Y-92500000D01*
X226809523Y-92547619D01*
X226857142Y-92642857D01*
X226857142Y-92785714D01*
X226809523Y-92880952D01*
X226761904Y-92928571D01*
X226666666Y-92976190D01*
X226285714Y-92976190D01*
X227238095Y-92547619D02*
X227285714Y-92500000D01*
X227380952Y-92452380D01*
X227619047Y-92452380D01*
X227714285Y-92500000D01*
X227761904Y-92547619D01*
X227809523Y-92642857D01*
X227809523Y-92738095D01*
X227761904Y-92880952D01*
X227190476Y-93452380D01*
X227809523Y-93452380D01*
X228761904Y-93452380D02*
X228190476Y-93452380D01*
X228476190Y-93452380D02*
X228476190Y-92452380D01*
X228380952Y-92595238D01*
X228285714Y-92690476D01*
X228190476Y-92738095D01*
X226857142Y-114552380D02*
X226523809Y-114076190D01*
X226285714Y-114552380D02*
X226285714Y-113552380D01*
X226666666Y-113552380D01*
X226761904Y-113600000D01*
X226809523Y-113647619D01*
X226857142Y-113742857D01*
X226857142Y-113885714D01*
X226809523Y-113980952D01*
X226761904Y-114028571D01*
X226666666Y-114076190D01*
X226285714Y-114076190D01*
X227238095Y-113647619D02*
X227285714Y-113600000D01*
X227380952Y-113552380D01*
X227619047Y-113552380D01*
X227714285Y-113600000D01*
X227761904Y-113647619D01*
X227809523Y-113742857D01*
X227809523Y-113838095D01*
X227761904Y-113980952D01*
X227190476Y-114552380D01*
X227809523Y-114552380D01*
X228190476Y-113647619D02*
X228238095Y-113600000D01*
X228333333Y-113552380D01*
X228571428Y-113552380D01*
X228666666Y-113600000D01*
X228714285Y-113647619D01*
X228761904Y-113742857D01*
X228761904Y-113838095D01*
X228714285Y-113980952D01*
X228142857Y-114552380D01*
X228761904Y-114552380D01*
X226857142Y-119352380D02*
X226523809Y-118876190D01*
X226285714Y-119352380D02*
X226285714Y-118352380D01*
X226666666Y-118352380D01*
X226761904Y-118400000D01*
X226809523Y-118447619D01*
X226857142Y-118542857D01*
X226857142Y-118685714D01*
X226809523Y-118780952D01*
X226761904Y-118828571D01*
X226666666Y-118876190D01*
X226285714Y-118876190D01*
X227238095Y-118447619D02*
X227285714Y-118400000D01*
X227380952Y-118352380D01*
X227619047Y-118352380D01*
X227714285Y-118400000D01*
X227761904Y-118447619D01*
X227809523Y-118542857D01*
X227809523Y-118638095D01*
X227761904Y-118780952D01*
X227190476Y-119352380D01*
X227809523Y-119352380D01*
X228142857Y-118352380D02*
X228761904Y-118352380D01*
X228428571Y-118733333D01*
X228571428Y-118733333D01*
X228666666Y-118780952D01*
X228714285Y-118828571D01*
X228761904Y-118923809D01*
X228761904Y-119161904D01*
X228714285Y-119257142D01*
X228666666Y-119304761D01*
X228571428Y-119352380D01*
X228285714Y-119352380D01*
X228190476Y-119304761D01*
X228142857Y-119257142D01*
X226857142Y-124152380D02*
X226523809Y-123676190D01*
X226285714Y-124152380D02*
X226285714Y-123152380D01*
X226666666Y-123152380D01*
X226761904Y-123200000D01*
X226809523Y-123247619D01*
X226857142Y-123342857D01*
X226857142Y-123485714D01*
X226809523Y-123580952D01*
X226761904Y-123628571D01*
X226666666Y-123676190D01*
X226285714Y-123676190D01*
X227238095Y-123247619D02*
X227285714Y-123200000D01*
X227380952Y-123152380D01*
X227619047Y-123152380D01*
X227714285Y-123200000D01*
X227761904Y-123247619D01*
X227809523Y-123342857D01*
X227809523Y-123438095D01*
X227761904Y-123580952D01*
X227190476Y-124152380D01*
X227809523Y-124152380D01*
X228666666Y-123485714D02*
X228666666Y-124152380D01*
X228428571Y-123104761D02*
X228190476Y-123819047D01*
X228809523Y-123819047D01*
X226857142Y-129052380D02*
X226523809Y-128576190D01*
X226285714Y-129052380D02*
X226285714Y-128052380D01*
X226666666Y-128052380D01*
X226761904Y-128100000D01*
X226809523Y-128147619D01*
X226857142Y-128242857D01*
X226857142Y-128385714D01*
X226809523Y-128480952D01*
X226761904Y-128528571D01*
X226666666Y-128576190D01*
X226285714Y-128576190D01*
X227238095Y-128147619D02*
X227285714Y-128100000D01*
X227380952Y-128052380D01*
X227619047Y-128052380D01*
X227714285Y-128100000D01*
X227761904Y-128147619D01*
X227809523Y-128242857D01*
X227809523Y-128338095D01*
X227761904Y-128480952D01*
X227190476Y-129052380D01*
X227809523Y-129052380D01*
X228714285Y-128052380D02*
X228238095Y-128052380D01*
X228190476Y-128528571D01*
X228238095Y-128480952D01*
X228333333Y-128433333D01*
X228571428Y-128433333D01*
X228666666Y-128480952D01*
X228714285Y-128528571D01*
X228761904Y-128623809D01*
X228761904Y-128861904D01*
X228714285Y-128957142D01*
X228666666Y-129004761D01*
X228571428Y-129052380D01*
X228333333Y-129052380D01*
X228238095Y-129004761D01*
X228190476Y-128957142D01*
X121366666Y-41704761D02*
X121509523Y-41752380D01*
X121747619Y-41752380D01*
X121842857Y-41704761D01*
X121890476Y-41657142D01*
X121938095Y-41561904D01*
X121938095Y-41466666D01*
X121890476Y-41371428D01*
X121842857Y-41323809D01*
X121747619Y-41276190D01*
X121557142Y-41228571D01*
X121461904Y-41180952D01*
X121414285Y-41133333D01*
X121366666Y-41038095D01*
X121366666Y-40942857D01*
X121414285Y-40847619D01*
X121461904Y-40800000D01*
X121557142Y-40752380D01*
X121795238Y-40752380D01*
X121938095Y-40800000D01*
X122271428Y-40752380D02*
X122509523Y-41752380D01*
X122700000Y-41038095D01*
X122890476Y-41752380D01*
X123128571Y-40752380D01*
X124033333Y-41752380D02*
X123461904Y-41752380D01*
X123747619Y-41752380D02*
X123747619Y-40752380D01*
X123652380Y-40895238D01*
X123557142Y-40990476D01*
X123461904Y-41038095D01*
M02*
