G04 #@! TF.GenerationSoftware,KiCad,Pcbnew,(5.1.7-0-10_14)*
G04 #@! TF.CreationDate,2021-07-16T13:45:34+09:00*
G04 #@! TF.ProjectId,EiMS,45694d53-2e6b-4696-9361-645f70636258,1.0*
G04 #@! TF.SameCoordinates,Original*
G04 #@! TF.FileFunction,Soldermask,Top*
G04 #@! TF.FilePolarity,Negative*
%FSLAX46Y46*%
G04 Gerber Fmt 4.6, Leading zero omitted, Abs format (unit mm)*
G04 Created by KiCad (PCBNEW (5.1.7-0-10_14)) date 2021-07-16 13:45:34*
%MOMM*%
%LPD*%
G01*
G04 APERTURE LIST*
%ADD10O,1.600000X4.000000*%
%ADD11C,4.000000*%
%ADD12R,1.200000X1.600000*%
%ADD13O,1.200000X1.600000*%
%ADD14O,1.600000X1.600000*%
%ADD15R,0.800000X1.600000*%
%ADD16O,0.800000X1.600000*%
%ADD17C,3.400000*%
%ADD18C,1.600000*%
%ADD19R,1.600000X1.600000*%
%ADD20O,1.800000X1.800000*%
%ADD21R,1.800000X1.800000*%
%ADD22O,1.600000X1.200000*%
%ADD23R,1.600000X1.200000*%
%ADD24O,1.700000X1.700000*%
%ADD25R,1.700000X1.700000*%
%ADD26C,1.400000*%
%ADD27O,1.400000X1.400000*%
%ADD28O,4.000000X2.000000*%
%ADD29R,4.000000X2.000000*%
G04 APERTURE END LIST*
D10*
X185179000Y-130772000D03*
X177738000Y-130772000D03*
X205245000Y-130772000D03*
X212738000Y-130772000D03*
X185179000Y-95212000D03*
X177738000Y-95212000D03*
X205245000Y-95212000D03*
X212738000Y-95212000D03*
D11*
X46900000Y-37900000D03*
X239100000Y-37900000D03*
X46900000Y-153100000D03*
X239100000Y-153100000D03*
D12*
X84986000Y-76162000D03*
D13*
X84986000Y-83782000D03*
X82446000Y-83782000D03*
X79906000Y-83782000D03*
X77366000Y-83782000D03*
X74826000Y-83782000D03*
X72286000Y-83782000D03*
X69746000Y-83782000D03*
X67206000Y-83782000D03*
X64666000Y-83782000D03*
X62126000Y-83782000D03*
X59586000Y-83782000D03*
X57046000Y-83782000D03*
X54506000Y-83782000D03*
X51966000Y-83782000D03*
X51966000Y-76162000D03*
X54506000Y-76162000D03*
X57046000Y-76162000D03*
X59586000Y-76162000D03*
X62126000Y-76162000D03*
X64666000Y-76162000D03*
X67206000Y-76162000D03*
X69746000Y-76162000D03*
X72286000Y-76162000D03*
X74826000Y-76162000D03*
X77366000Y-76162000D03*
X79906000Y-76162000D03*
X82446000Y-76162000D03*
X97673500Y-121884500D03*
X100213500Y-121884500D03*
X102753500Y-121884500D03*
X105293500Y-121884500D03*
X97673500Y-114264500D03*
X100213500Y-114264500D03*
X102753500Y-114264500D03*
D12*
X105293500Y-114264500D03*
D14*
X140100000Y-79980000D03*
X137560000Y-79980000D03*
X122320000Y-79980000D03*
X117240000Y-79980000D03*
X117240000Y-64760000D03*
X122320000Y-64760000D03*
X137560000Y-64760000D03*
X140100000Y-64760000D03*
D15*
X100900000Y-65400000D03*
D16*
X100900000Y-67940000D03*
X100900000Y-70480000D03*
D17*
X167879100Y-52700000D03*
X221714400Y-52700000D03*
D18*
X237300000Y-52700000D03*
D19*
X152300000Y-52700000D03*
D20*
X98900000Y-86160000D03*
D21*
X98900000Y-76000000D03*
D20*
X93700000Y-86160000D03*
D21*
X93700000Y-76000000D03*
D22*
X85020000Y-135800000D03*
X85020000Y-125640000D03*
X85020000Y-143420000D03*
X85020000Y-105320000D03*
X85020000Y-145960000D03*
X85020000Y-115480000D03*
X85020000Y-112940000D03*
X85020000Y-133260000D03*
X85020000Y-100240000D03*
X85020000Y-97700000D03*
X85020000Y-107860000D03*
X85020000Y-128180000D03*
X85020000Y-118020000D03*
X85020000Y-120560000D03*
X85020000Y-110400000D03*
X85020000Y-102780000D03*
X85020000Y-130720000D03*
X85020000Y-138340000D03*
X85020000Y-140880000D03*
X85020000Y-123100000D03*
X52000000Y-145960000D03*
X52000000Y-143420000D03*
X52000000Y-140880000D03*
X52000000Y-138340000D03*
X52000000Y-135800000D03*
X52000000Y-133260000D03*
X52000000Y-130720000D03*
X52000000Y-128180000D03*
X52000000Y-125640000D03*
X52000000Y-123100000D03*
X52000000Y-120560000D03*
X52000000Y-118020000D03*
X52000000Y-115480000D03*
X52000000Y-112940000D03*
X52000000Y-110400000D03*
X52000000Y-107860000D03*
X52000000Y-105320000D03*
X52000000Y-102780000D03*
X52000000Y-100240000D03*
D23*
X52000000Y-97700000D03*
D22*
X170066000Y-130772000D03*
X170066000Y-135852000D03*
X170066000Y-133312000D03*
X170066000Y-140932000D03*
X170066000Y-138392000D03*
X116726000Y-140932000D03*
X116726000Y-138392000D03*
X116726000Y-135852000D03*
X116726000Y-133312000D03*
D23*
X116726000Y-130772000D03*
D22*
X170066000Y-95212000D03*
X170066000Y-100292000D03*
X170066000Y-97752000D03*
X170066000Y-105372000D03*
X170066000Y-102832000D03*
X116726000Y-105372000D03*
X116726000Y-102832000D03*
X116726000Y-100292000D03*
X116726000Y-97752000D03*
D23*
X116726000Y-95212000D03*
D14*
X153556000Y-81496000D03*
X153556000Y-66256000D03*
X171336000Y-81496000D03*
D22*
X171336000Y-76416000D03*
X171336000Y-71336000D03*
D19*
X171336000Y-66256000D03*
D10*
X230614000Y-140932000D03*
X236464000Y-140932000D03*
X241814000Y-140932000D03*
D18*
X63320000Y-73434000D03*
X58240000Y-73434000D03*
X92850000Y-62192000D03*
X87770000Y-62192000D03*
X111001000Y-64734500D03*
X111001000Y-69814500D03*
X111001000Y-74894500D03*
X111001000Y-79974500D03*
X90056000Y-115024000D03*
X95136000Y-115024000D03*
X107836000Y-121120000D03*
X112916000Y-121120000D03*
X86688000Y-86896000D03*
X81608000Y-86896000D03*
D24*
X64656000Y-66002000D03*
X62116000Y-66002000D03*
X59576000Y-66002000D03*
X57036000Y-66002000D03*
X54496000Y-66002000D03*
D25*
X51956000Y-66002000D03*
D10*
X241814000Y-105372000D03*
X236464000Y-105372000D03*
X230614000Y-105372000D03*
D24*
X221882000Y-80734000D03*
D25*
X219342000Y-80734000D03*
D24*
X221882000Y-85560000D03*
D25*
X219342000Y-85560000D03*
X219342000Y-90386000D03*
D24*
X221882000Y-90386000D03*
X221882000Y-95212000D03*
D25*
X219342000Y-95212000D03*
X219342000Y-116294000D03*
D24*
X221882000Y-116294000D03*
D25*
X219342000Y-121120000D03*
D24*
X221882000Y-121120000D03*
D25*
X219342000Y-125946000D03*
D24*
X221882000Y-125946000D03*
X221882000Y-130772000D03*
D25*
X219342000Y-130772000D03*
D14*
X74562000Y-62192000D03*
D18*
X82182000Y-62192000D03*
D14*
X84976000Y-63208000D03*
D18*
X84976000Y-70828000D03*
D14*
X89440000Y-92191000D03*
D18*
X97060000Y-92191000D03*
X89440000Y-96255000D03*
D14*
X97060000Y-96255000D03*
X89440000Y-100319000D03*
D18*
X97060000Y-100319000D03*
X89440000Y-104383000D03*
D14*
X97060000Y-104383000D03*
X107800000Y-118100000D03*
D18*
X100180000Y-118100000D03*
D14*
X90056000Y-126200000D03*
D18*
X97676000Y-126200000D03*
D26*
X98438000Y-136360000D03*
D27*
X98438000Y-131280000D03*
D14*
X102756000Y-135090000D03*
D18*
X102756000Y-142710000D03*
X102756000Y-132550000D03*
D14*
X102756000Y-124930000D03*
D18*
X100216000Y-109944000D03*
D14*
X92596000Y-109944000D03*
D18*
X105296000Y-111214000D03*
D14*
X105296000Y-103594000D03*
D18*
X105296000Y-101054000D03*
D14*
X105296000Y-93434000D03*
D27*
X100978000Y-99784000D03*
D26*
X100978000Y-104864000D03*
D14*
X165494000Y-106642000D03*
D18*
X165494000Y-99022000D03*
D14*
X165494000Y-142202000D03*
D18*
X165494000Y-134582000D03*
X233312000Y-80734000D03*
D14*
X225692000Y-80734000D03*
X225692000Y-85560000D03*
D18*
X233312000Y-85560000D03*
X233312000Y-90386000D03*
D14*
X225692000Y-90386000D03*
X225692000Y-95212000D03*
D18*
X233312000Y-95212000D03*
X233312000Y-116294000D03*
D14*
X225692000Y-116294000D03*
D18*
X233312000Y-121120000D03*
D14*
X225692000Y-121120000D03*
X225692000Y-125946000D03*
D18*
X233312000Y-125946000D03*
X233312000Y-130772000D03*
D14*
X225692000Y-130772000D03*
D28*
X125254000Y-44079000D03*
X125254000Y-48779000D03*
D29*
X125254000Y-53479000D03*
M02*
