G04 #@! TF.GenerationSoftware,KiCad,Pcbnew,(5.1.7-0-10_14)*
G04 #@! TF.CreationDate,2021-07-16T13:45:34+09:00*
G04 #@! TF.ProjectId,EiMS,45694d53-2e6b-4696-9361-645f70636258,1.0*
G04 #@! TF.SameCoordinates,Original*
G04 #@! TF.FileFunction,Legend,Bot*
G04 #@! TF.FilePolarity,Positive*
%FSLAX46Y46*%
G04 Gerber Fmt 4.6, Leading zero omitted, Abs format (unit mm)*
G04 Created by KiCad (PCBNEW (5.1.7-0-10_14)) date 2021-07-16 13:45:34*
%MOMM*%
%LPD*%
G01*
G04 APERTURE LIST*
%ADD10C,0.300000*%
%ADD11C,0.120000*%
%ADD12C,0.100000*%
%ADD13C,0.150000*%
G04 APERTURE END LIST*
D10*
X216947857Y-38767857D02*
X216733571Y-38839285D01*
X216662142Y-38910714D01*
X216590714Y-39053571D01*
X216590714Y-39267857D01*
X216662142Y-39410714D01*
X216733571Y-39482142D01*
X216876428Y-39553571D01*
X217447857Y-39553571D01*
X217447857Y-38053571D01*
X216947857Y-38053571D01*
X216805000Y-38125000D01*
X216733571Y-38196428D01*
X216662142Y-38339285D01*
X216662142Y-38482142D01*
X216733571Y-38625000D01*
X216805000Y-38696428D01*
X216947857Y-38767857D01*
X217447857Y-38767857D01*
X215733571Y-39553571D02*
X215876428Y-39482142D01*
X215947857Y-39410714D01*
X216019285Y-39267857D01*
X216019285Y-38839285D01*
X215947857Y-38696428D01*
X215876428Y-38625000D01*
X215733571Y-38553571D01*
X215519285Y-38553571D01*
X215376428Y-38625000D01*
X215305000Y-38696428D01*
X215233571Y-38839285D01*
X215233571Y-39267857D01*
X215305000Y-39410714D01*
X215376428Y-39482142D01*
X215519285Y-39553571D01*
X215733571Y-39553571D01*
X213947857Y-39553571D02*
X213947857Y-38767857D01*
X214019285Y-38625000D01*
X214162142Y-38553571D01*
X214447857Y-38553571D01*
X214590714Y-38625000D01*
X213947857Y-39482142D02*
X214090714Y-39553571D01*
X214447857Y-39553571D01*
X214590714Y-39482142D01*
X214662142Y-39339285D01*
X214662142Y-39196428D01*
X214590714Y-39053571D01*
X214447857Y-38982142D01*
X214090714Y-38982142D01*
X213947857Y-38910714D01*
X213233571Y-39553571D02*
X213233571Y-38553571D01*
X213233571Y-38839285D02*
X213162142Y-38696428D01*
X213090714Y-38625000D01*
X212947857Y-38553571D01*
X212805000Y-38553571D01*
X211662142Y-39553571D02*
X211662142Y-38053571D01*
X211662142Y-39482142D02*
X211805000Y-39553571D01*
X212090714Y-39553571D01*
X212233571Y-39482142D01*
X212305000Y-39410714D01*
X212376428Y-39267857D01*
X212376428Y-38839285D01*
X212305000Y-38696428D01*
X212233571Y-38625000D01*
X212090714Y-38553571D01*
X211805000Y-38553571D01*
X211662142Y-38625000D01*
X210019285Y-38553571D02*
X209447857Y-38553571D01*
X209805000Y-39553571D02*
X209805000Y-38267857D01*
X209733571Y-38125000D01*
X209590714Y-38053571D01*
X209447857Y-38053571D01*
X208733571Y-39553571D02*
X208876428Y-39482142D01*
X208947857Y-39410714D01*
X209019285Y-39267857D01*
X209019285Y-38839285D01*
X208947857Y-38696428D01*
X208876428Y-38625000D01*
X208733571Y-38553571D01*
X208519285Y-38553571D01*
X208376428Y-38625000D01*
X208305000Y-38696428D01*
X208233571Y-38839285D01*
X208233571Y-39267857D01*
X208305000Y-39410714D01*
X208376428Y-39482142D01*
X208519285Y-39553571D01*
X208733571Y-39553571D01*
X207590714Y-39553571D02*
X207590714Y-38553571D01*
X207590714Y-38839285D02*
X207519285Y-38696428D01*
X207447857Y-38625000D01*
X207305000Y-38553571D01*
X207162142Y-38553571D01*
X205090714Y-38125000D02*
X205090714Y-38053571D01*
X205019285Y-37910714D01*
X204947857Y-37839285D01*
X205662142Y-38125000D02*
X205662142Y-38053571D01*
X205590714Y-37910714D01*
X205519285Y-37839285D01*
X204376428Y-38767857D02*
X203876428Y-38767857D01*
X203662142Y-39553571D02*
X204376428Y-39553571D01*
X204376428Y-38053571D01*
X203662142Y-38053571D01*
X203019285Y-39553571D02*
X203019285Y-38553571D01*
X203019285Y-38053571D02*
X203090714Y-38125000D01*
X203019285Y-38196428D01*
X202947857Y-38125000D01*
X203019285Y-38053571D01*
X203019285Y-38196428D01*
X202305000Y-39553571D02*
X202305000Y-38053571D01*
X201805000Y-39125000D01*
X201305000Y-38053571D01*
X201305000Y-39553571D01*
X200662142Y-39482142D02*
X200447857Y-39553571D01*
X200090714Y-39553571D01*
X199947857Y-39482142D01*
X199876428Y-39410714D01*
X199805000Y-39267857D01*
X199805000Y-39125000D01*
X199876428Y-38982142D01*
X199947857Y-38910714D01*
X200090714Y-38839285D01*
X200376428Y-38767857D01*
X200519285Y-38696428D01*
X200590714Y-38625000D01*
X200662142Y-38482142D01*
X200662142Y-38339285D01*
X200590714Y-38196428D01*
X200519285Y-38125000D01*
X200376428Y-38053571D01*
X200019285Y-38053571D01*
X199805000Y-38125000D01*
X198019285Y-39553571D02*
X198019285Y-38053571D01*
X197662142Y-38053571D01*
X197447857Y-38125000D01*
X197305000Y-38267857D01*
X197233571Y-38410714D01*
X197162142Y-38696428D01*
X197162142Y-38910714D01*
X197233571Y-39196428D01*
X197305000Y-39339285D01*
X197447857Y-39482142D01*
X197662142Y-39553571D01*
X198019285Y-39553571D01*
X195947857Y-39482142D02*
X196090714Y-39553571D01*
X196376428Y-39553571D01*
X196519285Y-39482142D01*
X196590714Y-39339285D01*
X196590714Y-38767857D01*
X196519285Y-38625000D01*
X196376428Y-38553571D01*
X196090714Y-38553571D01*
X195947857Y-38625000D01*
X195876428Y-38767857D01*
X195876428Y-38910714D01*
X196590714Y-39053571D01*
X195376428Y-38553571D02*
X195019285Y-39553571D01*
X194662142Y-38553571D01*
X194090714Y-39553571D02*
X194090714Y-38553571D01*
X194090714Y-38053571D02*
X194162142Y-38125000D01*
X194090714Y-38196428D01*
X194019285Y-38125000D01*
X194090714Y-38053571D01*
X194090714Y-38196428D01*
X192733571Y-39482142D02*
X192876428Y-39553571D01*
X193162142Y-39553571D01*
X193305000Y-39482142D01*
X193376428Y-39410714D01*
X193447857Y-39267857D01*
X193447857Y-38839285D01*
X193376428Y-38696428D01*
X193305000Y-38625000D01*
X193162142Y-38553571D01*
X192876428Y-38553571D01*
X192733571Y-38625000D01*
X191519285Y-39482142D02*
X191662142Y-39553571D01*
X191947857Y-39553571D01*
X192090714Y-39482142D01*
X192162142Y-39339285D01*
X192162142Y-38767857D01*
X192090714Y-38625000D01*
X191947857Y-38553571D01*
X191662142Y-38553571D01*
X191519285Y-38625000D01*
X191447857Y-38767857D01*
X191447857Y-38910714D01*
X192162142Y-39053571D01*
X190805000Y-38053571D02*
X190805000Y-38125000D01*
X190876428Y-38267857D01*
X190947857Y-38339285D01*
X190233571Y-38053571D02*
X190233571Y-38125000D01*
X190305000Y-38267857D01*
X190376428Y-38339285D01*
X217662142Y-40603571D02*
X216805000Y-40603571D01*
X217233571Y-42103571D02*
X217233571Y-40603571D01*
X216305000Y-41317857D02*
X215805000Y-41317857D01*
X215590714Y-42103571D02*
X216305000Y-42103571D01*
X216305000Y-40603571D01*
X215590714Y-40603571D01*
X215019285Y-42032142D02*
X214805000Y-42103571D01*
X214447857Y-42103571D01*
X214305000Y-42032142D01*
X214233571Y-41960714D01*
X214162142Y-41817857D01*
X214162142Y-41675000D01*
X214233571Y-41532142D01*
X214305000Y-41460714D01*
X214447857Y-41389285D01*
X214733571Y-41317857D01*
X214876428Y-41246428D01*
X214947857Y-41175000D01*
X215019285Y-41032142D01*
X215019285Y-40889285D01*
X214947857Y-40746428D01*
X214876428Y-40675000D01*
X214733571Y-40603571D01*
X214376428Y-40603571D01*
X214162142Y-40675000D01*
X213733571Y-40603571D02*
X212876428Y-40603571D01*
X213305000Y-42103571D02*
X213305000Y-40603571D01*
X212376428Y-41532142D02*
X211233571Y-41532142D01*
X210733571Y-40603571D02*
X209876428Y-40603571D01*
X210305000Y-42103571D02*
X210305000Y-40603571D01*
X209519285Y-41103571D02*
X209162142Y-42103571D01*
X208805000Y-41103571D02*
X209162142Y-42103571D01*
X209305000Y-42460714D01*
X209376428Y-42532142D01*
X209519285Y-42603571D01*
X208233571Y-41103571D02*
X208233571Y-42603571D01*
X208233571Y-41175000D02*
X208090714Y-41103571D01*
X207805000Y-41103571D01*
X207662142Y-41175000D01*
X207590714Y-41246428D01*
X207519285Y-41389285D01*
X207519285Y-41817857D01*
X207590714Y-41960714D01*
X207662142Y-42032142D01*
X207805000Y-42103571D01*
X208090714Y-42103571D01*
X208233571Y-42032142D01*
X206305000Y-42032142D02*
X206447857Y-42103571D01*
X206733571Y-42103571D01*
X206876428Y-42032142D01*
X206947857Y-41889285D01*
X206947857Y-41317857D01*
X206876428Y-41175000D01*
X206733571Y-41103571D01*
X206447857Y-41103571D01*
X206305000Y-41175000D01*
X206233571Y-41317857D01*
X206233571Y-41460714D01*
X206947857Y-41603571D01*
X204447857Y-41532142D02*
X203305000Y-41532142D01*
X201662142Y-40603571D02*
X201162142Y-42103571D01*
X200662142Y-40603571D01*
X199590714Y-42032142D02*
X199733571Y-42103571D01*
X200019285Y-42103571D01*
X200162142Y-42032142D01*
X200233571Y-41889285D01*
X200233571Y-41317857D01*
X200162142Y-41175000D01*
X200019285Y-41103571D01*
X199733571Y-41103571D01*
X199590714Y-41175000D01*
X199519285Y-41317857D01*
X199519285Y-41460714D01*
X200233571Y-41603571D01*
X198876428Y-42103571D02*
X198876428Y-41103571D01*
X198876428Y-41389285D02*
X198805000Y-41246428D01*
X198733571Y-41175000D01*
X198590714Y-41103571D01*
X198447857Y-41103571D01*
X197947857Y-41960714D02*
X197876428Y-42032142D01*
X197947857Y-42103571D01*
X198019285Y-42032142D01*
X197947857Y-41960714D01*
X197947857Y-42103571D01*
X195305000Y-42103571D02*
X196162142Y-42103571D01*
X195733571Y-42103571D02*
X195733571Y-40603571D01*
X195876428Y-40817857D01*
X196019285Y-40960714D01*
X196162142Y-41032142D01*
X194662142Y-41960714D02*
X194590714Y-42032142D01*
X194662142Y-42103571D01*
X194733571Y-42032142D01*
X194662142Y-41960714D01*
X194662142Y-42103571D01*
X193162142Y-42103571D02*
X194019285Y-42103571D01*
X193590714Y-42103571D02*
X193590714Y-40603571D01*
X193733571Y-40817857D01*
X193876428Y-40960714D01*
X194019285Y-41032142D01*
X217447857Y-47203571D02*
X217447857Y-45703571D01*
X216876428Y-45703571D01*
X216733571Y-45775000D01*
X216662142Y-45846428D01*
X216590714Y-45989285D01*
X216590714Y-46203571D01*
X216662142Y-46346428D01*
X216733571Y-46417857D01*
X216876428Y-46489285D01*
X217447857Y-46489285D01*
X215733571Y-47203571D02*
X215876428Y-47132142D01*
X215947857Y-47060714D01*
X216019285Y-46917857D01*
X216019285Y-46489285D01*
X215947857Y-46346428D01*
X215876428Y-46275000D01*
X215733571Y-46203571D01*
X215519285Y-46203571D01*
X215376428Y-46275000D01*
X215305000Y-46346428D01*
X215233571Y-46489285D01*
X215233571Y-46917857D01*
X215305000Y-47060714D01*
X215376428Y-47132142D01*
X215519285Y-47203571D01*
X215733571Y-47203571D01*
X214733571Y-46203571D02*
X214447857Y-47203571D01*
X214162142Y-46489285D01*
X213876428Y-47203571D01*
X213590714Y-46203571D01*
X212447857Y-47132142D02*
X212590714Y-47203571D01*
X212876428Y-47203571D01*
X213019285Y-47132142D01*
X213090714Y-46989285D01*
X213090714Y-46417857D01*
X213019285Y-46275000D01*
X212876428Y-46203571D01*
X212590714Y-46203571D01*
X212447857Y-46275000D01*
X212376428Y-46417857D01*
X212376428Y-46560714D01*
X213090714Y-46703571D01*
X211733571Y-47203571D02*
X211733571Y-46203571D01*
X211733571Y-46489285D02*
X211662142Y-46346428D01*
X211590714Y-46275000D01*
X211447857Y-46203571D01*
X211305000Y-46203571D01*
X209733571Y-47132142D02*
X209519285Y-47203571D01*
X209162142Y-47203571D01*
X209019285Y-47132142D01*
X208947857Y-47060714D01*
X208876428Y-46917857D01*
X208876428Y-46775000D01*
X208947857Y-46632142D01*
X209019285Y-46560714D01*
X209162142Y-46489285D01*
X209447857Y-46417857D01*
X209590714Y-46346428D01*
X209662142Y-46275000D01*
X209733571Y-46132142D01*
X209733571Y-45989285D01*
X209662142Y-45846428D01*
X209590714Y-45775000D01*
X209447857Y-45703571D01*
X209090714Y-45703571D01*
X208876428Y-45775000D01*
X207590714Y-46203571D02*
X207590714Y-47203571D01*
X208233571Y-46203571D02*
X208233571Y-46989285D01*
X208162142Y-47132142D01*
X208019285Y-47203571D01*
X207805000Y-47203571D01*
X207662142Y-47132142D01*
X207590714Y-47060714D01*
X206876428Y-46203571D02*
X206876428Y-47703571D01*
X206876428Y-46275000D02*
X206733571Y-46203571D01*
X206447857Y-46203571D01*
X206305000Y-46275000D01*
X206233571Y-46346428D01*
X206162142Y-46489285D01*
X206162142Y-46917857D01*
X206233571Y-47060714D01*
X206305000Y-47132142D01*
X206447857Y-47203571D01*
X206733571Y-47203571D01*
X206876428Y-47132142D01*
X205519285Y-46203571D02*
X205519285Y-47703571D01*
X205519285Y-46275000D02*
X205376428Y-46203571D01*
X205090714Y-46203571D01*
X204947857Y-46275000D01*
X204876428Y-46346428D01*
X204805000Y-46489285D01*
X204805000Y-46917857D01*
X204876428Y-47060714D01*
X204947857Y-47132142D01*
X205090714Y-47203571D01*
X205376428Y-47203571D01*
X205519285Y-47132142D01*
X203947857Y-47203571D02*
X204090714Y-47132142D01*
X204162142Y-46989285D01*
X204162142Y-45703571D01*
X203519285Y-46203571D02*
X203162142Y-47203571D01*
X202805000Y-46203571D02*
X203162142Y-47203571D01*
X203305000Y-47560714D01*
X203376428Y-47632142D01*
X203519285Y-47703571D01*
X200090714Y-46703571D02*
X198805000Y-46703571D01*
X194019285Y-47203571D02*
X194876428Y-47203571D01*
X194447857Y-47203571D02*
X194447857Y-45703571D01*
X194590714Y-45917857D01*
X194733571Y-46060714D01*
X194876428Y-46132142D01*
X193447857Y-45846428D02*
X193376428Y-45775000D01*
X193233571Y-45703571D01*
X192876428Y-45703571D01*
X192733571Y-45775000D01*
X192662142Y-45846428D01*
X192590714Y-45989285D01*
X192590714Y-46132142D01*
X192662142Y-46346428D01*
X193519285Y-47203571D01*
X192590714Y-47203571D01*
X192162142Y-45703571D02*
X191662142Y-47203571D01*
X191162142Y-45703571D01*
X190590714Y-47132142D02*
X190590714Y-47203571D01*
X190662142Y-47346428D01*
X190733571Y-47417857D01*
X188805000Y-46346428D02*
X187662142Y-46346428D01*
X188233571Y-46917857D02*
X188233571Y-45775000D01*
X187662142Y-47203571D02*
X188805000Y-47203571D01*
X186233571Y-45703571D02*
X186947857Y-45703571D01*
X187019285Y-46417857D01*
X186947857Y-46346428D01*
X186805000Y-46275000D01*
X186447857Y-46275000D01*
X186305000Y-46346428D01*
X186233571Y-46417857D01*
X186162142Y-46560714D01*
X186162142Y-46917857D01*
X186233571Y-47060714D01*
X186305000Y-47132142D01*
X186447857Y-47203571D01*
X186805000Y-47203571D01*
X186947857Y-47132142D01*
X187019285Y-47060714D01*
X185733571Y-45703571D02*
X185233571Y-47203571D01*
X184733571Y-45703571D01*
X184162142Y-47132142D02*
X184162142Y-47203571D01*
X184233571Y-47346428D01*
X184305000Y-47417857D01*
X182519285Y-45703571D02*
X181590714Y-45703571D01*
X182090714Y-46275000D01*
X181876428Y-46275000D01*
X181733571Y-46346428D01*
X181662142Y-46417857D01*
X181590714Y-46560714D01*
X181590714Y-46917857D01*
X181662142Y-47060714D01*
X181733571Y-47132142D01*
X181876428Y-47203571D01*
X182305000Y-47203571D01*
X182447857Y-47132142D01*
X182519285Y-47060714D01*
X180947857Y-47060714D02*
X180876428Y-47132142D01*
X180947857Y-47203571D01*
X181019285Y-47132142D01*
X180947857Y-47060714D01*
X180947857Y-47203571D01*
X180376428Y-45703571D02*
X179376428Y-45703571D01*
X180019285Y-47203571D01*
X179019285Y-45703571D02*
X178519285Y-47203571D01*
X178019285Y-45703571D01*
X175162142Y-47203571D02*
X175233571Y-47203571D01*
X175376428Y-47132142D01*
X175590714Y-46917857D01*
X175947857Y-46489285D01*
X176090714Y-46275000D01*
X176162142Y-46060714D01*
X176162142Y-45917857D01*
X176090714Y-45775000D01*
X175947857Y-45703571D01*
X175876428Y-45703571D01*
X175733571Y-45775000D01*
X175662142Y-45917857D01*
X175662142Y-45989285D01*
X175733571Y-46132142D01*
X175805000Y-46203571D01*
X176233571Y-46489285D01*
X176305000Y-46560714D01*
X176376428Y-46703571D01*
X176376428Y-46917857D01*
X176305000Y-47060714D01*
X176233571Y-47132142D01*
X176090714Y-47203571D01*
X175876428Y-47203571D01*
X175733571Y-47132142D01*
X175662142Y-47060714D01*
X175447857Y-46775000D01*
X175376428Y-46560714D01*
X175376428Y-46417857D01*
X173519285Y-45703571D02*
X172590714Y-45703571D01*
X173090714Y-46275000D01*
X172876428Y-46275000D01*
X172733571Y-46346428D01*
X172662142Y-46417857D01*
X172590714Y-46560714D01*
X172590714Y-46917857D01*
X172662142Y-47060714D01*
X172733571Y-47132142D01*
X172876428Y-47203571D01*
X173305000Y-47203571D01*
X173447857Y-47132142D01*
X173519285Y-47060714D01*
X171947857Y-47060714D02*
X171876428Y-47132142D01*
X171947857Y-47203571D01*
X172019285Y-47132142D01*
X171947857Y-47060714D01*
X171947857Y-47203571D01*
X171376428Y-45703571D02*
X170447857Y-45703571D01*
X170947857Y-46275000D01*
X170733571Y-46275000D01*
X170590714Y-46346428D01*
X170519285Y-46417857D01*
X170447857Y-46560714D01*
X170447857Y-46917857D01*
X170519285Y-47060714D01*
X170590714Y-47132142D01*
X170733571Y-47203571D01*
X171162142Y-47203571D01*
X171305000Y-47132142D01*
X171376428Y-47060714D01*
X170019285Y-45703571D02*
X169519285Y-47203571D01*
X169019285Y-45703571D01*
X217447857Y-49753571D02*
X217447857Y-48253571D01*
X216947857Y-49325000D01*
X216447857Y-48253571D01*
X216447857Y-49753571D01*
X215090714Y-49753571D02*
X215090714Y-48967857D01*
X215162142Y-48825000D01*
X215305000Y-48753571D01*
X215590714Y-48753571D01*
X215733571Y-48825000D01*
X215090714Y-49682142D02*
X215233571Y-49753571D01*
X215590714Y-49753571D01*
X215733571Y-49682142D01*
X215805000Y-49539285D01*
X215805000Y-49396428D01*
X215733571Y-49253571D01*
X215590714Y-49182142D01*
X215233571Y-49182142D01*
X215090714Y-49110714D01*
X214519285Y-49753571D02*
X213733571Y-48753571D01*
X214519285Y-48753571D02*
X213733571Y-49753571D01*
X213162142Y-49610714D02*
X213090714Y-49682142D01*
X213162142Y-49753571D01*
X213233571Y-49682142D01*
X213162142Y-49610714D01*
X213162142Y-49753571D01*
X211519285Y-48253571D02*
X211019285Y-49753571D01*
X210519285Y-48253571D01*
X209805000Y-49753571D02*
X209947857Y-49682142D01*
X210019285Y-49610714D01*
X210090714Y-49467857D01*
X210090714Y-49039285D01*
X210019285Y-48896428D01*
X209947857Y-48825000D01*
X209805000Y-48753571D01*
X209590714Y-48753571D01*
X209447857Y-48825000D01*
X209376428Y-48896428D01*
X209305000Y-49039285D01*
X209305000Y-49467857D01*
X209376428Y-49610714D01*
X209447857Y-49682142D01*
X209590714Y-49753571D01*
X209805000Y-49753571D01*
X208447857Y-49753571D02*
X208590714Y-49682142D01*
X208662142Y-49539285D01*
X208662142Y-48253571D01*
X208090714Y-48753571D02*
X207519285Y-48753571D01*
X207876428Y-48253571D02*
X207876428Y-49539285D01*
X207804999Y-49682142D01*
X207662142Y-49753571D01*
X207519285Y-49753571D01*
X206376428Y-49753571D02*
X206376428Y-48967857D01*
X206447857Y-48825000D01*
X206590714Y-48753571D01*
X206876428Y-48753571D01*
X207019285Y-48825000D01*
X206376428Y-49682142D02*
X206519285Y-49753571D01*
X206876428Y-49753571D01*
X207019285Y-49682142D01*
X207090714Y-49539285D01*
X207090714Y-49396428D01*
X207019285Y-49253571D01*
X206876428Y-49182142D01*
X206519285Y-49182142D01*
X206376428Y-49110714D01*
X205019285Y-48753571D02*
X205019285Y-49967857D01*
X205090714Y-50110714D01*
X205162142Y-50182142D01*
X205304999Y-50253571D01*
X205519285Y-50253571D01*
X205662142Y-50182142D01*
X205019285Y-49682142D02*
X205162142Y-49753571D01*
X205447857Y-49753571D01*
X205590714Y-49682142D01*
X205662142Y-49610714D01*
X205733571Y-49467857D01*
X205733571Y-49039285D01*
X205662142Y-48896428D01*
X205590714Y-48825000D01*
X205447857Y-48753571D01*
X205162142Y-48753571D01*
X205019285Y-48825000D01*
X203733571Y-49682142D02*
X203876428Y-49753571D01*
X204162142Y-49753571D01*
X204304999Y-49682142D01*
X204376428Y-49539285D01*
X204376428Y-48967857D01*
X204304999Y-48825000D01*
X204162142Y-48753571D01*
X203876428Y-48753571D01*
X203733571Y-48825000D01*
X203662142Y-48967857D01*
X203662142Y-49110714D01*
X204376428Y-49253571D01*
X201662142Y-49753571D02*
X201804999Y-49682142D01*
X201876428Y-49610714D01*
X201947857Y-49467857D01*
X201947857Y-49039285D01*
X201876428Y-48896428D01*
X201804999Y-48825000D01*
X201662142Y-48753571D01*
X201447857Y-48753571D01*
X201304999Y-48825000D01*
X201233571Y-48896428D01*
X201162142Y-49039285D01*
X201162142Y-49467857D01*
X201233571Y-49610714D01*
X201304999Y-49682142D01*
X201447857Y-49753571D01*
X201662142Y-49753571D01*
X200733571Y-48753571D02*
X200162142Y-48753571D01*
X200519285Y-49753571D02*
X200519285Y-48467857D01*
X200447857Y-48325000D01*
X200304999Y-48253571D01*
X200162142Y-48253571D01*
X198590714Y-49682142D02*
X198376428Y-49753571D01*
X198019285Y-49753571D01*
X197876428Y-49682142D01*
X197804999Y-49610714D01*
X197733571Y-49467857D01*
X197733571Y-49325000D01*
X197804999Y-49182142D01*
X197876428Y-49110714D01*
X198019285Y-49039285D01*
X198304999Y-48967857D01*
X198447857Y-48896428D01*
X198519285Y-48825000D01*
X198590714Y-48682142D01*
X198590714Y-48539285D01*
X198519285Y-48396428D01*
X198447857Y-48325000D01*
X198304999Y-48253571D01*
X197947857Y-48253571D01*
X197733571Y-48325000D01*
X197304999Y-48753571D02*
X196733571Y-48753571D01*
X197090714Y-48253571D02*
X197090714Y-49539285D01*
X197019285Y-49682142D01*
X196876428Y-49753571D01*
X196733571Y-49753571D01*
X196233571Y-49753571D02*
X196233571Y-48753571D01*
X196233571Y-48253571D02*
X196304999Y-48325000D01*
X196233571Y-48396428D01*
X196162142Y-48325000D01*
X196233571Y-48253571D01*
X196233571Y-48396428D01*
X195519285Y-49753571D02*
X195519285Y-48753571D01*
X195519285Y-48896428D02*
X195447857Y-48825000D01*
X195304999Y-48753571D01*
X195090714Y-48753571D01*
X194947857Y-48825000D01*
X194876428Y-48967857D01*
X194876428Y-49753571D01*
X194876428Y-48967857D02*
X194804999Y-48825000D01*
X194662142Y-48753571D01*
X194447857Y-48753571D01*
X194304999Y-48825000D01*
X194233571Y-48967857D01*
X194233571Y-49753571D01*
X192876428Y-48753571D02*
X192876428Y-49753571D01*
X193519285Y-48753571D02*
X193519285Y-49539285D01*
X193447857Y-49682142D01*
X193304999Y-49753571D01*
X193090714Y-49753571D01*
X192947857Y-49682142D01*
X192876428Y-49610714D01*
X192162142Y-49610714D02*
X192090714Y-49682142D01*
X192162142Y-49753571D01*
X192233571Y-49682142D01*
X192162142Y-49610714D01*
X192162142Y-49753571D01*
X189304999Y-49253571D02*
X188019285Y-49253571D01*
X184019285Y-48896428D02*
X182876428Y-48896428D01*
X183447857Y-49467857D02*
X183447857Y-48325000D01*
X182876428Y-49753571D02*
X184019285Y-49753571D01*
X181519285Y-48253571D02*
X181804999Y-48253571D01*
X181947857Y-48325000D01*
X182019285Y-48396428D01*
X182162142Y-48610714D01*
X182233571Y-48896428D01*
X182233571Y-49467857D01*
X182162142Y-49610714D01*
X182090714Y-49682142D01*
X181947857Y-49753571D01*
X181662142Y-49753571D01*
X181519285Y-49682142D01*
X181447857Y-49610714D01*
X181376428Y-49467857D01*
X181376428Y-49110714D01*
X181447857Y-48967857D01*
X181519285Y-48896428D01*
X181662142Y-48825000D01*
X181947857Y-48825000D01*
X182090714Y-48896428D01*
X182162142Y-48967857D01*
X182233571Y-49110714D01*
X180447857Y-48253571D02*
X180304999Y-48253571D01*
X180162142Y-48325000D01*
X180090714Y-48396428D01*
X180019285Y-48539285D01*
X179947857Y-48825000D01*
X179947857Y-49182142D01*
X180019285Y-49467857D01*
X180090714Y-49610714D01*
X180162142Y-49682142D01*
X180304999Y-49753571D01*
X180447857Y-49753571D01*
X180590714Y-49682142D01*
X180662142Y-49610714D01*
X180733571Y-49467857D01*
X180804999Y-49182142D01*
X180804999Y-48825000D01*
X180733571Y-48539285D01*
X180662142Y-48396428D01*
X180590714Y-48325000D01*
X180447857Y-48253571D01*
X179519285Y-48253571D02*
X179019285Y-49753571D01*
X178519285Y-48253571D01*
X217447857Y-52303571D02*
X217447857Y-50803571D01*
X216947857Y-51875000D01*
X216447857Y-50803571D01*
X216447857Y-52303571D01*
X215090714Y-52303571D02*
X215090714Y-51517857D01*
X215162142Y-51375000D01*
X215305000Y-51303571D01*
X215590714Y-51303571D01*
X215733571Y-51375000D01*
X215090714Y-52232142D02*
X215233571Y-52303571D01*
X215590714Y-52303571D01*
X215733571Y-52232142D01*
X215805000Y-52089285D01*
X215805000Y-51946428D01*
X215733571Y-51803571D01*
X215590714Y-51732142D01*
X215233571Y-51732142D01*
X215090714Y-51660714D01*
X214519285Y-52303571D02*
X213733571Y-51303571D01*
X214519285Y-51303571D02*
X213733571Y-52303571D01*
X213162142Y-52160714D02*
X213090714Y-52232142D01*
X213162142Y-52303571D01*
X213233571Y-52232142D01*
X213162142Y-52160714D01*
X213162142Y-52303571D01*
X211376428Y-51875000D02*
X210662142Y-51875000D01*
X211519285Y-52303571D02*
X211019285Y-50803571D01*
X210519285Y-52303571D01*
X210019285Y-52303571D02*
X210019285Y-51303571D01*
X210019285Y-51446428D02*
X209947857Y-51375000D01*
X209805000Y-51303571D01*
X209590714Y-51303571D01*
X209447857Y-51375000D01*
X209376428Y-51517857D01*
X209376428Y-52303571D01*
X209376428Y-51517857D02*
X209305000Y-51375000D01*
X209162142Y-51303571D01*
X208947857Y-51303571D01*
X208805000Y-51375000D01*
X208733571Y-51517857D01*
X208733571Y-52303571D01*
X208019285Y-51303571D02*
X208019285Y-52803571D01*
X208019285Y-51375000D02*
X207876428Y-51303571D01*
X207590714Y-51303571D01*
X207447857Y-51375000D01*
X207376428Y-51446428D01*
X207305000Y-51589285D01*
X207305000Y-52017857D01*
X207376428Y-52160714D01*
X207447857Y-52232142D01*
X207590714Y-52303571D01*
X207876428Y-52303571D01*
X208019285Y-52232142D01*
X206090714Y-52232142D02*
X206233571Y-52303571D01*
X206519285Y-52303571D01*
X206662142Y-52232142D01*
X206733571Y-52089285D01*
X206733571Y-51517857D01*
X206662142Y-51375000D01*
X206519285Y-51303571D01*
X206233571Y-51303571D01*
X206090714Y-51375000D01*
X206019285Y-51517857D01*
X206019285Y-51660714D01*
X206733571Y-51803571D01*
X205376428Y-52303571D02*
X205376428Y-51303571D01*
X205376428Y-51589285D02*
X205305000Y-51446428D01*
X205233571Y-51375000D01*
X205090714Y-51303571D01*
X204947857Y-51303571D01*
X203876428Y-52232142D02*
X204019285Y-52303571D01*
X204305000Y-52303571D01*
X204447857Y-52232142D01*
X204519285Y-52089285D01*
X204519285Y-51517857D01*
X204447857Y-51375000D01*
X204305000Y-51303571D01*
X204019285Y-51303571D01*
X203876428Y-51375000D01*
X203805000Y-51517857D01*
X203805000Y-51660714D01*
X204519285Y-51803571D01*
X201805000Y-52303571D02*
X201947857Y-52232142D01*
X202019285Y-52160714D01*
X202090714Y-52017857D01*
X202090714Y-51589285D01*
X202019285Y-51446428D01*
X201947857Y-51375000D01*
X201805000Y-51303571D01*
X201590714Y-51303571D01*
X201447857Y-51375000D01*
X201376428Y-51446428D01*
X201305000Y-51589285D01*
X201305000Y-52017857D01*
X201376428Y-52160714D01*
X201447857Y-52232142D01*
X201590714Y-52303571D01*
X201805000Y-52303571D01*
X200876428Y-51303571D02*
X200305000Y-51303571D01*
X200662142Y-52303571D02*
X200662142Y-51017857D01*
X200590714Y-50875000D01*
X200447857Y-50803571D01*
X200305000Y-50803571D01*
X198733571Y-52232142D02*
X198519285Y-52303571D01*
X198162142Y-52303571D01*
X198019285Y-52232142D01*
X197947857Y-52160714D01*
X197876428Y-52017857D01*
X197876428Y-51875000D01*
X197947857Y-51732142D01*
X198019285Y-51660714D01*
X198162142Y-51589285D01*
X198447857Y-51517857D01*
X198590714Y-51446428D01*
X198662142Y-51375000D01*
X198733571Y-51232142D01*
X198733571Y-51089285D01*
X198662142Y-50946428D01*
X198590714Y-50875000D01*
X198447857Y-50803571D01*
X198090714Y-50803571D01*
X197876428Y-50875000D01*
X197447857Y-51303571D02*
X196876428Y-51303571D01*
X197233571Y-50803571D02*
X197233571Y-52089285D01*
X197162142Y-52232142D01*
X197019285Y-52303571D01*
X196876428Y-52303571D01*
X196376428Y-52303571D02*
X196376428Y-51303571D01*
X196376428Y-50803571D02*
X196447857Y-50875000D01*
X196376428Y-50946428D01*
X196305000Y-50875000D01*
X196376428Y-50803571D01*
X196376428Y-50946428D01*
X195662142Y-52303571D02*
X195662142Y-51303571D01*
X195662142Y-51446428D02*
X195590714Y-51375000D01*
X195447857Y-51303571D01*
X195233571Y-51303571D01*
X195090714Y-51375000D01*
X195019285Y-51517857D01*
X195019285Y-52303571D01*
X195019285Y-51517857D02*
X194947857Y-51375000D01*
X194805000Y-51303571D01*
X194590714Y-51303571D01*
X194447857Y-51375000D01*
X194376428Y-51517857D01*
X194376428Y-52303571D01*
X193019285Y-51303571D02*
X193019285Y-52303571D01*
X193662142Y-51303571D02*
X193662142Y-52089285D01*
X193590714Y-52232142D01*
X193447857Y-52303571D01*
X193233571Y-52303571D01*
X193090714Y-52232142D01*
X193019285Y-52160714D01*
X192305000Y-52160714D02*
X192233571Y-52232142D01*
X192305000Y-52303571D01*
X192376428Y-52232142D01*
X192305000Y-52160714D01*
X192305000Y-52303571D01*
X189447857Y-51803571D02*
X188162142Y-51803571D01*
X183876428Y-50803571D02*
X183733571Y-50803571D01*
X183590714Y-50875000D01*
X183519285Y-50946428D01*
X183447857Y-51089285D01*
X183376428Y-51375000D01*
X183376428Y-51732142D01*
X183447857Y-52017857D01*
X183519285Y-52160714D01*
X183590714Y-52232142D01*
X183733571Y-52303571D01*
X183876428Y-52303571D01*
X184019285Y-52232142D01*
X184090714Y-52160714D01*
X184162142Y-52017857D01*
X184233571Y-51732142D01*
X184233571Y-51375000D01*
X184162142Y-51089285D01*
X184090714Y-50946428D01*
X184019285Y-50875000D01*
X183876428Y-50803571D01*
X182733571Y-52160714D02*
X182662142Y-52232142D01*
X182733571Y-52303571D01*
X182805000Y-52232142D01*
X182733571Y-52160714D01*
X182733571Y-52303571D01*
X181733571Y-50803571D02*
X181590714Y-50803571D01*
X181447857Y-50875000D01*
X181376428Y-50946428D01*
X181305000Y-51089285D01*
X181233571Y-51375000D01*
X181233571Y-51732142D01*
X181305000Y-52017857D01*
X181376428Y-52160714D01*
X181447857Y-52232142D01*
X181590714Y-52303571D01*
X181733571Y-52303571D01*
X181876428Y-52232142D01*
X181947857Y-52160714D01*
X182019285Y-52017857D01*
X182090714Y-51732142D01*
X182090714Y-51375000D01*
X182019285Y-51089285D01*
X181947857Y-50946428D01*
X181876428Y-50875000D01*
X181733571Y-50803571D01*
X179947857Y-50803571D02*
X180233571Y-50803571D01*
X180376428Y-50875000D01*
X180447857Y-50946428D01*
X180590714Y-51160714D01*
X180662142Y-51446428D01*
X180662142Y-52017857D01*
X180590714Y-52160714D01*
X180519285Y-52232142D01*
X180376428Y-52303571D01*
X180090714Y-52303571D01*
X179947857Y-52232142D01*
X179876428Y-52160714D01*
X179805000Y-52017857D01*
X179805000Y-51660714D01*
X179876428Y-51517857D01*
X179947857Y-51446428D01*
X180090714Y-51375000D01*
X180376428Y-51375000D01*
X180519285Y-51446428D01*
X180590714Y-51517857D01*
X180662142Y-51660714D01*
X179233571Y-50946428D02*
X179162142Y-50875000D01*
X179019285Y-50803571D01*
X178662142Y-50803571D01*
X178519285Y-50875000D01*
X178447857Y-50946428D01*
X178376428Y-51089285D01*
X178376428Y-51232142D01*
X178447857Y-51446428D01*
X179305000Y-52303571D01*
X178376428Y-52303571D01*
X177805000Y-51875000D02*
X177090714Y-51875000D01*
X177947857Y-52303571D02*
X177447857Y-50803571D01*
X176947857Y-52303571D01*
X216733571Y-57403571D02*
X217447857Y-57403571D01*
X217447857Y-55903571D01*
X215590714Y-57403571D02*
X215590714Y-56617857D01*
X215662142Y-56475000D01*
X215805000Y-56403571D01*
X216090714Y-56403571D01*
X216233571Y-56475000D01*
X215590714Y-57332142D02*
X215733571Y-57403571D01*
X216090714Y-57403571D01*
X216233571Y-57332142D01*
X216305000Y-57189285D01*
X216305000Y-57046428D01*
X216233571Y-56903571D01*
X216090714Y-56832142D01*
X215733571Y-56832142D01*
X215590714Y-56760714D01*
X215019285Y-56403571D02*
X214662142Y-57403571D01*
X214305000Y-56403571D02*
X214662142Y-57403571D01*
X214805000Y-57760714D01*
X214876428Y-57832142D01*
X215019285Y-57903571D01*
X213162142Y-57332142D02*
X213305000Y-57403571D01*
X213590714Y-57403571D01*
X213733571Y-57332142D01*
X213805000Y-57189285D01*
X213805000Y-56617857D01*
X213733571Y-56475000D01*
X213590714Y-56403571D01*
X213305000Y-56403571D01*
X213162142Y-56475000D01*
X213090714Y-56617857D01*
X213090714Y-56760714D01*
X213805000Y-56903571D01*
X212447857Y-57403571D02*
X212447857Y-56403571D01*
X212447857Y-56689285D02*
X212376428Y-56546428D01*
X212305000Y-56475000D01*
X212162142Y-56403571D01*
X212019285Y-56403571D01*
X209376428Y-56903571D02*
X208090714Y-56903571D01*
X203447857Y-56403571D02*
X203447857Y-57403571D01*
X203805000Y-55832142D02*
X204162142Y-56903571D01*
X203233571Y-56903571D01*
X202447857Y-57403571D02*
X202590714Y-57332142D01*
X202662142Y-57189285D01*
X202662142Y-55903571D01*
X201233571Y-57403571D02*
X201233571Y-56617857D01*
X201305000Y-56475000D01*
X201447857Y-56403571D01*
X201733571Y-56403571D01*
X201876428Y-56475000D01*
X201233571Y-57332142D02*
X201376428Y-57403571D01*
X201733571Y-57403571D01*
X201876428Y-57332142D01*
X201947857Y-57189285D01*
X201947857Y-57046428D01*
X201876428Y-56903571D01*
X201733571Y-56832142D01*
X201376428Y-56832142D01*
X201233571Y-56760714D01*
X200662142Y-56403571D02*
X200305000Y-57403571D01*
X199947857Y-56403571D02*
X200305000Y-57403571D01*
X200447857Y-57760714D01*
X200519285Y-57832142D01*
X200662142Y-57903571D01*
X198805000Y-57332142D02*
X198947857Y-57403571D01*
X199233571Y-57403571D01*
X199376428Y-57332142D01*
X199447857Y-57189285D01*
X199447857Y-56617857D01*
X199376428Y-56475000D01*
X199233571Y-56403571D01*
X198947857Y-56403571D01*
X198805000Y-56475000D01*
X198733571Y-56617857D01*
X198733571Y-56760714D01*
X199447857Y-56903571D01*
X198090714Y-57403571D02*
X198090714Y-56403571D01*
X198090714Y-56689285D02*
X198019285Y-56546428D01*
X197947857Y-56475000D01*
X197805000Y-56403571D01*
X197662142Y-56403571D01*
X197233571Y-57332142D02*
X197090714Y-57403571D01*
X196805000Y-57403571D01*
X196662142Y-57332142D01*
X196590714Y-57189285D01*
X196590714Y-57117857D01*
X196662142Y-56975000D01*
X196805000Y-56903571D01*
X197019285Y-56903571D01*
X197162142Y-56832142D01*
X197233571Y-56689285D01*
X197233571Y-56617857D01*
X197162142Y-56475000D01*
X197019285Y-56403571D01*
X196805000Y-56403571D01*
X196662142Y-56475000D01*
X217662142Y-58453571D02*
X216805000Y-58453571D01*
X217233571Y-59953571D02*
X217233571Y-58453571D01*
X216305000Y-59953571D02*
X216305000Y-58453571D01*
X215662142Y-59953571D02*
X215662142Y-59167857D01*
X215733571Y-59025000D01*
X215876428Y-58953571D01*
X216090714Y-58953571D01*
X216233571Y-59025000D01*
X216305000Y-59096428D01*
X214947857Y-59953571D02*
X214947857Y-58953571D01*
X214947857Y-58453571D02*
X215019285Y-58525000D01*
X214947857Y-58596428D01*
X214876428Y-58525000D01*
X214947857Y-58453571D01*
X214947857Y-58596428D01*
X213590714Y-59882142D02*
X213733571Y-59953571D01*
X214019285Y-59953571D01*
X214162142Y-59882142D01*
X214233571Y-59810714D01*
X214305000Y-59667857D01*
X214305000Y-59239285D01*
X214233571Y-59096428D01*
X214162142Y-59025000D01*
X214019285Y-58953571D01*
X213733571Y-58953571D01*
X213590714Y-59025000D01*
X212947857Y-59953571D02*
X212947857Y-58453571D01*
X212805000Y-59382142D02*
X212376428Y-59953571D01*
X212376428Y-58953571D02*
X212947857Y-59525000D01*
X211733571Y-58953571D02*
X211733571Y-59953571D01*
X211733571Y-59096428D02*
X211662142Y-59025000D01*
X211519285Y-58953571D01*
X211305000Y-58953571D01*
X211162142Y-59025000D01*
X211090714Y-59167857D01*
X211090714Y-59953571D01*
X209805000Y-59882142D02*
X209947857Y-59953571D01*
X210233571Y-59953571D01*
X210376428Y-59882142D01*
X210447857Y-59739285D01*
X210447857Y-59167857D01*
X210376428Y-59025000D01*
X210233571Y-58953571D01*
X209947857Y-58953571D01*
X209805000Y-59025000D01*
X209733571Y-59167857D01*
X209733571Y-59310714D01*
X210447857Y-59453571D01*
X209162142Y-59882142D02*
X209019285Y-59953571D01*
X208733571Y-59953571D01*
X208590714Y-59882142D01*
X208519285Y-59739285D01*
X208519285Y-59667857D01*
X208590714Y-59525000D01*
X208733571Y-59453571D01*
X208947857Y-59453571D01*
X209090714Y-59382142D01*
X209162142Y-59239285D01*
X209162142Y-59167857D01*
X209090714Y-59025000D01*
X208947857Y-58953571D01*
X208733571Y-58953571D01*
X208590714Y-59025000D01*
X207947857Y-59882142D02*
X207805000Y-59953571D01*
X207519285Y-59953571D01*
X207376428Y-59882142D01*
X207305000Y-59739285D01*
X207305000Y-59667857D01*
X207376428Y-59525000D01*
X207519285Y-59453571D01*
X207733571Y-59453571D01*
X207876428Y-59382142D01*
X207947857Y-59239285D01*
X207947857Y-59167857D01*
X207876428Y-59025000D01*
X207733571Y-58953571D01*
X207519285Y-58953571D01*
X207376428Y-59025000D01*
X204519285Y-59453571D02*
X203233571Y-59453571D01*
X198447857Y-59953571D02*
X199305000Y-59953571D01*
X198876428Y-59953571D02*
X198876428Y-58453571D01*
X199019285Y-58667857D01*
X199162142Y-58810714D01*
X199305000Y-58882142D01*
X197805000Y-59810714D02*
X197733571Y-59882142D01*
X197805000Y-59953571D01*
X197876428Y-59882142D01*
X197805000Y-59810714D01*
X197805000Y-59953571D01*
X196447857Y-58453571D02*
X196733571Y-58453571D01*
X196876428Y-58525000D01*
X196947857Y-58596428D01*
X197090714Y-58810714D01*
X197162142Y-59096428D01*
X197162142Y-59667857D01*
X197090714Y-59810714D01*
X197019285Y-59882142D01*
X196876428Y-59953571D01*
X196590714Y-59953571D01*
X196447857Y-59882142D01*
X196376428Y-59810714D01*
X196305000Y-59667857D01*
X196305000Y-59310714D01*
X196376428Y-59167857D01*
X196447857Y-59096428D01*
X196590714Y-59025000D01*
X196876428Y-59025000D01*
X197019285Y-59096428D01*
X197090714Y-59167857D01*
X197162142Y-59310714D01*
X195662142Y-59953571D02*
X195662142Y-58953571D01*
X195662142Y-59096428D02*
X195590714Y-59025000D01*
X195447857Y-58953571D01*
X195233571Y-58953571D01*
X195090714Y-59025000D01*
X195019285Y-59167857D01*
X195019285Y-59953571D01*
X195019285Y-59167857D02*
X194947857Y-59025000D01*
X194805000Y-58953571D01*
X194590714Y-58953571D01*
X194447857Y-59025000D01*
X194376428Y-59167857D01*
X194376428Y-59953571D01*
X193662142Y-59953571D02*
X193662142Y-58953571D01*
X193662142Y-59096428D02*
X193590714Y-59025000D01*
X193447857Y-58953571D01*
X193233571Y-58953571D01*
X193090714Y-59025000D01*
X193019285Y-59167857D01*
X193019285Y-59953571D01*
X193019285Y-59167857D02*
X192947857Y-59025000D01*
X192805000Y-58953571D01*
X192590714Y-58953571D01*
X192447857Y-59025000D01*
X192376428Y-59167857D01*
X192376428Y-59953571D01*
X217447857Y-62503571D02*
X217447857Y-61003571D01*
X217090714Y-61003571D01*
X216876428Y-61075000D01*
X216733571Y-61217857D01*
X216662142Y-61360714D01*
X216590714Y-61646428D01*
X216590714Y-61860714D01*
X216662142Y-62146428D01*
X216733571Y-62289285D01*
X216876428Y-62432142D01*
X217090714Y-62503571D01*
X217447857Y-62503571D01*
X215947857Y-62503571D02*
X215947857Y-61503571D01*
X215947857Y-61003571D02*
X216019285Y-61075000D01*
X215947857Y-61146428D01*
X215876428Y-61075000D01*
X215947857Y-61003571D01*
X215947857Y-61146428D01*
X215233571Y-62503571D02*
X215233571Y-61503571D01*
X215233571Y-61646428D02*
X215162142Y-61575000D01*
X215019285Y-61503571D01*
X214805000Y-61503571D01*
X214662142Y-61575000D01*
X214590714Y-61717857D01*
X214590714Y-62503571D01*
X214590714Y-61717857D02*
X214519285Y-61575000D01*
X214376428Y-61503571D01*
X214162142Y-61503571D01*
X214019285Y-61575000D01*
X213947857Y-61717857D01*
X213947857Y-62503571D01*
X212662142Y-62432142D02*
X212805000Y-62503571D01*
X213090714Y-62503571D01*
X213233571Y-62432142D01*
X213305000Y-62289285D01*
X213305000Y-61717857D01*
X213233571Y-61575000D01*
X213090714Y-61503571D01*
X212805000Y-61503571D01*
X212662142Y-61575000D01*
X212590714Y-61717857D01*
X212590714Y-61860714D01*
X213305000Y-62003571D01*
X211947857Y-61503571D02*
X211947857Y-62503571D01*
X211947857Y-61646428D02*
X211876428Y-61575000D01*
X211733571Y-61503571D01*
X211519285Y-61503571D01*
X211376428Y-61575000D01*
X211305000Y-61717857D01*
X211305000Y-62503571D01*
X210662142Y-62432142D02*
X210519285Y-62503571D01*
X210233571Y-62503571D01*
X210090714Y-62432142D01*
X210019285Y-62289285D01*
X210019285Y-62217857D01*
X210090714Y-62075000D01*
X210233571Y-62003571D01*
X210447857Y-62003571D01*
X210590714Y-61932142D01*
X210662142Y-61789285D01*
X210662142Y-61717857D01*
X210590714Y-61575000D01*
X210447857Y-61503571D01*
X210233571Y-61503571D01*
X210090714Y-61575000D01*
X209376428Y-62503571D02*
X209376428Y-61503571D01*
X209376428Y-61003571D02*
X209447857Y-61075000D01*
X209376428Y-61146428D01*
X209305000Y-61075000D01*
X209376428Y-61003571D01*
X209376428Y-61146428D01*
X208447857Y-62503571D02*
X208590714Y-62432142D01*
X208662142Y-62360714D01*
X208733571Y-62217857D01*
X208733571Y-61789285D01*
X208662142Y-61646428D01*
X208590714Y-61575000D01*
X208447857Y-61503571D01*
X208233571Y-61503571D01*
X208090714Y-61575000D01*
X208019285Y-61646428D01*
X207947857Y-61789285D01*
X207947857Y-62217857D01*
X208019285Y-62360714D01*
X208090714Y-62432142D01*
X208233571Y-62503571D01*
X208447857Y-62503571D01*
X207305000Y-61503571D02*
X207305000Y-62503571D01*
X207305000Y-61646428D02*
X207233571Y-61575000D01*
X207090714Y-61503571D01*
X206876428Y-61503571D01*
X206733571Y-61575000D01*
X206662142Y-61717857D01*
X206662142Y-62503571D01*
X206019285Y-62432142D02*
X205876428Y-62503571D01*
X205590714Y-62503571D01*
X205447857Y-62432142D01*
X205376428Y-62289285D01*
X205376428Y-62217857D01*
X205447857Y-62075000D01*
X205590714Y-62003571D01*
X205805000Y-62003571D01*
X205947857Y-61932142D01*
X206019285Y-61789285D01*
X206019285Y-61717857D01*
X205947857Y-61575000D01*
X205805000Y-61503571D01*
X205590714Y-61503571D01*
X205447857Y-61575000D01*
X202590714Y-62003571D02*
X201305000Y-62003571D01*
X197376428Y-61146428D02*
X197305000Y-61075000D01*
X197162142Y-61003571D01*
X196805000Y-61003571D01*
X196662142Y-61075000D01*
X196590714Y-61146428D01*
X196519285Y-61289285D01*
X196519285Y-61432142D01*
X196590714Y-61646428D01*
X197447857Y-62503571D01*
X196519285Y-62503571D01*
X195590714Y-61003571D02*
X195447857Y-61003571D01*
X195305000Y-61075000D01*
X195233571Y-61146428D01*
X195162142Y-61289285D01*
X195090714Y-61575000D01*
X195090714Y-61932142D01*
X195162142Y-62217857D01*
X195233571Y-62360714D01*
X195305000Y-62432142D01*
X195447857Y-62503571D01*
X195590714Y-62503571D01*
X195733571Y-62432142D01*
X195805000Y-62360714D01*
X195876428Y-62217857D01*
X195947857Y-61932142D01*
X195947857Y-61575000D01*
X195876428Y-61289285D01*
X195805000Y-61146428D01*
X195733571Y-61075000D01*
X195590714Y-61003571D01*
X194162142Y-61003571D02*
X194019285Y-61003571D01*
X193876428Y-61075000D01*
X193805000Y-61146428D01*
X193733571Y-61289285D01*
X193662142Y-61575000D01*
X193662142Y-61932142D01*
X193733571Y-62217857D01*
X193805000Y-62360714D01*
X193876428Y-62432142D01*
X194019285Y-62503571D01*
X194162142Y-62503571D01*
X194305000Y-62432142D01*
X194376428Y-62360714D01*
X194447857Y-62217857D01*
X194519285Y-61932142D01*
X194519285Y-61575000D01*
X194447857Y-61289285D01*
X194376428Y-61146428D01*
X194305000Y-61075000D01*
X194162142Y-61003571D01*
X193019285Y-62503571D02*
X193019285Y-61503571D01*
X193019285Y-61646428D02*
X192947857Y-61575000D01*
X192805000Y-61503571D01*
X192590714Y-61503571D01*
X192447857Y-61575000D01*
X192376428Y-61717857D01*
X192376428Y-62503571D01*
X192376428Y-61717857D02*
X192305000Y-61575000D01*
X192162142Y-61503571D01*
X191947857Y-61503571D01*
X191805000Y-61575000D01*
X191733571Y-61717857D01*
X191733571Y-62503571D01*
X191019285Y-62503571D02*
X191019285Y-61503571D01*
X191019285Y-61646428D02*
X190947857Y-61575000D01*
X190805000Y-61503571D01*
X190590714Y-61503571D01*
X190447857Y-61575000D01*
X190376428Y-61717857D01*
X190376428Y-62503571D01*
X190376428Y-61717857D02*
X190305000Y-61575000D01*
X190162142Y-61503571D01*
X189947857Y-61503571D01*
X189805000Y-61575000D01*
X189733571Y-61717857D01*
X189733571Y-62503571D01*
X188019285Y-61003571D02*
X187019285Y-62503571D01*
X187019285Y-61003571D02*
X188019285Y-62503571D01*
X184519285Y-62503571D02*
X185376428Y-62503571D01*
X184947857Y-62503571D02*
X184947857Y-61003571D01*
X185090714Y-61217857D01*
X185233571Y-61360714D01*
X185376428Y-61432142D01*
X183947857Y-61146428D02*
X183876428Y-61075000D01*
X183733571Y-61003571D01*
X183376428Y-61003571D01*
X183233571Y-61075000D01*
X183162142Y-61146428D01*
X183090714Y-61289285D01*
X183090714Y-61432142D01*
X183162142Y-61646428D01*
X184019285Y-62503571D01*
X183090714Y-62503571D01*
X182590714Y-61003571D02*
X181662142Y-61003571D01*
X182162142Y-61575000D01*
X181947857Y-61575000D01*
X181805000Y-61646428D01*
X181733571Y-61717857D01*
X181662142Y-61860714D01*
X181662142Y-62217857D01*
X181733571Y-62360714D01*
X181805000Y-62432142D01*
X181947857Y-62503571D01*
X182376428Y-62503571D01*
X182519285Y-62432142D01*
X182590714Y-62360714D01*
X181019285Y-62503571D02*
X181019285Y-61503571D01*
X181019285Y-61646428D02*
X180947857Y-61575000D01*
X180805000Y-61503571D01*
X180590714Y-61503571D01*
X180447857Y-61575000D01*
X180376428Y-61717857D01*
X180376428Y-62503571D01*
X180376428Y-61717857D02*
X180305000Y-61575000D01*
X180162142Y-61503571D01*
X179947857Y-61503571D01*
X179805000Y-61575000D01*
X179733571Y-61717857D01*
X179733571Y-62503571D01*
X179019285Y-62503571D02*
X179019285Y-61503571D01*
X179019285Y-61646428D02*
X178947857Y-61575000D01*
X178805000Y-61503571D01*
X178590714Y-61503571D01*
X178447857Y-61575000D01*
X178376428Y-61717857D01*
X178376428Y-62503571D01*
X178376428Y-61717857D02*
X178305000Y-61575000D01*
X178162142Y-61503571D01*
X177947857Y-61503571D01*
X177805000Y-61575000D01*
X177733571Y-61717857D01*
X177733571Y-62503571D01*
X217519285Y-64982142D02*
X217305000Y-65053571D01*
X216947857Y-65053571D01*
X216805000Y-64982142D01*
X216733571Y-64910714D01*
X216662142Y-64767857D01*
X216662142Y-64625000D01*
X216733571Y-64482142D01*
X216805000Y-64410714D01*
X216947857Y-64339285D01*
X217233571Y-64267857D01*
X217376428Y-64196428D01*
X217447857Y-64125000D01*
X217519285Y-63982142D01*
X217519285Y-63839285D01*
X217447857Y-63696428D01*
X217376428Y-63625000D01*
X217233571Y-63553571D01*
X216876428Y-63553571D01*
X216662142Y-63625000D01*
X215376428Y-64053571D02*
X215376428Y-65053571D01*
X216019285Y-64053571D02*
X216019285Y-64839285D01*
X215947857Y-64982142D01*
X215805000Y-65053571D01*
X215590714Y-65053571D01*
X215447857Y-64982142D01*
X215376428Y-64910714D01*
X214662142Y-65053571D02*
X214662142Y-64053571D01*
X214662142Y-64339285D02*
X214590714Y-64196428D01*
X214519285Y-64125000D01*
X214376428Y-64053571D01*
X214233571Y-64053571D01*
X213947857Y-64053571D02*
X213376428Y-64053571D01*
X213733571Y-65053571D02*
X213733571Y-63767857D01*
X213662142Y-63625000D01*
X213519285Y-63553571D01*
X213376428Y-63553571D01*
X212233571Y-65053571D02*
X212233571Y-64267857D01*
X212305000Y-64125000D01*
X212447857Y-64053571D01*
X212733571Y-64053571D01*
X212876428Y-64125000D01*
X212233571Y-64982142D02*
X212376428Y-65053571D01*
X212733571Y-65053571D01*
X212876428Y-64982142D01*
X212947857Y-64839285D01*
X212947857Y-64696428D01*
X212876428Y-64553571D01*
X212733571Y-64482142D01*
X212376428Y-64482142D01*
X212233571Y-64410714D01*
X210876428Y-64982142D02*
X211019285Y-65053571D01*
X211305000Y-65053571D01*
X211447857Y-64982142D01*
X211519285Y-64910714D01*
X211590714Y-64767857D01*
X211590714Y-64339285D01*
X211519285Y-64196428D01*
X211447857Y-64125000D01*
X211305000Y-64053571D01*
X211019285Y-64053571D01*
X210876428Y-64125000D01*
X209662142Y-64982142D02*
X209805000Y-65053571D01*
X210090714Y-65053571D01*
X210233571Y-64982142D01*
X210305000Y-64839285D01*
X210305000Y-64267857D01*
X210233571Y-64125000D01*
X210090714Y-64053571D01*
X209805000Y-64053571D01*
X209662142Y-64125000D01*
X209590714Y-64267857D01*
X209590714Y-64410714D01*
X210305000Y-64553571D01*
X207305000Y-64267857D02*
X207805000Y-64267857D01*
X207805000Y-65053571D02*
X207805000Y-63553571D01*
X207090714Y-63553571D01*
X206519285Y-65053571D02*
X206519285Y-64053571D01*
X206519285Y-63553571D02*
X206590714Y-63625000D01*
X206519285Y-63696428D01*
X206447857Y-63625000D01*
X206519285Y-63553571D01*
X206519285Y-63696428D01*
X205805000Y-64053571D02*
X205805000Y-65053571D01*
X205805000Y-64196428D02*
X205733571Y-64125000D01*
X205590714Y-64053571D01*
X205376428Y-64053571D01*
X205233571Y-64125000D01*
X205162142Y-64267857D01*
X205162142Y-65053571D01*
X204447857Y-65053571D02*
X204447857Y-64053571D01*
X204447857Y-63553571D02*
X204519285Y-63625000D01*
X204447857Y-63696428D01*
X204376428Y-63625000D01*
X204447857Y-63553571D01*
X204447857Y-63696428D01*
X203805000Y-64982142D02*
X203662142Y-65053571D01*
X203376428Y-65053571D01*
X203233571Y-64982142D01*
X203162142Y-64839285D01*
X203162142Y-64767857D01*
X203233571Y-64625000D01*
X203376428Y-64553571D01*
X203590714Y-64553571D01*
X203733571Y-64482142D01*
X203805000Y-64339285D01*
X203805000Y-64267857D01*
X203733571Y-64125000D01*
X203590714Y-64053571D01*
X203376428Y-64053571D01*
X203233571Y-64125000D01*
X202519285Y-65053571D02*
X202519285Y-63553571D01*
X201876428Y-65053571D02*
X201876428Y-64267857D01*
X201947857Y-64125000D01*
X202090714Y-64053571D01*
X202305000Y-64053571D01*
X202447857Y-64125000D01*
X202519285Y-64196428D01*
X199019285Y-64553571D02*
X197733571Y-64553571D01*
X193733571Y-65053571D02*
X193733571Y-63553571D01*
X193733571Y-64267857D02*
X192876428Y-64267857D01*
X192876428Y-65053571D02*
X192876428Y-63553571D01*
X192233571Y-64625000D02*
X191519285Y-64625000D01*
X192376428Y-65053571D02*
X191876428Y-63553571D01*
X191376428Y-65053571D01*
X190947857Y-64982142D02*
X190733571Y-65053571D01*
X190376428Y-65053571D01*
X190233571Y-64982142D01*
X190162142Y-64910714D01*
X190090714Y-64767857D01*
X190090714Y-64625000D01*
X190162142Y-64482142D01*
X190233571Y-64410714D01*
X190376428Y-64339285D01*
X190662142Y-64267857D01*
X190805000Y-64196428D01*
X190876428Y-64125000D01*
X190947857Y-63982142D01*
X190947857Y-63839285D01*
X190876428Y-63696428D01*
X190805000Y-63625000D01*
X190662142Y-63553571D01*
X190305000Y-63553571D01*
X190090714Y-63625000D01*
X188733571Y-65053571D02*
X189447857Y-65053571D01*
X189447857Y-63553571D01*
X186376428Y-65053571D02*
X187090714Y-65053571D01*
X187090714Y-63553571D01*
X185305000Y-64982142D02*
X185447857Y-65053571D01*
X185733571Y-65053571D01*
X185876428Y-64982142D01*
X185947857Y-64839285D01*
X185947857Y-64267857D01*
X185876428Y-64125000D01*
X185733571Y-64053571D01*
X185447857Y-64053571D01*
X185305000Y-64125000D01*
X185233571Y-64267857D01*
X185233571Y-64410714D01*
X185947857Y-64553571D01*
X183947857Y-65053571D02*
X183947857Y-64267857D01*
X184019285Y-64125000D01*
X184162142Y-64053571D01*
X184447857Y-64053571D01*
X184590714Y-64125000D01*
X183947857Y-64982142D02*
X184090714Y-65053571D01*
X184447857Y-65053571D01*
X184590714Y-64982142D01*
X184662142Y-64839285D01*
X184662142Y-64696428D01*
X184590714Y-64553571D01*
X184447857Y-64482142D01*
X184090714Y-64482142D01*
X183947857Y-64410714D01*
X182590714Y-65053571D02*
X182590714Y-63553571D01*
X182590714Y-64982142D02*
X182733571Y-65053571D01*
X183019285Y-65053571D01*
X183162142Y-64982142D01*
X183233571Y-64910714D01*
X183305000Y-64767857D01*
X183305000Y-64339285D01*
X183233571Y-64196428D01*
X183162142Y-64125000D01*
X183019285Y-64053571D01*
X182733571Y-64053571D01*
X182590714Y-64125000D01*
X180233571Y-64267857D02*
X180733571Y-64267857D01*
X180733571Y-65053571D02*
X180733571Y-63553571D01*
X180019285Y-63553571D01*
X179447857Y-65053571D02*
X179447857Y-64053571D01*
X179447857Y-64339285D02*
X179376428Y-64196428D01*
X179305000Y-64125000D01*
X179162142Y-64053571D01*
X179019285Y-64053571D01*
X177947857Y-64982142D02*
X178090714Y-65053571D01*
X178376428Y-65053571D01*
X178519285Y-64982142D01*
X178590714Y-64839285D01*
X178590714Y-64267857D01*
X178519285Y-64125000D01*
X178376428Y-64053571D01*
X178090714Y-64053571D01*
X177947857Y-64125000D01*
X177876428Y-64267857D01*
X177876428Y-64410714D01*
X178590714Y-64553571D01*
X176662142Y-64982142D02*
X176805000Y-65053571D01*
X177090714Y-65053571D01*
X177233571Y-64982142D01*
X177305000Y-64839285D01*
X177305000Y-64267857D01*
X177233571Y-64125000D01*
X177090714Y-64053571D01*
X176805000Y-64053571D01*
X176662142Y-64125000D01*
X176590714Y-64267857D01*
X176590714Y-64410714D01*
X177305000Y-64553571D01*
X216590714Y-67460714D02*
X216662142Y-67532142D01*
X216876428Y-67603571D01*
X217019285Y-67603571D01*
X217233571Y-67532142D01*
X217376428Y-67389285D01*
X217447857Y-67246428D01*
X217519285Y-66960714D01*
X217519285Y-66746428D01*
X217447857Y-66460714D01*
X217376428Y-66317857D01*
X217233571Y-66175000D01*
X217019285Y-66103571D01*
X216876428Y-66103571D01*
X216662142Y-66175000D01*
X216590714Y-66246428D01*
X215733571Y-67603571D02*
X215876428Y-67532142D01*
X215947857Y-67460714D01*
X216019285Y-67317857D01*
X216019285Y-66889285D01*
X215947857Y-66746428D01*
X215876428Y-66675000D01*
X215733571Y-66603571D01*
X215519285Y-66603571D01*
X215376428Y-66675000D01*
X215305000Y-66746428D01*
X215233571Y-66889285D01*
X215233571Y-67317857D01*
X215305000Y-67460714D01*
X215376428Y-67532142D01*
X215519285Y-67603571D01*
X215733571Y-67603571D01*
X214590714Y-66603571D02*
X214590714Y-68103571D01*
X214590714Y-66675000D02*
X214447857Y-66603571D01*
X214162142Y-66603571D01*
X214019285Y-66675000D01*
X213947857Y-66746428D01*
X213876428Y-66889285D01*
X213876428Y-67317857D01*
X213947857Y-67460714D01*
X214019285Y-67532142D01*
X214162142Y-67603571D01*
X214447857Y-67603571D01*
X214590714Y-67532142D01*
X213233571Y-66603571D02*
X213233571Y-68103571D01*
X213233571Y-66675000D02*
X213090714Y-66603571D01*
X212805000Y-66603571D01*
X212662142Y-66675000D01*
X212590714Y-66746428D01*
X212519285Y-66889285D01*
X212519285Y-67317857D01*
X212590714Y-67460714D01*
X212662142Y-67532142D01*
X212805000Y-67603571D01*
X213090714Y-67603571D01*
X213233571Y-67532142D01*
X211305000Y-67532142D02*
X211447857Y-67603571D01*
X211733571Y-67603571D01*
X211876428Y-67532142D01*
X211947857Y-67389285D01*
X211947857Y-66817857D01*
X211876428Y-66675000D01*
X211733571Y-66603571D01*
X211447857Y-66603571D01*
X211305000Y-66675000D01*
X211233571Y-66817857D01*
X211233571Y-66960714D01*
X211947857Y-67103571D01*
X210590714Y-67603571D02*
X210590714Y-66603571D01*
X210590714Y-66889285D02*
X210519285Y-66746428D01*
X210447857Y-66675000D01*
X210305000Y-66603571D01*
X210162142Y-66603571D01*
X208662142Y-66103571D02*
X208305000Y-67603571D01*
X208019285Y-66532142D01*
X207733571Y-67603571D01*
X207376428Y-66103571D01*
X206233571Y-67532142D02*
X206376428Y-67603571D01*
X206662142Y-67603571D01*
X206805000Y-67532142D01*
X206876428Y-67389285D01*
X206876428Y-66817857D01*
X206805000Y-66675000D01*
X206662142Y-66603571D01*
X206376428Y-66603571D01*
X206233571Y-66675000D01*
X206162142Y-66817857D01*
X206162142Y-66960714D01*
X206876428Y-67103571D01*
X205519285Y-67603571D02*
X205519285Y-66603571D01*
X205519285Y-66103571D02*
X205590714Y-66175000D01*
X205519285Y-66246428D01*
X205447857Y-66175000D01*
X205519285Y-66103571D01*
X205519285Y-66246428D01*
X204162142Y-66603571D02*
X204162142Y-67817857D01*
X204233571Y-67960714D01*
X204305000Y-68032142D01*
X204447857Y-68103571D01*
X204662142Y-68103571D01*
X204805000Y-68032142D01*
X204162142Y-67532142D02*
X204305000Y-67603571D01*
X204590714Y-67603571D01*
X204733571Y-67532142D01*
X204805000Y-67460714D01*
X204876428Y-67317857D01*
X204876428Y-66889285D01*
X204805000Y-66746428D01*
X204733571Y-66675000D01*
X204590714Y-66603571D01*
X204305000Y-66603571D01*
X204162142Y-66675000D01*
X203447857Y-67603571D02*
X203447857Y-66103571D01*
X202805000Y-67603571D02*
X202805000Y-66817857D01*
X202876428Y-66675000D01*
X203019285Y-66603571D01*
X203233571Y-66603571D01*
X203376428Y-66675000D01*
X203447857Y-66746428D01*
X202305000Y-66603571D02*
X201733571Y-66603571D01*
X202090714Y-66103571D02*
X202090714Y-67389285D01*
X202019285Y-67532142D01*
X201876428Y-67603571D01*
X201733571Y-67603571D01*
X199090714Y-67103571D02*
X197805000Y-67103571D01*
X193019285Y-67603571D02*
X193876428Y-67603571D01*
X193447857Y-67603571D02*
X193447857Y-66103571D01*
X193590714Y-66317857D01*
X193733571Y-66460714D01*
X193876428Y-66532142D01*
X192162142Y-67603571D02*
X192305000Y-67532142D01*
X192376428Y-67460714D01*
X192447857Y-67317857D01*
X192447857Y-66889285D01*
X192376428Y-66746428D01*
X192305000Y-66675000D01*
X192162142Y-66603571D01*
X191947857Y-66603571D01*
X191805000Y-66675000D01*
X191733571Y-66746428D01*
X191662142Y-66889285D01*
X191662142Y-67317857D01*
X191733571Y-67460714D01*
X191805000Y-67532142D01*
X191947857Y-67603571D01*
X192162142Y-67603571D01*
X191162142Y-66603571D02*
X190376428Y-66603571D01*
X191162142Y-67603571D01*
X190376428Y-67603571D01*
X217447857Y-72703571D02*
X217447857Y-71203571D01*
X216733571Y-71703571D02*
X216733571Y-72703571D01*
X216733571Y-71846428D02*
X216662142Y-71775000D01*
X216519285Y-71703571D01*
X216305000Y-71703571D01*
X216162142Y-71775000D01*
X216090714Y-71917857D01*
X216090714Y-72703571D01*
X215447857Y-72632142D02*
X215305000Y-72703571D01*
X215019285Y-72703571D01*
X214876428Y-72632142D01*
X214805000Y-72489285D01*
X214805000Y-72417857D01*
X214876428Y-72275000D01*
X215019285Y-72203571D01*
X215233571Y-72203571D01*
X215376428Y-72132142D01*
X215447857Y-71989285D01*
X215447857Y-71917857D01*
X215376428Y-71775000D01*
X215233571Y-71703571D01*
X215019285Y-71703571D01*
X214876428Y-71775000D01*
X214162142Y-71703571D02*
X214162142Y-73203571D01*
X214162142Y-71775000D02*
X214019285Y-71703571D01*
X213733571Y-71703571D01*
X213590714Y-71775000D01*
X213519285Y-71846428D01*
X213447857Y-71989285D01*
X213447857Y-72417857D01*
X213519285Y-72560714D01*
X213590714Y-72632142D01*
X213733571Y-72703571D01*
X214019285Y-72703571D01*
X214162142Y-72632142D01*
X212805000Y-72703571D02*
X212805000Y-71703571D01*
X212805000Y-71203571D02*
X212876428Y-71275000D01*
X212805000Y-71346428D01*
X212733571Y-71275000D01*
X212805000Y-71203571D01*
X212805000Y-71346428D01*
X212090714Y-72703571D02*
X212090714Y-71703571D01*
X212090714Y-71989285D02*
X212019285Y-71846428D01*
X211947857Y-71775000D01*
X211805000Y-71703571D01*
X211662142Y-71703571D01*
X210590714Y-72632142D02*
X210733571Y-72703571D01*
X211019285Y-72703571D01*
X211162142Y-72632142D01*
X211233571Y-72489285D01*
X211233571Y-71917857D01*
X211162142Y-71775000D01*
X211019285Y-71703571D01*
X210733571Y-71703571D01*
X210590714Y-71775000D01*
X210519285Y-71917857D01*
X210519285Y-72060714D01*
X211233571Y-72203571D01*
X209233571Y-72703571D02*
X209233571Y-71203571D01*
X209233571Y-72632142D02*
X209376428Y-72703571D01*
X209662142Y-72703571D01*
X209805000Y-72632142D01*
X209876428Y-72560714D01*
X209947857Y-72417857D01*
X209947857Y-71989285D01*
X209876428Y-71846428D01*
X209805000Y-71775000D01*
X209662142Y-71703571D01*
X209376428Y-71703571D01*
X209233571Y-71775000D01*
X207590714Y-71703571D02*
X207019285Y-71703571D01*
X207376428Y-72703571D02*
X207376428Y-71417857D01*
X207305000Y-71275000D01*
X207162142Y-71203571D01*
X207019285Y-71203571D01*
X206519285Y-72703571D02*
X206519285Y-71703571D01*
X206519285Y-71989285D02*
X206447857Y-71846428D01*
X206376428Y-71775000D01*
X206233571Y-71703571D01*
X206090714Y-71703571D01*
X205376428Y-72703571D02*
X205519285Y-72632142D01*
X205590714Y-72560714D01*
X205662142Y-72417857D01*
X205662142Y-71989285D01*
X205590714Y-71846428D01*
X205519285Y-71775000D01*
X205376428Y-71703571D01*
X205162142Y-71703571D01*
X205019285Y-71775000D01*
X204947857Y-71846428D01*
X204876428Y-71989285D01*
X204876428Y-72417857D01*
X204947857Y-72560714D01*
X205019285Y-72632142D01*
X205162142Y-72703571D01*
X205376428Y-72703571D01*
X204233571Y-72703571D02*
X204233571Y-71703571D01*
X204233571Y-71846428D02*
X204162142Y-71775000D01*
X204019285Y-71703571D01*
X203805000Y-71703571D01*
X203662142Y-71775000D01*
X203590714Y-71917857D01*
X203590714Y-72703571D01*
X203590714Y-71917857D02*
X203519285Y-71775000D01*
X203376428Y-71703571D01*
X203162142Y-71703571D01*
X203019285Y-71775000D01*
X202947857Y-71917857D01*
X202947857Y-72703571D01*
X200662142Y-71275000D02*
X200662142Y-71203571D01*
X200590714Y-71060714D01*
X200519285Y-70989285D01*
X201233571Y-71275000D02*
X201233571Y-71203571D01*
X201162142Y-71060714D01*
X201090714Y-70989285D01*
X200090714Y-71703571D02*
X199805000Y-72703571D01*
X199519285Y-71989285D01*
X199233571Y-72703571D01*
X198947857Y-71703571D01*
X197733571Y-72703571D02*
X197733571Y-71917857D01*
X197805000Y-71775000D01*
X197947857Y-71703571D01*
X198233571Y-71703571D01*
X198376428Y-71775000D01*
X197733571Y-72632142D02*
X197876428Y-72703571D01*
X198233571Y-72703571D01*
X198376428Y-72632142D01*
X198447857Y-72489285D01*
X198447857Y-72346428D01*
X198376428Y-72203571D01*
X198233571Y-72132142D01*
X197876428Y-72132142D01*
X197733571Y-72060714D01*
X197162142Y-71703571D02*
X196805000Y-72703571D01*
X196447857Y-71703571D01*
X195876428Y-71917857D02*
X195376428Y-71917857D01*
X195162142Y-72703571D02*
X195876428Y-72703571D01*
X195876428Y-71203571D01*
X195162142Y-71203571D01*
X194519285Y-72703571D02*
X194519285Y-71203571D01*
X194019285Y-72275000D01*
X193519285Y-71203571D01*
X193519285Y-72703571D01*
X192876428Y-72632142D02*
X192662142Y-72703571D01*
X192305000Y-72703571D01*
X192162142Y-72632142D01*
X192090714Y-72560714D01*
X192019285Y-72417857D01*
X192019285Y-72275000D01*
X192090714Y-72132142D01*
X192162142Y-72060714D01*
X192305000Y-71989285D01*
X192590714Y-71917857D01*
X192733571Y-71846428D01*
X192805000Y-71775000D01*
X192876428Y-71632142D01*
X192876428Y-71489285D01*
X192805000Y-71346428D01*
X192733571Y-71275000D01*
X192590714Y-71203571D01*
X192233571Y-71203571D01*
X192019285Y-71275000D01*
X191376428Y-71203571D02*
X191376428Y-71275000D01*
X191447857Y-71417857D01*
X191519285Y-71489285D01*
X190805000Y-71203571D02*
X190805000Y-71275000D01*
X190876428Y-71417857D01*
X190947857Y-71489285D01*
X217447857Y-75253571D02*
X217447857Y-73753571D01*
X217090714Y-73753571D01*
X216876428Y-73825000D01*
X216733571Y-73967857D01*
X216662142Y-74110714D01*
X216590714Y-74396428D01*
X216590714Y-74610714D01*
X216662142Y-74896428D01*
X216733571Y-75039285D01*
X216876428Y-75182142D01*
X217090714Y-75253571D01*
X217447857Y-75253571D01*
X215376428Y-75182142D02*
X215519285Y-75253571D01*
X215805000Y-75253571D01*
X215947857Y-75182142D01*
X216019285Y-75039285D01*
X216019285Y-74467857D01*
X215947857Y-74325000D01*
X215805000Y-74253571D01*
X215519285Y-74253571D01*
X215376428Y-74325000D01*
X215305000Y-74467857D01*
X215305000Y-74610714D01*
X216019285Y-74753571D01*
X214733571Y-75182142D02*
X214590714Y-75253571D01*
X214305000Y-75253571D01*
X214162142Y-75182142D01*
X214090714Y-75039285D01*
X214090714Y-74967857D01*
X214162142Y-74825000D01*
X214305000Y-74753571D01*
X214519285Y-74753571D01*
X214662142Y-74682142D01*
X214733571Y-74539285D01*
X214733571Y-74467857D01*
X214662142Y-74325000D01*
X214519285Y-74253571D01*
X214305000Y-74253571D01*
X214162142Y-74325000D01*
X213447857Y-75253571D02*
X213447857Y-74253571D01*
X213447857Y-73753571D02*
X213519285Y-73825000D01*
X213447857Y-73896428D01*
X213376428Y-73825000D01*
X213447857Y-73753571D01*
X213447857Y-73896428D01*
X212090714Y-74253571D02*
X212090714Y-75467857D01*
X212162142Y-75610714D01*
X212233571Y-75682142D01*
X212376428Y-75753571D01*
X212590714Y-75753571D01*
X212733571Y-75682142D01*
X212090714Y-75182142D02*
X212233571Y-75253571D01*
X212519285Y-75253571D01*
X212662142Y-75182142D01*
X212733571Y-75110714D01*
X212805000Y-74967857D01*
X212805000Y-74539285D01*
X212733571Y-74396428D01*
X212662142Y-74325000D01*
X212519285Y-74253571D01*
X212233571Y-74253571D01*
X212090714Y-74325000D01*
X211376428Y-74253571D02*
X211376428Y-75253571D01*
X211376428Y-74396428D02*
X211305000Y-74325000D01*
X211162142Y-74253571D01*
X210947857Y-74253571D01*
X210805000Y-74325000D01*
X210733571Y-74467857D01*
X210733571Y-75253571D01*
X209447857Y-75182142D02*
X209590714Y-75253571D01*
X209876428Y-75253571D01*
X210019285Y-75182142D01*
X210090714Y-75039285D01*
X210090714Y-74467857D01*
X210019285Y-74325000D01*
X209876428Y-74253571D01*
X209590714Y-74253571D01*
X209447857Y-74325000D01*
X209376428Y-74467857D01*
X209376428Y-74610714D01*
X210090714Y-74753571D01*
X208090714Y-75253571D02*
X208090714Y-73753571D01*
X208090714Y-75182142D02*
X208233571Y-75253571D01*
X208519285Y-75253571D01*
X208662142Y-75182142D01*
X208733571Y-75110714D01*
X208805000Y-74967857D01*
X208805000Y-74539285D01*
X208733571Y-74396428D01*
X208662142Y-74325000D01*
X208519285Y-74253571D01*
X208233571Y-74253571D01*
X208090714Y-74325000D01*
X206233571Y-75253571D02*
X206233571Y-73753571D01*
X206233571Y-74325000D02*
X206090714Y-74253571D01*
X205805000Y-74253571D01*
X205662142Y-74325000D01*
X205590714Y-74396428D01*
X205519285Y-74539285D01*
X205519285Y-74967857D01*
X205590714Y-75110714D01*
X205662142Y-75182142D01*
X205805000Y-75253571D01*
X206090714Y-75253571D01*
X206233571Y-75182142D01*
X205019285Y-74253571D02*
X204662142Y-75253571D01*
X204305000Y-74253571D02*
X204662142Y-75253571D01*
X204805000Y-75610714D01*
X204876428Y-75682142D01*
X205019285Y-75753571D01*
X202590714Y-75253571D02*
X202590714Y-73753571D01*
X202590714Y-74467857D02*
X201733571Y-74467857D01*
X201733571Y-75253571D02*
X201733571Y-73753571D01*
X201019285Y-75253571D02*
X201019285Y-74253571D01*
X201019285Y-73753571D02*
X201090714Y-73825000D01*
X201019285Y-73896428D01*
X200947857Y-73825000D01*
X201019285Y-73753571D01*
X201019285Y-73896428D01*
X200305000Y-75253571D02*
X200305000Y-74253571D01*
X200305000Y-74539285D02*
X200233571Y-74396428D01*
X200162142Y-74325000D01*
X200019285Y-74253571D01*
X199876428Y-74253571D01*
X199162142Y-75253571D02*
X199305000Y-75182142D01*
X199376428Y-75110714D01*
X199447857Y-74967857D01*
X199447857Y-74539285D01*
X199376428Y-74396428D01*
X199305000Y-74325000D01*
X199162142Y-74253571D01*
X198947857Y-74253571D01*
X198805000Y-74325000D01*
X198733571Y-74396428D01*
X198662142Y-74539285D01*
X198662142Y-74967857D01*
X198733571Y-75110714D01*
X198805000Y-75182142D01*
X198947857Y-75253571D01*
X199162142Y-75253571D01*
X198019285Y-75253571D02*
X198019285Y-73753571D01*
X197876428Y-74682142D02*
X197447857Y-75253571D01*
X197447857Y-74253571D02*
X198019285Y-74825000D01*
X196805000Y-75253571D02*
X196805000Y-74253571D01*
X196805000Y-73753571D02*
X196876428Y-73825000D01*
X196805000Y-73896428D01*
X196733571Y-73825000D01*
X196805000Y-73753571D01*
X196805000Y-73896428D01*
X194662142Y-73753571D02*
X194376428Y-73753571D01*
X194233571Y-73825000D01*
X194090714Y-73967857D01*
X194019285Y-74253571D01*
X194019285Y-74753571D01*
X194090714Y-75039285D01*
X194233571Y-75182142D01*
X194376428Y-75253571D01*
X194662142Y-75253571D01*
X194805000Y-75182142D01*
X194947857Y-75039285D01*
X195019285Y-74753571D01*
X195019285Y-74253571D01*
X194947857Y-73967857D01*
X194805000Y-73825000D01*
X194662142Y-73753571D01*
X193376428Y-75253571D02*
X193376428Y-73753571D01*
X192733571Y-75253571D02*
X192733571Y-74467857D01*
X192805000Y-74325000D01*
X192947857Y-74253571D01*
X193162142Y-74253571D01*
X193305000Y-74325000D01*
X193376428Y-74396428D01*
X191376428Y-75253571D02*
X191376428Y-74467857D01*
X191447857Y-74325000D01*
X191590714Y-74253571D01*
X191876428Y-74253571D01*
X192019285Y-74325000D01*
X191376428Y-75182142D02*
X191519285Y-75253571D01*
X191876428Y-75253571D01*
X192019285Y-75182142D01*
X192090714Y-75039285D01*
X192090714Y-74896428D01*
X192019285Y-74753571D01*
X191876428Y-74682142D01*
X191519285Y-74682142D01*
X191376428Y-74610714D01*
X190662142Y-75253571D02*
X190662142Y-74253571D01*
X190662142Y-74539285D02*
X190590714Y-74396428D01*
X190519285Y-74325000D01*
X190376428Y-74253571D01*
X190233571Y-74253571D01*
X189090714Y-75253571D02*
X189090714Y-74467857D01*
X189162142Y-74325000D01*
X189305000Y-74253571D01*
X189590714Y-74253571D01*
X189733571Y-74325000D01*
X189090714Y-75182142D02*
X189233571Y-75253571D01*
X189590714Y-75253571D01*
X189733571Y-75182142D01*
X189805000Y-75039285D01*
X189805000Y-74896428D01*
X189733571Y-74753571D01*
X189590714Y-74682142D01*
X189233571Y-74682142D01*
X189090714Y-74610714D01*
X216590714Y-77660714D02*
X216662142Y-77732142D01*
X216876428Y-77803571D01*
X217019285Y-77803571D01*
X217233571Y-77732142D01*
X217376428Y-77589285D01*
X217447857Y-77446428D01*
X217519285Y-77160714D01*
X217519285Y-76946428D01*
X217447857Y-76660714D01*
X217376428Y-76517857D01*
X217233571Y-76375000D01*
X217019285Y-76303571D01*
X216876428Y-76303571D01*
X216662142Y-76375000D01*
X216590714Y-76446428D01*
X215947857Y-77803571D02*
X215947857Y-76803571D01*
X215947857Y-77089285D02*
X215876428Y-76946428D01*
X215805000Y-76875000D01*
X215662142Y-76803571D01*
X215519285Y-76803571D01*
X214447857Y-77732142D02*
X214590714Y-77803571D01*
X214876428Y-77803571D01*
X215019285Y-77732142D01*
X215090714Y-77589285D01*
X215090714Y-77017857D01*
X215019285Y-76875000D01*
X214876428Y-76803571D01*
X214590714Y-76803571D01*
X214447857Y-76875000D01*
X214376428Y-77017857D01*
X214376428Y-77160714D01*
X215090714Y-77303571D01*
X213090714Y-77803571D02*
X213090714Y-77017857D01*
X213162142Y-76875000D01*
X213305000Y-76803571D01*
X213590714Y-76803571D01*
X213733571Y-76875000D01*
X213090714Y-77732142D02*
X213233571Y-77803571D01*
X213590714Y-77803571D01*
X213733571Y-77732142D01*
X213805000Y-77589285D01*
X213805000Y-77446428D01*
X213733571Y-77303571D01*
X213590714Y-77232142D01*
X213233571Y-77232142D01*
X213090714Y-77160714D01*
X212590714Y-76803571D02*
X212019285Y-76803571D01*
X212376428Y-76303571D02*
X212376428Y-77589285D01*
X212305000Y-77732142D01*
X212162142Y-77803571D01*
X212019285Y-77803571D01*
X210947857Y-77732142D02*
X211090714Y-77803571D01*
X211376428Y-77803571D01*
X211519285Y-77732142D01*
X211590714Y-77589285D01*
X211590714Y-77017857D01*
X211519285Y-76875000D01*
X211376428Y-76803571D01*
X211090714Y-76803571D01*
X210947857Y-76875000D01*
X210876428Y-77017857D01*
X210876428Y-77160714D01*
X211590714Y-77303571D01*
X209590714Y-77803571D02*
X209590714Y-76303571D01*
X209590714Y-77732142D02*
X209733571Y-77803571D01*
X210019285Y-77803571D01*
X210162142Y-77732142D01*
X210233571Y-77660714D01*
X210305000Y-77517857D01*
X210305000Y-77089285D01*
X210233571Y-76946428D01*
X210162142Y-76875000D01*
X210019285Y-76803571D01*
X209733571Y-76803571D01*
X209590714Y-76875000D01*
X207733571Y-77803571D02*
X207733571Y-76803571D01*
X207733571Y-76303571D02*
X207805000Y-76375000D01*
X207733571Y-76446428D01*
X207662142Y-76375000D01*
X207733571Y-76303571D01*
X207733571Y-76446428D01*
X207019285Y-76803571D02*
X207019285Y-77803571D01*
X207019285Y-76946428D02*
X206947857Y-76875000D01*
X206805000Y-76803571D01*
X206590714Y-76803571D01*
X206447857Y-76875000D01*
X206376428Y-77017857D01*
X206376428Y-77803571D01*
X204590714Y-76446428D02*
X204519285Y-76375000D01*
X204376428Y-76303571D01*
X204019285Y-76303571D01*
X203876428Y-76375000D01*
X203805000Y-76446428D01*
X203733571Y-76589285D01*
X203733571Y-76732142D01*
X203805000Y-76946428D01*
X204662142Y-77803571D01*
X203733571Y-77803571D01*
X202805000Y-76303571D02*
X202662142Y-76303571D01*
X202519285Y-76375000D01*
X202447857Y-76446428D01*
X202376428Y-76589285D01*
X202305000Y-76875000D01*
X202305000Y-77232142D01*
X202376428Y-77517857D01*
X202447857Y-77660714D01*
X202519285Y-77732142D01*
X202662142Y-77803571D01*
X202805000Y-77803571D01*
X202947857Y-77732142D01*
X203019285Y-77660714D01*
X203090714Y-77517857D01*
X203162142Y-77232142D01*
X203162142Y-76875000D01*
X203090714Y-76589285D01*
X203019285Y-76446428D01*
X202947857Y-76375000D01*
X202805000Y-76303571D01*
X201733571Y-76446428D02*
X201662142Y-76375000D01*
X201519285Y-76303571D01*
X201162142Y-76303571D01*
X201019285Y-76375000D01*
X200947857Y-76446428D01*
X200876428Y-76589285D01*
X200876428Y-76732142D01*
X200947857Y-76946428D01*
X201805000Y-77803571D01*
X200876428Y-77803571D01*
X199447857Y-77803571D02*
X200305000Y-77803571D01*
X199876428Y-77803571D02*
X199876428Y-76303571D01*
X200019285Y-76517857D01*
X200162142Y-76660714D01*
X200305000Y-76732142D01*
D11*
X144540000Y-62220000D02*
X144540000Y-81120000D01*
X143140000Y-82520000D02*
X112740000Y-82520000D01*
X112740000Y-82520000D02*
X112740000Y-62220000D01*
X112740000Y-62220000D02*
X144540000Y-62220000D01*
X143148000Y-80000000D02*
G75*
G03*
X143148000Y-80000000I-508000J0D01*
G01*
X144540000Y-81120000D02*
X143140000Y-82520000D01*
X102900000Y-73690000D02*
X95350000Y-73690000D01*
X95350000Y-73690000D02*
X95350000Y-62190000D01*
X102900000Y-73690000D02*
X102900000Y-62190000D01*
X102900000Y-62190000D02*
X95350000Y-62190000D01*
X99884000Y-65400000D02*
G75*
G03*
X99884000Y-65400000I-508000J0D01*
G01*
D12*
G36*
X100900000Y-62098000D02*
G01*
X101408000Y-61336000D01*
X100392000Y-61336000D01*
X100900000Y-62098000D01*
G37*
X100900000Y-62098000D02*
X101408000Y-61336000D01*
X100392000Y-61336000D01*
X100900000Y-62098000D01*
G36*
X172606000Y-66256000D02*
G01*
X173368000Y-66764000D01*
X173368000Y-65748000D01*
X172606000Y-66256000D01*
G37*
X172606000Y-66256000D02*
X173368000Y-66764000D01*
X173368000Y-65748000D01*
X172606000Y-66256000D01*
D11*
X152286000Y-65240000D02*
X172606000Y-65240000D01*
X152286000Y-82512000D02*
X152286000Y-65240000D01*
X172606000Y-82512000D02*
X152286000Y-82512000D01*
X172606000Y-65240000D02*
X172606000Y-82512000D01*
X170066000Y-66256000D02*
G75*
G03*
X170066000Y-66256000I-508000J0D01*
G01*
X81642000Y-61152000D02*
X81642000Y-60822000D01*
X81642000Y-60822000D02*
X75102000Y-60822000D01*
X75102000Y-60822000D02*
X75102000Y-61152000D01*
X81642000Y-63232000D02*
X81642000Y-63562000D01*
X81642000Y-63562000D02*
X75102000Y-63562000D01*
X75102000Y-63562000D02*
X75102000Y-63232000D01*
X86016000Y-70288000D02*
X86346000Y-70288000D01*
X86346000Y-70288000D02*
X86346000Y-63748000D01*
X86346000Y-63748000D02*
X86016000Y-63748000D01*
X83936000Y-70288000D02*
X83606000Y-70288000D01*
X83606000Y-70288000D02*
X83606000Y-63748000D01*
X83606000Y-63748000D02*
X83936000Y-63748000D01*
X96520000Y-91151000D02*
X96520000Y-90821000D01*
X96520000Y-90821000D02*
X89980000Y-90821000D01*
X89980000Y-90821000D02*
X89980000Y-91151000D01*
X96520000Y-93231000D02*
X96520000Y-93561000D01*
X96520000Y-93561000D02*
X89980000Y-93561000D01*
X89980000Y-93561000D02*
X89980000Y-93231000D01*
X96520000Y-94885000D02*
X96520000Y-95215000D01*
X89980000Y-94885000D02*
X96520000Y-94885000D01*
X89980000Y-95215000D02*
X89980000Y-94885000D01*
X96520000Y-97625000D02*
X96520000Y-97295000D01*
X89980000Y-97625000D02*
X96520000Y-97625000D01*
X89980000Y-97295000D02*
X89980000Y-97625000D01*
X96520000Y-99279000D02*
X96520000Y-98949000D01*
X96520000Y-98949000D02*
X89980000Y-98949000D01*
X89980000Y-98949000D02*
X89980000Y-99279000D01*
X96520000Y-101359000D02*
X96520000Y-101689000D01*
X96520000Y-101689000D02*
X89980000Y-101689000D01*
X89980000Y-101689000D02*
X89980000Y-101359000D01*
X96520000Y-103013000D02*
X96520000Y-103343000D01*
X89980000Y-103013000D02*
X96520000Y-103013000D01*
X89980000Y-103343000D02*
X89980000Y-103013000D01*
X96520000Y-105753000D02*
X96520000Y-105423000D01*
X89980000Y-105753000D02*
X96520000Y-105753000D01*
X89980000Y-105423000D02*
X89980000Y-105753000D01*
X100720000Y-119140000D02*
X100720000Y-119470000D01*
X100720000Y-119470000D02*
X107260000Y-119470000D01*
X107260000Y-119470000D02*
X107260000Y-119140000D01*
X100720000Y-117060000D02*
X100720000Y-116730000D01*
X100720000Y-116730000D02*
X107260000Y-116730000D01*
X107260000Y-116730000D02*
X107260000Y-117060000D01*
X164454000Y-99562000D02*
X164124000Y-99562000D01*
X164124000Y-99562000D02*
X164124000Y-106102000D01*
X164124000Y-106102000D02*
X164454000Y-106102000D01*
X166534000Y-99562000D02*
X166864000Y-99562000D01*
X166864000Y-99562000D02*
X166864000Y-106102000D01*
X166864000Y-106102000D02*
X166534000Y-106102000D01*
X164454000Y-135122000D02*
X164124000Y-135122000D01*
X164124000Y-135122000D02*
X164124000Y-141662000D01*
X164124000Y-141662000D02*
X164454000Y-141662000D01*
X166534000Y-135122000D02*
X166864000Y-135122000D01*
X166864000Y-135122000D02*
X166864000Y-141662000D01*
X166864000Y-141662000D02*
X166534000Y-141662000D01*
D13*
X144514285Y-61952380D02*
X144514285Y-60952380D01*
X144133333Y-60952380D01*
X144038095Y-61000000D01*
X143990476Y-61047619D01*
X143942857Y-61142857D01*
X143942857Y-61285714D01*
X143990476Y-61380952D01*
X144038095Y-61428571D01*
X144133333Y-61476190D01*
X144514285Y-61476190D01*
X143561904Y-61904761D02*
X143419047Y-61952380D01*
X143180952Y-61952380D01*
X143085714Y-61904761D01*
X143038095Y-61857142D01*
X142990476Y-61761904D01*
X142990476Y-61666666D01*
X143038095Y-61571428D01*
X143085714Y-61523809D01*
X143180952Y-61476190D01*
X143371428Y-61428571D01*
X143466666Y-61380952D01*
X143514285Y-61333333D01*
X143561904Y-61238095D01*
X143561904Y-61142857D01*
X143514285Y-61047619D01*
X143466666Y-61000000D01*
X143371428Y-60952380D01*
X143133333Y-60952380D01*
X142990476Y-61000000D01*
X142038095Y-61952380D02*
X142609523Y-61952380D01*
X142323809Y-61952380D02*
X142323809Y-60952380D01*
X142419047Y-61095238D01*
X142514285Y-61190476D01*
X142609523Y-61238095D01*
X102876285Y-61052380D02*
X102876285Y-60052380D01*
X102495333Y-60052380D01*
X102400095Y-60100000D01*
X102352476Y-60147619D01*
X102304857Y-60242857D01*
X102304857Y-60385714D01*
X102352476Y-60480952D01*
X102400095Y-60528571D01*
X102495333Y-60576190D01*
X102876285Y-60576190D01*
X101923904Y-61004761D02*
X101781047Y-61052380D01*
X101542952Y-61052380D01*
X101447714Y-61004761D01*
X101400095Y-60957142D01*
X101352476Y-60861904D01*
X101352476Y-60766666D01*
X101400095Y-60671428D01*
X101447714Y-60623809D01*
X101542952Y-60576190D01*
X101733428Y-60528571D01*
X101828666Y-60480952D01*
X101876285Y-60433333D01*
X101923904Y-60338095D01*
X101923904Y-60242857D01*
X101876285Y-60147619D01*
X101828666Y-60100000D01*
X101733428Y-60052380D01*
X101495333Y-60052380D01*
X101352476Y-60100000D01*
X100971523Y-60147619D02*
X100923904Y-60100000D01*
X100828666Y-60052380D01*
X100590571Y-60052380D01*
X100495333Y-60100000D01*
X100447714Y-60147619D01*
X100400095Y-60242857D01*
X100400095Y-60338095D01*
X100447714Y-60480952D01*
X101019142Y-61052380D01*
X100400095Y-61052380D01*
X172561904Y-63752380D02*
X172561904Y-64561904D01*
X172514285Y-64657142D01*
X172466666Y-64704761D01*
X172371428Y-64752380D01*
X172180952Y-64752380D01*
X172085714Y-64704761D01*
X172038095Y-64657142D01*
X171990476Y-64561904D01*
X171990476Y-63752380D01*
X171561904Y-63847619D02*
X171514285Y-63800000D01*
X171419047Y-63752380D01*
X171180952Y-63752380D01*
X171085714Y-63800000D01*
X171038095Y-63847619D01*
X170990476Y-63942857D01*
X170990476Y-64038095D01*
X171038095Y-64180952D01*
X171609523Y-64752380D01*
X170990476Y-64752380D01*
X63466666Y-71857142D02*
X63514285Y-71904761D01*
X63657142Y-71952380D01*
X63752380Y-71952380D01*
X63895238Y-71904761D01*
X63990476Y-71809523D01*
X64038095Y-71714285D01*
X64085714Y-71523809D01*
X64085714Y-71380952D01*
X64038095Y-71190476D01*
X63990476Y-71095238D01*
X63895238Y-71000000D01*
X63752380Y-70952380D01*
X63657142Y-70952380D01*
X63514285Y-71000000D01*
X63466666Y-71047619D01*
X63133333Y-70952380D02*
X62514285Y-70952380D01*
X62847619Y-71333333D01*
X62704761Y-71333333D01*
X62609523Y-71380952D01*
X62561904Y-71428571D01*
X62514285Y-71523809D01*
X62514285Y-71761904D01*
X62561904Y-71857142D01*
X62609523Y-71904761D01*
X62704761Y-71952380D01*
X62990476Y-71952380D01*
X63085714Y-71904761D01*
X63133333Y-71857142D01*
X92966666Y-60657142D02*
X93014285Y-60704761D01*
X93157142Y-60752380D01*
X93252380Y-60752380D01*
X93395238Y-60704761D01*
X93490476Y-60609523D01*
X93538095Y-60514285D01*
X93585714Y-60323809D01*
X93585714Y-60180952D01*
X93538095Y-59990476D01*
X93490476Y-59895238D01*
X93395238Y-59800000D01*
X93252380Y-59752380D01*
X93157142Y-59752380D01*
X93014285Y-59800000D01*
X92966666Y-59847619D01*
X92014285Y-60752380D02*
X92585714Y-60752380D01*
X92300000Y-60752380D02*
X92300000Y-59752380D01*
X92395238Y-59895238D01*
X92490476Y-59990476D01*
X92585714Y-60038095D01*
X108966666Y-65057142D02*
X109014285Y-65104761D01*
X109157142Y-65152380D01*
X109252380Y-65152380D01*
X109395238Y-65104761D01*
X109490476Y-65009523D01*
X109538095Y-64914285D01*
X109585714Y-64723809D01*
X109585714Y-64580952D01*
X109538095Y-64390476D01*
X109490476Y-64295238D01*
X109395238Y-64200000D01*
X109252380Y-64152380D01*
X109157142Y-64152380D01*
X109014285Y-64200000D01*
X108966666Y-64247619D01*
X108585714Y-64247619D02*
X108538095Y-64200000D01*
X108442857Y-64152380D01*
X108204761Y-64152380D01*
X108109523Y-64200000D01*
X108061904Y-64247619D01*
X108014285Y-64342857D01*
X108014285Y-64438095D01*
X108061904Y-64580952D01*
X108633333Y-65152380D01*
X108014285Y-65152380D01*
X108966666Y-75257142D02*
X109014285Y-75304761D01*
X109157142Y-75352380D01*
X109252380Y-75352380D01*
X109395238Y-75304761D01*
X109490476Y-75209523D01*
X109538095Y-75114285D01*
X109585714Y-74923809D01*
X109585714Y-74780952D01*
X109538095Y-74590476D01*
X109490476Y-74495238D01*
X109395238Y-74400000D01*
X109252380Y-74352380D01*
X109157142Y-74352380D01*
X109014285Y-74400000D01*
X108966666Y-74447619D01*
X108109523Y-74685714D02*
X108109523Y-75352380D01*
X108347619Y-74304761D02*
X108585714Y-75019047D01*
X107966666Y-75019047D01*
X95266666Y-113457142D02*
X95314285Y-113504761D01*
X95457142Y-113552380D01*
X95552380Y-113552380D01*
X95695238Y-113504761D01*
X95790476Y-113409523D01*
X95838095Y-113314285D01*
X95885714Y-113123809D01*
X95885714Y-112980952D01*
X95838095Y-112790476D01*
X95790476Y-112695238D01*
X95695238Y-112600000D01*
X95552380Y-112552380D01*
X95457142Y-112552380D01*
X95314285Y-112600000D01*
X95266666Y-112647619D01*
X94409523Y-112552380D02*
X94600000Y-112552380D01*
X94695238Y-112600000D01*
X94742857Y-112647619D01*
X94838095Y-112790476D01*
X94885714Y-112980952D01*
X94885714Y-113361904D01*
X94838095Y-113457142D01*
X94790476Y-113504761D01*
X94695238Y-113552380D01*
X94504761Y-113552380D01*
X94409523Y-113504761D01*
X94361904Y-113457142D01*
X94314285Y-113361904D01*
X94314285Y-113123809D01*
X94361904Y-113028571D01*
X94409523Y-112980952D01*
X94504761Y-112933333D01*
X94695238Y-112933333D01*
X94790476Y-112980952D01*
X94838095Y-113028571D01*
X94885714Y-113123809D01*
X113066666Y-119557142D02*
X113114285Y-119604761D01*
X113257142Y-119652380D01*
X113352380Y-119652380D01*
X113495238Y-119604761D01*
X113590476Y-119509523D01*
X113638095Y-119414285D01*
X113685714Y-119223809D01*
X113685714Y-119080952D01*
X113638095Y-118890476D01*
X113590476Y-118795238D01*
X113495238Y-118700000D01*
X113352380Y-118652380D01*
X113257142Y-118652380D01*
X113114285Y-118700000D01*
X113066666Y-118747619D01*
X112733333Y-118652380D02*
X112066666Y-118652380D01*
X112495238Y-119652380D01*
X86866666Y-85357142D02*
X86914285Y-85404761D01*
X87057142Y-85452380D01*
X87152380Y-85452380D01*
X87295238Y-85404761D01*
X87390476Y-85309523D01*
X87438095Y-85214285D01*
X87485714Y-85023809D01*
X87485714Y-84880952D01*
X87438095Y-84690476D01*
X87390476Y-84595238D01*
X87295238Y-84500000D01*
X87152380Y-84452380D01*
X87057142Y-84452380D01*
X86914285Y-84500000D01*
X86866666Y-84547619D01*
X85961904Y-84452380D02*
X86438095Y-84452380D01*
X86485714Y-84928571D01*
X86438095Y-84880952D01*
X86342857Y-84833333D01*
X86104761Y-84833333D01*
X86009523Y-84880952D01*
X85961904Y-84928571D01*
X85914285Y-85023809D01*
X85914285Y-85261904D01*
X85961904Y-85357142D01*
X86009523Y-85404761D01*
X86104761Y-85452380D01*
X86342857Y-85452380D01*
X86438095Y-85404761D01*
X86485714Y-85357142D01*
X81066666Y-60352380D02*
X81400000Y-59876190D01*
X81638095Y-60352380D02*
X81638095Y-59352380D01*
X81257142Y-59352380D01*
X81161904Y-59400000D01*
X81114285Y-59447619D01*
X81066666Y-59542857D01*
X81066666Y-59685714D01*
X81114285Y-59780952D01*
X81161904Y-59828571D01*
X81257142Y-59876190D01*
X81638095Y-59876190D01*
X80114285Y-60352380D02*
X80685714Y-60352380D01*
X80400000Y-60352380D02*
X80400000Y-59352380D01*
X80495238Y-59495238D01*
X80590476Y-59590476D01*
X80685714Y-59638095D01*
X82666666Y-64952380D02*
X83000000Y-64476190D01*
X83238095Y-64952380D02*
X83238095Y-63952380D01*
X82857142Y-63952380D01*
X82761904Y-64000000D01*
X82714285Y-64047619D01*
X82666666Y-64142857D01*
X82666666Y-64285714D01*
X82714285Y-64380952D01*
X82761904Y-64428571D01*
X82857142Y-64476190D01*
X83238095Y-64476190D01*
X82285714Y-64047619D02*
X82238095Y-64000000D01*
X82142857Y-63952380D01*
X81904761Y-63952380D01*
X81809523Y-64000000D01*
X81761904Y-64047619D01*
X81714285Y-64142857D01*
X81714285Y-64238095D01*
X81761904Y-64380952D01*
X82333333Y-64952380D01*
X81714285Y-64952380D01*
X99312666Y-91779380D02*
X99646000Y-91303190D01*
X99884095Y-91779380D02*
X99884095Y-90779380D01*
X99503142Y-90779380D01*
X99407904Y-90827000D01*
X99360285Y-90874619D01*
X99312666Y-90969857D01*
X99312666Y-91112714D01*
X99360285Y-91207952D01*
X99407904Y-91255571D01*
X99503142Y-91303190D01*
X99884095Y-91303190D01*
X98979333Y-90779380D02*
X98360285Y-90779380D01*
X98693619Y-91160333D01*
X98550761Y-91160333D01*
X98455523Y-91207952D01*
X98407904Y-91255571D01*
X98360285Y-91350809D01*
X98360285Y-91588904D01*
X98407904Y-91684142D01*
X98455523Y-91731761D01*
X98550761Y-91779380D01*
X98836476Y-91779380D01*
X98931714Y-91731761D01*
X98979333Y-91684142D01*
X99312666Y-95879380D02*
X99646000Y-95403190D01*
X99884095Y-95879380D02*
X99884095Y-94879380D01*
X99503142Y-94879380D01*
X99407904Y-94927000D01*
X99360285Y-94974619D01*
X99312666Y-95069857D01*
X99312666Y-95212714D01*
X99360285Y-95307952D01*
X99407904Y-95355571D01*
X99503142Y-95403190D01*
X99884095Y-95403190D01*
X98455523Y-95212714D02*
X98455523Y-95879380D01*
X98693619Y-94831761D02*
X98931714Y-95546047D01*
X98312666Y-95546047D01*
X99312666Y-99879380D02*
X99646000Y-99403190D01*
X99884095Y-99879380D02*
X99884095Y-98879380D01*
X99503142Y-98879380D01*
X99407904Y-98927000D01*
X99360285Y-98974619D01*
X99312666Y-99069857D01*
X99312666Y-99212714D01*
X99360285Y-99307952D01*
X99407904Y-99355571D01*
X99503142Y-99403190D01*
X99884095Y-99403190D01*
X98407904Y-98879380D02*
X98884095Y-98879380D01*
X98931714Y-99355571D01*
X98884095Y-99307952D01*
X98788857Y-99260333D01*
X98550761Y-99260333D01*
X98455523Y-99307952D01*
X98407904Y-99355571D01*
X98360285Y-99450809D01*
X98360285Y-99688904D01*
X98407904Y-99784142D01*
X98455523Y-99831761D01*
X98550761Y-99879380D01*
X98788857Y-99879380D01*
X98884095Y-99831761D01*
X98931714Y-99784142D01*
X99312666Y-103979380D02*
X99646000Y-103503190D01*
X99884095Y-103979380D02*
X99884095Y-102979380D01*
X99503142Y-102979380D01*
X99407904Y-103027000D01*
X99360285Y-103074619D01*
X99312666Y-103169857D01*
X99312666Y-103312714D01*
X99360285Y-103407952D01*
X99407904Y-103455571D01*
X99503142Y-103503190D01*
X99884095Y-103503190D01*
X98455523Y-102979380D02*
X98646000Y-102979380D01*
X98741238Y-103027000D01*
X98788857Y-103074619D01*
X98884095Y-103217476D01*
X98931714Y-103407952D01*
X98931714Y-103788904D01*
X98884095Y-103884142D01*
X98836476Y-103931761D01*
X98741238Y-103979380D01*
X98550761Y-103979380D01*
X98455523Y-103931761D01*
X98407904Y-103884142D01*
X98360285Y-103788904D01*
X98360285Y-103550809D01*
X98407904Y-103455571D01*
X98455523Y-103407952D01*
X98550761Y-103360333D01*
X98741238Y-103360333D01*
X98836476Y-103407952D01*
X98884095Y-103455571D01*
X98931714Y-103550809D01*
X108138666Y-116280380D02*
X108472000Y-115804190D01*
X108710095Y-116280380D02*
X108710095Y-115280380D01*
X108329142Y-115280380D01*
X108233904Y-115328000D01*
X108186285Y-115375619D01*
X108138666Y-115470857D01*
X108138666Y-115613714D01*
X108186285Y-115708952D01*
X108233904Y-115756571D01*
X108329142Y-115804190D01*
X108710095Y-115804190D01*
X107805333Y-115280380D02*
X107138666Y-115280380D01*
X107567238Y-116280380D01*
X163142857Y-100552380D02*
X163476190Y-100076190D01*
X163714285Y-100552380D02*
X163714285Y-99552380D01*
X163333333Y-99552380D01*
X163238095Y-99600000D01*
X163190476Y-99647619D01*
X163142857Y-99742857D01*
X163142857Y-99885714D01*
X163190476Y-99980952D01*
X163238095Y-100028571D01*
X163333333Y-100076190D01*
X163714285Y-100076190D01*
X162190476Y-100552380D02*
X162761904Y-100552380D01*
X162476190Y-100552380D02*
X162476190Y-99552380D01*
X162571428Y-99695238D01*
X162666666Y-99790476D01*
X162761904Y-99838095D01*
X161333333Y-99552380D02*
X161523809Y-99552380D01*
X161619047Y-99600000D01*
X161666666Y-99647619D01*
X161761904Y-99790476D01*
X161809523Y-99980952D01*
X161809523Y-100361904D01*
X161761904Y-100457142D01*
X161714285Y-100504761D01*
X161619047Y-100552380D01*
X161428571Y-100552380D01*
X161333333Y-100504761D01*
X161285714Y-100457142D01*
X161238095Y-100361904D01*
X161238095Y-100123809D01*
X161285714Y-100028571D01*
X161333333Y-99980952D01*
X161428571Y-99933333D01*
X161619047Y-99933333D01*
X161714285Y-99980952D01*
X161761904Y-100028571D01*
X161809523Y-100123809D01*
X163142857Y-136152380D02*
X163476190Y-135676190D01*
X163714285Y-136152380D02*
X163714285Y-135152380D01*
X163333333Y-135152380D01*
X163238095Y-135200000D01*
X163190476Y-135247619D01*
X163142857Y-135342857D01*
X163142857Y-135485714D01*
X163190476Y-135580952D01*
X163238095Y-135628571D01*
X163333333Y-135676190D01*
X163714285Y-135676190D01*
X162190476Y-136152380D02*
X162761904Y-136152380D01*
X162476190Y-136152380D02*
X162476190Y-135152380D01*
X162571428Y-135295238D01*
X162666666Y-135390476D01*
X162761904Y-135438095D01*
X161857142Y-135152380D02*
X161190476Y-135152380D01*
X161619047Y-136152380D01*
M02*
