M48
; DRILL file {KiCad (5.1.7-0-10_14)} date Friday, July 16, 2021 at 01:45:41 PM
; FORMAT={-:-/ absolute / metric / decimal}
; #@! TF.CreationDate,2021-07-16T13:45:41+09:00
; #@! TF.GenerationSoftware,Kicad,Pcbnew,(5.1.7-0-10_14)
; #@! TF.FileFunction,Plated,1,4,PTH
FMAT,2
METRIC
T1C0.400
T2C0.700
T3C0.800
T4C0.900
T5C1.000
T6C3.000
T7C3.200
%
G90
G05
T1
X46.9Y-42.0
X46.9Y-44.0
X46.9Y-46.0
X46.9Y-145.0
X46.9Y-147.0
X46.9Y-149.0
X51.0Y-37.9
X51.0Y-153.1
X53.0Y-37.9
X53.0Y-153.1
X55.0Y-37.9
X55.0Y-153.1
X74.494Y-90.412
X74.494Y-91.4
X75.5Y-90.412
X97.2Y-57.5
X97.2Y-58.5
X98.2Y-58.5
X112.4Y-144.9
X113.4Y-143.9
X113.4Y-144.9
X113.8Y-101.6
X118.9Y-101.5
X118.9Y-137.1
X128.1Y-153.1
X129.1Y-153.1
X129.1Y-154.1
X150.5Y-36.9
X150.5Y-37.9
X151.5Y-37.9
X164.4Y-87.1
X171.0Y-153.1
X172.0Y-153.1
X172.0Y-154.1
X231.0Y-37.9
X233.0Y-37.9
X235.0Y-37.9
X239.1Y-42.0
X239.1Y-44.0
X239.1Y-46.0
X239.1Y-71.1
X239.1Y-72.1
X240.1Y-72.1
T2
X98.438Y-131.28
X98.438Y-136.36
X100.978Y-99.784
X100.978Y-104.864
T3
X165.494Y-99.022
X165.494Y-106.642
X225.692Y-130.772
X233.312Y-130.772
X116.726Y-95.212
X116.726Y-97.752
X116.726Y-100.292
X116.726Y-102.832
X116.726Y-105.372
X170.066Y-95.212
X170.066Y-97.752
X170.066Y-100.292
X170.066Y-102.832
X170.066Y-105.372
X89.44Y-92.191
X97.06Y-92.191
X105.296Y-103.594
X105.296Y-111.214
X116.726Y-130.772
X116.726Y-133.312
X116.726Y-135.852
X116.726Y-138.392
X116.726Y-140.932
X170.066Y-130.772
X170.066Y-133.312
X170.066Y-135.852
X170.066Y-138.392
X170.066Y-140.932
X87.77Y-62.192
X92.85Y-62.192
X225.692Y-121.12
X233.312Y-121.12
X58.24Y-73.434
X63.32Y-73.434
X74.562Y-62.192
X82.182Y-62.192
X102.756Y-124.93
X102.756Y-132.55
X225.692Y-95.212
X233.312Y-95.212
X90.056Y-126.2
X97.676Y-126.2
X225.692Y-85.56
X233.312Y-85.56
X89.44Y-104.383
X97.06Y-104.383
X117.24Y-64.76
X117.24Y-79.98
X122.32Y-64.76
X122.32Y-79.98
X137.56Y-64.76
X137.56Y-79.98
X140.1Y-64.76
X140.1Y-79.98
X165.494Y-134.582
X165.494Y-142.202
X52.0Y-97.7
X52.0Y-100.24
X52.0Y-102.78
X52.0Y-105.32
X52.0Y-107.86
X52.0Y-110.4
X52.0Y-112.94
X52.0Y-115.48
X52.0Y-118.02
X52.0Y-120.56
X52.0Y-123.1
X52.0Y-125.64
X52.0Y-128.18
X52.0Y-130.72
X52.0Y-133.26
X52.0Y-135.8
X52.0Y-138.34
X52.0Y-140.88
X52.0Y-143.42
X52.0Y-145.96
X85.02Y-97.7
X85.02Y-100.24
X85.02Y-102.78
X85.02Y-105.32
X85.02Y-107.86
X85.02Y-110.4
X85.02Y-112.94
X85.02Y-115.48
X85.02Y-118.02
X85.02Y-120.56
X85.02Y-123.1
X85.02Y-125.64
X85.02Y-128.18
X85.02Y-130.72
X85.02Y-133.26
X85.02Y-135.8
X85.02Y-138.34
X85.02Y-140.88
X85.02Y-143.42
X85.02Y-145.96
X81.608Y-86.896
X86.688Y-86.896
X89.44Y-96.255
X97.06Y-96.255
X105.296Y-93.434
X105.296Y-101.054
X107.836Y-121.12
X112.916Y-121.12
X152.3Y-52.7
X237.3Y-52.7
X153.556Y-66.256
X153.556Y-81.496
X171.336Y-66.256
X171.336Y-71.336
X171.336Y-76.416
X171.336Y-81.496
X225.692Y-125.946
X233.312Y-125.946
X51.966Y-76.162
X51.966Y-83.782
X54.506Y-76.162
X54.506Y-83.782
X57.046Y-76.162
X57.046Y-83.782
X59.586Y-76.162
X59.586Y-83.782
X62.126Y-76.162
X62.126Y-83.782
X64.666Y-76.162
X64.666Y-83.782
X67.206Y-76.162
X67.206Y-83.782
X69.746Y-76.162
X69.746Y-83.782
X72.286Y-76.162
X72.286Y-83.782
X74.826Y-76.162
X74.826Y-83.782
X77.366Y-76.162
X77.366Y-83.782
X79.906Y-76.162
X79.906Y-83.782
X82.446Y-76.162
X82.446Y-83.782
X84.986Y-76.162
X84.986Y-83.782
X90.056Y-115.024
X95.136Y-115.024
X84.976Y-63.208
X84.976Y-70.828
X92.596Y-109.944
X100.216Y-109.944
X225.692Y-116.294
X233.312Y-116.294
X97.673Y-114.264
X97.673Y-121.884
X100.213Y-114.264
X100.213Y-121.884
X102.753Y-114.264
X102.753Y-121.884
X105.293Y-114.264
X105.293Y-121.884
X102.756Y-135.09
X102.756Y-142.71
X225.692Y-90.386
X233.312Y-90.386
X111.001Y-74.894
X111.001Y-79.974
X100.18Y-118.1
X107.8Y-118.1
X111.001Y-64.734
X111.001Y-69.814
X225.692Y-80.734
X233.312Y-80.734
X89.44Y-100.319
X97.06Y-100.319
T4
X98.9Y-76.0
X98.9Y-86.16
X93.7Y-76.0
X93.7Y-86.16
T5
X219.342Y-125.946
X221.882Y-125.946
X219.342Y-130.772
X221.882Y-130.772
X219.342Y-80.734
X221.882Y-80.734
X51.956Y-66.002
X54.496Y-66.002
X57.036Y-66.002
X59.576Y-66.002
X62.116Y-66.002
X64.656Y-66.002
X219.342Y-85.56
X221.882Y-85.56
X219.342Y-95.212
X221.882Y-95.212
X219.342Y-116.294
X221.882Y-116.294
X219.342Y-90.386
X221.882Y-90.386
X219.342Y-121.12
X221.882Y-121.12
T6
X167.879Y-52.7
X221.714Y-52.7
T7
X46.9Y-153.1
X46.9Y-37.9
X239.1Y-153.1
X239.1Y-37.9
T1
G00X100.9Y-65.6
M15
G01X100.9Y-65.2
M16
G05
G00X100.9Y-68.14
M15
G01X100.9Y-67.74
M16
G05
G00X100.9Y-70.68
M15
G01X100.9Y-70.28
M16
G05
T3
G00X177.738Y-94.612
M15
G01X177.738Y-95.812
M16
G05
G00X185.179Y-94.612
M15
G01X185.179Y-95.812
M16
G05
G00X205.245Y-95.812
M15
G01X205.245Y-94.612
M16
G05
G00X212.738Y-95.812
M15
G01X212.738Y-94.612
M16
G05
G00X230.614Y-141.632
M15
G01X230.614Y-140.232
M16
G05
G00X236.464Y-141.632
M15
G01X236.464Y-140.232
M16
G05
G00X241.814Y-141.632
M15
G01X241.814Y-140.232
M16
G05
G00X177.738Y-130.172
M15
G01X177.738Y-131.372
M16
G05
G00X185.179Y-130.172
M15
G01X185.179Y-131.372
M16
G05
G00X205.245Y-131.372
M15
G01X205.245Y-130.172
M16
G05
G00X212.738Y-131.372
M15
G01X212.738Y-130.172
M16
G05
G00X230.614Y-106.072
M15
G01X230.614Y-104.672
M16
G05
G00X236.464Y-106.072
M15
G01X236.464Y-104.672
M16
G05
G00X241.814Y-106.072
M15
G01X241.814Y-104.672
M16
G05
T5
G00X125.854Y-44.079
M15
G01X124.654Y-44.079
M16
G05
G00X125.854Y-48.779
M15
G01X124.654Y-48.779
M16
G05
G00X125.854Y-53.479
M15
G01X124.654Y-53.479
M16
G05
T0
M30
