M48
; DRILL file {KiCad (5.1.7-0-10_14)} date Thursday, May 27, 2021 at 02:06:30 PM
; FORMAT={-:-/ absolute / metric / decimal}
; #@! TF.CreationDate,2021-05-27T14:06:30+09:00
; #@! TF.GenerationSoftware,Kicad,Pcbnew,(5.1.7-0-10_14)
; #@! TF.FileFunction,Plated,1,4,PTH
FMAT,2
METRIC
T1C0.400
T2C0.700
T3C0.800
T4C1.000
T5C2.200
T6C3.000
%
G90
G05
T1
X46.9Y-42.0
X46.9Y-44.0
X46.9Y-46.0
X46.9Y-145.0
X46.9Y-147.0
X46.9Y-149.0
X51.0Y-37.9
X51.0Y-153.1
X53.0Y-37.9
X53.0Y-153.1
X55.0Y-37.9
X55.0Y-153.1
X74.494Y-90.412
X74.494Y-91.4
X75.5Y-90.412
X104.036Y-88.364
X105.8Y-57.5
X105.8Y-58.5
X106.8Y-58.5
X112.4Y-144.9
X113.4Y-143.9
X113.4Y-144.9
X113.8Y-101.6
X118.9Y-101.5
X118.9Y-137.1
X128.1Y-153.1
X129.1Y-153.1
X129.1Y-154.1
X136.2Y-66.0
X136.2Y-69.6
X146.2Y-36.9
X146.2Y-37.9
X147.2Y-37.9
X164.4Y-87.1
X171.0Y-153.1
X172.0Y-153.1
X172.0Y-154.1
X231.0Y-37.9
X233.0Y-37.9
X235.0Y-37.9
X239.1Y-42.0
X239.1Y-44.0
X239.1Y-46.0
X239.1Y-71.1
X239.1Y-72.1
X240.1Y-72.1
T2
X98.438Y-131.28
X98.438Y-136.36
X100.978Y-99.784
X100.978Y-104.864
T3
X107.328Y-69.05
X107.328Y-74.13
X117.172Y-67.795
X117.172Y-83.015
X122.252Y-67.795
X122.252Y-83.015
X137.492Y-67.795
X137.492Y-83.015
X140.032Y-67.795
X140.032Y-83.015
X92.596Y-109.944
X100.216Y-109.944
X225.692Y-80.734
X233.312Y-80.734
X107.328Y-76.67
X107.328Y-81.75
X89.294Y-92.164
X96.914Y-92.164
X87.77Y-62.192
X92.85Y-62.192
X102.756Y-135.09
X102.756Y-142.71
X116.726Y-130.772
X116.726Y-133.312
X116.726Y-135.852
X116.726Y-138.392
X116.726Y-140.932
X170.066Y-130.772
X170.066Y-133.312
X170.066Y-135.852
X170.066Y-138.392
X170.066Y-140.932
X105.296Y-103.594
X105.296Y-111.214
X225.692Y-85.56
X233.312Y-85.56
X225.692Y-90.386
X233.312Y-90.386
X89.294Y-96.228
X96.914Y-96.228
X89.294Y-100.292
X96.914Y-100.292
X51.966Y-76.162
X51.966Y-84.036
X54.506Y-76.162
X54.506Y-84.036
X57.046Y-76.162
X57.046Y-84.036
X59.586Y-76.162
X59.586Y-84.036
X62.126Y-76.162
X62.126Y-84.036
X64.666Y-76.162
X64.666Y-84.036
X67.206Y-76.162
X67.206Y-84.036
X69.746Y-76.162
X69.746Y-84.036
X72.286Y-76.162
X72.286Y-84.036
X74.826Y-76.162
X74.826Y-84.036
X77.366Y-76.162
X77.366Y-84.036
X79.906Y-76.162
X79.906Y-84.036
X82.446Y-76.162
X82.446Y-84.036
X84.986Y-76.162
X84.986Y-84.036
X74.562Y-62.192
X82.182Y-62.192
X105.296Y-93.434
X105.296Y-101.054
X58.24Y-73.434
X63.32Y-73.434
X89.294Y-104.356
X96.914Y-104.356
X225.692Y-95.212
X233.312Y-95.212
X165.494Y-99.022
X165.494Y-106.642
X84.976Y-63.208
X84.976Y-70.828
X90.056Y-126.2
X97.676Y-126.2
X148.312Y-52.779
X233.312Y-52.779
X97.676Y-115.024
X97.676Y-121.12
X100.216Y-115.024
X100.216Y-121.12
X102.756Y-115.024
X102.756Y-121.12
X105.296Y-115.024
X105.296Y-121.12
X225.692Y-121.12
X233.312Y-121.12
X116.726Y-95.212
X116.726Y-97.752
X116.726Y-100.292
X116.726Y-102.832
X116.726Y-105.372
X170.066Y-95.212
X170.066Y-97.752
X170.066Y-100.292
X170.066Y-102.832
X170.066Y-105.372
X165.494Y-134.582
X165.494Y-142.202
X51.956Y-102.832
X51.956Y-105.372
X51.956Y-107.912
X51.956Y-110.452
X51.956Y-112.992
X51.956Y-115.532
X51.956Y-118.072
X51.956Y-120.612
X51.956Y-123.152
X51.956Y-125.692
X51.956Y-128.232
X51.956Y-130.772
X51.956Y-133.312
X51.956Y-135.852
X51.956Y-138.392
X51.956Y-140.932
X51.956Y-143.472
X51.956Y-146.012
X51.956Y-148.552
X51.956Y-151.092
X84.976Y-102.832
X84.976Y-105.372
X84.976Y-107.912
X84.976Y-110.452
X84.976Y-112.992
X84.976Y-115.532
X84.976Y-118.072
X84.976Y-120.612
X84.976Y-123.152
X84.976Y-125.692
X84.976Y-128.232
X84.976Y-130.772
X84.976Y-133.312
X84.976Y-135.852
X84.976Y-138.392
X84.976Y-140.932
X84.976Y-143.472
X84.976Y-146.012
X84.976Y-148.552
X84.976Y-151.092
X102.756Y-124.93
X102.756Y-132.55
X81.608Y-86.896
X86.688Y-86.896
X107.836Y-121.12
X112.916Y-121.12
X90.056Y-115.024
X95.136Y-115.024
X99.708Y-118.072
X107.328Y-118.072
X225.692Y-116.294
X233.312Y-116.294
X225.692Y-130.772
X233.312Y-130.772
X153.556Y-66.256
X153.556Y-81.496
X171.336Y-66.256
X171.336Y-71.336
X171.336Y-76.416
X171.336Y-81.496
X225.692Y-125.946
X233.312Y-125.946
T4
X219.342Y-130.772
X221.882Y-130.772
X219.342Y-90.386
X221.882Y-90.386
X51.956Y-66.002
X54.496Y-66.002
X57.036Y-66.002
X59.576Y-66.002
X62.116Y-66.002
X64.656Y-66.002
X219.342Y-95.212
X221.882Y-95.212
X219.342Y-80.734
X221.882Y-80.734
X219.342Y-116.294
X221.882Y-116.294
X219.342Y-85.56
X221.882Y-85.56
X219.342Y-125.946
X221.882Y-125.946
X219.342Y-121.12
X221.882Y-121.12
T5
X239.0Y-38.0
X239.0Y-153.0
X47.0Y-153.0
X47.0Y-38.0
T6
X163.962Y-52.779
X217.662Y-52.779
T1
G00X98.438Y-68.65
M15
G01X98.438Y-68.25
M16
G05
G00X98.438Y-71.19
M15
G01X98.438Y-70.79
M16
G05
G00X98.438Y-73.73
M15
G01X98.438Y-73.33
M16
G05
T3
G00X230.614Y-141.632
M15
G01X230.614Y-140.232
M16
G05
G00X236.464Y-141.632
M15
G01X236.464Y-140.232
M16
G05
G00X241.814Y-141.632
M15
G01X241.814Y-140.232
M16
G05
G00X230.614Y-106.072
M15
G01X230.614Y-104.672
M16
G05
G00X236.464Y-106.072
M15
G01X236.464Y-104.672
M16
G05
G00X241.814Y-106.072
M15
G01X241.814Y-104.672
M16
G05
G00X177.738Y-130.172
M15
G01X177.738Y-131.372
M16
G05
G00X184.738Y-130.172
M15
G01X184.738Y-131.372
M16
G05
G00X205.738Y-131.372
M15
G01X205.738Y-130.172
M16
G05
G00X212.738Y-131.372
M15
G01X212.738Y-130.172
M16
G05
G00X177.738Y-94.612
M15
G01X177.738Y-95.812
M16
G05
G00X184.738Y-94.612
M15
G01X184.738Y-95.812
M16
G05
G00X205.738Y-95.812
M15
G01X205.738Y-94.612
M16
G05
G00X212.738Y-95.812
M15
G01X212.738Y-94.612
M16
G05
T4
G00X125.854Y-44.079
M15
G01X124.654Y-44.079
M16
G05
G00X125.854Y-48.779
M15
G01X124.654Y-48.779
M16
G05
G00X125.854Y-53.479
M15
G01X124.654Y-53.479
M16
G05
T0
M30
