G04 #@! TF.GenerationSoftware,KiCad,Pcbnew,(5.1.7-0-10_14)*
G04 #@! TF.CreationDate,2021-05-27T14:06:25+09:00*
G04 #@! TF.ProjectId,EiMS,45694d53-2e6b-4696-9361-645f70636258,1.0*
G04 #@! TF.SameCoordinates,Original*
G04 #@! TF.FileFunction,Legend,Bot*
G04 #@! TF.FilePolarity,Positive*
%FSLAX46Y46*%
G04 Gerber Fmt 4.6, Leading zero omitted, Abs format (unit mm)*
G04 Created by KiCad (PCBNEW (5.1.7-0-10_14)) date 2021-05-27 14:06:25*
%MOMM*%
%LPD*%
G01*
G04 APERTURE LIST*
%ADD10C,0.300000*%
%ADD11C,0.120000*%
%ADD12C,0.100000*%
%ADD13C,0.150000*%
G04 APERTURE END LIST*
D10*
X227247857Y-36192857D02*
X227033571Y-36264285D01*
X226962142Y-36335714D01*
X226890714Y-36478571D01*
X226890714Y-36692857D01*
X226962142Y-36835714D01*
X227033571Y-36907142D01*
X227176428Y-36978571D01*
X227747857Y-36978571D01*
X227747857Y-35478571D01*
X227247857Y-35478571D01*
X227105000Y-35550000D01*
X227033571Y-35621428D01*
X226962142Y-35764285D01*
X226962142Y-35907142D01*
X227033571Y-36050000D01*
X227105000Y-36121428D01*
X227247857Y-36192857D01*
X227747857Y-36192857D01*
X226033571Y-36978571D02*
X226176428Y-36907142D01*
X226247857Y-36835714D01*
X226319285Y-36692857D01*
X226319285Y-36264285D01*
X226247857Y-36121428D01*
X226176428Y-36050000D01*
X226033571Y-35978571D01*
X225819285Y-35978571D01*
X225676428Y-36050000D01*
X225605000Y-36121428D01*
X225533571Y-36264285D01*
X225533571Y-36692857D01*
X225605000Y-36835714D01*
X225676428Y-36907142D01*
X225819285Y-36978571D01*
X226033571Y-36978571D01*
X224247857Y-36978571D02*
X224247857Y-36192857D01*
X224319285Y-36050000D01*
X224462142Y-35978571D01*
X224747857Y-35978571D01*
X224890714Y-36050000D01*
X224247857Y-36907142D02*
X224390714Y-36978571D01*
X224747857Y-36978571D01*
X224890714Y-36907142D01*
X224962142Y-36764285D01*
X224962142Y-36621428D01*
X224890714Y-36478571D01*
X224747857Y-36407142D01*
X224390714Y-36407142D01*
X224247857Y-36335714D01*
X223533571Y-36978571D02*
X223533571Y-35978571D01*
X223533571Y-36264285D02*
X223462142Y-36121428D01*
X223390714Y-36050000D01*
X223247857Y-35978571D01*
X223105000Y-35978571D01*
X221962142Y-36978571D02*
X221962142Y-35478571D01*
X221962142Y-36907142D02*
X222105000Y-36978571D01*
X222390714Y-36978571D01*
X222533571Y-36907142D01*
X222605000Y-36835714D01*
X222676428Y-36692857D01*
X222676428Y-36264285D01*
X222605000Y-36121428D01*
X222533571Y-36050000D01*
X222390714Y-35978571D01*
X222105000Y-35978571D01*
X221962142Y-36050000D01*
X220319285Y-35978571D02*
X219747857Y-35978571D01*
X220105000Y-36978571D02*
X220105000Y-35692857D01*
X220033571Y-35550000D01*
X219890714Y-35478571D01*
X219747857Y-35478571D01*
X219033571Y-36978571D02*
X219176428Y-36907142D01*
X219247857Y-36835714D01*
X219319285Y-36692857D01*
X219319285Y-36264285D01*
X219247857Y-36121428D01*
X219176428Y-36050000D01*
X219033571Y-35978571D01*
X218819285Y-35978571D01*
X218676428Y-36050000D01*
X218605000Y-36121428D01*
X218533571Y-36264285D01*
X218533571Y-36692857D01*
X218605000Y-36835714D01*
X218676428Y-36907142D01*
X218819285Y-36978571D01*
X219033571Y-36978571D01*
X217890714Y-36978571D02*
X217890714Y-35978571D01*
X217890714Y-36264285D02*
X217819285Y-36121428D01*
X217747857Y-36050000D01*
X217605000Y-35978571D01*
X217462142Y-35978571D01*
X215390714Y-35550000D02*
X215390714Y-35478571D01*
X215319285Y-35335714D01*
X215247857Y-35264285D01*
X215962142Y-35550000D02*
X215962142Y-35478571D01*
X215890714Y-35335714D01*
X215819285Y-35264285D01*
X214676428Y-36192857D02*
X214176428Y-36192857D01*
X213962142Y-36978571D02*
X214676428Y-36978571D01*
X214676428Y-35478571D01*
X213962142Y-35478571D01*
X213319285Y-36978571D02*
X213319285Y-35978571D01*
X213319285Y-35478571D02*
X213390714Y-35550000D01*
X213319285Y-35621428D01*
X213247857Y-35550000D01*
X213319285Y-35478571D01*
X213319285Y-35621428D01*
X212605000Y-36978571D02*
X212605000Y-35478571D01*
X212105000Y-36550000D01*
X211605000Y-35478571D01*
X211605000Y-36978571D01*
X210962142Y-36907142D02*
X210747857Y-36978571D01*
X210390714Y-36978571D01*
X210247857Y-36907142D01*
X210176428Y-36835714D01*
X210105000Y-36692857D01*
X210105000Y-36550000D01*
X210176428Y-36407142D01*
X210247857Y-36335714D01*
X210390714Y-36264285D01*
X210676428Y-36192857D01*
X210819285Y-36121428D01*
X210890714Y-36050000D01*
X210962142Y-35907142D01*
X210962142Y-35764285D01*
X210890714Y-35621428D01*
X210819285Y-35550000D01*
X210676428Y-35478571D01*
X210319285Y-35478571D01*
X210105000Y-35550000D01*
X208319285Y-36978571D02*
X208319285Y-35478571D01*
X207962142Y-35478571D01*
X207747857Y-35550000D01*
X207605000Y-35692857D01*
X207533571Y-35835714D01*
X207462142Y-36121428D01*
X207462142Y-36335714D01*
X207533571Y-36621428D01*
X207605000Y-36764285D01*
X207747857Y-36907142D01*
X207962142Y-36978571D01*
X208319285Y-36978571D01*
X206247857Y-36907142D02*
X206390714Y-36978571D01*
X206676428Y-36978571D01*
X206819285Y-36907142D01*
X206890714Y-36764285D01*
X206890714Y-36192857D01*
X206819285Y-36050000D01*
X206676428Y-35978571D01*
X206390714Y-35978571D01*
X206247857Y-36050000D01*
X206176428Y-36192857D01*
X206176428Y-36335714D01*
X206890714Y-36478571D01*
X205676428Y-35978571D02*
X205319285Y-36978571D01*
X204962142Y-35978571D01*
X204390714Y-36978571D02*
X204390714Y-35978571D01*
X204390714Y-35478571D02*
X204462142Y-35550000D01*
X204390714Y-35621428D01*
X204319285Y-35550000D01*
X204390714Y-35478571D01*
X204390714Y-35621428D01*
X203033571Y-36907142D02*
X203176428Y-36978571D01*
X203462142Y-36978571D01*
X203605000Y-36907142D01*
X203676428Y-36835714D01*
X203747857Y-36692857D01*
X203747857Y-36264285D01*
X203676428Y-36121428D01*
X203605000Y-36050000D01*
X203462142Y-35978571D01*
X203176428Y-35978571D01*
X203033571Y-36050000D01*
X201819285Y-36907142D02*
X201962142Y-36978571D01*
X202247857Y-36978571D01*
X202390714Y-36907142D01*
X202462142Y-36764285D01*
X202462142Y-36192857D01*
X202390714Y-36050000D01*
X202247857Y-35978571D01*
X201962142Y-35978571D01*
X201819285Y-36050000D01*
X201747857Y-36192857D01*
X201747857Y-36335714D01*
X202462142Y-36478571D01*
X201105000Y-35478571D02*
X201105000Y-35550000D01*
X201176428Y-35692857D01*
X201247857Y-35764285D01*
X200533571Y-35478571D02*
X200533571Y-35550000D01*
X200605000Y-35692857D01*
X200676428Y-35764285D01*
X227962142Y-38028571D02*
X227105000Y-38028571D01*
X227533571Y-39528571D02*
X227533571Y-38028571D01*
X226605000Y-38742857D02*
X226105000Y-38742857D01*
X225890714Y-39528571D02*
X226605000Y-39528571D01*
X226605000Y-38028571D01*
X225890714Y-38028571D01*
X225319285Y-39457142D02*
X225105000Y-39528571D01*
X224747857Y-39528571D01*
X224605000Y-39457142D01*
X224533571Y-39385714D01*
X224462142Y-39242857D01*
X224462142Y-39100000D01*
X224533571Y-38957142D01*
X224605000Y-38885714D01*
X224747857Y-38814285D01*
X225033571Y-38742857D01*
X225176428Y-38671428D01*
X225247857Y-38600000D01*
X225319285Y-38457142D01*
X225319285Y-38314285D01*
X225247857Y-38171428D01*
X225176428Y-38100000D01*
X225033571Y-38028571D01*
X224676428Y-38028571D01*
X224462142Y-38100000D01*
X224033571Y-38028571D02*
X223176428Y-38028571D01*
X223605000Y-39528571D02*
X223605000Y-38028571D01*
X222676428Y-38957142D02*
X221533571Y-38957142D01*
X221033571Y-38028571D02*
X220176428Y-38028571D01*
X220605000Y-39528571D02*
X220605000Y-38028571D01*
X219819285Y-38528571D02*
X219462142Y-39528571D01*
X219105000Y-38528571D02*
X219462142Y-39528571D01*
X219605000Y-39885714D01*
X219676428Y-39957142D01*
X219819285Y-40028571D01*
X218533571Y-38528571D02*
X218533571Y-40028571D01*
X218533571Y-38600000D02*
X218390714Y-38528571D01*
X218105000Y-38528571D01*
X217962142Y-38600000D01*
X217890714Y-38671428D01*
X217819285Y-38814285D01*
X217819285Y-39242857D01*
X217890714Y-39385714D01*
X217962142Y-39457142D01*
X218105000Y-39528571D01*
X218390714Y-39528571D01*
X218533571Y-39457142D01*
X216605000Y-39457142D02*
X216747857Y-39528571D01*
X217033571Y-39528571D01*
X217176428Y-39457142D01*
X217247857Y-39314285D01*
X217247857Y-38742857D01*
X217176428Y-38600000D01*
X217033571Y-38528571D01*
X216747857Y-38528571D01*
X216605000Y-38600000D01*
X216533571Y-38742857D01*
X216533571Y-38885714D01*
X217247857Y-39028571D01*
X214747857Y-38957142D02*
X213605000Y-38957142D01*
X211962142Y-38028571D02*
X211462142Y-39528571D01*
X210962142Y-38028571D01*
X209890714Y-39457142D02*
X210033571Y-39528571D01*
X210319285Y-39528571D01*
X210462142Y-39457142D01*
X210533571Y-39314285D01*
X210533571Y-38742857D01*
X210462142Y-38600000D01*
X210319285Y-38528571D01*
X210033571Y-38528571D01*
X209890714Y-38600000D01*
X209819285Y-38742857D01*
X209819285Y-38885714D01*
X210533571Y-39028571D01*
X209176428Y-39528571D02*
X209176428Y-38528571D01*
X209176428Y-38814285D02*
X209105000Y-38671428D01*
X209033571Y-38600000D01*
X208890714Y-38528571D01*
X208747857Y-38528571D01*
X208247857Y-39385714D02*
X208176428Y-39457142D01*
X208247857Y-39528571D01*
X208319285Y-39457142D01*
X208247857Y-39385714D01*
X208247857Y-39528571D01*
X205605000Y-39528571D02*
X206462142Y-39528571D01*
X206033571Y-39528571D02*
X206033571Y-38028571D01*
X206176428Y-38242857D01*
X206319285Y-38385714D01*
X206462142Y-38457142D01*
X204962142Y-39385714D02*
X204890714Y-39457142D01*
X204962142Y-39528571D01*
X205033571Y-39457142D01*
X204962142Y-39385714D01*
X204962142Y-39528571D01*
X203962142Y-38028571D02*
X203819285Y-38028571D01*
X203676428Y-38100000D01*
X203605000Y-38171428D01*
X203533571Y-38314285D01*
X203462142Y-38600000D01*
X203462142Y-38957142D01*
X203533571Y-39242857D01*
X203605000Y-39385714D01*
X203676428Y-39457142D01*
X203819285Y-39528571D01*
X203962142Y-39528571D01*
X204105000Y-39457142D01*
X204176428Y-39385714D01*
X204247857Y-39242857D01*
X204319285Y-38957142D01*
X204319285Y-38600000D01*
X204247857Y-38314285D01*
X204176428Y-38171428D01*
X204105000Y-38100000D01*
X203962142Y-38028571D01*
X227890714Y-41578571D02*
X226605000Y-41578571D01*
X226176428Y-41578571D02*
X224890714Y-41578571D01*
X224462142Y-41578571D02*
X223176428Y-41578571D01*
X222747857Y-41578571D02*
X221462142Y-41578571D01*
X221033571Y-41578571D02*
X219747857Y-41578571D01*
X219319285Y-41578571D02*
X218033571Y-41578571D01*
X217605000Y-41578571D02*
X216319285Y-41578571D01*
X215890714Y-41578571D02*
X214605000Y-41578571D01*
X214176428Y-41578571D02*
X212890714Y-41578571D01*
X212462142Y-41578571D02*
X211176428Y-41578571D01*
X210747857Y-41578571D02*
X209462142Y-41578571D01*
X209033571Y-41578571D02*
X207747857Y-41578571D01*
X207319285Y-41578571D02*
X206033571Y-41578571D01*
X205605000Y-41578571D02*
X204319285Y-41578571D01*
X203890714Y-41578571D02*
X202605000Y-41578571D01*
X202176428Y-41578571D02*
X200890714Y-41578571D01*
X200462142Y-41578571D02*
X199176428Y-41578571D01*
X198747857Y-41578571D02*
X197462142Y-41578571D01*
X197033571Y-41578571D02*
X195747857Y-41578571D01*
X195319285Y-41578571D02*
X194033571Y-41578571D01*
X193605000Y-41578571D02*
X192319285Y-41578571D01*
X191890714Y-41578571D02*
X190605000Y-41578571D01*
X190176428Y-41578571D02*
X188890714Y-41578571D01*
X188462142Y-41578571D02*
X187176428Y-41578571D01*
X186747857Y-41578571D02*
X185462142Y-41578571D01*
X185033571Y-41578571D02*
X183747857Y-41578571D01*
X183319285Y-41578571D02*
X182033571Y-41578571D01*
X181605000Y-41578571D02*
X180319285Y-41578571D01*
X179890714Y-41578571D02*
X178605000Y-41578571D01*
X178176428Y-41578571D02*
X176890714Y-41578571D01*
X227819285Y-44557142D02*
X227605000Y-44628571D01*
X227247857Y-44628571D01*
X227105000Y-44557142D01*
X227033571Y-44485714D01*
X226962142Y-44342857D01*
X226962142Y-44200000D01*
X227033571Y-44057142D01*
X227105000Y-43985714D01*
X227247857Y-43914285D01*
X227533571Y-43842857D01*
X227676428Y-43771428D01*
X227747857Y-43700000D01*
X227819285Y-43557142D01*
X227819285Y-43414285D01*
X227747857Y-43271428D01*
X227676428Y-43200000D01*
X227533571Y-43128571D01*
X227176428Y-43128571D01*
X226962142Y-43200000D01*
X226319285Y-44628571D02*
X226319285Y-43628571D01*
X226319285Y-43128571D02*
X226390714Y-43200000D01*
X226319285Y-43271428D01*
X226247857Y-43200000D01*
X226319285Y-43128571D01*
X226319285Y-43271428D01*
X225747857Y-43628571D02*
X224962142Y-43628571D01*
X225747857Y-44628571D01*
X224962142Y-44628571D01*
X223819285Y-44557142D02*
X223962142Y-44628571D01*
X224247857Y-44628571D01*
X224390714Y-44557142D01*
X224462142Y-44414285D01*
X224462142Y-43842857D01*
X224390714Y-43700000D01*
X224247857Y-43628571D01*
X223962142Y-43628571D01*
X223819285Y-43700000D01*
X223747857Y-43842857D01*
X223747857Y-43985714D01*
X224462142Y-44128571D01*
X223105000Y-44485714D02*
X223033571Y-44557142D01*
X223105000Y-44628571D01*
X223176428Y-44557142D01*
X223105000Y-44485714D01*
X223105000Y-44628571D01*
X223105000Y-43700000D02*
X223033571Y-43771428D01*
X223105000Y-43842857D01*
X223176428Y-43771428D01*
X223105000Y-43700000D01*
X223105000Y-43842857D01*
X221319285Y-43271428D02*
X221247857Y-43200000D01*
X221105000Y-43128571D01*
X220747857Y-43128571D01*
X220605000Y-43200000D01*
X220533571Y-43271428D01*
X220462142Y-43414285D01*
X220462142Y-43557142D01*
X220533571Y-43771428D01*
X221390714Y-44628571D01*
X220462142Y-44628571D01*
X219533571Y-43128571D02*
X219390714Y-43128571D01*
X219247857Y-43200000D01*
X219176428Y-43271428D01*
X219105000Y-43414285D01*
X219033571Y-43700000D01*
X219033571Y-44057142D01*
X219105000Y-44342857D01*
X219176428Y-44485714D01*
X219247857Y-44557142D01*
X219390714Y-44628571D01*
X219533571Y-44628571D01*
X219676428Y-44557142D01*
X219747857Y-44485714D01*
X219819285Y-44342857D01*
X219890714Y-44057142D01*
X219890714Y-43700000D01*
X219819285Y-43414285D01*
X219747857Y-43271428D01*
X219676428Y-43200000D01*
X219533571Y-43128571D01*
X218105000Y-43128571D02*
X217962142Y-43128571D01*
X217819285Y-43200000D01*
X217747857Y-43271428D01*
X217676428Y-43414285D01*
X217605000Y-43700000D01*
X217605000Y-44057142D01*
X217676428Y-44342857D01*
X217747857Y-44485714D01*
X217819285Y-44557142D01*
X217962142Y-44628571D01*
X218105000Y-44628571D01*
X218247857Y-44557142D01*
X218319285Y-44485714D01*
X218390714Y-44342857D01*
X218462142Y-44057142D01*
X218462142Y-43700000D01*
X218390714Y-43414285D01*
X218319285Y-43271428D01*
X218247857Y-43200000D01*
X218105000Y-43128571D01*
X215819285Y-44628571D02*
X215819285Y-43628571D01*
X215819285Y-43771428D02*
X215747857Y-43700000D01*
X215605000Y-43628571D01*
X215390714Y-43628571D01*
X215247857Y-43700000D01*
X215176428Y-43842857D01*
X215176428Y-44628571D01*
X215176428Y-43842857D02*
X215105000Y-43700000D01*
X214962142Y-43628571D01*
X214747857Y-43628571D01*
X214605000Y-43700000D01*
X214533571Y-43842857D01*
X214533571Y-44628571D01*
X213819285Y-44628571D02*
X213819285Y-43628571D01*
X213819285Y-43771428D02*
X213747857Y-43700000D01*
X213605000Y-43628571D01*
X213390714Y-43628571D01*
X213247857Y-43700000D01*
X213176428Y-43842857D01*
X213176428Y-44628571D01*
X213176428Y-43842857D02*
X213105000Y-43700000D01*
X212962142Y-43628571D01*
X212747857Y-43628571D01*
X212605000Y-43700000D01*
X212533571Y-43842857D01*
X212533571Y-44628571D01*
X210819285Y-44628571D02*
X210033571Y-43628571D01*
X210819285Y-43628571D02*
X210033571Y-44628571D01*
X207533571Y-44628571D02*
X208390714Y-44628571D01*
X207962142Y-44628571D02*
X207962142Y-43128571D01*
X208105000Y-43342857D01*
X208247857Y-43485714D01*
X208390714Y-43557142D01*
X206962142Y-43271428D02*
X206890714Y-43200000D01*
X206747857Y-43128571D01*
X206390714Y-43128571D01*
X206247857Y-43200000D01*
X206176428Y-43271428D01*
X206105000Y-43414285D01*
X206105000Y-43557142D01*
X206176428Y-43771428D01*
X207033571Y-44628571D01*
X206105000Y-44628571D01*
X205605000Y-43128571D02*
X204676428Y-43128571D01*
X205176428Y-43700000D01*
X204962142Y-43700000D01*
X204819285Y-43771428D01*
X204747857Y-43842857D01*
X204676428Y-43985714D01*
X204676428Y-44342857D01*
X204747857Y-44485714D01*
X204819285Y-44557142D01*
X204962142Y-44628571D01*
X205390714Y-44628571D01*
X205533571Y-44557142D01*
X205605000Y-44485714D01*
X202890714Y-44628571D02*
X202890714Y-43628571D01*
X202890714Y-43771428D02*
X202819285Y-43700000D01*
X202676428Y-43628571D01*
X202462142Y-43628571D01*
X202319285Y-43700000D01*
X202247857Y-43842857D01*
X202247857Y-44628571D01*
X202247857Y-43842857D02*
X202176428Y-43700000D01*
X202033571Y-43628571D01*
X201819285Y-43628571D01*
X201676428Y-43700000D01*
X201605000Y-43842857D01*
X201605000Y-44628571D01*
X200890714Y-44628571D02*
X200890714Y-43628571D01*
X200890714Y-43771428D02*
X200819285Y-43700000D01*
X200676428Y-43628571D01*
X200462142Y-43628571D01*
X200319285Y-43700000D01*
X200247857Y-43842857D01*
X200247857Y-44628571D01*
X200247857Y-43842857D02*
X200176428Y-43700000D01*
X200033571Y-43628571D01*
X199819285Y-43628571D01*
X199676428Y-43700000D01*
X199605000Y-43842857D01*
X199605000Y-44628571D01*
X197890714Y-44628571D02*
X197105000Y-43628571D01*
X197890714Y-43628571D02*
X197105000Y-44628571D01*
X194605000Y-44628571D02*
X195462142Y-44628571D01*
X195033571Y-44628571D02*
X195033571Y-43128571D01*
X195176428Y-43342857D01*
X195319285Y-43485714D01*
X195462142Y-43557142D01*
X193962142Y-44485714D02*
X193890714Y-44557142D01*
X193962142Y-44628571D01*
X194033571Y-44557142D01*
X193962142Y-44485714D01*
X193962142Y-44628571D01*
X192605000Y-43128571D02*
X192890714Y-43128571D01*
X193033571Y-43200000D01*
X193105000Y-43271428D01*
X193247857Y-43485714D01*
X193319285Y-43771428D01*
X193319285Y-44342857D01*
X193247857Y-44485714D01*
X193176428Y-44557142D01*
X193033571Y-44628571D01*
X192747857Y-44628571D01*
X192605000Y-44557142D01*
X192533571Y-44485714D01*
X192462142Y-44342857D01*
X192462142Y-43985714D01*
X192533571Y-43842857D01*
X192605000Y-43771428D01*
X192747857Y-43700000D01*
X193033571Y-43700000D01*
X193176428Y-43771428D01*
X193247857Y-43842857D01*
X193319285Y-43985714D01*
X190676428Y-44628571D02*
X190676428Y-43628571D01*
X190676428Y-43771428D02*
X190605000Y-43700000D01*
X190462142Y-43628571D01*
X190247857Y-43628571D01*
X190105000Y-43700000D01*
X190033571Y-43842857D01*
X190033571Y-44628571D01*
X190033571Y-43842857D02*
X189962142Y-43700000D01*
X189819285Y-43628571D01*
X189605000Y-43628571D01*
X189462142Y-43700000D01*
X189390714Y-43842857D01*
X189390714Y-44628571D01*
X188676428Y-44628571D02*
X188676428Y-43628571D01*
X188676428Y-43771428D02*
X188605000Y-43700000D01*
X188462142Y-43628571D01*
X188247857Y-43628571D01*
X188105000Y-43700000D01*
X188033571Y-43842857D01*
X188033571Y-44628571D01*
X188033571Y-43842857D02*
X187962142Y-43700000D01*
X187819285Y-43628571D01*
X187605000Y-43628571D01*
X187462142Y-43700000D01*
X187390714Y-43842857D01*
X187390714Y-44628571D01*
X227747857Y-47178571D02*
X227747857Y-45678571D01*
X227176428Y-45678571D01*
X227033571Y-45750000D01*
X226962142Y-45821428D01*
X226890714Y-45964285D01*
X226890714Y-46178571D01*
X226962142Y-46321428D01*
X227033571Y-46392857D01*
X227176428Y-46464285D01*
X227747857Y-46464285D01*
X226033571Y-47178571D02*
X226176428Y-47107142D01*
X226247857Y-47035714D01*
X226319285Y-46892857D01*
X226319285Y-46464285D01*
X226247857Y-46321428D01*
X226176428Y-46250000D01*
X226033571Y-46178571D01*
X225819285Y-46178571D01*
X225676428Y-46250000D01*
X225605000Y-46321428D01*
X225533571Y-46464285D01*
X225533571Y-46892857D01*
X225605000Y-47035714D01*
X225676428Y-47107142D01*
X225819285Y-47178571D01*
X226033571Y-47178571D01*
X225033571Y-46178571D02*
X224747857Y-47178571D01*
X224462142Y-46464285D01*
X224176428Y-47178571D01*
X223890714Y-46178571D01*
X222747857Y-47107142D02*
X222890714Y-47178571D01*
X223176428Y-47178571D01*
X223319285Y-47107142D01*
X223390714Y-46964285D01*
X223390714Y-46392857D01*
X223319285Y-46250000D01*
X223176428Y-46178571D01*
X222890714Y-46178571D01*
X222747857Y-46250000D01*
X222676428Y-46392857D01*
X222676428Y-46535714D01*
X223390714Y-46678571D01*
X222033571Y-47178571D02*
X222033571Y-46178571D01*
X222033571Y-46464285D02*
X221962142Y-46321428D01*
X221890714Y-46250000D01*
X221747857Y-46178571D01*
X221605000Y-46178571D01*
X220033571Y-47107142D02*
X219819285Y-47178571D01*
X219462142Y-47178571D01*
X219319285Y-47107142D01*
X219247857Y-47035714D01*
X219176428Y-46892857D01*
X219176428Y-46750000D01*
X219247857Y-46607142D01*
X219319285Y-46535714D01*
X219462142Y-46464285D01*
X219747857Y-46392857D01*
X219890714Y-46321428D01*
X219962142Y-46250000D01*
X220033571Y-46107142D01*
X220033571Y-45964285D01*
X219962142Y-45821428D01*
X219890714Y-45750000D01*
X219747857Y-45678571D01*
X219390714Y-45678571D01*
X219176428Y-45750000D01*
X217890714Y-46178571D02*
X217890714Y-47178571D01*
X218533571Y-46178571D02*
X218533571Y-46964285D01*
X218462142Y-47107142D01*
X218319285Y-47178571D01*
X218105000Y-47178571D01*
X217962142Y-47107142D01*
X217890714Y-47035714D01*
X217176428Y-46178571D02*
X217176428Y-47678571D01*
X217176428Y-46250000D02*
X217033571Y-46178571D01*
X216747857Y-46178571D01*
X216605000Y-46250000D01*
X216533571Y-46321428D01*
X216462142Y-46464285D01*
X216462142Y-46892857D01*
X216533571Y-47035714D01*
X216605000Y-47107142D01*
X216747857Y-47178571D01*
X217033571Y-47178571D01*
X217176428Y-47107142D01*
X215819285Y-46178571D02*
X215819285Y-47678571D01*
X215819285Y-46250000D02*
X215676428Y-46178571D01*
X215390714Y-46178571D01*
X215247857Y-46250000D01*
X215176428Y-46321428D01*
X215105000Y-46464285D01*
X215105000Y-46892857D01*
X215176428Y-47035714D01*
X215247857Y-47107142D01*
X215390714Y-47178571D01*
X215676428Y-47178571D01*
X215819285Y-47107142D01*
X214247857Y-47178571D02*
X214390714Y-47107142D01*
X214462142Y-46964285D01*
X214462142Y-45678571D01*
X213819285Y-46178571D02*
X213462142Y-47178571D01*
X213105000Y-46178571D02*
X213462142Y-47178571D01*
X213605000Y-47535714D01*
X213676428Y-47607142D01*
X213819285Y-47678571D01*
X212533571Y-47035714D02*
X212462142Y-47107142D01*
X212533571Y-47178571D01*
X212605000Y-47107142D01*
X212533571Y-47035714D01*
X212533571Y-47178571D01*
X212533571Y-46250000D02*
X212462142Y-46321428D01*
X212533571Y-46392857D01*
X212605000Y-46321428D01*
X212533571Y-46250000D01*
X212533571Y-46392857D01*
X209890714Y-47178571D02*
X210747857Y-47178571D01*
X210319285Y-47178571D02*
X210319285Y-45678571D01*
X210462142Y-45892857D01*
X210605000Y-46035714D01*
X210747857Y-46107142D01*
X209319285Y-45821428D02*
X209247857Y-45750000D01*
X209105000Y-45678571D01*
X208747857Y-45678571D01*
X208605000Y-45750000D01*
X208533571Y-45821428D01*
X208462142Y-45964285D01*
X208462142Y-46107142D01*
X208533571Y-46321428D01*
X209390714Y-47178571D01*
X208462142Y-47178571D01*
X208033571Y-45678571D02*
X207533571Y-47178571D01*
X207033571Y-45678571D01*
X206462142Y-47107142D02*
X206462142Y-47178571D01*
X206533571Y-47321428D01*
X206605000Y-47392857D01*
X204819285Y-45678571D02*
X203890714Y-45678571D01*
X204390714Y-46250000D01*
X204176428Y-46250000D01*
X204033571Y-46321428D01*
X203962142Y-46392857D01*
X203890714Y-46535714D01*
X203890714Y-46892857D01*
X203962142Y-47035714D01*
X204033571Y-47107142D01*
X204176428Y-47178571D01*
X204605000Y-47178571D01*
X204747857Y-47107142D01*
X204819285Y-47035714D01*
X203247857Y-47035714D02*
X203176428Y-47107142D01*
X203247857Y-47178571D01*
X203319285Y-47107142D01*
X203247857Y-47035714D01*
X203247857Y-47178571D01*
X202676428Y-45678571D02*
X201676428Y-45678571D01*
X202319285Y-47178571D01*
X201319285Y-45678571D02*
X200819285Y-47178571D01*
X200319285Y-45678571D01*
X199747857Y-47107142D02*
X199747857Y-47178571D01*
X199819285Y-47321428D01*
X199890714Y-47392857D01*
X198105000Y-45678571D02*
X197176428Y-45678571D01*
X197676428Y-46250000D01*
X197462142Y-46250000D01*
X197319285Y-46321428D01*
X197247857Y-46392857D01*
X197176428Y-46535714D01*
X197176428Y-46892857D01*
X197247857Y-47035714D01*
X197319285Y-47107142D01*
X197462142Y-47178571D01*
X197890714Y-47178571D01*
X198033571Y-47107142D01*
X198105000Y-47035714D01*
X196533571Y-47035714D02*
X196462142Y-47107142D01*
X196533571Y-47178571D01*
X196605000Y-47107142D01*
X196533571Y-47035714D01*
X196533571Y-47178571D01*
X195962142Y-45678571D02*
X195033571Y-45678571D01*
X195533571Y-46250000D01*
X195319285Y-46250000D01*
X195176428Y-46321428D01*
X195105000Y-46392857D01*
X195033571Y-46535714D01*
X195033571Y-46892857D01*
X195105000Y-47035714D01*
X195176428Y-47107142D01*
X195319285Y-47178571D01*
X195747857Y-47178571D01*
X195890714Y-47107142D01*
X195962142Y-47035714D01*
X194605000Y-45678571D02*
X194105000Y-47178571D01*
X193605000Y-45678571D01*
X190747857Y-47178571D02*
X190819285Y-47178571D01*
X190962142Y-47107142D01*
X191176428Y-46892857D01*
X191533571Y-46464285D01*
X191676428Y-46250000D01*
X191747857Y-46035714D01*
X191747857Y-45892857D01*
X191676428Y-45750000D01*
X191533571Y-45678571D01*
X191462142Y-45678571D01*
X191319285Y-45750000D01*
X191247857Y-45892857D01*
X191247857Y-45964285D01*
X191319285Y-46107142D01*
X191390714Y-46178571D01*
X191819285Y-46464285D01*
X191890714Y-46535714D01*
X191962142Y-46678571D01*
X191962142Y-46892857D01*
X191890714Y-47035714D01*
X191819285Y-47107142D01*
X191676428Y-47178571D01*
X191462142Y-47178571D01*
X191319285Y-47107142D01*
X191247857Y-47035714D01*
X191033571Y-46750000D01*
X190962142Y-46535714D01*
X190962142Y-46392857D01*
X188962142Y-46321428D02*
X187819285Y-46321428D01*
X188390714Y-46892857D02*
X188390714Y-45750000D01*
X187819285Y-47178571D02*
X188962142Y-47178571D01*
X186390714Y-45678571D02*
X187105000Y-45678571D01*
X187176428Y-46392857D01*
X187105000Y-46321428D01*
X186962142Y-46250000D01*
X186605000Y-46250000D01*
X186462142Y-46321428D01*
X186390714Y-46392857D01*
X186319285Y-46535714D01*
X186319285Y-46892857D01*
X186390714Y-47035714D01*
X186462142Y-47107142D01*
X186605000Y-47178571D01*
X186962142Y-47178571D01*
X187105000Y-47107142D01*
X187176428Y-47035714D01*
X185890714Y-45678571D02*
X185390714Y-47178571D01*
X184890714Y-45678571D01*
X227747857Y-49728571D02*
X227747857Y-48228571D01*
X227247857Y-49300000D01*
X226747857Y-48228571D01*
X226747857Y-49728571D01*
X225390714Y-49728571D02*
X225390714Y-48942857D01*
X225462142Y-48800000D01*
X225605000Y-48728571D01*
X225890714Y-48728571D01*
X226033571Y-48800000D01*
X225390714Y-49657142D02*
X225533571Y-49728571D01*
X225890714Y-49728571D01*
X226033571Y-49657142D01*
X226105000Y-49514285D01*
X226105000Y-49371428D01*
X226033571Y-49228571D01*
X225890714Y-49157142D01*
X225533571Y-49157142D01*
X225390714Y-49085714D01*
X224819285Y-49728571D02*
X224033571Y-48728571D01*
X224819285Y-48728571D02*
X224033571Y-49728571D01*
X223462142Y-49585714D02*
X223390714Y-49657142D01*
X223462142Y-49728571D01*
X223533571Y-49657142D01*
X223462142Y-49585714D01*
X223462142Y-49728571D01*
X221605000Y-49728571D02*
X221605000Y-48228571D01*
X221033571Y-48228571D01*
X220890714Y-48300000D01*
X220819285Y-48371428D01*
X220747857Y-48514285D01*
X220747857Y-48728571D01*
X220819285Y-48871428D01*
X220890714Y-48942857D01*
X221033571Y-49014285D01*
X221605000Y-49014285D01*
X219533571Y-49657142D02*
X219676428Y-49728571D01*
X219962142Y-49728571D01*
X220105000Y-49657142D01*
X220176428Y-49514285D01*
X220176428Y-48942857D01*
X220105000Y-48800000D01*
X219962142Y-48728571D01*
X219676428Y-48728571D01*
X219533571Y-48800000D01*
X219462142Y-48942857D01*
X219462142Y-49085714D01*
X220176428Y-49228571D01*
X218819285Y-49728571D02*
X218819285Y-48728571D01*
X218819285Y-49014285D02*
X218747857Y-48871428D01*
X218676428Y-48800000D01*
X218533571Y-48728571D01*
X218390714Y-48728571D01*
X218105000Y-48728571D02*
X217533571Y-48728571D01*
X217890714Y-49728571D02*
X217890714Y-48442857D01*
X217819285Y-48300000D01*
X217676428Y-48228571D01*
X217533571Y-48228571D01*
X216819285Y-49728571D02*
X216962142Y-49657142D01*
X217033571Y-49585714D01*
X217105000Y-49442857D01*
X217105000Y-49014285D01*
X217033571Y-48871428D01*
X216962142Y-48800000D01*
X216819285Y-48728571D01*
X216605000Y-48728571D01*
X216462142Y-48800000D01*
X216390714Y-48871428D01*
X216319285Y-49014285D01*
X216319285Y-49442857D01*
X216390714Y-49585714D01*
X216462142Y-49657142D01*
X216605000Y-49728571D01*
X216819285Y-49728571D01*
X215676428Y-49728571D02*
X215676428Y-48728571D01*
X215676428Y-49014285D02*
X215605000Y-48871428D01*
X215533571Y-48800000D01*
X215390714Y-48728571D01*
X215247857Y-48728571D01*
X214747857Y-49728571D02*
X214747857Y-48728571D01*
X214747857Y-48871428D02*
X214676428Y-48800000D01*
X214533571Y-48728571D01*
X214319285Y-48728571D01*
X214176428Y-48800000D01*
X214105000Y-48942857D01*
X214105000Y-49728571D01*
X214105000Y-48942857D02*
X214033571Y-48800000D01*
X213890714Y-48728571D01*
X213676428Y-48728571D01*
X213533571Y-48800000D01*
X213462142Y-48942857D01*
X213462142Y-49728571D01*
X212105000Y-49728571D02*
X212105000Y-48942857D01*
X212176428Y-48800000D01*
X212319285Y-48728571D01*
X212605000Y-48728571D01*
X212747857Y-48800000D01*
X212105000Y-49657142D02*
X212247857Y-49728571D01*
X212605000Y-49728571D01*
X212747857Y-49657142D01*
X212819285Y-49514285D01*
X212819285Y-49371428D01*
X212747857Y-49228571D01*
X212605000Y-49157142D01*
X212247857Y-49157142D01*
X212105000Y-49085714D01*
X211390714Y-48728571D02*
X211390714Y-49728571D01*
X211390714Y-48871428D02*
X211319285Y-48800000D01*
X211176428Y-48728571D01*
X210962142Y-48728571D01*
X210819285Y-48800000D01*
X210747857Y-48942857D01*
X210747857Y-49728571D01*
X209390714Y-49657142D02*
X209533571Y-49728571D01*
X209819285Y-49728571D01*
X209962142Y-49657142D01*
X210033571Y-49585714D01*
X210105000Y-49442857D01*
X210105000Y-49014285D01*
X210033571Y-48871428D01*
X209962142Y-48800000D01*
X209819285Y-48728571D01*
X209533571Y-48728571D01*
X209390714Y-48800000D01*
X208176428Y-49657142D02*
X208319285Y-49728571D01*
X208605000Y-49728571D01*
X208747857Y-49657142D01*
X208819285Y-49514285D01*
X208819285Y-48942857D01*
X208747857Y-48800000D01*
X208605000Y-48728571D01*
X208319285Y-48728571D01*
X208176428Y-48800000D01*
X208105000Y-48942857D01*
X208105000Y-49085714D01*
X208819285Y-49228571D01*
X207462142Y-49585714D02*
X207390714Y-49657142D01*
X207462142Y-49728571D01*
X207533571Y-49657142D01*
X207462142Y-49585714D01*
X207462142Y-49728571D01*
X207462142Y-48800000D02*
X207390714Y-48871428D01*
X207462142Y-48942857D01*
X207533571Y-48871428D01*
X207462142Y-48800000D01*
X207462142Y-48942857D01*
X205605000Y-48871428D02*
X204462142Y-48871428D01*
X205033571Y-49442857D02*
X205033571Y-48300000D01*
X204462142Y-49728571D02*
X205605000Y-49728571D01*
X203105000Y-48228571D02*
X203390714Y-48228571D01*
X203533571Y-48300000D01*
X203605000Y-48371428D01*
X203747857Y-48585714D01*
X203819285Y-48871428D01*
X203819285Y-49442857D01*
X203747857Y-49585714D01*
X203676428Y-49657142D01*
X203533571Y-49728571D01*
X203247857Y-49728571D01*
X203105000Y-49657142D01*
X203033571Y-49585714D01*
X202962142Y-49442857D01*
X202962142Y-49085714D01*
X203033571Y-48942857D01*
X203105000Y-48871428D01*
X203247857Y-48800000D01*
X203533571Y-48800000D01*
X203676428Y-48871428D01*
X203747857Y-48942857D01*
X203819285Y-49085714D01*
X202033571Y-48228571D02*
X201890714Y-48228571D01*
X201747857Y-48300000D01*
X201676428Y-48371428D01*
X201605000Y-48514285D01*
X201533571Y-48800000D01*
X201533571Y-49157142D01*
X201605000Y-49442857D01*
X201676428Y-49585714D01*
X201747857Y-49657142D01*
X201890714Y-49728571D01*
X202033571Y-49728571D01*
X202176428Y-49657142D01*
X202247857Y-49585714D01*
X202319285Y-49442857D01*
X202390714Y-49157142D01*
X202390714Y-48800000D01*
X202319285Y-48514285D01*
X202247857Y-48371428D01*
X202176428Y-48300000D01*
X202033571Y-48228571D01*
X201105000Y-48228571D02*
X200605000Y-49728571D01*
X200105000Y-48228571D01*
X199533571Y-49657142D02*
X199533571Y-49728571D01*
X199605000Y-49871428D01*
X199676428Y-49942857D01*
X197747857Y-49371428D02*
X197676428Y-49300000D01*
X197462142Y-49228571D01*
X197247857Y-49300000D01*
X197105000Y-49442857D01*
X196890714Y-49514285D01*
X196676428Y-49442857D01*
X196605000Y-49371428D01*
X197747857Y-48942857D02*
X197676428Y-48871428D01*
X197462142Y-48800000D01*
X197247857Y-48871428D01*
X197105000Y-49014285D01*
X196890714Y-49085714D01*
X196676428Y-49014285D01*
X196605000Y-48942857D01*
X195247857Y-48228571D02*
X195533571Y-48228571D01*
X195676428Y-48300000D01*
X195747857Y-48371428D01*
X195890714Y-48585714D01*
X195962142Y-48871428D01*
X195962142Y-49442857D01*
X195890714Y-49585714D01*
X195819285Y-49657142D01*
X195676428Y-49728571D01*
X195390714Y-49728571D01*
X195247857Y-49657142D01*
X195176428Y-49585714D01*
X195105000Y-49442857D01*
X195105000Y-49085714D01*
X195176428Y-48942857D01*
X195247857Y-48871428D01*
X195390714Y-48800000D01*
X195676428Y-48800000D01*
X195819285Y-48871428D01*
X195890714Y-48942857D01*
X195962142Y-49085714D01*
X194176428Y-48228571D02*
X194033571Y-48228571D01*
X193890714Y-48300000D01*
X193819285Y-48371428D01*
X193747857Y-48514285D01*
X193676428Y-48800000D01*
X193676428Y-49157142D01*
X193747857Y-49442857D01*
X193819285Y-49585714D01*
X193890714Y-49657142D01*
X194033571Y-49728571D01*
X194176428Y-49728571D01*
X194319285Y-49657142D01*
X194390714Y-49585714D01*
X194462142Y-49442857D01*
X194533571Y-49157142D01*
X194533571Y-48800000D01*
X194462142Y-48514285D01*
X194390714Y-48371428D01*
X194319285Y-48300000D01*
X194176428Y-48228571D01*
X193033571Y-49728571D02*
X193033571Y-48728571D01*
X193033571Y-48871428D02*
X192962142Y-48800000D01*
X192819285Y-48728571D01*
X192605000Y-48728571D01*
X192462142Y-48800000D01*
X192390714Y-48942857D01*
X192390714Y-49728571D01*
X192390714Y-48942857D02*
X192319285Y-48800000D01*
X192176428Y-48728571D01*
X191962142Y-48728571D01*
X191819285Y-48800000D01*
X191747857Y-48942857D01*
X191747857Y-49728571D01*
X191105000Y-49300000D02*
X190390714Y-49300000D01*
X191247857Y-49728571D02*
X190747857Y-48228571D01*
X190247857Y-49728571D01*
X187390714Y-49728571D02*
X187462142Y-49728571D01*
X187605000Y-49657142D01*
X187819285Y-49442857D01*
X188176428Y-49014285D01*
X188319285Y-48800000D01*
X188390714Y-48585714D01*
X188390714Y-48442857D01*
X188319285Y-48300000D01*
X188176428Y-48228571D01*
X188105000Y-48228571D01*
X187962142Y-48300000D01*
X187890714Y-48442857D01*
X187890714Y-48514285D01*
X187962142Y-48657142D01*
X188033571Y-48728571D01*
X188462142Y-49014285D01*
X188533571Y-49085714D01*
X188605000Y-49228571D01*
X188605000Y-49442857D01*
X188533571Y-49585714D01*
X188462142Y-49657142D01*
X188319285Y-49728571D01*
X188105000Y-49728571D01*
X187962142Y-49657142D01*
X187890714Y-49585714D01*
X187676428Y-49300000D01*
X187605000Y-49085714D01*
X187605000Y-48942857D01*
X185605000Y-49371428D02*
X185533571Y-49300000D01*
X185319285Y-49228571D01*
X185105000Y-49300000D01*
X184962142Y-49442857D01*
X184747857Y-49514285D01*
X184533571Y-49442857D01*
X184462142Y-49371428D01*
X185605000Y-48942857D02*
X185533571Y-48871428D01*
X185319285Y-48800000D01*
X185105000Y-48871428D01*
X184962142Y-49014285D01*
X184747857Y-49085714D01*
X184533571Y-49014285D01*
X184462142Y-48942857D01*
X183033571Y-48228571D02*
X183747857Y-48228571D01*
X183819285Y-48942857D01*
X183747857Y-48871428D01*
X183605000Y-48800000D01*
X183247857Y-48800000D01*
X183105000Y-48871428D01*
X183033571Y-48942857D01*
X182962142Y-49085714D01*
X182962142Y-49442857D01*
X183033571Y-49585714D01*
X183105000Y-49657142D01*
X183247857Y-49728571D01*
X183605000Y-49728571D01*
X183747857Y-49657142D01*
X183819285Y-49585714D01*
X182247857Y-49657142D02*
X182247857Y-49728571D01*
X182319285Y-49871428D01*
X182390714Y-49942857D01*
X181319285Y-48228571D02*
X181176428Y-48228571D01*
X181033571Y-48300000D01*
X180962142Y-48371428D01*
X180890714Y-48514285D01*
X180819285Y-48800000D01*
X180819285Y-49157142D01*
X180890714Y-49442857D01*
X180962142Y-49585714D01*
X181033571Y-49657142D01*
X181176428Y-49728571D01*
X181319285Y-49728571D01*
X181462142Y-49657142D01*
X181533571Y-49585714D01*
X181605000Y-49442857D01*
X181676428Y-49157142D01*
X181676428Y-48800000D01*
X181605000Y-48514285D01*
X181533571Y-48371428D01*
X181462142Y-48300000D01*
X181319285Y-48228571D01*
X179890714Y-48228571D02*
X179747857Y-48228571D01*
X179605000Y-48300000D01*
X179533571Y-48371428D01*
X179462142Y-48514285D01*
X179390714Y-48800000D01*
X179390714Y-49157142D01*
X179462142Y-49442857D01*
X179533571Y-49585714D01*
X179605000Y-49657142D01*
X179747857Y-49728571D01*
X179890714Y-49728571D01*
X180033571Y-49657142D01*
X180105000Y-49585714D01*
X180176428Y-49442857D01*
X180247857Y-49157142D01*
X180247857Y-48800000D01*
X180176428Y-48514285D01*
X180105000Y-48371428D01*
X180033571Y-48300000D01*
X179890714Y-48228571D01*
X178462142Y-48228571D02*
X178319285Y-48228571D01*
X178176428Y-48300000D01*
X178105000Y-48371428D01*
X178033571Y-48514285D01*
X177962142Y-48800000D01*
X177962142Y-49157142D01*
X178033571Y-49442857D01*
X178105000Y-49585714D01*
X178176428Y-49657142D01*
X178319285Y-49728571D01*
X178462142Y-49728571D01*
X178605000Y-49657142D01*
X178676428Y-49585714D01*
X178747857Y-49442857D01*
X178819285Y-49157142D01*
X178819285Y-48800000D01*
X178747857Y-48514285D01*
X178676428Y-48371428D01*
X178605000Y-48300000D01*
X178462142Y-48228571D01*
X177319285Y-49728571D02*
X177319285Y-48228571D01*
X177319285Y-48942857D02*
X176462142Y-48942857D01*
X176462142Y-49728571D02*
X176462142Y-48228571D01*
X175890714Y-48728571D02*
X175105000Y-48728571D01*
X175890714Y-49728571D01*
X175105000Y-49728571D01*
X227747857Y-57378571D02*
X227747857Y-55878571D01*
X227033571Y-56378571D02*
X227033571Y-57378571D01*
X227033571Y-56521428D02*
X226962142Y-56450000D01*
X226819285Y-56378571D01*
X226605000Y-56378571D01*
X226462142Y-56450000D01*
X226390714Y-56592857D01*
X226390714Y-57378571D01*
X225747857Y-57307142D02*
X225605000Y-57378571D01*
X225319285Y-57378571D01*
X225176428Y-57307142D01*
X225105000Y-57164285D01*
X225105000Y-57092857D01*
X225176428Y-56950000D01*
X225319285Y-56878571D01*
X225533571Y-56878571D01*
X225676428Y-56807142D01*
X225747857Y-56664285D01*
X225747857Y-56592857D01*
X225676428Y-56450000D01*
X225533571Y-56378571D01*
X225319285Y-56378571D01*
X225176428Y-56450000D01*
X224462142Y-56378571D02*
X224462142Y-57878571D01*
X224462142Y-56450000D02*
X224319285Y-56378571D01*
X224033571Y-56378571D01*
X223890714Y-56450000D01*
X223819285Y-56521428D01*
X223747857Y-56664285D01*
X223747857Y-57092857D01*
X223819285Y-57235714D01*
X223890714Y-57307142D01*
X224033571Y-57378571D01*
X224319285Y-57378571D01*
X224462142Y-57307142D01*
X223105000Y-57378571D02*
X223105000Y-56378571D01*
X223105000Y-55878571D02*
X223176428Y-55950000D01*
X223105000Y-56021428D01*
X223033571Y-55950000D01*
X223105000Y-55878571D01*
X223105000Y-56021428D01*
X222390714Y-57378571D02*
X222390714Y-56378571D01*
X222390714Y-56664285D02*
X222319285Y-56521428D01*
X222247857Y-56450000D01*
X222105000Y-56378571D01*
X221962142Y-56378571D01*
X220890714Y-57307142D02*
X221033571Y-57378571D01*
X221319285Y-57378571D01*
X221462142Y-57307142D01*
X221533571Y-57164285D01*
X221533571Y-56592857D01*
X221462142Y-56450000D01*
X221319285Y-56378571D01*
X221033571Y-56378571D01*
X220890714Y-56450000D01*
X220819285Y-56592857D01*
X220819285Y-56735714D01*
X221533571Y-56878571D01*
X219533571Y-57378571D02*
X219533571Y-55878571D01*
X219533571Y-57307142D02*
X219676428Y-57378571D01*
X219962142Y-57378571D01*
X220105000Y-57307142D01*
X220176428Y-57235714D01*
X220247857Y-57092857D01*
X220247857Y-56664285D01*
X220176428Y-56521428D01*
X220105000Y-56450000D01*
X219962142Y-56378571D01*
X219676428Y-56378571D01*
X219533571Y-56450000D01*
X217890714Y-56378571D02*
X217319285Y-56378571D01*
X217676428Y-57378571D02*
X217676428Y-56092857D01*
X217605000Y-55950000D01*
X217462142Y-55878571D01*
X217319285Y-55878571D01*
X216819285Y-57378571D02*
X216819285Y-56378571D01*
X216819285Y-56664285D02*
X216747857Y-56521428D01*
X216676428Y-56450000D01*
X216533571Y-56378571D01*
X216390714Y-56378571D01*
X215676428Y-57378571D02*
X215819285Y-57307142D01*
X215890714Y-57235714D01*
X215962142Y-57092857D01*
X215962142Y-56664285D01*
X215890714Y-56521428D01*
X215819285Y-56450000D01*
X215676428Y-56378571D01*
X215462142Y-56378571D01*
X215319285Y-56450000D01*
X215247857Y-56521428D01*
X215176428Y-56664285D01*
X215176428Y-57092857D01*
X215247857Y-57235714D01*
X215319285Y-57307142D01*
X215462142Y-57378571D01*
X215676428Y-57378571D01*
X214533571Y-57378571D02*
X214533571Y-56378571D01*
X214533571Y-56521428D02*
X214462142Y-56450000D01*
X214319285Y-56378571D01*
X214105000Y-56378571D01*
X213962142Y-56450000D01*
X213890714Y-56592857D01*
X213890714Y-57378571D01*
X213890714Y-56592857D02*
X213819285Y-56450000D01*
X213676428Y-56378571D01*
X213462142Y-56378571D01*
X213319285Y-56450000D01*
X213247857Y-56592857D01*
X213247857Y-57378571D01*
X210962142Y-55950000D02*
X210962142Y-55878571D01*
X210890714Y-55735714D01*
X210819285Y-55664285D01*
X211533571Y-55950000D02*
X211533571Y-55878571D01*
X211462142Y-55735714D01*
X211390714Y-55664285D01*
X210390714Y-56378571D02*
X210105000Y-57378571D01*
X209819285Y-56664285D01*
X209533571Y-57378571D01*
X209247857Y-56378571D01*
X208033571Y-57378571D02*
X208033571Y-56592857D01*
X208105000Y-56450000D01*
X208247857Y-56378571D01*
X208533571Y-56378571D01*
X208676428Y-56450000D01*
X208033571Y-57307142D02*
X208176428Y-57378571D01*
X208533571Y-57378571D01*
X208676428Y-57307142D01*
X208747857Y-57164285D01*
X208747857Y-57021428D01*
X208676428Y-56878571D01*
X208533571Y-56807142D01*
X208176428Y-56807142D01*
X208033571Y-56735714D01*
X207462142Y-56378571D02*
X207105000Y-57378571D01*
X206747857Y-56378571D01*
X206176428Y-56592857D02*
X205676428Y-56592857D01*
X205462142Y-57378571D02*
X206176428Y-57378571D01*
X206176428Y-55878571D01*
X205462142Y-55878571D01*
X204819285Y-57378571D02*
X204819285Y-55878571D01*
X204319285Y-56950000D01*
X203819285Y-55878571D01*
X203819285Y-57378571D01*
X203176428Y-57307142D02*
X202962142Y-57378571D01*
X202605000Y-57378571D01*
X202462142Y-57307142D01*
X202390714Y-57235714D01*
X202319285Y-57092857D01*
X202319285Y-56950000D01*
X202390714Y-56807142D01*
X202462142Y-56735714D01*
X202605000Y-56664285D01*
X202890714Y-56592857D01*
X203033571Y-56521428D01*
X203105000Y-56450000D01*
X203176428Y-56307142D01*
X203176428Y-56164285D01*
X203105000Y-56021428D01*
X203033571Y-55950000D01*
X202890714Y-55878571D01*
X202533571Y-55878571D01*
X202319285Y-55950000D01*
X201676428Y-55878571D02*
X201676428Y-55950000D01*
X201747857Y-56092857D01*
X201819285Y-56164285D01*
X201105000Y-55878571D02*
X201105000Y-55950000D01*
X201176428Y-56092857D01*
X201247857Y-56164285D01*
X227747857Y-59928571D02*
X227747857Y-58428571D01*
X227390714Y-58428571D01*
X227176428Y-58500000D01*
X227033571Y-58642857D01*
X226962142Y-58785714D01*
X226890714Y-59071428D01*
X226890714Y-59285714D01*
X226962142Y-59571428D01*
X227033571Y-59714285D01*
X227176428Y-59857142D01*
X227390714Y-59928571D01*
X227747857Y-59928571D01*
X225676428Y-59857142D02*
X225819285Y-59928571D01*
X226105000Y-59928571D01*
X226247857Y-59857142D01*
X226319285Y-59714285D01*
X226319285Y-59142857D01*
X226247857Y-59000000D01*
X226105000Y-58928571D01*
X225819285Y-58928571D01*
X225676428Y-59000000D01*
X225605000Y-59142857D01*
X225605000Y-59285714D01*
X226319285Y-59428571D01*
X225033571Y-59857142D02*
X224890714Y-59928571D01*
X224605000Y-59928571D01*
X224462142Y-59857142D01*
X224390714Y-59714285D01*
X224390714Y-59642857D01*
X224462142Y-59500000D01*
X224605000Y-59428571D01*
X224819285Y-59428571D01*
X224962142Y-59357142D01*
X225033571Y-59214285D01*
X225033571Y-59142857D01*
X224962142Y-59000000D01*
X224819285Y-58928571D01*
X224605000Y-58928571D01*
X224462142Y-59000000D01*
X223747857Y-59928571D02*
X223747857Y-58928571D01*
X223747857Y-58428571D02*
X223819285Y-58500000D01*
X223747857Y-58571428D01*
X223676428Y-58500000D01*
X223747857Y-58428571D01*
X223747857Y-58571428D01*
X222390714Y-58928571D02*
X222390714Y-60142857D01*
X222462142Y-60285714D01*
X222533571Y-60357142D01*
X222676428Y-60428571D01*
X222890714Y-60428571D01*
X223033571Y-60357142D01*
X222390714Y-59857142D02*
X222533571Y-59928571D01*
X222819285Y-59928571D01*
X222962142Y-59857142D01*
X223033571Y-59785714D01*
X223105000Y-59642857D01*
X223105000Y-59214285D01*
X223033571Y-59071428D01*
X222962142Y-59000000D01*
X222819285Y-58928571D01*
X222533571Y-58928571D01*
X222390714Y-59000000D01*
X221676428Y-58928571D02*
X221676428Y-59928571D01*
X221676428Y-59071428D02*
X221605000Y-59000000D01*
X221462142Y-58928571D01*
X221247857Y-58928571D01*
X221105000Y-59000000D01*
X221033571Y-59142857D01*
X221033571Y-59928571D01*
X219747857Y-59857142D02*
X219890714Y-59928571D01*
X220176428Y-59928571D01*
X220319285Y-59857142D01*
X220390714Y-59714285D01*
X220390714Y-59142857D01*
X220319285Y-59000000D01*
X220176428Y-58928571D01*
X219890714Y-58928571D01*
X219747857Y-59000000D01*
X219676428Y-59142857D01*
X219676428Y-59285714D01*
X220390714Y-59428571D01*
X218390714Y-59928571D02*
X218390714Y-58428571D01*
X218390714Y-59857142D02*
X218533571Y-59928571D01*
X218819285Y-59928571D01*
X218962142Y-59857142D01*
X219033571Y-59785714D01*
X219105000Y-59642857D01*
X219105000Y-59214285D01*
X219033571Y-59071428D01*
X218962142Y-59000000D01*
X218819285Y-58928571D01*
X218533571Y-58928571D01*
X218390714Y-59000000D01*
X216533571Y-59928571D02*
X216533571Y-58428571D01*
X216533571Y-59000000D02*
X216390714Y-58928571D01*
X216105000Y-58928571D01*
X215962142Y-59000000D01*
X215890714Y-59071428D01*
X215819285Y-59214285D01*
X215819285Y-59642857D01*
X215890714Y-59785714D01*
X215962142Y-59857142D01*
X216105000Y-59928571D01*
X216390714Y-59928571D01*
X216533571Y-59857142D01*
X215319285Y-58928571D02*
X214962142Y-59928571D01*
X214605000Y-58928571D02*
X214962142Y-59928571D01*
X215105000Y-60285714D01*
X215176428Y-60357142D01*
X215319285Y-60428571D01*
X212890714Y-59928571D02*
X212890714Y-58428571D01*
X212890714Y-59142857D02*
X212033571Y-59142857D01*
X212033571Y-59928571D02*
X212033571Y-58428571D01*
X211319285Y-59928571D02*
X211319285Y-58928571D01*
X211319285Y-58428571D02*
X211390714Y-58500000D01*
X211319285Y-58571428D01*
X211247857Y-58500000D01*
X211319285Y-58428571D01*
X211319285Y-58571428D01*
X210605000Y-59928571D02*
X210605000Y-58928571D01*
X210605000Y-59214285D02*
X210533571Y-59071428D01*
X210462142Y-59000000D01*
X210319285Y-58928571D01*
X210176428Y-58928571D01*
X209462142Y-59928571D02*
X209605000Y-59857142D01*
X209676428Y-59785714D01*
X209747857Y-59642857D01*
X209747857Y-59214285D01*
X209676428Y-59071428D01*
X209605000Y-59000000D01*
X209462142Y-58928571D01*
X209247857Y-58928571D01*
X209105000Y-59000000D01*
X209033571Y-59071428D01*
X208962142Y-59214285D01*
X208962142Y-59642857D01*
X209033571Y-59785714D01*
X209105000Y-59857142D01*
X209247857Y-59928571D01*
X209462142Y-59928571D01*
X208319285Y-59928571D02*
X208319285Y-58428571D01*
X208176428Y-59357142D02*
X207747857Y-59928571D01*
X207747857Y-58928571D02*
X208319285Y-59500000D01*
X207105000Y-59928571D02*
X207105000Y-58928571D01*
X207105000Y-58428571D02*
X207176428Y-58500000D01*
X207105000Y-58571428D01*
X207033571Y-58500000D01*
X207105000Y-58428571D01*
X207105000Y-58571428D01*
X204962142Y-58428571D02*
X204676428Y-58428571D01*
X204533571Y-58500000D01*
X204390714Y-58642857D01*
X204319285Y-58928571D01*
X204319285Y-59428571D01*
X204390714Y-59714285D01*
X204533571Y-59857142D01*
X204676428Y-59928571D01*
X204962142Y-59928571D01*
X205105000Y-59857142D01*
X205247857Y-59714285D01*
X205319285Y-59428571D01*
X205319285Y-58928571D01*
X205247857Y-58642857D01*
X205105000Y-58500000D01*
X204962142Y-58428571D01*
X203676428Y-59928571D02*
X203676428Y-58428571D01*
X203033571Y-59928571D02*
X203033571Y-59142857D01*
X203105000Y-59000000D01*
X203247857Y-58928571D01*
X203462142Y-58928571D01*
X203605000Y-59000000D01*
X203676428Y-59071428D01*
X201676428Y-59928571D02*
X201676428Y-59142857D01*
X201747857Y-59000000D01*
X201890714Y-58928571D01*
X202176428Y-58928571D01*
X202319285Y-59000000D01*
X201676428Y-59857142D02*
X201819285Y-59928571D01*
X202176428Y-59928571D01*
X202319285Y-59857142D01*
X202390714Y-59714285D01*
X202390714Y-59571428D01*
X202319285Y-59428571D01*
X202176428Y-59357142D01*
X201819285Y-59357142D01*
X201676428Y-59285714D01*
X200962142Y-59928571D02*
X200962142Y-58928571D01*
X200962142Y-59214285D02*
X200890714Y-59071428D01*
X200819285Y-59000000D01*
X200676428Y-58928571D01*
X200533571Y-58928571D01*
X199390714Y-59928571D02*
X199390714Y-59142857D01*
X199462142Y-59000000D01*
X199605000Y-58928571D01*
X199890714Y-58928571D01*
X200033571Y-59000000D01*
X199390714Y-59857142D02*
X199533571Y-59928571D01*
X199890714Y-59928571D01*
X200033571Y-59857142D01*
X200105000Y-59714285D01*
X200105000Y-59571428D01*
X200033571Y-59428571D01*
X199890714Y-59357142D01*
X199533571Y-59357142D01*
X199390714Y-59285714D01*
X226890714Y-62335714D02*
X226962142Y-62407142D01*
X227176428Y-62478571D01*
X227319285Y-62478571D01*
X227533571Y-62407142D01*
X227676428Y-62264285D01*
X227747857Y-62121428D01*
X227819285Y-61835714D01*
X227819285Y-61621428D01*
X227747857Y-61335714D01*
X227676428Y-61192857D01*
X227533571Y-61050000D01*
X227319285Y-60978571D01*
X227176428Y-60978571D01*
X226962142Y-61050000D01*
X226890714Y-61121428D01*
X226247857Y-62478571D02*
X226247857Y-61478571D01*
X226247857Y-61764285D02*
X226176428Y-61621428D01*
X226105000Y-61550000D01*
X225962142Y-61478571D01*
X225819285Y-61478571D01*
X224747857Y-62407142D02*
X224890714Y-62478571D01*
X225176428Y-62478571D01*
X225319285Y-62407142D01*
X225390714Y-62264285D01*
X225390714Y-61692857D01*
X225319285Y-61550000D01*
X225176428Y-61478571D01*
X224890714Y-61478571D01*
X224747857Y-61550000D01*
X224676428Y-61692857D01*
X224676428Y-61835714D01*
X225390714Y-61978571D01*
X223390714Y-62478571D02*
X223390714Y-61692857D01*
X223462142Y-61550000D01*
X223605000Y-61478571D01*
X223890714Y-61478571D01*
X224033571Y-61550000D01*
X223390714Y-62407142D02*
X223533571Y-62478571D01*
X223890714Y-62478571D01*
X224033571Y-62407142D01*
X224105000Y-62264285D01*
X224105000Y-62121428D01*
X224033571Y-61978571D01*
X223890714Y-61907142D01*
X223533571Y-61907142D01*
X223390714Y-61835714D01*
X222890714Y-61478571D02*
X222319285Y-61478571D01*
X222676428Y-60978571D02*
X222676428Y-62264285D01*
X222605000Y-62407142D01*
X222462142Y-62478571D01*
X222319285Y-62478571D01*
X221247857Y-62407142D02*
X221390714Y-62478571D01*
X221676428Y-62478571D01*
X221819285Y-62407142D01*
X221890714Y-62264285D01*
X221890714Y-61692857D01*
X221819285Y-61550000D01*
X221676428Y-61478571D01*
X221390714Y-61478571D01*
X221247857Y-61550000D01*
X221176428Y-61692857D01*
X221176428Y-61835714D01*
X221890714Y-61978571D01*
X219890714Y-62478571D02*
X219890714Y-60978571D01*
X219890714Y-62407142D02*
X220033571Y-62478571D01*
X220319285Y-62478571D01*
X220462142Y-62407142D01*
X220533571Y-62335714D01*
X220605000Y-62192857D01*
X220605000Y-61764285D01*
X220533571Y-61621428D01*
X220462142Y-61550000D01*
X220319285Y-61478571D01*
X220033571Y-61478571D01*
X219890714Y-61550000D01*
X218033571Y-62478571D02*
X218033571Y-61478571D01*
X218033571Y-60978571D02*
X218105000Y-61050000D01*
X218033571Y-61121428D01*
X217962142Y-61050000D01*
X218033571Y-60978571D01*
X218033571Y-61121428D01*
X217319285Y-61478571D02*
X217319285Y-62478571D01*
X217319285Y-61621428D02*
X217247857Y-61550000D01*
X217105000Y-61478571D01*
X216890714Y-61478571D01*
X216747857Y-61550000D01*
X216676428Y-61692857D01*
X216676428Y-62478571D01*
X214890714Y-61121428D02*
X214819285Y-61050000D01*
X214676428Y-60978571D01*
X214319285Y-60978571D01*
X214176428Y-61050000D01*
X214105000Y-61121428D01*
X214033571Y-61264285D01*
X214033571Y-61407142D01*
X214105000Y-61621428D01*
X214962142Y-62478571D01*
X214033571Y-62478571D01*
X213105000Y-60978571D02*
X212962142Y-60978571D01*
X212819285Y-61050000D01*
X212747857Y-61121428D01*
X212676428Y-61264285D01*
X212605000Y-61550000D01*
X212605000Y-61907142D01*
X212676428Y-62192857D01*
X212747857Y-62335714D01*
X212819285Y-62407142D01*
X212962142Y-62478571D01*
X213105000Y-62478571D01*
X213247857Y-62407142D01*
X213319285Y-62335714D01*
X213390714Y-62192857D01*
X213462142Y-61907142D01*
X213462142Y-61550000D01*
X213390714Y-61264285D01*
X213319285Y-61121428D01*
X213247857Y-61050000D01*
X213105000Y-60978571D01*
X212033571Y-61121428D02*
X211962142Y-61050000D01*
X211819285Y-60978571D01*
X211462142Y-60978571D01*
X211319285Y-61050000D01*
X211247857Y-61121428D01*
X211176428Y-61264285D01*
X211176428Y-61407142D01*
X211247857Y-61621428D01*
X212105000Y-62478571D01*
X211176428Y-62478571D01*
X209747857Y-62478571D02*
X210605000Y-62478571D01*
X210176428Y-62478571D02*
X210176428Y-60978571D01*
X210319285Y-61192857D01*
X210462142Y-61335714D01*
X210605000Y-61407142D01*
X226890714Y-67435714D02*
X226962142Y-67507142D01*
X227176428Y-67578571D01*
X227319285Y-67578571D01*
X227533571Y-67507142D01*
X227676428Y-67364285D01*
X227747857Y-67221428D01*
X227819285Y-66935714D01*
X227819285Y-66721428D01*
X227747857Y-66435714D01*
X227676428Y-66292857D01*
X227533571Y-66150000D01*
X227319285Y-66078571D01*
X227176428Y-66078571D01*
X226962142Y-66150000D01*
X226890714Y-66221428D01*
X226033571Y-67578571D02*
X226176428Y-67507142D01*
X226247857Y-67435714D01*
X226319285Y-67292857D01*
X226319285Y-66864285D01*
X226247857Y-66721428D01*
X226176428Y-66650000D01*
X226033571Y-66578571D01*
X225819285Y-66578571D01*
X225676428Y-66650000D01*
X225605000Y-66721428D01*
X225533571Y-66864285D01*
X225533571Y-67292857D01*
X225605000Y-67435714D01*
X225676428Y-67507142D01*
X225819285Y-67578571D01*
X226033571Y-67578571D01*
X224890714Y-66578571D02*
X224890714Y-68078571D01*
X224890714Y-66650000D02*
X224747857Y-66578571D01*
X224462142Y-66578571D01*
X224319285Y-66650000D01*
X224247857Y-66721428D01*
X224176428Y-66864285D01*
X224176428Y-67292857D01*
X224247857Y-67435714D01*
X224319285Y-67507142D01*
X224462142Y-67578571D01*
X224747857Y-67578571D01*
X224890714Y-67507142D01*
X223676428Y-66578571D02*
X223319285Y-67578571D01*
X222962142Y-66578571D02*
X223319285Y-67578571D01*
X223462142Y-67935714D01*
X223533571Y-68007142D01*
X223676428Y-68078571D01*
X222390714Y-67578571D02*
X222390714Y-66578571D01*
X222390714Y-66864285D02*
X222319285Y-66721428D01*
X222247857Y-66650000D01*
X222105000Y-66578571D01*
X221962142Y-66578571D01*
X221462142Y-67578571D02*
X221462142Y-66578571D01*
X221462142Y-66078571D02*
X221533571Y-66150000D01*
X221462142Y-66221428D01*
X221390714Y-66150000D01*
X221462142Y-66078571D01*
X221462142Y-66221428D01*
X220105000Y-66578571D02*
X220105000Y-67792857D01*
X220176428Y-67935714D01*
X220247857Y-68007142D01*
X220390714Y-68078571D01*
X220605000Y-68078571D01*
X220747857Y-68007142D01*
X220105000Y-67507142D02*
X220247857Y-67578571D01*
X220533571Y-67578571D01*
X220676428Y-67507142D01*
X220747857Y-67435714D01*
X220819285Y-67292857D01*
X220819285Y-66864285D01*
X220747857Y-66721428D01*
X220676428Y-66650000D01*
X220533571Y-66578571D01*
X220247857Y-66578571D01*
X220105000Y-66650000D01*
X219390714Y-67578571D02*
X219390714Y-66078571D01*
X218747857Y-67578571D02*
X218747857Y-66792857D01*
X218819285Y-66650000D01*
X218962142Y-66578571D01*
X219176428Y-66578571D01*
X219319285Y-66650000D01*
X219390714Y-66721428D01*
X218247857Y-66578571D02*
X217676428Y-66578571D01*
X218033571Y-66078571D02*
X218033571Y-67364285D01*
X217962142Y-67507142D01*
X217819285Y-67578571D01*
X217676428Y-67578571D01*
X214819285Y-66435714D02*
X214962142Y-66364285D01*
X215247857Y-66364285D01*
X215390714Y-66435714D01*
X215533571Y-66578571D01*
X215605000Y-66721428D01*
X215605000Y-67007142D01*
X215533571Y-67150000D01*
X215390714Y-67292857D01*
X215247857Y-67364285D01*
X214962142Y-67364285D01*
X214819285Y-67292857D01*
X215105000Y-65864285D02*
X215462142Y-65935714D01*
X215819285Y-66150000D01*
X216033571Y-66507142D01*
X216105000Y-66864285D01*
X216033571Y-67221428D01*
X215819285Y-67578571D01*
X215462142Y-67792857D01*
X215105000Y-67864285D01*
X214747857Y-67792857D01*
X214390714Y-67578571D01*
X214176428Y-67221428D01*
X214105000Y-66864285D01*
X214176428Y-66507142D01*
X214390714Y-66150000D01*
X214747857Y-65935714D01*
X215105000Y-65864285D01*
X212390714Y-66221428D02*
X212319285Y-66150000D01*
X212176428Y-66078571D01*
X211819285Y-66078571D01*
X211676428Y-66150000D01*
X211605000Y-66221428D01*
X211533571Y-66364285D01*
X211533571Y-66507142D01*
X211605000Y-66721428D01*
X212462142Y-67578571D01*
X211533571Y-67578571D01*
X210605000Y-66078571D02*
X210462142Y-66078571D01*
X210319285Y-66150000D01*
X210247857Y-66221428D01*
X210176428Y-66364285D01*
X210105000Y-66650000D01*
X210105000Y-67007142D01*
X210176428Y-67292857D01*
X210247857Y-67435714D01*
X210319285Y-67507142D01*
X210462142Y-67578571D01*
X210605000Y-67578571D01*
X210747857Y-67507142D01*
X210819285Y-67435714D01*
X210890714Y-67292857D01*
X210962142Y-67007142D01*
X210962142Y-66650000D01*
X210890714Y-66364285D01*
X210819285Y-66221428D01*
X210747857Y-66150000D01*
X210605000Y-66078571D01*
X209533571Y-66221428D02*
X209462142Y-66150000D01*
X209319285Y-66078571D01*
X208962142Y-66078571D01*
X208819285Y-66150000D01*
X208747857Y-66221428D01*
X208676428Y-66364285D01*
X208676428Y-66507142D01*
X208747857Y-66721428D01*
X209605000Y-67578571D01*
X208676428Y-67578571D01*
X207247857Y-67578571D02*
X208105000Y-67578571D01*
X207676428Y-67578571D02*
X207676428Y-66078571D01*
X207819285Y-66292857D01*
X207962142Y-66435714D01*
X208105000Y-66507142D01*
X205462142Y-67578571D02*
X205462142Y-66078571D01*
X205462142Y-66792857D02*
X204605000Y-66792857D01*
X204605000Y-67578571D02*
X204605000Y-66078571D01*
X203890714Y-67578571D02*
X203890714Y-66578571D01*
X203890714Y-66078571D02*
X203962142Y-66150000D01*
X203890714Y-66221428D01*
X203819285Y-66150000D01*
X203890714Y-66078571D01*
X203890714Y-66221428D01*
X203176428Y-67578571D02*
X203176428Y-66578571D01*
X203176428Y-66864285D02*
X203105000Y-66721428D01*
X203033571Y-66650000D01*
X202890714Y-66578571D01*
X202747857Y-66578571D01*
X202033571Y-67578571D02*
X202176428Y-67507142D01*
X202247857Y-67435714D01*
X202319285Y-67292857D01*
X202319285Y-66864285D01*
X202247857Y-66721428D01*
X202176428Y-66650000D01*
X202033571Y-66578571D01*
X201819285Y-66578571D01*
X201676428Y-66650000D01*
X201605000Y-66721428D01*
X201533571Y-66864285D01*
X201533571Y-67292857D01*
X201605000Y-67435714D01*
X201676428Y-67507142D01*
X201819285Y-67578571D01*
X202033571Y-67578571D01*
X200890714Y-67578571D02*
X200890714Y-66078571D01*
X200747857Y-67007142D02*
X200319285Y-67578571D01*
X200319285Y-66578571D02*
X200890714Y-67150000D01*
X199676428Y-67578571D02*
X199676428Y-66578571D01*
X199676428Y-66078571D02*
X199747857Y-66150000D01*
X199676428Y-66221428D01*
X199605000Y-66150000D01*
X199676428Y-66078571D01*
X199676428Y-66221428D01*
X197533571Y-66078571D02*
X197247857Y-66078571D01*
X197105000Y-66150000D01*
X196962142Y-66292857D01*
X196890714Y-66578571D01*
X196890714Y-67078571D01*
X196962142Y-67364285D01*
X197105000Y-67507142D01*
X197247857Y-67578571D01*
X197533571Y-67578571D01*
X197676428Y-67507142D01*
X197819285Y-67364285D01*
X197890714Y-67078571D01*
X197890714Y-66578571D01*
X197819285Y-66292857D01*
X197676428Y-66150000D01*
X197533571Y-66078571D01*
X196247857Y-67578571D02*
X196247857Y-66078571D01*
X195605000Y-67578571D02*
X195605000Y-66792857D01*
X195676428Y-66650000D01*
X195819285Y-66578571D01*
X196033571Y-66578571D01*
X196176428Y-66650000D01*
X196247857Y-66721428D01*
X194247857Y-67578571D02*
X194247857Y-66792857D01*
X194319285Y-66650000D01*
X194462142Y-66578571D01*
X194747857Y-66578571D01*
X194890714Y-66650000D01*
X194247857Y-67507142D02*
X194390714Y-67578571D01*
X194747857Y-67578571D01*
X194890714Y-67507142D01*
X194962142Y-67364285D01*
X194962142Y-67221428D01*
X194890714Y-67078571D01*
X194747857Y-67007142D01*
X194390714Y-67007142D01*
X194247857Y-66935714D01*
X193533571Y-67578571D02*
X193533571Y-66578571D01*
X193533571Y-66864285D02*
X193462142Y-66721428D01*
X193390714Y-66650000D01*
X193247857Y-66578571D01*
X193105000Y-66578571D01*
X191962142Y-67578571D02*
X191962142Y-66792857D01*
X192033571Y-66650000D01*
X192176428Y-66578571D01*
X192462142Y-66578571D01*
X192605000Y-66650000D01*
X191962142Y-67507142D02*
X192105000Y-67578571D01*
X192462142Y-67578571D01*
X192605000Y-67507142D01*
X192676428Y-67364285D01*
X192676428Y-67221428D01*
X192605000Y-67078571D01*
X192462142Y-67007142D01*
X192105000Y-67007142D01*
X191962142Y-66935714D01*
D11*
X170066000Y-66256000D02*
G75*
G03*
X170066000Y-66256000I-508000J0D01*
G01*
X172606000Y-65240000D02*
X172606000Y-82512000D01*
X172606000Y-82512000D02*
X152286000Y-82512000D01*
X152286000Y-82512000D02*
X152286000Y-65240000D01*
X152286000Y-65240000D02*
X172606000Y-65240000D01*
D12*
G36*
X172606000Y-66256000D02*
G01*
X173368000Y-66764000D01*
X173368000Y-65748000D01*
X172606000Y-66256000D01*
G37*
X172606000Y-66256000D02*
X173368000Y-66764000D01*
X173368000Y-65748000D01*
X172606000Y-66256000D01*
D11*
X144472000Y-66640000D02*
X144472000Y-85555000D01*
X144472000Y-85555000D02*
X112672000Y-85555000D01*
X112672000Y-85555000D02*
X112672000Y-65255000D01*
X112672000Y-65255000D02*
X143072000Y-65240000D01*
X144472000Y-66640000D02*
X143072000Y-65240000D01*
X143080000Y-67795000D02*
G75*
G03*
X143080000Y-67795000I-508000J0D01*
G01*
X100438000Y-76740000D02*
X92888000Y-76740000D01*
X92888000Y-76740000D02*
X92888000Y-65240000D01*
X100438000Y-76740000D02*
X100438000Y-65240000D01*
X100438000Y-65240000D02*
X92888000Y-65240000D01*
X97422000Y-73530000D02*
G75*
G03*
X97422000Y-73530000I-508000J0D01*
G01*
D12*
G36*
X98438000Y-76730000D02*
G01*
X97930000Y-77492000D01*
X98946000Y-77492000D01*
X98438000Y-76730000D01*
G37*
X98438000Y-76730000D02*
X97930000Y-77492000D01*
X98946000Y-77492000D01*
X98438000Y-76730000D01*
D11*
X75102000Y-63562000D02*
X75102000Y-63232000D01*
X81642000Y-63562000D02*
X75102000Y-63562000D01*
X81642000Y-63232000D02*
X81642000Y-63562000D01*
X75102000Y-60822000D02*
X75102000Y-61152000D01*
X81642000Y-60822000D02*
X75102000Y-60822000D01*
X81642000Y-61152000D02*
X81642000Y-60822000D01*
X83606000Y-63748000D02*
X83936000Y-63748000D01*
X83606000Y-70288000D02*
X83606000Y-63748000D01*
X83936000Y-70288000D02*
X83606000Y-70288000D01*
X86346000Y-63748000D02*
X86016000Y-63748000D01*
X86346000Y-70288000D02*
X86346000Y-63748000D01*
X86016000Y-70288000D02*
X86346000Y-70288000D01*
X89834000Y-93534000D02*
X89834000Y-93204000D01*
X96374000Y-93534000D02*
X89834000Y-93534000D01*
X96374000Y-93204000D02*
X96374000Y-93534000D01*
X89834000Y-90794000D02*
X89834000Y-91124000D01*
X96374000Y-90794000D02*
X89834000Y-90794000D01*
X96374000Y-91124000D02*
X96374000Y-90794000D01*
X89834000Y-97268000D02*
X89834000Y-97598000D01*
X89834000Y-97598000D02*
X96374000Y-97598000D01*
X96374000Y-97598000D02*
X96374000Y-97268000D01*
X89834000Y-95188000D02*
X89834000Y-94858000D01*
X89834000Y-94858000D02*
X96374000Y-94858000D01*
X96374000Y-94858000D02*
X96374000Y-95188000D01*
X89834000Y-101662000D02*
X89834000Y-101332000D01*
X96374000Y-101662000D02*
X89834000Y-101662000D01*
X96374000Y-101332000D02*
X96374000Y-101662000D01*
X89834000Y-98922000D02*
X89834000Y-99252000D01*
X96374000Y-98922000D02*
X89834000Y-98922000D01*
X96374000Y-99252000D02*
X96374000Y-98922000D01*
X89834000Y-105396000D02*
X89834000Y-105726000D01*
X89834000Y-105726000D02*
X96374000Y-105726000D01*
X96374000Y-105726000D02*
X96374000Y-105396000D01*
X89834000Y-103316000D02*
X89834000Y-102986000D01*
X89834000Y-102986000D02*
X96374000Y-102986000D01*
X96374000Y-102986000D02*
X96374000Y-103316000D01*
X106788000Y-116702000D02*
X106788000Y-117032000D01*
X100248000Y-116702000D02*
X106788000Y-116702000D01*
X100248000Y-117032000D02*
X100248000Y-116702000D01*
X106788000Y-119442000D02*
X106788000Y-119112000D01*
X100248000Y-119442000D02*
X106788000Y-119442000D01*
X100248000Y-119112000D02*
X100248000Y-119442000D01*
X166864000Y-106102000D02*
X166534000Y-106102000D01*
X166864000Y-99562000D02*
X166864000Y-106102000D01*
X166534000Y-99562000D02*
X166864000Y-99562000D01*
X164124000Y-106102000D02*
X164454000Y-106102000D01*
X164124000Y-99562000D02*
X164124000Y-106102000D01*
X164454000Y-99562000D02*
X164124000Y-99562000D01*
X166864000Y-141662000D02*
X166534000Y-141662000D01*
X166864000Y-135122000D02*
X166864000Y-141662000D01*
X166534000Y-135122000D02*
X166864000Y-135122000D01*
X164124000Y-141662000D02*
X164454000Y-141662000D01*
X164124000Y-135122000D02*
X164124000Y-141662000D01*
X164454000Y-135122000D02*
X164124000Y-135122000D01*
D13*
X172561904Y-63752380D02*
X172561904Y-64561904D01*
X172514285Y-64657142D01*
X172466666Y-64704761D01*
X172371428Y-64752380D01*
X172180952Y-64752380D01*
X172085714Y-64704761D01*
X172038095Y-64657142D01*
X171990476Y-64561904D01*
X171990476Y-63752380D01*
X171561904Y-63847619D02*
X171514285Y-63800000D01*
X171419047Y-63752380D01*
X171180952Y-63752380D01*
X171085714Y-63800000D01*
X171038095Y-63847619D01*
X170990476Y-63942857D01*
X170990476Y-64038095D01*
X171038095Y-64180952D01*
X171609523Y-64752380D01*
X170990476Y-64752380D01*
X144414285Y-64752380D02*
X144414285Y-63752380D01*
X144033333Y-63752380D01*
X143938095Y-63800000D01*
X143890476Y-63847619D01*
X143842857Y-63942857D01*
X143842857Y-64085714D01*
X143890476Y-64180952D01*
X143938095Y-64228571D01*
X144033333Y-64276190D01*
X144414285Y-64276190D01*
X143461904Y-64704761D02*
X143319047Y-64752380D01*
X143080952Y-64752380D01*
X142985714Y-64704761D01*
X142938095Y-64657142D01*
X142890476Y-64561904D01*
X142890476Y-64466666D01*
X142938095Y-64371428D01*
X142985714Y-64323809D01*
X143080952Y-64276190D01*
X143271428Y-64228571D01*
X143366666Y-64180952D01*
X143414285Y-64133333D01*
X143461904Y-64038095D01*
X143461904Y-63942857D01*
X143414285Y-63847619D01*
X143366666Y-63800000D01*
X143271428Y-63752380D01*
X143033333Y-63752380D01*
X142890476Y-63800000D01*
X141938095Y-64752380D02*
X142509523Y-64752380D01*
X142223809Y-64752380D02*
X142223809Y-63752380D01*
X142319047Y-63895238D01*
X142414285Y-63990476D01*
X142509523Y-64038095D01*
X62300666Y-71769142D02*
X62348285Y-71816761D01*
X62491142Y-71864380D01*
X62586380Y-71864380D01*
X62729238Y-71816761D01*
X62824476Y-71721523D01*
X62872095Y-71626285D01*
X62919714Y-71435809D01*
X62919714Y-71292952D01*
X62872095Y-71102476D01*
X62824476Y-71007238D01*
X62729238Y-70912000D01*
X62586380Y-70864380D01*
X62491142Y-70864380D01*
X62348285Y-70912000D01*
X62300666Y-70959619D01*
X61967333Y-70864380D02*
X61348285Y-70864380D01*
X61681619Y-71245333D01*
X61538761Y-71245333D01*
X61443523Y-71292952D01*
X61395904Y-71340571D01*
X61348285Y-71435809D01*
X61348285Y-71673904D01*
X61395904Y-71769142D01*
X61443523Y-71816761D01*
X61538761Y-71864380D01*
X61824476Y-71864380D01*
X61919714Y-71816761D01*
X61967333Y-71769142D01*
X91766666Y-60357142D02*
X91814285Y-60404761D01*
X91957142Y-60452380D01*
X92052380Y-60452380D01*
X92195238Y-60404761D01*
X92290476Y-60309523D01*
X92338095Y-60214285D01*
X92385714Y-60023809D01*
X92385714Y-59880952D01*
X92338095Y-59690476D01*
X92290476Y-59595238D01*
X92195238Y-59500000D01*
X92052380Y-59452380D01*
X91957142Y-59452380D01*
X91814285Y-59500000D01*
X91766666Y-59547619D01*
X90814285Y-60452380D02*
X91385714Y-60452380D01*
X91100000Y-60452380D02*
X91100000Y-59452380D01*
X91195238Y-59595238D01*
X91290476Y-59690476D01*
X91385714Y-59738095D01*
X109866666Y-78257142D02*
X109914285Y-78304761D01*
X110057142Y-78352380D01*
X110152380Y-78352380D01*
X110295238Y-78304761D01*
X110390476Y-78209523D01*
X110438095Y-78114285D01*
X110485714Y-77923809D01*
X110485714Y-77780952D01*
X110438095Y-77590476D01*
X110390476Y-77495238D01*
X110295238Y-77400000D01*
X110152380Y-77352380D01*
X110057142Y-77352380D01*
X109914285Y-77400000D01*
X109866666Y-77447619D01*
X109485714Y-77447619D02*
X109438095Y-77400000D01*
X109342857Y-77352380D01*
X109104761Y-77352380D01*
X109009523Y-77400000D01*
X108961904Y-77447619D01*
X108914285Y-77542857D01*
X108914285Y-77638095D01*
X108961904Y-77780952D01*
X109533333Y-78352380D01*
X108914285Y-78352380D01*
X109866666Y-70657142D02*
X109914285Y-70704761D01*
X110057142Y-70752380D01*
X110152380Y-70752380D01*
X110295238Y-70704761D01*
X110390476Y-70609523D01*
X110438095Y-70514285D01*
X110485714Y-70323809D01*
X110485714Y-70180952D01*
X110438095Y-69990476D01*
X110390476Y-69895238D01*
X110295238Y-69800000D01*
X110152380Y-69752380D01*
X110057142Y-69752380D01*
X109914285Y-69800000D01*
X109866666Y-69847619D01*
X109009523Y-70085714D02*
X109009523Y-70752380D01*
X109247619Y-69704761D02*
X109485714Y-70419047D01*
X108866666Y-70419047D01*
X94066666Y-113457142D02*
X94114285Y-113504761D01*
X94257142Y-113552380D01*
X94352380Y-113552380D01*
X94495238Y-113504761D01*
X94590476Y-113409523D01*
X94638095Y-113314285D01*
X94685714Y-113123809D01*
X94685714Y-112980952D01*
X94638095Y-112790476D01*
X94590476Y-112695238D01*
X94495238Y-112600000D01*
X94352380Y-112552380D01*
X94257142Y-112552380D01*
X94114285Y-112600000D01*
X94066666Y-112647619D01*
X93209523Y-112552380D02*
X93400000Y-112552380D01*
X93495238Y-112600000D01*
X93542857Y-112647619D01*
X93638095Y-112790476D01*
X93685714Y-112980952D01*
X93685714Y-113361904D01*
X93638095Y-113457142D01*
X93590476Y-113504761D01*
X93495238Y-113552380D01*
X93304761Y-113552380D01*
X93209523Y-113504761D01*
X93161904Y-113457142D01*
X93114285Y-113361904D01*
X93114285Y-113123809D01*
X93161904Y-113028571D01*
X93209523Y-112980952D01*
X93304761Y-112933333D01*
X93495238Y-112933333D01*
X93590476Y-112980952D01*
X93638095Y-113028571D01*
X93685714Y-113123809D01*
X111866666Y-119357142D02*
X111914285Y-119404761D01*
X112057142Y-119452380D01*
X112152380Y-119452380D01*
X112295238Y-119404761D01*
X112390476Y-119309523D01*
X112438095Y-119214285D01*
X112485714Y-119023809D01*
X112485714Y-118880952D01*
X112438095Y-118690476D01*
X112390476Y-118595238D01*
X112295238Y-118500000D01*
X112152380Y-118452380D01*
X112057142Y-118452380D01*
X111914285Y-118500000D01*
X111866666Y-118547619D01*
X111533333Y-118452380D02*
X110866666Y-118452380D01*
X111295238Y-119452380D01*
X85654666Y-89477142D02*
X85702285Y-89524761D01*
X85845142Y-89572380D01*
X85940380Y-89572380D01*
X86083238Y-89524761D01*
X86178476Y-89429523D01*
X86226095Y-89334285D01*
X86273714Y-89143809D01*
X86273714Y-89000952D01*
X86226095Y-88810476D01*
X86178476Y-88715238D01*
X86083238Y-88620000D01*
X85940380Y-88572380D01*
X85845142Y-88572380D01*
X85702285Y-88620000D01*
X85654666Y-88667619D01*
X84749904Y-88572380D02*
X85226095Y-88572380D01*
X85273714Y-89048571D01*
X85226095Y-89000952D01*
X85130857Y-88953333D01*
X84892761Y-88953333D01*
X84797523Y-89000952D01*
X84749904Y-89048571D01*
X84702285Y-89143809D01*
X84702285Y-89381904D01*
X84749904Y-89477142D01*
X84797523Y-89524761D01*
X84892761Y-89572380D01*
X85130857Y-89572380D01*
X85226095Y-89524761D01*
X85273714Y-89477142D01*
X100414285Y-64752380D02*
X100414285Y-63752380D01*
X100033333Y-63752380D01*
X99938095Y-63800000D01*
X99890476Y-63847619D01*
X99842857Y-63942857D01*
X99842857Y-64085714D01*
X99890476Y-64180952D01*
X99938095Y-64228571D01*
X100033333Y-64276190D01*
X100414285Y-64276190D01*
X99461904Y-64704761D02*
X99319047Y-64752380D01*
X99080952Y-64752380D01*
X98985714Y-64704761D01*
X98938095Y-64657142D01*
X98890476Y-64561904D01*
X98890476Y-64466666D01*
X98938095Y-64371428D01*
X98985714Y-64323809D01*
X99080952Y-64276190D01*
X99271428Y-64228571D01*
X99366666Y-64180952D01*
X99414285Y-64133333D01*
X99461904Y-64038095D01*
X99461904Y-63942857D01*
X99414285Y-63847619D01*
X99366666Y-63800000D01*
X99271428Y-63752380D01*
X99033333Y-63752380D01*
X98890476Y-63800000D01*
X98509523Y-63847619D02*
X98461904Y-63800000D01*
X98366666Y-63752380D01*
X98128571Y-63752380D01*
X98033333Y-63800000D01*
X97985714Y-63847619D01*
X97938095Y-63942857D01*
X97938095Y-64038095D01*
X97985714Y-64180952D01*
X98557142Y-64752380D01*
X97938095Y-64752380D01*
X81066666Y-60352380D02*
X81400000Y-59876190D01*
X81638095Y-60352380D02*
X81638095Y-59352380D01*
X81257142Y-59352380D01*
X81161904Y-59400000D01*
X81114285Y-59447619D01*
X81066666Y-59542857D01*
X81066666Y-59685714D01*
X81114285Y-59780952D01*
X81161904Y-59828571D01*
X81257142Y-59876190D01*
X81638095Y-59876190D01*
X80114285Y-60352380D02*
X80685714Y-60352380D01*
X80400000Y-60352380D02*
X80400000Y-59352380D01*
X80495238Y-59495238D01*
X80590476Y-59590476D01*
X80685714Y-59638095D01*
X85866666Y-61852380D02*
X86200000Y-61376190D01*
X86438095Y-61852380D02*
X86438095Y-60852380D01*
X86057142Y-60852380D01*
X85961904Y-60900000D01*
X85914285Y-60947619D01*
X85866666Y-61042857D01*
X85866666Y-61185714D01*
X85914285Y-61280952D01*
X85961904Y-61328571D01*
X86057142Y-61376190D01*
X86438095Y-61376190D01*
X85485714Y-60947619D02*
X85438095Y-60900000D01*
X85342857Y-60852380D01*
X85104761Y-60852380D01*
X85009523Y-60900000D01*
X84961904Y-60947619D01*
X84914285Y-61042857D01*
X84914285Y-61138095D01*
X84961904Y-61280952D01*
X85533333Y-61852380D01*
X84914285Y-61852380D01*
X99166666Y-91752380D02*
X99500000Y-91276190D01*
X99738095Y-91752380D02*
X99738095Y-90752380D01*
X99357142Y-90752380D01*
X99261904Y-90800000D01*
X99214285Y-90847619D01*
X99166666Y-90942857D01*
X99166666Y-91085714D01*
X99214285Y-91180952D01*
X99261904Y-91228571D01*
X99357142Y-91276190D01*
X99738095Y-91276190D01*
X98833333Y-90752380D02*
X98214285Y-90752380D01*
X98547619Y-91133333D01*
X98404761Y-91133333D01*
X98309523Y-91180952D01*
X98261904Y-91228571D01*
X98214285Y-91323809D01*
X98214285Y-91561904D01*
X98261904Y-91657142D01*
X98309523Y-91704761D01*
X98404761Y-91752380D01*
X98690476Y-91752380D01*
X98785714Y-91704761D01*
X98833333Y-91657142D01*
X99166666Y-95852380D02*
X99500000Y-95376190D01*
X99738095Y-95852380D02*
X99738095Y-94852380D01*
X99357142Y-94852380D01*
X99261904Y-94900000D01*
X99214285Y-94947619D01*
X99166666Y-95042857D01*
X99166666Y-95185714D01*
X99214285Y-95280952D01*
X99261904Y-95328571D01*
X99357142Y-95376190D01*
X99738095Y-95376190D01*
X98309523Y-95185714D02*
X98309523Y-95852380D01*
X98547619Y-94804761D02*
X98785714Y-95519047D01*
X98166666Y-95519047D01*
X99166666Y-99852380D02*
X99500000Y-99376190D01*
X99738095Y-99852380D02*
X99738095Y-98852380D01*
X99357142Y-98852380D01*
X99261904Y-98900000D01*
X99214285Y-98947619D01*
X99166666Y-99042857D01*
X99166666Y-99185714D01*
X99214285Y-99280952D01*
X99261904Y-99328571D01*
X99357142Y-99376190D01*
X99738095Y-99376190D01*
X98261904Y-98852380D02*
X98738095Y-98852380D01*
X98785714Y-99328571D01*
X98738095Y-99280952D01*
X98642857Y-99233333D01*
X98404761Y-99233333D01*
X98309523Y-99280952D01*
X98261904Y-99328571D01*
X98214285Y-99423809D01*
X98214285Y-99661904D01*
X98261904Y-99757142D01*
X98309523Y-99804761D01*
X98404761Y-99852380D01*
X98642857Y-99852380D01*
X98738095Y-99804761D01*
X98785714Y-99757142D01*
X99166666Y-103952380D02*
X99500000Y-103476190D01*
X99738095Y-103952380D02*
X99738095Y-102952380D01*
X99357142Y-102952380D01*
X99261904Y-103000000D01*
X99214285Y-103047619D01*
X99166666Y-103142857D01*
X99166666Y-103285714D01*
X99214285Y-103380952D01*
X99261904Y-103428571D01*
X99357142Y-103476190D01*
X99738095Y-103476190D01*
X98309523Y-102952380D02*
X98500000Y-102952380D01*
X98595238Y-103000000D01*
X98642857Y-103047619D01*
X98738095Y-103190476D01*
X98785714Y-103380952D01*
X98785714Y-103761904D01*
X98738095Y-103857142D01*
X98690476Y-103904761D01*
X98595238Y-103952380D01*
X98404761Y-103952380D01*
X98309523Y-103904761D01*
X98261904Y-103857142D01*
X98214285Y-103761904D01*
X98214285Y-103523809D01*
X98261904Y-103428571D01*
X98309523Y-103380952D01*
X98404761Y-103333333D01*
X98595238Y-103333333D01*
X98690476Y-103380952D01*
X98738095Y-103428571D01*
X98785714Y-103523809D01*
X107666666Y-116252380D02*
X108000000Y-115776190D01*
X108238095Y-116252380D02*
X108238095Y-115252380D01*
X107857142Y-115252380D01*
X107761904Y-115300000D01*
X107714285Y-115347619D01*
X107666666Y-115442857D01*
X107666666Y-115585714D01*
X107714285Y-115680952D01*
X107761904Y-115728571D01*
X107857142Y-115776190D01*
X108238095Y-115776190D01*
X107333333Y-115252380D02*
X106666666Y-115252380D01*
X107095238Y-116252380D01*
X163142857Y-100552380D02*
X163476190Y-100076190D01*
X163714285Y-100552380D02*
X163714285Y-99552380D01*
X163333333Y-99552380D01*
X163238095Y-99600000D01*
X163190476Y-99647619D01*
X163142857Y-99742857D01*
X163142857Y-99885714D01*
X163190476Y-99980952D01*
X163238095Y-100028571D01*
X163333333Y-100076190D01*
X163714285Y-100076190D01*
X162190476Y-100552380D02*
X162761904Y-100552380D01*
X162476190Y-100552380D02*
X162476190Y-99552380D01*
X162571428Y-99695238D01*
X162666666Y-99790476D01*
X162761904Y-99838095D01*
X161333333Y-99552380D02*
X161523809Y-99552380D01*
X161619047Y-99600000D01*
X161666666Y-99647619D01*
X161761904Y-99790476D01*
X161809523Y-99980952D01*
X161809523Y-100361904D01*
X161761904Y-100457142D01*
X161714285Y-100504761D01*
X161619047Y-100552380D01*
X161428571Y-100552380D01*
X161333333Y-100504761D01*
X161285714Y-100457142D01*
X161238095Y-100361904D01*
X161238095Y-100123809D01*
X161285714Y-100028571D01*
X161333333Y-99980952D01*
X161428571Y-99933333D01*
X161619047Y-99933333D01*
X161714285Y-99980952D01*
X161761904Y-100028571D01*
X161809523Y-100123809D01*
X163142857Y-136152380D02*
X163476190Y-135676190D01*
X163714285Y-136152380D02*
X163714285Y-135152380D01*
X163333333Y-135152380D01*
X163238095Y-135200000D01*
X163190476Y-135247619D01*
X163142857Y-135342857D01*
X163142857Y-135485714D01*
X163190476Y-135580952D01*
X163238095Y-135628571D01*
X163333333Y-135676190D01*
X163714285Y-135676190D01*
X162190476Y-136152380D02*
X162761904Y-136152380D01*
X162476190Y-136152380D02*
X162476190Y-135152380D01*
X162571428Y-135295238D01*
X162666666Y-135390476D01*
X162761904Y-135438095D01*
X161857142Y-135152380D02*
X161190476Y-135152380D01*
X161619047Y-136152380D01*
M02*
