G04 #@! TF.GenerationSoftware,KiCad,Pcbnew,(5.1.7-0-10_14)*
G04 #@! TF.CreationDate,2021-05-27T14:06:25+09:00*
G04 #@! TF.ProjectId,EiMS,45694d53-2e6b-4696-9361-645f70636258,1.0*
G04 #@! TF.SameCoordinates,Original*
G04 #@! TF.FileFunction,Legend,Top*
G04 #@! TF.FilePolarity,Positive*
%FSLAX46Y46*%
G04 Gerber Fmt 4.6, Leading zero omitted, Abs format (unit mm)*
G04 Created by KiCad (PCBNEW (5.1.7-0-10_14)) date 2021-05-27 14:06:25*
%MOMM*%
%LPD*%
G01*
G04 APERTURE LIST*
%ADD10C,0.120000*%
%ADD11C,0.100000*%
%ADD12C,0.010000*%
%ADD13C,0.150000*%
G04 APERTURE END LIST*
D10*
X86002000Y-74892000D02*
X50950000Y-74892000D01*
X50950000Y-74892000D02*
X50950000Y-85306000D01*
X50950000Y-85306000D02*
X86002000Y-85306000D01*
X86002000Y-85306000D02*
X86002000Y-74892000D01*
X85494000Y-77940000D02*
G75*
G03*
X85494000Y-77940000I-508000J0D01*
G01*
D11*
G36*
X84986000Y-74892000D02*
G01*
X84478000Y-74130000D01*
X85494000Y-74130000D01*
X84986000Y-74892000D01*
G37*
X84986000Y-74892000D02*
X84478000Y-74130000D01*
X85494000Y-74130000D01*
X84986000Y-74892000D01*
D10*
X54242000Y-102832000D02*
G75*
G03*
X54242000Y-102832000I-508000J0D01*
G01*
X50686000Y-101816000D02*
X50686000Y-152108000D01*
X50686000Y-152108000D02*
X86246000Y-152108000D01*
X86246000Y-152108000D02*
X86246000Y-101816000D01*
X86246000Y-101816000D02*
X50686000Y-101816000D01*
D11*
G36*
X50686000Y-102832000D02*
G01*
X49924000Y-103340000D01*
X49924000Y-102324000D01*
X50686000Y-102832000D01*
G37*
X50686000Y-102832000D02*
X49924000Y-103340000D01*
X49924000Y-102324000D01*
X50686000Y-102832000D01*
D10*
X114476000Y-119852000D02*
X114476000Y-151852000D01*
X114476000Y-119852000D02*
X172476000Y-119852000D01*
X114476000Y-151852000D02*
X172476000Y-151852000D01*
X172476000Y-119852000D02*
X172476000Y-151852000D01*
D11*
G36*
X113678000Y-131280000D02*
G01*
X113678000Y-130264000D01*
X114440000Y-130772000D01*
X113678000Y-131280000D01*
G37*
X113678000Y-131280000D02*
X113678000Y-130264000D01*
X114440000Y-130772000D01*
X113678000Y-131280000D01*
D10*
X119012000Y-130772000D02*
G75*
G03*
X119012000Y-130772000I-508000J0D01*
G01*
X114476000Y-84292000D02*
X114476000Y-116292000D01*
X114476000Y-84292000D02*
X172476000Y-84292000D01*
X114476000Y-116292000D02*
X172476000Y-116292000D01*
X172476000Y-84292000D02*
X172476000Y-116292000D01*
D11*
G36*
X113678000Y-95720000D02*
G01*
X113678000Y-94704000D01*
X114440000Y-95212000D01*
X113678000Y-95720000D01*
G37*
X113678000Y-95720000D02*
X113678000Y-94704000D01*
X114440000Y-95212000D01*
X113678000Y-95720000D01*
D10*
X119012000Y-95212000D02*
G75*
G03*
X119012000Y-95212000I-508000J0D01*
G01*
X153312000Y-63279000D02*
X228312000Y-63279000D01*
X228312000Y-63279000D02*
X228312000Y-42279000D01*
X228312000Y-42279000D02*
X153312000Y-42279000D01*
X153312000Y-42279000D02*
X153312000Y-63279000D01*
X167212000Y-52779000D02*
G75*
G03*
X167212000Y-52779000I-3250000J0D01*
G01*
X220912000Y-52779000D02*
G75*
G03*
X220912000Y-52779000I-3250000J0D01*
G01*
D12*
G36*
X108303619Y-47986252D02*
G01*
X108379286Y-48009207D01*
X108424093Y-48070643D01*
X108448414Y-48199756D01*
X108462623Y-48425741D01*
X108463026Y-48434875D01*
X108467632Y-48671476D01*
X108452960Y-48805161D01*
X108415144Y-48859076D01*
X108391426Y-48863500D01*
X108274757Y-48818658D01*
X108230152Y-48778072D01*
X108149848Y-48611529D01*
X108107599Y-48385730D01*
X108114291Y-48165478D01*
X108121524Y-48131463D01*
X108181505Y-48008647D01*
X108292804Y-47984865D01*
X108303619Y-47986252D01*
G37*
X108303619Y-47986252D02*
X108379286Y-48009207D01*
X108424093Y-48070643D01*
X108448414Y-48199756D01*
X108462623Y-48425741D01*
X108463026Y-48434875D01*
X108467632Y-48671476D01*
X108452960Y-48805161D01*
X108415144Y-48859076D01*
X108391426Y-48863500D01*
X108274757Y-48818658D01*
X108230152Y-48778072D01*
X108149848Y-48611529D01*
X108107599Y-48385730D01*
X108114291Y-48165478D01*
X108121524Y-48131463D01*
X108181505Y-48008647D01*
X108292804Y-47984865D01*
X108303619Y-47986252D01*
G36*
X117792752Y-45834614D02*
G01*
X117966177Y-45929755D01*
X118028004Y-46077028D01*
X117975214Y-46267188D01*
X117804787Y-46490992D01*
X117752972Y-46542156D01*
X117608271Y-46658552D01*
X117514972Y-46678271D01*
X117486090Y-46659490D01*
X117461999Y-46575632D01*
X117527628Y-46441568D01*
X117561373Y-46393989D01*
X117643756Y-46258566D01*
X117668046Y-46166116D01*
X117662343Y-46154177D01*
X117582430Y-46147647D01*
X117423108Y-46177294D01*
X117285854Y-46216036D01*
X116999537Y-46345588D01*
X116687384Y-46550253D01*
X116372739Y-46807382D01*
X116078948Y-47094327D01*
X115829355Y-47388440D01*
X115647305Y-47667071D01*
X115559389Y-47890988D01*
X115551721Y-48049751D01*
X115613592Y-48180822D01*
X115759320Y-48295810D01*
X116003225Y-48406323D01*
X116328595Y-48514617D01*
X116944103Y-48735485D01*
X117442444Y-48988428D01*
X117822339Y-49271841D01*
X118082507Y-49584120D01*
X118221669Y-49923660D01*
X118238544Y-50288857D01*
X118131853Y-50678106D01*
X118104256Y-50740310D01*
X117901689Y-51062111D01*
X117621328Y-51350454D01*
X117286269Y-51594617D01*
X116919602Y-51783878D01*
X116544422Y-51907513D01*
X116183821Y-51954800D01*
X115860892Y-51915018D01*
X115708628Y-51852643D01*
X115446399Y-51649771D01*
X115296041Y-51391719D01*
X115259153Y-51140884D01*
X115285119Y-50916416D01*
X115346219Y-50787241D01*
X115428400Y-50761997D01*
X115517608Y-50849323D01*
X115566015Y-50952253D01*
X115707314Y-51160792D01*
X115929623Y-51297776D01*
X116204574Y-51356187D01*
X116503796Y-51329005D01*
X116738693Y-51242394D01*
X117146506Y-50996141D01*
X117453592Y-50728867D01*
X117655324Y-50449771D01*
X117747076Y-50168048D01*
X117724221Y-49892894D01*
X117582131Y-49633506D01*
X117560830Y-49608383D01*
X117325336Y-49406684D01*
X116988024Y-49211542D01*
X116573921Y-49035709D01*
X116205452Y-48917869D01*
X115863296Y-48813829D01*
X115615566Y-48713070D01*
X115431053Y-48600287D01*
X115283860Y-48465889D01*
X115128371Y-48216381D01*
X115094726Y-47931285D01*
X115182933Y-47610578D01*
X115393001Y-47254236D01*
X115724938Y-46862236D01*
X115927439Y-46661515D01*
X116370709Y-46279962D01*
X116775759Y-46012268D01*
X117150679Y-45854036D01*
X117503557Y-45800868D01*
X117510750Y-45800846D01*
X117792752Y-45834614D01*
G37*
X117792752Y-45834614D02*
X117966177Y-45929755D01*
X118028004Y-46077028D01*
X117975214Y-46267188D01*
X117804787Y-46490992D01*
X117752972Y-46542156D01*
X117608271Y-46658552D01*
X117514972Y-46678271D01*
X117486090Y-46659490D01*
X117461999Y-46575632D01*
X117527628Y-46441568D01*
X117561373Y-46393989D01*
X117643756Y-46258566D01*
X117668046Y-46166116D01*
X117662343Y-46154177D01*
X117582430Y-46147647D01*
X117423108Y-46177294D01*
X117285854Y-46216036D01*
X116999537Y-46345588D01*
X116687384Y-46550253D01*
X116372739Y-46807382D01*
X116078948Y-47094327D01*
X115829355Y-47388440D01*
X115647305Y-47667071D01*
X115559389Y-47890988D01*
X115551721Y-48049751D01*
X115613592Y-48180822D01*
X115759320Y-48295810D01*
X116003225Y-48406323D01*
X116328595Y-48514617D01*
X116944103Y-48735485D01*
X117442444Y-48988428D01*
X117822339Y-49271841D01*
X118082507Y-49584120D01*
X118221669Y-49923660D01*
X118238544Y-50288857D01*
X118131853Y-50678106D01*
X118104256Y-50740310D01*
X117901689Y-51062111D01*
X117621328Y-51350454D01*
X117286269Y-51594617D01*
X116919602Y-51783878D01*
X116544422Y-51907513D01*
X116183821Y-51954800D01*
X115860892Y-51915018D01*
X115708628Y-51852643D01*
X115446399Y-51649771D01*
X115296041Y-51391719D01*
X115259153Y-51140884D01*
X115285119Y-50916416D01*
X115346219Y-50787241D01*
X115428400Y-50761997D01*
X115517608Y-50849323D01*
X115566015Y-50952253D01*
X115707314Y-51160792D01*
X115929623Y-51297776D01*
X116204574Y-51356187D01*
X116503796Y-51329005D01*
X116738693Y-51242394D01*
X117146506Y-50996141D01*
X117453592Y-50728867D01*
X117655324Y-50449771D01*
X117747076Y-50168048D01*
X117724221Y-49892894D01*
X117582131Y-49633506D01*
X117560830Y-49608383D01*
X117325336Y-49406684D01*
X116988024Y-49211542D01*
X116573921Y-49035709D01*
X116205452Y-48917869D01*
X115863296Y-48813829D01*
X115615566Y-48713070D01*
X115431053Y-48600287D01*
X115283860Y-48465889D01*
X115128371Y-48216381D01*
X115094726Y-47931285D01*
X115182933Y-47610578D01*
X115393001Y-47254236D01*
X115724938Y-46862236D01*
X115927439Y-46661515D01*
X116370709Y-46279962D01*
X116775759Y-46012268D01*
X117150679Y-45854036D01*
X117503557Y-45800868D01*
X117510750Y-45800846D01*
X117792752Y-45834614D01*
G36*
X113776350Y-45526464D02*
G01*
X113850078Y-45613313D01*
X113813631Y-45760731D01*
X113688452Y-45945216D01*
X113487338Y-46195475D01*
X113485295Y-47735862D01*
X113485898Y-48245658D01*
X113490379Y-48655045D01*
X113500480Y-48990596D01*
X113517943Y-49278886D01*
X113544511Y-49546487D01*
X113581926Y-49819973D01*
X113631931Y-50125917D01*
X113648135Y-50219358D01*
X113716723Y-50587659D01*
X113790827Y-50945636D01*
X113862731Y-51258416D01*
X113924726Y-51491127D01*
X113940268Y-51540201D01*
X114001273Y-51746687D01*
X114032913Y-51906727D01*
X114030261Y-51978217D01*
X113940316Y-52036788D01*
X113816428Y-51974821D01*
X113657533Y-51791740D01*
X113641000Y-51768625D01*
X113514896Y-51574579D01*
X113410020Y-51371437D01*
X113316848Y-51133233D01*
X113225855Y-50834007D01*
X113127518Y-50447795D01*
X113075876Y-50228070D01*
X112937922Y-49397923D01*
X112891172Y-48518777D01*
X112937736Y-47632135D01*
X112941972Y-47593500D01*
X112988263Y-47180750D01*
X112663530Y-47778923D01*
X112487316Y-48091764D01*
X112290502Y-48422864D01*
X112105223Y-48718751D01*
X112033830Y-48826673D01*
X111870879Y-49055364D01*
X111681218Y-49303819D01*
X111483671Y-49549457D01*
X111297059Y-49769700D01*
X111140204Y-49941968D01*
X111031929Y-50043681D01*
X111005935Y-50059751D01*
X110953518Y-50018127D01*
X110872571Y-49888262D01*
X110793544Y-49726376D01*
X110708792Y-49540448D01*
X110645487Y-49412170D01*
X110619925Y-49372033D01*
X110610812Y-49431098D01*
X110600170Y-49589136D01*
X110589677Y-49818162D01*
X110584728Y-49959408D01*
X110566566Y-50295881D01*
X110534388Y-50661023D01*
X110492034Y-51026838D01*
X110443343Y-51365334D01*
X110392158Y-51648518D01*
X110342317Y-51848396D01*
X110316720Y-51912956D01*
X110207848Y-52014100D01*
X110115815Y-52038500D01*
X110052296Y-52031848D01*
X110015402Y-51995487D01*
X110000935Y-51904805D01*
X110004696Y-51735188D01*
X110021022Y-51482875D01*
X110032638Y-51282347D01*
X110047267Y-50975127D01*
X110064093Y-50581464D01*
X110082303Y-50121605D01*
X110101080Y-49615802D01*
X110119609Y-49084302D01*
X110129022Y-48800000D01*
X110147203Y-48291431D01*
X110167150Y-47822872D01*
X110187967Y-47409563D01*
X110208756Y-47066744D01*
X110228620Y-46809656D01*
X110246662Y-46653540D01*
X110257799Y-46612424D01*
X110321482Y-46579857D01*
X110377537Y-46628943D01*
X110430182Y-46770988D01*
X110483637Y-47017301D01*
X110540948Y-47371250D01*
X110668853Y-48155240D01*
X110802958Y-48817186D01*
X110925980Y-49299510D01*
X111023841Y-49640270D01*
X111175128Y-49498144D01*
X111268769Y-49384476D01*
X111409292Y-49181797D01*
X111582930Y-48912682D01*
X111775915Y-48599702D01*
X111974481Y-48265430D01*
X112164861Y-47932439D01*
X112333289Y-47623302D01*
X112413893Y-47467017D01*
X112554232Y-47200289D01*
X112726160Y-46891511D01*
X112893316Y-46605927D01*
X112898958Y-46596618D01*
X113034710Y-46355919D01*
X113145013Y-46128951D01*
X113210139Y-45957141D01*
X113216736Y-45929350D01*
X113275973Y-45695013D01*
X113357047Y-45562302D01*
X113482032Y-45505841D01*
X113591977Y-45497999D01*
X113776350Y-45526464D01*
G37*
X113776350Y-45526464D02*
X113850078Y-45613313D01*
X113813631Y-45760731D01*
X113688452Y-45945216D01*
X113487338Y-46195475D01*
X113485295Y-47735862D01*
X113485898Y-48245658D01*
X113490379Y-48655045D01*
X113500480Y-48990596D01*
X113517943Y-49278886D01*
X113544511Y-49546487D01*
X113581926Y-49819973D01*
X113631931Y-50125917D01*
X113648135Y-50219358D01*
X113716723Y-50587659D01*
X113790827Y-50945636D01*
X113862731Y-51258416D01*
X113924726Y-51491127D01*
X113940268Y-51540201D01*
X114001273Y-51746687D01*
X114032913Y-51906727D01*
X114030261Y-51978217D01*
X113940316Y-52036788D01*
X113816428Y-51974821D01*
X113657533Y-51791740D01*
X113641000Y-51768625D01*
X113514896Y-51574579D01*
X113410020Y-51371437D01*
X113316848Y-51133233D01*
X113225855Y-50834007D01*
X113127518Y-50447795D01*
X113075876Y-50228070D01*
X112937922Y-49397923D01*
X112891172Y-48518777D01*
X112937736Y-47632135D01*
X112941972Y-47593500D01*
X112988263Y-47180750D01*
X112663530Y-47778923D01*
X112487316Y-48091764D01*
X112290502Y-48422864D01*
X112105223Y-48718751D01*
X112033830Y-48826673D01*
X111870879Y-49055364D01*
X111681218Y-49303819D01*
X111483671Y-49549457D01*
X111297059Y-49769700D01*
X111140204Y-49941968D01*
X111031929Y-50043681D01*
X111005935Y-50059751D01*
X110953518Y-50018127D01*
X110872571Y-49888262D01*
X110793544Y-49726376D01*
X110708792Y-49540448D01*
X110645487Y-49412170D01*
X110619925Y-49372033D01*
X110610812Y-49431098D01*
X110600170Y-49589136D01*
X110589677Y-49818162D01*
X110584728Y-49959408D01*
X110566566Y-50295881D01*
X110534388Y-50661023D01*
X110492034Y-51026838D01*
X110443343Y-51365334D01*
X110392158Y-51648518D01*
X110342317Y-51848396D01*
X110316720Y-51912956D01*
X110207848Y-52014100D01*
X110115815Y-52038500D01*
X110052296Y-52031848D01*
X110015402Y-51995487D01*
X110000935Y-51904805D01*
X110004696Y-51735188D01*
X110021022Y-51482875D01*
X110032638Y-51282347D01*
X110047267Y-50975127D01*
X110064093Y-50581464D01*
X110082303Y-50121605D01*
X110101080Y-49615802D01*
X110119609Y-49084302D01*
X110129022Y-48800000D01*
X110147203Y-48291431D01*
X110167150Y-47822872D01*
X110187967Y-47409563D01*
X110208756Y-47066744D01*
X110228620Y-46809656D01*
X110246662Y-46653540D01*
X110257799Y-46612424D01*
X110321482Y-46579857D01*
X110377537Y-46628943D01*
X110430182Y-46770988D01*
X110483637Y-47017301D01*
X110540948Y-47371250D01*
X110668853Y-48155240D01*
X110802958Y-48817186D01*
X110925980Y-49299510D01*
X111023841Y-49640270D01*
X111175128Y-49498144D01*
X111268769Y-49384476D01*
X111409292Y-49181797D01*
X111582930Y-48912682D01*
X111775915Y-48599702D01*
X111974481Y-48265430D01*
X112164861Y-47932439D01*
X112333289Y-47623302D01*
X112413893Y-47467017D01*
X112554232Y-47200289D01*
X112726160Y-46891511D01*
X112893316Y-46605927D01*
X112898958Y-46596618D01*
X113034710Y-46355919D01*
X113145013Y-46128951D01*
X113210139Y-45957141D01*
X113216736Y-45929350D01*
X113275973Y-45695013D01*
X113357047Y-45562302D01*
X113482032Y-45505841D01*
X113591977Y-45497999D01*
X113776350Y-45526464D01*
G36*
X108378087Y-49464918D02*
G01*
X108392905Y-49473472D01*
X108434299Y-49510970D01*
X108465983Y-49577861D01*
X108490184Y-49691943D01*
X108509127Y-49871011D01*
X108525040Y-50132863D01*
X108540149Y-50495295D01*
X108547821Y-50711722D01*
X108561166Y-51156277D01*
X108564960Y-51489706D01*
X108556856Y-51727679D01*
X108534506Y-51885867D01*
X108495561Y-51979938D01*
X108437674Y-52025564D01*
X108358495Y-52038414D01*
X108349000Y-52038500D01*
X108217900Y-51996719D01*
X108174800Y-51959125D01*
X108124257Y-51828442D01*
X108086293Y-51594330D01*
X108062368Y-51279873D01*
X108053944Y-50908153D01*
X108062483Y-50502255D01*
X108071491Y-50326927D01*
X108102947Y-49941392D01*
X108145527Y-49672536D01*
X108203038Y-49510245D01*
X108279289Y-49444410D01*
X108378087Y-49464918D01*
G37*
X108378087Y-49464918D02*
X108392905Y-49473472D01*
X108434299Y-49510970D01*
X108465983Y-49577861D01*
X108490184Y-49691943D01*
X108509127Y-49871011D01*
X108525040Y-50132863D01*
X108540149Y-50495295D01*
X108547821Y-50711722D01*
X108561166Y-51156277D01*
X108564960Y-51489706D01*
X108556856Y-51727679D01*
X108534506Y-51885867D01*
X108495561Y-51979938D01*
X108437674Y-52025564D01*
X108358495Y-52038414D01*
X108349000Y-52038500D01*
X108217900Y-51996719D01*
X108174800Y-51959125D01*
X108124257Y-51828442D01*
X108086293Y-51594330D01*
X108062368Y-51279873D01*
X108053944Y-50908153D01*
X108062483Y-50502255D01*
X108071491Y-50326927D01*
X108102947Y-49941392D01*
X108145527Y-49672536D01*
X108203038Y-49510245D01*
X108279289Y-49444410D01*
X108378087Y-49464918D01*
G36*
X106347272Y-46037306D02*
G01*
X106650095Y-46068896D01*
X106847125Y-46100577D01*
X106959423Y-46138503D01*
X107008051Y-46188826D01*
X107015500Y-46232529D01*
X106979456Y-46288325D01*
X106857099Y-46316724D01*
X106668469Y-46323500D01*
X106483390Y-46337725D01*
X106203928Y-46376712D01*
X105859033Y-46434931D01*
X105477656Y-46506850D01*
X105088747Y-46586938D01*
X104721258Y-46669664D01*
X104404139Y-46749496D01*
X104328026Y-46770659D01*
X104085302Y-46840008D01*
X104122015Y-47232629D01*
X104133163Y-47473735D01*
X104132111Y-47788766D01*
X104119476Y-48125296D01*
X104109702Y-48276125D01*
X104092889Y-48545809D01*
X104086138Y-48760983D01*
X104089867Y-48895247D01*
X104099397Y-48927000D01*
X104175858Y-48907845D01*
X104334115Y-48858232D01*
X104491876Y-48805289D01*
X104989386Y-48659883D01*
X105508153Y-48553907D01*
X106019683Y-48489983D01*
X106495483Y-48470738D01*
X106907061Y-48498797D01*
X107174250Y-48558152D01*
X107338153Y-48624693D01*
X107411466Y-48703290D01*
X107428250Y-48829387D01*
X107408585Y-48961044D01*
X107326812Y-49045670D01*
X107188700Y-49108144D01*
X106996381Y-49161611D01*
X106901024Y-49140799D01*
X106906345Y-49047419D01*
X106936353Y-48991957D01*
X106973811Y-48915773D01*
X106938152Y-48889945D01*
X106805275Y-48901588D01*
X106775199Y-48905809D01*
X106614952Y-48934888D01*
X106368565Y-48987158D01*
X106059446Y-49056919D01*
X105711001Y-49138471D01*
X105346639Y-49226115D01*
X104989767Y-49314151D01*
X104663792Y-49396879D01*
X104392121Y-49468599D01*
X104198163Y-49523613D01*
X104106316Y-49555676D01*
X104058920Y-49602904D01*
X104017465Y-49701173D01*
X103977920Y-49868381D01*
X103936254Y-50122428D01*
X103888437Y-50481212D01*
X103876862Y-50574593D01*
X103838184Y-50909388D01*
X103809463Y-51197929D01*
X103792590Y-51417565D01*
X103789457Y-51545649D01*
X103793846Y-51568513D01*
X103866015Y-51566438D01*
X104028549Y-51530922D01*
X104251423Y-51468960D01*
X104345416Y-51440022D01*
X104970191Y-51273700D01*
X105600107Y-51173746D01*
X106276816Y-51131457D01*
X106553932Y-51128197D01*
X106731590Y-51137669D01*
X106837053Y-51164215D01*
X106897584Y-51212177D01*
X106911816Y-51232594D01*
X106935828Y-51354632D01*
X106855403Y-51445384D01*
X106691899Y-51491013D01*
X106520102Y-51486337D01*
X106338206Y-51485214D01*
X106058618Y-51512040D01*
X105706456Y-51562419D01*
X105306840Y-51631953D01*
X104884890Y-51716244D01*
X104465724Y-51810897D01*
X104074461Y-51911514D01*
X104046206Y-51919384D01*
X103657797Y-52021552D01*
X103370923Y-52079639D01*
X103168552Y-52095072D01*
X103033653Y-52069276D01*
X102954868Y-52010809D01*
X102920054Y-51881872D01*
X102980413Y-51734206D01*
X103118308Y-51607415D01*
X103140024Y-51595057D01*
X103189853Y-51556988D01*
X103225044Y-51490916D01*
X103248863Y-51375538D01*
X103264576Y-51189554D01*
X103275449Y-50911662D01*
X103281443Y-50672745D01*
X103285989Y-50359527D01*
X103285005Y-50097653D01*
X103278944Y-49910242D01*
X103268261Y-49820416D01*
X103264650Y-49815893D01*
X103187985Y-49832625D01*
X103031255Y-49875324D01*
X102914096Y-49909382D01*
X102662809Y-49966500D01*
X102370755Y-50008581D01*
X102219946Y-50020507D01*
X102008368Y-50026253D01*
X101894085Y-50012651D01*
X101847866Y-49971291D01*
X101840250Y-49911250D01*
X101888240Y-49801762D01*
X101999000Y-49763344D01*
X102124065Y-49729534D01*
X102330918Y-49655667D01*
X102585750Y-49554286D01*
X102745715Y-49486297D01*
X103040475Y-49350494D01*
X103230922Y-49243146D01*
X103333617Y-49153731D01*
X103362538Y-49094452D01*
X103378126Y-48989535D01*
X103401484Y-48794016D01*
X103430048Y-48533708D01*
X103461254Y-48234425D01*
X103492538Y-47921979D01*
X103521335Y-47622186D01*
X103545082Y-47360858D01*
X103561213Y-47163808D01*
X103567165Y-47056851D01*
X103566117Y-47045073D01*
X103506342Y-47059705D01*
X103371476Y-47108761D01*
X103323616Y-47127667D01*
X103172464Y-47203547D01*
X103119910Y-47282916D01*
X103127094Y-47352859D01*
X103137983Y-47441384D01*
X103082677Y-47458258D01*
X102977227Y-47432926D01*
X102790194Y-47397114D01*
X102565690Y-47375883D01*
X102524518Y-47374412D01*
X102304824Y-47341216D01*
X102174478Y-47268824D01*
X102139200Y-47179753D01*
X102204709Y-47096519D01*
X102376727Y-47041641D01*
X102438267Y-47034897D01*
X102586864Y-47001753D01*
X102807055Y-46927156D01*
X103056515Y-46825794D01*
X103111113Y-46801366D01*
X103364148Y-46678402D01*
X103523627Y-46577568D01*
X103615871Y-46479064D01*
X103658641Y-46389505D01*
X103749349Y-46246225D01*
X103868548Y-46194885D01*
X103981344Y-46245311D01*
X104013300Y-46289617D01*
X104057547Y-46335952D01*
X104138024Y-46344102D01*
X104285108Y-46312156D01*
X104453689Y-46261890D01*
X104915639Y-46146071D01*
X105420900Y-46065902D01*
X105916653Y-46027646D01*
X106347272Y-46037306D01*
G37*
X106347272Y-46037306D02*
X106650095Y-46068896D01*
X106847125Y-46100577D01*
X106959423Y-46138503D01*
X107008051Y-46188826D01*
X107015500Y-46232529D01*
X106979456Y-46288325D01*
X106857099Y-46316724D01*
X106668469Y-46323500D01*
X106483390Y-46337725D01*
X106203928Y-46376712D01*
X105859033Y-46434931D01*
X105477656Y-46506850D01*
X105088747Y-46586938D01*
X104721258Y-46669664D01*
X104404139Y-46749496D01*
X104328026Y-46770659D01*
X104085302Y-46840008D01*
X104122015Y-47232629D01*
X104133163Y-47473735D01*
X104132111Y-47788766D01*
X104119476Y-48125296D01*
X104109702Y-48276125D01*
X104092889Y-48545809D01*
X104086138Y-48760983D01*
X104089867Y-48895247D01*
X104099397Y-48927000D01*
X104175858Y-48907845D01*
X104334115Y-48858232D01*
X104491876Y-48805289D01*
X104989386Y-48659883D01*
X105508153Y-48553907D01*
X106019683Y-48489983D01*
X106495483Y-48470738D01*
X106907061Y-48498797D01*
X107174250Y-48558152D01*
X107338153Y-48624693D01*
X107411466Y-48703290D01*
X107428250Y-48829387D01*
X107408585Y-48961044D01*
X107326812Y-49045670D01*
X107188700Y-49108144D01*
X106996381Y-49161611D01*
X106901024Y-49140799D01*
X106906345Y-49047419D01*
X106936353Y-48991957D01*
X106973811Y-48915773D01*
X106938152Y-48889945D01*
X106805275Y-48901588D01*
X106775199Y-48905809D01*
X106614952Y-48934888D01*
X106368565Y-48987158D01*
X106059446Y-49056919D01*
X105711001Y-49138471D01*
X105346639Y-49226115D01*
X104989767Y-49314151D01*
X104663792Y-49396879D01*
X104392121Y-49468599D01*
X104198163Y-49523613D01*
X104106316Y-49555676D01*
X104058920Y-49602904D01*
X104017465Y-49701173D01*
X103977920Y-49868381D01*
X103936254Y-50122428D01*
X103888437Y-50481212D01*
X103876862Y-50574593D01*
X103838184Y-50909388D01*
X103809463Y-51197929D01*
X103792590Y-51417565D01*
X103789457Y-51545649D01*
X103793846Y-51568513D01*
X103866015Y-51566438D01*
X104028549Y-51530922D01*
X104251423Y-51468960D01*
X104345416Y-51440022D01*
X104970191Y-51273700D01*
X105600107Y-51173746D01*
X106276816Y-51131457D01*
X106553932Y-51128197D01*
X106731590Y-51137669D01*
X106837053Y-51164215D01*
X106897584Y-51212177D01*
X106911816Y-51232594D01*
X106935828Y-51354632D01*
X106855403Y-51445384D01*
X106691899Y-51491013D01*
X106520102Y-51486337D01*
X106338206Y-51485214D01*
X106058618Y-51512040D01*
X105706456Y-51562419D01*
X105306840Y-51631953D01*
X104884890Y-51716244D01*
X104465724Y-51810897D01*
X104074461Y-51911514D01*
X104046206Y-51919384D01*
X103657797Y-52021552D01*
X103370923Y-52079639D01*
X103168552Y-52095072D01*
X103033653Y-52069276D01*
X102954868Y-52010809D01*
X102920054Y-51881872D01*
X102980413Y-51734206D01*
X103118308Y-51607415D01*
X103140024Y-51595057D01*
X103189853Y-51556988D01*
X103225044Y-51490916D01*
X103248863Y-51375538D01*
X103264576Y-51189554D01*
X103275449Y-50911662D01*
X103281443Y-50672745D01*
X103285989Y-50359527D01*
X103285005Y-50097653D01*
X103278944Y-49910242D01*
X103268261Y-49820416D01*
X103264650Y-49815893D01*
X103187985Y-49832625D01*
X103031255Y-49875324D01*
X102914096Y-49909382D01*
X102662809Y-49966500D01*
X102370755Y-50008581D01*
X102219946Y-50020507D01*
X102008368Y-50026253D01*
X101894085Y-50012651D01*
X101847866Y-49971291D01*
X101840250Y-49911250D01*
X101888240Y-49801762D01*
X101999000Y-49763344D01*
X102124065Y-49729534D01*
X102330918Y-49655667D01*
X102585750Y-49554286D01*
X102745715Y-49486297D01*
X103040475Y-49350494D01*
X103230922Y-49243146D01*
X103333617Y-49153731D01*
X103362538Y-49094452D01*
X103378126Y-48989535D01*
X103401484Y-48794016D01*
X103430048Y-48533708D01*
X103461254Y-48234425D01*
X103492538Y-47921979D01*
X103521335Y-47622186D01*
X103545082Y-47360858D01*
X103561213Y-47163808D01*
X103567165Y-47056851D01*
X103566117Y-47045073D01*
X103506342Y-47059705D01*
X103371476Y-47108761D01*
X103323616Y-47127667D01*
X103172464Y-47203547D01*
X103119910Y-47282916D01*
X103127094Y-47352859D01*
X103137983Y-47441384D01*
X103082677Y-47458258D01*
X102977227Y-47432926D01*
X102790194Y-47397114D01*
X102565690Y-47375883D01*
X102524518Y-47374412D01*
X102304824Y-47341216D01*
X102174478Y-47268824D01*
X102139200Y-47179753D01*
X102204709Y-47096519D01*
X102376727Y-47041641D01*
X102438267Y-47034897D01*
X102586864Y-47001753D01*
X102807055Y-46927156D01*
X103056515Y-46825794D01*
X103111113Y-46801366D01*
X103364148Y-46678402D01*
X103523627Y-46577568D01*
X103615871Y-46479064D01*
X103658641Y-46389505D01*
X103749349Y-46246225D01*
X103868548Y-46194885D01*
X103981344Y-46245311D01*
X104013300Y-46289617D01*
X104057547Y-46335952D01*
X104138024Y-46344102D01*
X104285108Y-46312156D01*
X104453689Y-46261890D01*
X104915639Y-46146071D01*
X105420900Y-46065902D01*
X105916653Y-46027646D01*
X106347272Y-46037306D01*
D10*
X229464000Y-144682000D02*
X242964000Y-144682000D01*
X229464000Y-137182000D02*
X229464000Y-144682000D01*
X242964000Y-137182000D02*
X229464000Y-137182000D01*
X242964000Y-144682000D02*
X242964000Y-137182000D01*
X211738000Y-91910000D02*
X211738000Y-93142000D01*
X211738000Y-97282000D02*
X211738000Y-98514000D01*
X178738000Y-97282000D02*
X178738000Y-98514000D01*
X212738000Y-99262000D02*
X205738000Y-99262000D01*
X212738000Y-97498000D02*
X212738000Y-99262000D01*
X212738000Y-91162000D02*
X205738000Y-91162000D01*
X212738000Y-91162000D02*
X212738000Y-92926000D01*
X205738000Y-91162000D02*
X205738000Y-92926000D01*
X205738000Y-97498000D02*
X205738000Y-99262000D01*
X177738000Y-99262000D02*
X184738000Y-99262000D01*
X184738000Y-92926000D02*
X184738000Y-91162000D01*
X184738000Y-99262000D02*
X184738000Y-97498000D01*
X177738000Y-92926000D02*
X177738000Y-91162000D01*
X178738000Y-91910000D02*
X178738000Y-93142000D01*
X177738000Y-91162000D02*
X184738000Y-91162000D01*
X177738000Y-99262000D02*
X177738000Y-97498000D01*
X177738000Y-134822000D02*
X177738000Y-133058000D01*
X177738000Y-126722000D02*
X184738000Y-126722000D01*
X178738000Y-127470000D02*
X178738000Y-128702000D01*
X177738000Y-128486000D02*
X177738000Y-126722000D01*
X184738000Y-134822000D02*
X184738000Y-133058000D01*
X184738000Y-128486000D02*
X184738000Y-126722000D01*
X177738000Y-134822000D02*
X184738000Y-134822000D01*
X205738000Y-133058000D02*
X205738000Y-134822000D01*
X205738000Y-126722000D02*
X205738000Y-128486000D01*
X212738000Y-126722000D02*
X212738000Y-128486000D01*
X212738000Y-126722000D02*
X205738000Y-126722000D01*
X212738000Y-133058000D02*
X212738000Y-134822000D01*
X212738000Y-134822000D02*
X205738000Y-134822000D01*
X178738000Y-132842000D02*
X178738000Y-134074000D01*
X211738000Y-132842000D02*
X211738000Y-134074000D01*
X211738000Y-127470000D02*
X211738000Y-128702000D01*
X50686000Y-67272000D02*
X50686000Y-66002000D01*
X51956000Y-67272000D02*
X50686000Y-67272000D01*
X65036000Y-64959071D02*
X65036000Y-64562000D01*
X64276000Y-64959071D02*
X64276000Y-64562000D01*
X65036000Y-55902000D02*
X65036000Y-61902000D01*
X64276000Y-55902000D02*
X65036000Y-55902000D01*
X64276000Y-61902000D02*
X64276000Y-55902000D01*
X63386000Y-64562000D02*
X63386000Y-61902000D01*
X62496000Y-64959071D02*
X62496000Y-64562000D01*
X61736000Y-64959071D02*
X61736000Y-64562000D01*
X62496000Y-55902000D02*
X62496000Y-61902000D01*
X61736000Y-55902000D02*
X62496000Y-55902000D01*
X61736000Y-61902000D02*
X61736000Y-55902000D01*
X60846000Y-64562000D02*
X60846000Y-61902000D01*
X59956000Y-64959071D02*
X59956000Y-64562000D01*
X59196000Y-64959071D02*
X59196000Y-64562000D01*
X59956000Y-55902000D02*
X59956000Y-61902000D01*
X59196000Y-55902000D02*
X59956000Y-55902000D01*
X59196000Y-61902000D02*
X59196000Y-55902000D01*
X58306000Y-64562000D02*
X58306000Y-61902000D01*
X57416000Y-64959071D02*
X57416000Y-64562000D01*
X56656000Y-64959071D02*
X56656000Y-64562000D01*
X57416000Y-55902000D02*
X57416000Y-61902000D01*
X56656000Y-55902000D02*
X57416000Y-55902000D01*
X56656000Y-61902000D02*
X56656000Y-55902000D01*
X55766000Y-64562000D02*
X55766000Y-61902000D01*
X54876000Y-64959071D02*
X54876000Y-64562000D01*
X54116000Y-64959071D02*
X54116000Y-64562000D01*
X54876000Y-55902000D02*
X54876000Y-61902000D01*
X54116000Y-55902000D02*
X54876000Y-55902000D01*
X54116000Y-61902000D02*
X54116000Y-55902000D01*
X53226000Y-64562000D02*
X53226000Y-61902000D01*
X52336000Y-64892000D02*
X52336000Y-64562000D01*
X51576000Y-64892000D02*
X51576000Y-64562000D01*
X52236000Y-61902000D02*
X52236000Y-55902000D01*
X52116000Y-61902000D02*
X52116000Y-55902000D01*
X51996000Y-61902000D02*
X51996000Y-55902000D01*
X51876000Y-61902000D02*
X51876000Y-55902000D01*
X51756000Y-61902000D02*
X51756000Y-55902000D01*
X51636000Y-61902000D02*
X51636000Y-55902000D01*
X52336000Y-55902000D02*
X52336000Y-61902000D01*
X51576000Y-55902000D02*
X52336000Y-55902000D01*
X51576000Y-61902000D02*
X51576000Y-55902000D01*
X50626000Y-61902000D02*
X50626000Y-64562000D01*
X65986000Y-61902000D02*
X50626000Y-61902000D01*
X65986000Y-64562000D02*
X65986000Y-61902000D01*
X50626000Y-64562000D02*
X65986000Y-64562000D01*
X242964000Y-109122000D02*
X242964000Y-101622000D01*
X242964000Y-101622000D02*
X229464000Y-101622000D01*
X229464000Y-101622000D02*
X229464000Y-109122000D01*
X229464000Y-109122000D02*
X242964000Y-109122000D01*
X218012000Y-82064000D02*
X218012000Y-80734000D01*
X219342000Y-82064000D02*
X218012000Y-82064000D01*
X220612000Y-82064000D02*
X220612000Y-79404000D01*
X220612000Y-79404000D02*
X223212000Y-79404000D01*
X220612000Y-82064000D02*
X223212000Y-82064000D01*
X223212000Y-82064000D02*
X223212000Y-79404000D01*
X218012000Y-86890000D02*
X218012000Y-85560000D01*
X219342000Y-86890000D02*
X218012000Y-86890000D01*
X220612000Y-86890000D02*
X220612000Y-84230000D01*
X220612000Y-84230000D02*
X223212000Y-84230000D01*
X220612000Y-86890000D02*
X223212000Y-86890000D01*
X223212000Y-86890000D02*
X223212000Y-84230000D01*
X223212000Y-91716000D02*
X223212000Y-89056000D01*
X220612000Y-91716000D02*
X223212000Y-91716000D01*
X220612000Y-89056000D02*
X223212000Y-89056000D01*
X220612000Y-91716000D02*
X220612000Y-89056000D01*
X219342000Y-91716000D02*
X218012000Y-91716000D01*
X218012000Y-91716000D02*
X218012000Y-90386000D01*
X218012000Y-96542000D02*
X218012000Y-95212000D01*
X219342000Y-96542000D02*
X218012000Y-96542000D01*
X220612000Y-96542000D02*
X220612000Y-93882000D01*
X220612000Y-93882000D02*
X223212000Y-93882000D01*
X220612000Y-96542000D02*
X223212000Y-96542000D01*
X223212000Y-96542000D02*
X223212000Y-93882000D01*
X223212000Y-117624000D02*
X223212000Y-114964000D01*
X220612000Y-117624000D02*
X223212000Y-117624000D01*
X220612000Y-114964000D02*
X223212000Y-114964000D01*
X220612000Y-117624000D02*
X220612000Y-114964000D01*
X219342000Y-117624000D02*
X218012000Y-117624000D01*
X218012000Y-117624000D02*
X218012000Y-116294000D01*
X223212000Y-122450000D02*
X223212000Y-119790000D01*
X220612000Y-122450000D02*
X223212000Y-122450000D01*
X220612000Y-119790000D02*
X223212000Y-119790000D01*
X220612000Y-122450000D02*
X220612000Y-119790000D01*
X219342000Y-122450000D02*
X218012000Y-122450000D01*
X218012000Y-122450000D02*
X218012000Y-121120000D01*
X223212000Y-127276000D02*
X223212000Y-124616000D01*
X220612000Y-127276000D02*
X223212000Y-127276000D01*
X220612000Y-124616000D02*
X223212000Y-124616000D01*
X220612000Y-127276000D02*
X220612000Y-124616000D01*
X219342000Y-127276000D02*
X218012000Y-127276000D01*
X218012000Y-127276000D02*
X218012000Y-125946000D01*
X218012000Y-132102000D02*
X218012000Y-130772000D01*
X219342000Y-132102000D02*
X218012000Y-132102000D01*
X220612000Y-132102000D02*
X220612000Y-129442000D01*
X220612000Y-129442000D02*
X223212000Y-129442000D01*
X220612000Y-132102000D02*
X223212000Y-132102000D01*
X223212000Y-132102000D02*
X223212000Y-129442000D01*
X90596000Y-124830000D02*
X90596000Y-125160000D01*
X97136000Y-124830000D02*
X90596000Y-124830000D01*
X97136000Y-125160000D02*
X97136000Y-124830000D01*
X90596000Y-127570000D02*
X90596000Y-127240000D01*
X97136000Y-127570000D02*
X90596000Y-127570000D01*
X97136000Y-127240000D02*
X97136000Y-127570000D01*
X97518000Y-135740000D02*
X97518000Y-131900000D01*
X99358000Y-135740000D02*
X99358000Y-131900000D01*
X104126000Y-135630000D02*
X103796000Y-135630000D01*
X104126000Y-142170000D02*
X104126000Y-135630000D01*
X103796000Y-142170000D02*
X104126000Y-142170000D01*
X101386000Y-135630000D02*
X101716000Y-135630000D01*
X101386000Y-142170000D02*
X101386000Y-135630000D01*
X101716000Y-142170000D02*
X101386000Y-142170000D01*
X101716000Y-132010000D02*
X101386000Y-132010000D01*
X101386000Y-132010000D02*
X101386000Y-125470000D01*
X101386000Y-125470000D02*
X101716000Y-125470000D01*
X103796000Y-132010000D02*
X104126000Y-132010000D01*
X104126000Y-132010000D02*
X104126000Y-125470000D01*
X104126000Y-125470000D02*
X103796000Y-125470000D01*
X99676000Y-110984000D02*
X99676000Y-111314000D01*
X99676000Y-111314000D02*
X93136000Y-111314000D01*
X93136000Y-111314000D02*
X93136000Y-110984000D01*
X99676000Y-108904000D02*
X99676000Y-108574000D01*
X99676000Y-108574000D02*
X93136000Y-108574000D01*
X93136000Y-108574000D02*
X93136000Y-108904000D01*
X104256000Y-110674000D02*
X103926000Y-110674000D01*
X103926000Y-110674000D02*
X103926000Y-104134000D01*
X103926000Y-104134000D02*
X104256000Y-104134000D01*
X106336000Y-110674000D02*
X106666000Y-110674000D01*
X106666000Y-110674000D02*
X106666000Y-104134000D01*
X106666000Y-104134000D02*
X106336000Y-104134000D01*
X104256000Y-100514000D02*
X103926000Y-100514000D01*
X103926000Y-100514000D02*
X103926000Y-93974000D01*
X103926000Y-93974000D02*
X104256000Y-93974000D01*
X106336000Y-100514000D02*
X106666000Y-100514000D01*
X106666000Y-100514000D02*
X106666000Y-93974000D01*
X106666000Y-93974000D02*
X106336000Y-93974000D01*
X101898000Y-104244000D02*
X101898000Y-100404000D01*
X100058000Y-104244000D02*
X100058000Y-100404000D01*
X232772000Y-81774000D02*
X232772000Y-82104000D01*
X232772000Y-82104000D02*
X226232000Y-82104000D01*
X226232000Y-82104000D02*
X226232000Y-81774000D01*
X232772000Y-79694000D02*
X232772000Y-79364000D01*
X232772000Y-79364000D02*
X226232000Y-79364000D01*
X226232000Y-79364000D02*
X226232000Y-79694000D01*
X226232000Y-84190000D02*
X226232000Y-84520000D01*
X232772000Y-84190000D02*
X226232000Y-84190000D01*
X232772000Y-84520000D02*
X232772000Y-84190000D01*
X226232000Y-86930000D02*
X226232000Y-86600000D01*
X232772000Y-86930000D02*
X226232000Y-86930000D01*
X232772000Y-86600000D02*
X232772000Y-86930000D01*
X232772000Y-91426000D02*
X232772000Y-91756000D01*
X232772000Y-91756000D02*
X226232000Y-91756000D01*
X226232000Y-91756000D02*
X226232000Y-91426000D01*
X232772000Y-89346000D02*
X232772000Y-89016000D01*
X232772000Y-89016000D02*
X226232000Y-89016000D01*
X226232000Y-89016000D02*
X226232000Y-89346000D01*
X226232000Y-93842000D02*
X226232000Y-94172000D01*
X232772000Y-93842000D02*
X226232000Y-93842000D01*
X232772000Y-94172000D02*
X232772000Y-93842000D01*
X226232000Y-96582000D02*
X226232000Y-96252000D01*
X232772000Y-96582000D02*
X226232000Y-96582000D01*
X232772000Y-96252000D02*
X232772000Y-96582000D01*
X232772000Y-117334000D02*
X232772000Y-117664000D01*
X232772000Y-117664000D02*
X226232000Y-117664000D01*
X226232000Y-117664000D02*
X226232000Y-117334000D01*
X232772000Y-115254000D02*
X232772000Y-114924000D01*
X232772000Y-114924000D02*
X226232000Y-114924000D01*
X226232000Y-114924000D02*
X226232000Y-115254000D01*
X232772000Y-122160000D02*
X232772000Y-122490000D01*
X232772000Y-122490000D02*
X226232000Y-122490000D01*
X226232000Y-122490000D02*
X226232000Y-122160000D01*
X232772000Y-120080000D02*
X232772000Y-119750000D01*
X232772000Y-119750000D02*
X226232000Y-119750000D01*
X226232000Y-119750000D02*
X226232000Y-120080000D01*
X226232000Y-124576000D02*
X226232000Y-124906000D01*
X232772000Y-124576000D02*
X226232000Y-124576000D01*
X232772000Y-124906000D02*
X232772000Y-124576000D01*
X226232000Y-127316000D02*
X226232000Y-126986000D01*
X232772000Y-127316000D02*
X226232000Y-127316000D01*
X232772000Y-126986000D02*
X232772000Y-127316000D01*
X232772000Y-131812000D02*
X232772000Y-132142000D01*
X232772000Y-132142000D02*
X226232000Y-132142000D01*
X226232000Y-132142000D02*
X226232000Y-131812000D01*
X232772000Y-129732000D02*
X232772000Y-129402000D01*
X232772000Y-129402000D02*
X226232000Y-129402000D01*
X226232000Y-129402000D02*
X226232000Y-129732000D01*
X121354000Y-55279000D02*
X121354000Y-42279000D01*
X121354000Y-42279000D02*
X129154000Y-42279000D01*
X129154000Y-55279000D02*
X129154000Y-42279000D01*
X121354000Y-55279000D02*
X129154000Y-55279000D01*
X128810000Y-53479000D02*
G75*
G03*
X128810000Y-53479000I-508000J0D01*
G01*
X106312000Y-122390000D02*
X106312000Y-113754000D01*
X106312000Y-113754000D02*
X96660000Y-113754000D01*
X96660000Y-113754000D02*
X96660000Y-122390000D01*
X96660000Y-122390000D02*
X106312000Y-122390000D01*
D11*
G36*
X104788000Y-112992000D02*
G01*
X105804000Y-112992000D01*
X105296000Y-113754000D01*
X104788000Y-112992000D01*
G37*
X104788000Y-112992000D02*
X105804000Y-112992000D01*
X105296000Y-113754000D01*
X104788000Y-112992000D01*
D10*
X105804000Y-116802000D02*
G75*
G03*
X105804000Y-116802000I-508000J0D01*
G01*
D13*
X51038095Y-73328380D02*
X51038095Y-74137904D01*
X51085714Y-74233142D01*
X51133333Y-74280761D01*
X51228571Y-74328380D01*
X51419047Y-74328380D01*
X51514285Y-74280761D01*
X51561904Y-74233142D01*
X51609523Y-74137904D01*
X51609523Y-73328380D01*
X52609523Y-74328380D02*
X52038095Y-74328380D01*
X52323809Y-74328380D02*
X52323809Y-73328380D01*
X52228571Y-73471238D01*
X52133333Y-73566476D01*
X52038095Y-73614095D01*
X50885714Y-100966666D02*
X51361904Y-100966666D01*
X50790476Y-101252380D02*
X51123809Y-100252380D01*
X51457142Y-101252380D01*
X52314285Y-101252380D02*
X51742857Y-101252380D01*
X52028571Y-101252380D02*
X52028571Y-100252380D01*
X51933333Y-100395238D01*
X51838095Y-100490476D01*
X51742857Y-100538095D01*
X114538095Y-118352380D02*
X114538095Y-119161904D01*
X114585714Y-119257142D01*
X114633333Y-119304761D01*
X114728571Y-119352380D01*
X114919047Y-119352380D01*
X115014285Y-119304761D01*
X115061904Y-119257142D01*
X115109523Y-119161904D01*
X115109523Y-118352380D01*
X116061904Y-118352380D02*
X115585714Y-118352380D01*
X115538095Y-118828571D01*
X115585714Y-118780952D01*
X115680952Y-118733333D01*
X115919047Y-118733333D01*
X116014285Y-118780952D01*
X116061904Y-118828571D01*
X116109523Y-118923809D01*
X116109523Y-119161904D01*
X116061904Y-119257142D01*
X116014285Y-119304761D01*
X115919047Y-119352380D01*
X115680952Y-119352380D01*
X115585714Y-119304761D01*
X115538095Y-119257142D01*
X112338095Y-84352380D02*
X112338095Y-85161904D01*
X112385714Y-85257142D01*
X112433333Y-85304761D01*
X112528571Y-85352380D01*
X112719047Y-85352380D01*
X112814285Y-85304761D01*
X112861904Y-85257142D01*
X112909523Y-85161904D01*
X112909523Y-84352380D01*
X113814285Y-84685714D02*
X113814285Y-85352380D01*
X113576190Y-84304761D02*
X113338095Y-85019047D01*
X113957142Y-85019047D01*
X153714285Y-41228571D02*
X153857142Y-41276190D01*
X153904761Y-41323809D01*
X153952380Y-41419047D01*
X153952380Y-41561904D01*
X153904761Y-41657142D01*
X153857142Y-41704761D01*
X153761904Y-41752380D01*
X153380952Y-41752380D01*
X153380952Y-40752380D01*
X153714285Y-40752380D01*
X153809523Y-40800000D01*
X153857142Y-40847619D01*
X153904761Y-40942857D01*
X153904761Y-41038095D01*
X153857142Y-41133333D01*
X153809523Y-41180952D01*
X153714285Y-41228571D01*
X153380952Y-41228571D01*
X154238095Y-40752380D02*
X154809523Y-40752380D01*
X154523809Y-41752380D02*
X154523809Y-40752380D01*
X155666666Y-41752380D02*
X155095238Y-41752380D01*
X155380952Y-41752380D02*
X155380952Y-40752380D01*
X155285714Y-40895238D01*
X155190476Y-40990476D01*
X155095238Y-41038095D01*
X226050095Y-52921857D02*
X227573904Y-52921857D01*
X154050095Y-52921857D02*
X155573904Y-52921857D01*
X154812000Y-53683761D02*
X154812000Y-52159952D01*
X227966666Y-137252380D02*
X227966666Y-137966666D01*
X227919047Y-138109523D01*
X227823809Y-138204761D01*
X227680952Y-138252380D01*
X227585714Y-138252380D01*
X228347619Y-137252380D02*
X228966666Y-137252380D01*
X228633333Y-137633333D01*
X228776190Y-137633333D01*
X228871428Y-137680952D01*
X228919047Y-137728571D01*
X228966666Y-137823809D01*
X228966666Y-138061904D01*
X228919047Y-138157142D01*
X228871428Y-138204761D01*
X228776190Y-138252380D01*
X228490476Y-138252380D01*
X228395238Y-138204761D01*
X228347619Y-138157142D01*
X178166666Y-90128571D02*
X177833333Y-90128571D01*
X177833333Y-90652380D02*
X177833333Y-89652380D01*
X178309523Y-89652380D01*
X179214285Y-90652380D02*
X178642857Y-90652380D01*
X178928571Y-90652380D02*
X178928571Y-89652380D01*
X178833333Y-89795238D01*
X178738095Y-89890476D01*
X178642857Y-89938095D01*
X178166666Y-125628571D02*
X177833333Y-125628571D01*
X177833333Y-126152380D02*
X177833333Y-125152380D01*
X178309523Y-125152380D01*
X178642857Y-125247619D02*
X178690476Y-125200000D01*
X178785714Y-125152380D01*
X179023809Y-125152380D01*
X179119047Y-125200000D01*
X179166666Y-125247619D01*
X179214285Y-125342857D01*
X179214285Y-125438095D01*
X179166666Y-125580952D01*
X178595238Y-126152380D01*
X179214285Y-126152380D01*
X50606666Y-53952380D02*
X50606666Y-54666666D01*
X50559047Y-54809523D01*
X50463809Y-54904761D01*
X50320952Y-54952380D01*
X50225714Y-54952380D01*
X51606666Y-54952380D02*
X51035238Y-54952380D01*
X51320952Y-54952380D02*
X51320952Y-53952380D01*
X51225714Y-54095238D01*
X51130476Y-54190476D01*
X51035238Y-54238095D01*
X227966666Y-101652380D02*
X227966666Y-102366666D01*
X227919047Y-102509523D01*
X227823809Y-102604761D01*
X227680952Y-102652380D01*
X227585714Y-102652380D01*
X228395238Y-101747619D02*
X228442857Y-101700000D01*
X228538095Y-101652380D01*
X228776190Y-101652380D01*
X228871428Y-101700000D01*
X228919047Y-101747619D01*
X228966666Y-101842857D01*
X228966666Y-101938095D01*
X228919047Y-102080952D01*
X228347619Y-102652380D01*
X228966666Y-102652380D01*
X215266666Y-79344380D02*
X215266666Y-80058666D01*
X215219047Y-80201523D01*
X215123809Y-80296761D01*
X214980952Y-80344380D01*
X214885714Y-80344380D01*
X215742857Y-80344380D02*
X215742857Y-79344380D01*
X216123809Y-79344380D01*
X216219047Y-79392000D01*
X216266666Y-79439619D01*
X216314285Y-79534857D01*
X216314285Y-79677714D01*
X216266666Y-79772952D01*
X216219047Y-79820571D01*
X216123809Y-79868190D01*
X215742857Y-79868190D01*
X217266666Y-80344380D02*
X216695238Y-80344380D01*
X216980952Y-80344380D02*
X216980952Y-79344380D01*
X216885714Y-79487238D01*
X216790476Y-79582476D01*
X216695238Y-79630095D01*
X215266666Y-84298380D02*
X215266666Y-85012666D01*
X215219047Y-85155523D01*
X215123809Y-85250761D01*
X214980952Y-85298380D01*
X214885714Y-85298380D01*
X215742857Y-85298380D02*
X215742857Y-84298380D01*
X216123809Y-84298380D01*
X216219047Y-84346000D01*
X216266666Y-84393619D01*
X216314285Y-84488857D01*
X216314285Y-84631714D01*
X216266666Y-84726952D01*
X216219047Y-84774571D01*
X216123809Y-84822190D01*
X215742857Y-84822190D01*
X216695238Y-84393619D02*
X216742857Y-84346000D01*
X216838095Y-84298380D01*
X217076190Y-84298380D01*
X217171428Y-84346000D01*
X217219047Y-84393619D01*
X217266666Y-84488857D01*
X217266666Y-84584095D01*
X217219047Y-84726952D01*
X216647619Y-85298380D01*
X217266666Y-85298380D01*
X215266666Y-89152380D02*
X215266666Y-89866666D01*
X215219047Y-90009523D01*
X215123809Y-90104761D01*
X214980952Y-90152380D01*
X214885714Y-90152380D01*
X215742857Y-90152380D02*
X215742857Y-89152380D01*
X216123809Y-89152380D01*
X216219047Y-89200000D01*
X216266666Y-89247619D01*
X216314285Y-89342857D01*
X216314285Y-89485714D01*
X216266666Y-89580952D01*
X216219047Y-89628571D01*
X216123809Y-89676190D01*
X215742857Y-89676190D01*
X216647619Y-89152380D02*
X217266666Y-89152380D01*
X216933333Y-89533333D01*
X217076190Y-89533333D01*
X217171428Y-89580952D01*
X217219047Y-89628571D01*
X217266666Y-89723809D01*
X217266666Y-89961904D01*
X217219047Y-90057142D01*
X217171428Y-90104761D01*
X217076190Y-90152380D01*
X216790476Y-90152380D01*
X216695238Y-90104761D01*
X216647619Y-90057142D01*
X215266666Y-93952380D02*
X215266666Y-94666666D01*
X215219047Y-94809523D01*
X215123809Y-94904761D01*
X214980952Y-94952380D01*
X214885714Y-94952380D01*
X215742857Y-94952380D02*
X215742857Y-93952380D01*
X216123809Y-93952380D01*
X216219047Y-94000000D01*
X216266666Y-94047619D01*
X216314285Y-94142857D01*
X216314285Y-94285714D01*
X216266666Y-94380952D01*
X216219047Y-94428571D01*
X216123809Y-94476190D01*
X215742857Y-94476190D01*
X217171428Y-94285714D02*
X217171428Y-94952380D01*
X216933333Y-93904761D02*
X216695238Y-94619047D01*
X217314285Y-94619047D01*
X215266666Y-115052380D02*
X215266666Y-115766666D01*
X215219047Y-115909523D01*
X215123809Y-116004761D01*
X214980952Y-116052380D01*
X214885714Y-116052380D01*
X215742857Y-116052380D02*
X215742857Y-115052380D01*
X216123809Y-115052380D01*
X216219047Y-115100000D01*
X216266666Y-115147619D01*
X216314285Y-115242857D01*
X216314285Y-115385714D01*
X216266666Y-115480952D01*
X216219047Y-115528571D01*
X216123809Y-115576190D01*
X215742857Y-115576190D01*
X217219047Y-115052380D02*
X216742857Y-115052380D01*
X216695238Y-115528571D01*
X216742857Y-115480952D01*
X216838095Y-115433333D01*
X217076190Y-115433333D01*
X217171428Y-115480952D01*
X217219047Y-115528571D01*
X217266666Y-115623809D01*
X217266666Y-115861904D01*
X217219047Y-115957142D01*
X217171428Y-116004761D01*
X217076190Y-116052380D01*
X216838095Y-116052380D01*
X216742857Y-116004761D01*
X216695238Y-115957142D01*
X215266666Y-119852380D02*
X215266666Y-120566666D01*
X215219047Y-120709523D01*
X215123809Y-120804761D01*
X214980952Y-120852380D01*
X214885714Y-120852380D01*
X215742857Y-120852380D02*
X215742857Y-119852380D01*
X216123809Y-119852380D01*
X216219047Y-119900000D01*
X216266666Y-119947619D01*
X216314285Y-120042857D01*
X216314285Y-120185714D01*
X216266666Y-120280952D01*
X216219047Y-120328571D01*
X216123809Y-120376190D01*
X215742857Y-120376190D01*
X217171428Y-119852380D02*
X216980952Y-119852380D01*
X216885714Y-119900000D01*
X216838095Y-119947619D01*
X216742857Y-120090476D01*
X216695238Y-120280952D01*
X216695238Y-120661904D01*
X216742857Y-120757142D01*
X216790476Y-120804761D01*
X216885714Y-120852380D01*
X217076190Y-120852380D01*
X217171428Y-120804761D01*
X217219047Y-120757142D01*
X217266666Y-120661904D01*
X217266666Y-120423809D01*
X217219047Y-120328571D01*
X217171428Y-120280952D01*
X217076190Y-120233333D01*
X216885714Y-120233333D01*
X216790476Y-120280952D01*
X216742857Y-120328571D01*
X216695238Y-120423809D01*
X215166666Y-124652380D02*
X215166666Y-125366666D01*
X215119047Y-125509523D01*
X215023809Y-125604761D01*
X214880952Y-125652380D01*
X214785714Y-125652380D01*
X215642857Y-125652380D02*
X215642857Y-124652380D01*
X216023809Y-124652380D01*
X216119047Y-124700000D01*
X216166666Y-124747619D01*
X216214285Y-124842857D01*
X216214285Y-124985714D01*
X216166666Y-125080952D01*
X216119047Y-125128571D01*
X216023809Y-125176190D01*
X215642857Y-125176190D01*
X216547619Y-124652380D02*
X217214285Y-124652380D01*
X216785714Y-125652380D01*
X215166666Y-129452380D02*
X215166666Y-130166666D01*
X215119047Y-130309523D01*
X215023809Y-130404761D01*
X214880952Y-130452380D01*
X214785714Y-130452380D01*
X215642857Y-130452380D02*
X215642857Y-129452380D01*
X216023809Y-129452380D01*
X216119047Y-129500000D01*
X216166666Y-129547619D01*
X216214285Y-129642857D01*
X216214285Y-129785714D01*
X216166666Y-129880952D01*
X216119047Y-129928571D01*
X216023809Y-129976190D01*
X215642857Y-129976190D01*
X216785714Y-129880952D02*
X216690476Y-129833333D01*
X216642857Y-129785714D01*
X216595238Y-129690476D01*
X216595238Y-129642857D01*
X216642857Y-129547619D01*
X216690476Y-129500000D01*
X216785714Y-129452380D01*
X216976190Y-129452380D01*
X217071428Y-129500000D01*
X217119047Y-129547619D01*
X217166666Y-129642857D01*
X217166666Y-129690476D01*
X217119047Y-129785714D01*
X217071428Y-129833333D01*
X216976190Y-129880952D01*
X216785714Y-129880952D01*
X216690476Y-129928571D01*
X216642857Y-129976190D01*
X216595238Y-130071428D01*
X216595238Y-130261904D01*
X216642857Y-130357142D01*
X216690476Y-130404761D01*
X216785714Y-130452380D01*
X216976190Y-130452380D01*
X217071428Y-130404761D01*
X217119047Y-130357142D01*
X217166666Y-130261904D01*
X217166666Y-130071428D01*
X217119047Y-129976190D01*
X217071428Y-129928571D01*
X216976190Y-129880952D01*
X91233333Y-124352380D02*
X90900000Y-123876190D01*
X90661904Y-124352380D02*
X90661904Y-123352380D01*
X91042857Y-123352380D01*
X91138095Y-123400000D01*
X91185714Y-123447619D01*
X91233333Y-123542857D01*
X91233333Y-123685714D01*
X91185714Y-123780952D01*
X91138095Y-123828571D01*
X91042857Y-123876190D01*
X90661904Y-123876190D01*
X91804761Y-123780952D02*
X91709523Y-123733333D01*
X91661904Y-123685714D01*
X91614285Y-123590476D01*
X91614285Y-123542857D01*
X91661904Y-123447619D01*
X91709523Y-123400000D01*
X91804761Y-123352380D01*
X91995238Y-123352380D01*
X92090476Y-123400000D01*
X92138095Y-123447619D01*
X92185714Y-123542857D01*
X92185714Y-123590476D01*
X92138095Y-123685714D01*
X92090476Y-123733333D01*
X91995238Y-123780952D01*
X91804761Y-123780952D01*
X91709523Y-123828571D01*
X91661904Y-123876190D01*
X91614285Y-123971428D01*
X91614285Y-124161904D01*
X91661904Y-124257142D01*
X91709523Y-124304761D01*
X91804761Y-124352380D01*
X91995238Y-124352380D01*
X92090476Y-124304761D01*
X92138095Y-124257142D01*
X92185714Y-124161904D01*
X92185714Y-123971428D01*
X92138095Y-123876190D01*
X92090476Y-123828571D01*
X91995238Y-123780952D01*
X98033333Y-130052380D02*
X97700000Y-129576190D01*
X97461904Y-130052380D02*
X97461904Y-129052380D01*
X97842857Y-129052380D01*
X97938095Y-129100000D01*
X97985714Y-129147619D01*
X98033333Y-129242857D01*
X98033333Y-129385714D01*
X97985714Y-129480952D01*
X97938095Y-129528571D01*
X97842857Y-129576190D01*
X97461904Y-129576190D01*
X98509523Y-130052380D02*
X98700000Y-130052380D01*
X98795238Y-130004761D01*
X98842857Y-129957142D01*
X98938095Y-129814285D01*
X98985714Y-129623809D01*
X98985714Y-129242857D01*
X98938095Y-129147619D01*
X98890476Y-129100000D01*
X98795238Y-129052380D01*
X98604761Y-129052380D01*
X98509523Y-129100000D01*
X98461904Y-129147619D01*
X98414285Y-129242857D01*
X98414285Y-129480952D01*
X98461904Y-129576190D01*
X98509523Y-129623809D01*
X98604761Y-129671428D01*
X98795238Y-129671428D01*
X98890476Y-129623809D01*
X98938095Y-129576190D01*
X98985714Y-129480952D01*
X105157142Y-136652380D02*
X104823809Y-136176190D01*
X104585714Y-136652380D02*
X104585714Y-135652380D01*
X104966666Y-135652380D01*
X105061904Y-135700000D01*
X105109523Y-135747619D01*
X105157142Y-135842857D01*
X105157142Y-135985714D01*
X105109523Y-136080952D01*
X105061904Y-136128571D01*
X104966666Y-136176190D01*
X104585714Y-136176190D01*
X106109523Y-136652380D02*
X105538095Y-136652380D01*
X105823809Y-136652380D02*
X105823809Y-135652380D01*
X105728571Y-135795238D01*
X105633333Y-135890476D01*
X105538095Y-135938095D01*
X106728571Y-135652380D02*
X106823809Y-135652380D01*
X106919047Y-135700000D01*
X106966666Y-135747619D01*
X107014285Y-135842857D01*
X107061904Y-136033333D01*
X107061904Y-136271428D01*
X107014285Y-136461904D01*
X106966666Y-136557142D01*
X106919047Y-136604761D01*
X106823809Y-136652380D01*
X106728571Y-136652380D01*
X106633333Y-136604761D01*
X106585714Y-136557142D01*
X106538095Y-136461904D01*
X106490476Y-136271428D01*
X106490476Y-136033333D01*
X106538095Y-135842857D01*
X106585714Y-135747619D01*
X106633333Y-135700000D01*
X106728571Y-135652380D01*
X105157142Y-126452380D02*
X104823809Y-125976190D01*
X104585714Y-126452380D02*
X104585714Y-125452380D01*
X104966666Y-125452380D01*
X105061904Y-125500000D01*
X105109523Y-125547619D01*
X105157142Y-125642857D01*
X105157142Y-125785714D01*
X105109523Y-125880952D01*
X105061904Y-125928571D01*
X104966666Y-125976190D01*
X104585714Y-125976190D01*
X106109523Y-126452380D02*
X105538095Y-126452380D01*
X105823809Y-126452380D02*
X105823809Y-125452380D01*
X105728571Y-125595238D01*
X105633333Y-125690476D01*
X105538095Y-125738095D01*
X107061904Y-126452380D02*
X106490476Y-126452380D01*
X106776190Y-126452380D02*
X106776190Y-125452380D01*
X106680952Y-125595238D01*
X106585714Y-125690476D01*
X106490476Y-125738095D01*
X93757142Y-108052380D02*
X93423809Y-107576190D01*
X93185714Y-108052380D02*
X93185714Y-107052380D01*
X93566666Y-107052380D01*
X93661904Y-107100000D01*
X93709523Y-107147619D01*
X93757142Y-107242857D01*
X93757142Y-107385714D01*
X93709523Y-107480952D01*
X93661904Y-107528571D01*
X93566666Y-107576190D01*
X93185714Y-107576190D01*
X94709523Y-108052380D02*
X94138095Y-108052380D01*
X94423809Y-108052380D02*
X94423809Y-107052380D01*
X94328571Y-107195238D01*
X94233333Y-107290476D01*
X94138095Y-107338095D01*
X95090476Y-107147619D02*
X95138095Y-107100000D01*
X95233333Y-107052380D01*
X95471428Y-107052380D01*
X95566666Y-107100000D01*
X95614285Y-107147619D01*
X95661904Y-107242857D01*
X95661904Y-107338095D01*
X95614285Y-107480952D01*
X95042857Y-108052380D01*
X95661904Y-108052380D01*
X107657142Y-105152380D02*
X107323809Y-104676190D01*
X107085714Y-105152380D02*
X107085714Y-104152380D01*
X107466666Y-104152380D01*
X107561904Y-104200000D01*
X107609523Y-104247619D01*
X107657142Y-104342857D01*
X107657142Y-104485714D01*
X107609523Y-104580952D01*
X107561904Y-104628571D01*
X107466666Y-104676190D01*
X107085714Y-104676190D01*
X108609523Y-105152380D02*
X108038095Y-105152380D01*
X108323809Y-105152380D02*
X108323809Y-104152380D01*
X108228571Y-104295238D01*
X108133333Y-104390476D01*
X108038095Y-104438095D01*
X108942857Y-104152380D02*
X109561904Y-104152380D01*
X109228571Y-104533333D01*
X109371428Y-104533333D01*
X109466666Y-104580952D01*
X109514285Y-104628571D01*
X109561904Y-104723809D01*
X109561904Y-104961904D01*
X109514285Y-105057142D01*
X109466666Y-105104761D01*
X109371428Y-105152380D01*
X109085714Y-105152380D01*
X108990476Y-105104761D01*
X108942857Y-105057142D01*
X107657142Y-95052380D02*
X107323809Y-94576190D01*
X107085714Y-95052380D02*
X107085714Y-94052380D01*
X107466666Y-94052380D01*
X107561904Y-94100000D01*
X107609523Y-94147619D01*
X107657142Y-94242857D01*
X107657142Y-94385714D01*
X107609523Y-94480952D01*
X107561904Y-94528571D01*
X107466666Y-94576190D01*
X107085714Y-94576190D01*
X108609523Y-95052380D02*
X108038095Y-95052380D01*
X108323809Y-95052380D02*
X108323809Y-94052380D01*
X108228571Y-94195238D01*
X108133333Y-94290476D01*
X108038095Y-94338095D01*
X109466666Y-94385714D02*
X109466666Y-95052380D01*
X109228571Y-94004761D02*
X108990476Y-94719047D01*
X109609523Y-94719047D01*
X100557142Y-98552380D02*
X100223809Y-98076190D01*
X99985714Y-98552380D02*
X99985714Y-97552380D01*
X100366666Y-97552380D01*
X100461904Y-97600000D01*
X100509523Y-97647619D01*
X100557142Y-97742857D01*
X100557142Y-97885714D01*
X100509523Y-97980952D01*
X100461904Y-98028571D01*
X100366666Y-98076190D01*
X99985714Y-98076190D01*
X101509523Y-98552380D02*
X100938095Y-98552380D01*
X101223809Y-98552380D02*
X101223809Y-97552380D01*
X101128571Y-97695238D01*
X101033333Y-97790476D01*
X100938095Y-97838095D01*
X102414285Y-97552380D02*
X101938095Y-97552380D01*
X101890476Y-98028571D01*
X101938095Y-97980952D01*
X102033333Y-97933333D01*
X102271428Y-97933333D01*
X102366666Y-97980952D01*
X102414285Y-98028571D01*
X102461904Y-98123809D01*
X102461904Y-98361904D01*
X102414285Y-98457142D01*
X102366666Y-98504761D01*
X102271428Y-98552380D01*
X102033333Y-98552380D01*
X101938095Y-98504761D01*
X101890476Y-98457142D01*
X226857142Y-78944380D02*
X226523809Y-78468190D01*
X226285714Y-78944380D02*
X226285714Y-77944380D01*
X226666666Y-77944380D01*
X226761904Y-77992000D01*
X226809523Y-78039619D01*
X226857142Y-78134857D01*
X226857142Y-78277714D01*
X226809523Y-78372952D01*
X226761904Y-78420571D01*
X226666666Y-78468190D01*
X226285714Y-78468190D01*
X227809523Y-78944380D02*
X227238095Y-78944380D01*
X227523809Y-78944380D02*
X227523809Y-77944380D01*
X227428571Y-78087238D01*
X227333333Y-78182476D01*
X227238095Y-78230095D01*
X228380952Y-78372952D02*
X228285714Y-78325333D01*
X228238095Y-78277714D01*
X228190476Y-78182476D01*
X228190476Y-78134857D01*
X228238095Y-78039619D01*
X228285714Y-77992000D01*
X228380952Y-77944380D01*
X228571428Y-77944380D01*
X228666666Y-77992000D01*
X228714285Y-78039619D01*
X228761904Y-78134857D01*
X228761904Y-78182476D01*
X228714285Y-78277714D01*
X228666666Y-78325333D01*
X228571428Y-78372952D01*
X228380952Y-78372952D01*
X228285714Y-78420571D01*
X228238095Y-78468190D01*
X228190476Y-78563428D01*
X228190476Y-78753904D01*
X228238095Y-78849142D01*
X228285714Y-78896761D01*
X228380952Y-78944380D01*
X228571428Y-78944380D01*
X228666666Y-78896761D01*
X228714285Y-78849142D01*
X228761904Y-78753904D01*
X228761904Y-78563428D01*
X228714285Y-78468190D01*
X228666666Y-78420571D01*
X228571428Y-78372952D01*
X226857142Y-83752380D02*
X226523809Y-83276190D01*
X226285714Y-83752380D02*
X226285714Y-82752380D01*
X226666666Y-82752380D01*
X226761904Y-82800000D01*
X226809523Y-82847619D01*
X226857142Y-82942857D01*
X226857142Y-83085714D01*
X226809523Y-83180952D01*
X226761904Y-83228571D01*
X226666666Y-83276190D01*
X226285714Y-83276190D01*
X227809523Y-83752380D02*
X227238095Y-83752380D01*
X227523809Y-83752380D02*
X227523809Y-82752380D01*
X227428571Y-82895238D01*
X227333333Y-82990476D01*
X227238095Y-83038095D01*
X228285714Y-83752380D02*
X228476190Y-83752380D01*
X228571428Y-83704761D01*
X228619047Y-83657142D01*
X228714285Y-83514285D01*
X228761904Y-83323809D01*
X228761904Y-82942857D01*
X228714285Y-82847619D01*
X228666666Y-82800000D01*
X228571428Y-82752380D01*
X228380952Y-82752380D01*
X228285714Y-82800000D01*
X228238095Y-82847619D01*
X228190476Y-82942857D01*
X228190476Y-83180952D01*
X228238095Y-83276190D01*
X228285714Y-83323809D01*
X228380952Y-83371428D01*
X228571428Y-83371428D01*
X228666666Y-83323809D01*
X228714285Y-83276190D01*
X228761904Y-83180952D01*
X226857142Y-88652380D02*
X226523809Y-88176190D01*
X226285714Y-88652380D02*
X226285714Y-87652380D01*
X226666666Y-87652380D01*
X226761904Y-87700000D01*
X226809523Y-87747619D01*
X226857142Y-87842857D01*
X226857142Y-87985714D01*
X226809523Y-88080952D01*
X226761904Y-88128571D01*
X226666666Y-88176190D01*
X226285714Y-88176190D01*
X227238095Y-87747619D02*
X227285714Y-87700000D01*
X227380952Y-87652380D01*
X227619047Y-87652380D01*
X227714285Y-87700000D01*
X227761904Y-87747619D01*
X227809523Y-87842857D01*
X227809523Y-87938095D01*
X227761904Y-88080952D01*
X227190476Y-88652380D01*
X227809523Y-88652380D01*
X228428571Y-87652380D02*
X228523809Y-87652380D01*
X228619047Y-87700000D01*
X228666666Y-87747619D01*
X228714285Y-87842857D01*
X228761904Y-88033333D01*
X228761904Y-88271428D01*
X228714285Y-88461904D01*
X228666666Y-88557142D01*
X228619047Y-88604761D01*
X228523809Y-88652380D01*
X228428571Y-88652380D01*
X228333333Y-88604761D01*
X228285714Y-88557142D01*
X228238095Y-88461904D01*
X228190476Y-88271428D01*
X228190476Y-88033333D01*
X228238095Y-87842857D01*
X228285714Y-87747619D01*
X228333333Y-87700000D01*
X228428571Y-87652380D01*
X226857142Y-93452380D02*
X226523809Y-92976190D01*
X226285714Y-93452380D02*
X226285714Y-92452380D01*
X226666666Y-92452380D01*
X226761904Y-92500000D01*
X226809523Y-92547619D01*
X226857142Y-92642857D01*
X226857142Y-92785714D01*
X226809523Y-92880952D01*
X226761904Y-92928571D01*
X226666666Y-92976190D01*
X226285714Y-92976190D01*
X227238095Y-92547619D02*
X227285714Y-92500000D01*
X227380952Y-92452380D01*
X227619047Y-92452380D01*
X227714285Y-92500000D01*
X227761904Y-92547619D01*
X227809523Y-92642857D01*
X227809523Y-92738095D01*
X227761904Y-92880952D01*
X227190476Y-93452380D01*
X227809523Y-93452380D01*
X228761904Y-93452380D02*
X228190476Y-93452380D01*
X228476190Y-93452380D02*
X228476190Y-92452380D01*
X228380952Y-92595238D01*
X228285714Y-92690476D01*
X228190476Y-92738095D01*
X226857142Y-114552380D02*
X226523809Y-114076190D01*
X226285714Y-114552380D02*
X226285714Y-113552380D01*
X226666666Y-113552380D01*
X226761904Y-113600000D01*
X226809523Y-113647619D01*
X226857142Y-113742857D01*
X226857142Y-113885714D01*
X226809523Y-113980952D01*
X226761904Y-114028571D01*
X226666666Y-114076190D01*
X226285714Y-114076190D01*
X227238095Y-113647619D02*
X227285714Y-113600000D01*
X227380952Y-113552380D01*
X227619047Y-113552380D01*
X227714285Y-113600000D01*
X227761904Y-113647619D01*
X227809523Y-113742857D01*
X227809523Y-113838095D01*
X227761904Y-113980952D01*
X227190476Y-114552380D01*
X227809523Y-114552380D01*
X228190476Y-113647619D02*
X228238095Y-113600000D01*
X228333333Y-113552380D01*
X228571428Y-113552380D01*
X228666666Y-113600000D01*
X228714285Y-113647619D01*
X228761904Y-113742857D01*
X228761904Y-113838095D01*
X228714285Y-113980952D01*
X228142857Y-114552380D01*
X228761904Y-114552380D01*
X226857142Y-119352380D02*
X226523809Y-118876190D01*
X226285714Y-119352380D02*
X226285714Y-118352380D01*
X226666666Y-118352380D01*
X226761904Y-118400000D01*
X226809523Y-118447619D01*
X226857142Y-118542857D01*
X226857142Y-118685714D01*
X226809523Y-118780952D01*
X226761904Y-118828571D01*
X226666666Y-118876190D01*
X226285714Y-118876190D01*
X227238095Y-118447619D02*
X227285714Y-118400000D01*
X227380952Y-118352380D01*
X227619047Y-118352380D01*
X227714285Y-118400000D01*
X227761904Y-118447619D01*
X227809523Y-118542857D01*
X227809523Y-118638095D01*
X227761904Y-118780952D01*
X227190476Y-119352380D01*
X227809523Y-119352380D01*
X228142857Y-118352380D02*
X228761904Y-118352380D01*
X228428571Y-118733333D01*
X228571428Y-118733333D01*
X228666666Y-118780952D01*
X228714285Y-118828571D01*
X228761904Y-118923809D01*
X228761904Y-119161904D01*
X228714285Y-119257142D01*
X228666666Y-119304761D01*
X228571428Y-119352380D01*
X228285714Y-119352380D01*
X228190476Y-119304761D01*
X228142857Y-119257142D01*
X226857142Y-124152380D02*
X226523809Y-123676190D01*
X226285714Y-124152380D02*
X226285714Y-123152380D01*
X226666666Y-123152380D01*
X226761904Y-123200000D01*
X226809523Y-123247619D01*
X226857142Y-123342857D01*
X226857142Y-123485714D01*
X226809523Y-123580952D01*
X226761904Y-123628571D01*
X226666666Y-123676190D01*
X226285714Y-123676190D01*
X227238095Y-123247619D02*
X227285714Y-123200000D01*
X227380952Y-123152380D01*
X227619047Y-123152380D01*
X227714285Y-123200000D01*
X227761904Y-123247619D01*
X227809523Y-123342857D01*
X227809523Y-123438095D01*
X227761904Y-123580952D01*
X227190476Y-124152380D01*
X227809523Y-124152380D01*
X228666666Y-123485714D02*
X228666666Y-124152380D01*
X228428571Y-123104761D02*
X228190476Y-123819047D01*
X228809523Y-123819047D01*
X226857142Y-129052380D02*
X226523809Y-128576190D01*
X226285714Y-129052380D02*
X226285714Y-128052380D01*
X226666666Y-128052380D01*
X226761904Y-128100000D01*
X226809523Y-128147619D01*
X226857142Y-128242857D01*
X226857142Y-128385714D01*
X226809523Y-128480952D01*
X226761904Y-128528571D01*
X226666666Y-128576190D01*
X226285714Y-128576190D01*
X227238095Y-128147619D02*
X227285714Y-128100000D01*
X227380952Y-128052380D01*
X227619047Y-128052380D01*
X227714285Y-128100000D01*
X227761904Y-128147619D01*
X227809523Y-128242857D01*
X227809523Y-128338095D01*
X227761904Y-128480952D01*
X227190476Y-129052380D01*
X227809523Y-129052380D01*
X228714285Y-128052380D02*
X228238095Y-128052380D01*
X228190476Y-128528571D01*
X228238095Y-128480952D01*
X228333333Y-128433333D01*
X228571428Y-128433333D01*
X228666666Y-128480952D01*
X228714285Y-128528571D01*
X228761904Y-128623809D01*
X228761904Y-128861904D01*
X228714285Y-128957142D01*
X228666666Y-129004761D01*
X228571428Y-129052380D01*
X228333333Y-129052380D01*
X228238095Y-129004761D01*
X228190476Y-128957142D01*
X121366666Y-41704761D02*
X121509523Y-41752380D01*
X121747619Y-41752380D01*
X121842857Y-41704761D01*
X121890476Y-41657142D01*
X121938095Y-41561904D01*
X121938095Y-41466666D01*
X121890476Y-41371428D01*
X121842857Y-41323809D01*
X121747619Y-41276190D01*
X121557142Y-41228571D01*
X121461904Y-41180952D01*
X121414285Y-41133333D01*
X121366666Y-41038095D01*
X121366666Y-40942857D01*
X121414285Y-40847619D01*
X121461904Y-40800000D01*
X121557142Y-40752380D01*
X121795238Y-40752380D01*
X121938095Y-40800000D01*
X122271428Y-40752380D02*
X122509523Y-41752380D01*
X122700000Y-41038095D01*
X122890476Y-41752380D01*
X123128571Y-40752380D01*
X124033333Y-41752380D02*
X123461904Y-41752380D01*
X123747619Y-41752380D02*
X123747619Y-40752380D01*
X123652380Y-40895238D01*
X123557142Y-40990476D01*
X123461904Y-41038095D01*
X96738095Y-112352380D02*
X96738095Y-113161904D01*
X96785714Y-113257142D01*
X96833333Y-113304761D01*
X96928571Y-113352380D01*
X97119047Y-113352380D01*
X97214285Y-113304761D01*
X97261904Y-113257142D01*
X97309523Y-113161904D01*
X97309523Y-112352380D01*
X97690476Y-112352380D02*
X98309523Y-112352380D01*
X97976190Y-112733333D01*
X98119047Y-112733333D01*
X98214285Y-112780952D01*
X98261904Y-112828571D01*
X98309523Y-112923809D01*
X98309523Y-113161904D01*
X98261904Y-113257142D01*
X98214285Y-113304761D01*
X98119047Y-113352380D01*
X97833333Y-113352380D01*
X97738095Y-113304761D01*
X97690476Y-113257142D01*
M02*
